<svg id="_28-Settings" data-name="28-Settings" xmlns="http://www.w3.org/2000/svg" width="50" height="50" viewBox="0 0 50 50">
  <path id="Path_2" data-name="Path 2" d="M21.8,25l1.6,1.6V33L17,39.4H7.4l7.984-7.984-6.4-6.4L1,33V23.4L7.4,17h6.4l1.6,1.6" transform="translate(0 9.6)" fill="none" stroke="#1f1f1f" stroke-linejoin="round" stroke-width="2"/>
  <path id="Path_3" data-name="Path 3" d="M25,21.8l1.6,1.6H33L39.4,17V7.4l-7.984,7.984-6.4-6.4L33,1H23.4L17,7.4v6.4l1.6,1.6" transform="translate(9.6 0)" fill="none" stroke="#ff8364" stroke-linejoin="round" stroke-width="2"/>
  <path id="Path_4" data-name="Path 4" d="M10,22.8,22.8,10,26,13.2l3.2,3.2L16.4,29.2Z" transform="translate(5.4 5.4)" fill="none" stroke="#1f1f1f" stroke-linejoin="round" stroke-width="2"/>
  <line id="Line_5" data-name="Line 5" x1="9.905" y2="9.905" transform="translate(21.571 18.524)" fill="none" stroke="#1f1f1f" stroke-linejoin="round" stroke-width="2"/>
</svg>
