<svg id="_34-chat" data-name="34-chat" xmlns="http://www.w3.org/2000/svg" width="50" height="50" viewBox="0 0 50 50">
  <path id="Path_5" data-name="Path 5" d="M7,18.4a14.4,14.4,0,1,1,28.8,0" transform="translate(3.6 1.8)" fill="none" stroke="#1f1f1f" stroke-linejoin="round" stroke-width="2"/>
  <path id="Path_6" data-name="Path 6" d="M4,20.2a19.2,19.2,0,1,1,38.4,0" transform="translate(1.8 0)" fill="none" stroke="#1f1f1f" stroke-linejoin="round" stroke-width="2"/>
  <path id="Path_7" data-name="Path 7" d="M5.8,13H1V29h9.6V13Z" transform="translate(0 7.2)" fill="none" stroke="#1f1f1f" stroke-linejoin="round" stroke-width="2"/>
  <path id="Path_8" data-name="Path 8" d="M25,13V29h9.6V13H25Z" transform="translate(14.4 7.2)" fill="none" stroke="#1f1f1f" stroke-linejoin="round" stroke-width="2"/>
  <path id="Path_9" data-name="Path 9" d="M4,23v9.6H20" transform="translate(1.8 13.2)" fill="none" stroke="#1f1f1f" stroke-linejoin="round" stroke-width="2"/>
  <path id="Path_10" data-name="Path 10" d="M20.4,33.4H14V27h6.4Z" transform="translate(7.8 15.6)" fill="none" stroke="#1f1f1f" stroke-linejoin="round" stroke-width="2"/>
  <path id="Path_11" data-name="Path 11" d="M10,11V27h9.6v4.8L24.4,27h4.8V11Z" transform="translate(5.4 6)" fill="none" stroke="#ff8364" stroke-linejoin="round" stroke-width="2"/>
  <line id="Line_6" data-name="Line 6" x2="12.952" transform="translate(18.524 21.571)" fill="none" stroke="#1f1f1f" stroke-linejoin="round" stroke-width="2"/>
  <line id="Line_7" data-name="Line 7" x2="12.952" transform="translate(18.524 28.429)" fill="none" stroke="#1f1f1f" stroke-linejoin="round" stroke-width="2"/>
</svg>
