<svg xmlns="http://www.w3.org/2000/svg" width="26" height="21.2" viewBox="0 0 26 21.2">
  <g id="_41-phone" data-name="41-phone" transform="translate(0 -3)">
    <path id="Path_21" data-name="Path 21" d="M13.2,7.2h7.2V9.6h4v-4L22.8,4H3.6L2,5.6v4H6V7.2Z" transform="translate(-0.2)" fill="none" stroke="#000" stroke-linejoin="round" stroke-width="2"/>
    <path id="Path_22" data-name="Path 22" d="M22.6,11v3.2l1.6,1.6L25,23a1.6,1.6,0,0,1-1.6,1.6H2.6A1.6,1.6,0,0,1,1,23l.8-7.2,1.6-1.6V11" transform="translate(0 -1.4)" fill="none" stroke="#000" stroke-linejoin="round" stroke-width="2"/>
    <circle id="Ellipse_5" data-name="Ellipse 5" cx="5.6" cy="5.6" r="5.6" transform="translate(7.4 9.6)" fill="none" stroke="#000" stroke-linejoin="round" stroke-width="2"/>
    <line id="Line_17" data-name="Line 17" x2="1.6" transform="translate(12.2 12)" fill="none" stroke="#000" stroke-linejoin="round" stroke-width="2"/>
    <line id="Line_18" data-name="Line 18" x2="1.6" transform="translate(12.2 18.4)" fill="none" stroke="#000" stroke-linejoin="round" stroke-width="2"/>
    <line id="Line_19" data-name="Line 19" x2="1.6" transform="translate(9 15.2)" fill="none" stroke="#000" stroke-linejoin="round" stroke-width="2"/>
    <line id="Line_20" data-name="Line 20" x2="1.6" transform="translate(15.4 15.2)" fill="none" stroke="#000" stroke-linejoin="round" stroke-width="2"/>
    <line id="Line_21" data-name="Line 21" x2="1.6" transform="translate(14.6 12.8)" fill="none" stroke="#000" stroke-linejoin="round" stroke-width="2"/>
    <line id="Line_22" data-name="Line 22" x2="1.6" transform="translate(9.8 12.8)" fill="none" stroke="#000" stroke-linejoin="round" stroke-width="2"/>
    <line id="Line_23" data-name="Line 23" x2="1.6" transform="translate(9.8 17.6)" fill="none" stroke="#000" stroke-linejoin="round" stroke-width="2"/>
    <line id="Line_24" data-name="Line 24" x2="1.6" transform="translate(14.6 17.6)" fill="none" stroke="#000" stroke-linejoin="round" stroke-width="2"/>
  </g>
</svg>
