<svg xmlns="http://www.w3.org/2000/svg" width="26" height="21.2" viewBox="0 0 26 21.2"><g data-name="41-phone" transform="translate(0 -3)" fill="none" stroke="#000" stroke-linejoin="round" stroke-width="2"><path data-name="Path 21" d="M13 7.2h7.2v2.4h4v-4L22.6 4H3.4L1.8 5.6v4h4V7.2z"/><path data-name="Path 22" d="M22.6 9.6v3.2l1.6 1.6.8 7.2a1.6 1.6 0 0 1-1.6 1.6H2.6A1.6 1.6 0 0 1 1 21.6l.8-7.2 1.6-1.6V9.6"/><circle data-name="Ellipse 5" cx="5.6" cy="5.6" r="5.6" transform="translate(7.4 9.6)"/><path data-name="Line 17" d="M12.2 12h1.6"/><path data-name="Line 18" d="M12.2 18.4h1.6"/><path data-name="Line 19" d="M9 15.2h1.6"/><path data-name="Line 20" d="M15.4 15.2H17"/><path data-name="Line 21" d="M14.6 12.8h1.6"/><path data-name="Line 22" d="M9.8 12.8h1.6"/><path data-name="Line 23" d="M9.8 17.6h1.6"/><path data-name="Line 24" d="M14.6 17.6h1.6"/></g></svg>