<svg width="71" height="11" viewBox="0 0 71 11" fill="none" xmlns="http://www.w3.org/2000/svg">
<path d="M5.08569 8.92078C3.19274 8.92078 1.82222 7.34055 1.82222 5.40839V5.37991C1.82222 3.44775 3.19274 1.89599 5.08569 1.89599C6.21609 1.89599 7.06361 2.3897 7.85467 3.12316L8.97139 1.83904C8.02463 0.935886 6.92274 0.301514 5.09995 0.301514C2.10511 0.301514 0 2.60097 0 5.40782V5.43572C0 8.2716 2.14732 10.5141 5.0298 10.5141C6.88054 10.5141 8.01037 9.83704 9.04211 8.76475L7.92596 7.63609C7.07844 8.42707 6.30107 8.92078 5.08569 8.92078Z" fill="white"/>
<path d="M18.8474 6.15557C18.8474 7.97555 17.9006 8.90604 16.3613 8.90604C14.8071 8.90604 13.8604 7.9186 13.8604 6.08439V0.470703H12.1226V6.15557C12.1226 9.01936 13.7611 10.4999 16.3328 10.4999C18.9187 10.4999 20.5858 9.01879 20.5858 6.07015V0.470703H18.848V6.15557H18.8474Z" fill="white"/>
<path d="M36.0139 10.3451H37.7517V6.3247H42.7393V4.74503H37.7517V2.05094H43.3747V0.470703H36.0139V10.3451Z" fill="white"/>
<path d="M48.433 6.14134H53.3927V4.58957H48.433V2.02247H54.028V0.470703H46.6958V10.3451H54.0993V8.79329H48.433V6.14134Z" fill="white"/>
<path d="M69.1887 0.469961L66.8435 7.74646L64.4287 0.442627H62.9686L60.5532 7.74646L58.2086 0.469961H56.3413L59.7668 10.354H61.2553L63.6707 3.30186L66.0855 10.354H67.5741L71.0001 0.469961H69.1887Z" fill="white"/>
<path d="M28.9714 7.93408L30.6596 10.356H32.7083L30.999 7.93408H28.9714Z" fill="white"/>
<path d="M32.3878 3.68016V3.65339C32.3878 1.74173 30.9363 0.480957 28.6395 0.480957H24.2793V10.3621H26.0125V6.91979H28.4428C30.6123 6.91979 32.3878 5.80821 32.3878 3.68016ZM30.6266 3.72116C30.6266 4.71087 29.8321 5.39251 28.5215 5.39251H26.0354L26.0125 2.06347H28.4986C29.795 2.06347 30.6266 2.58282 30.6266 3.69382V3.72116Z" fill="white"/>
</svg>
