<?xml version="1.0" encoding="UTF-8"?><!DOCTYPE svg PUBLIC "-//W3C//DTD SVG 1.1//EN" "http://www.w3.org/Graphics/SVG/1.1/DTD/svg11.dtd"><svg xmlns="http://www.w3.org/2000/svg"><defs>
        <clipPath id="a">
            <path fill="#fff" d="M0 0h39v46H0z"/>
        </clipPath>
    </defs><symbol id="vi_icon_close" viewBox="0 0 19 19">
    <path d="M0 .95L.95 0 19 18.05l-.95.95L0 .95z"/>
    <path d="M18.05 0l.95.95L.95 19 0 18.05 18.05 0z"/>
</symbol><symbol id="vi_icon_logo_pic" viewBox="0 0 39 46">
    <g clip-path="url(#a)">
        <path d="M30.677 34.33a13.785 13.785 0 0 1-7.202 2.018c-.112 0-.225-.005-.338-.009V10.92h-.005v-.936l7.314 7.094 8.556-8.406-7.322-7.099-8.548 8.399v-.026l-.002.001V0l-.384.012C16.63.195 10.908 2.667 6.638 6.973 2.357 11.288 0 16.98 0 22.998 0 35.682 10.531 46 23.475 46c5.138 0 10.019-1.597 14.111-4.62l.34-.25-6.995-6.956-.254.155zm1.007-31.727l6.262 6.073-7.503 7.372-6.263-6.073 7.504-7.372zM14.307 32.801l8.083-7.905v11.405a13.362 13.362 0 0 1-8.083-3.5zm.36-13.405l7.72-7.67v12.145l-7.525 7.358-.196-11.833zm8.107-9.4l.322-.016-9.18 9.121.223 13.541c-.07-.067-.143-.133-.213-.202a13.233 13.233 0 0 1-3.91-9.442c0-7.064 5.486-12.654 12.758-13.002zm.701 35.274c-12.533 0-22.73-9.99-22.73-22.272 0-5.827 2.283-11.34 6.427-15.518 4.045-4.078 9.435-6.459 15.21-6.726v8.534c-7.499.528-13.111 6.364-13.111 13.71a13.95 13.95 0 0 0 4.123 9.953c2.67 2.66 6.25 4.126 10.08 4.126 2.59 0 5.123-.683 7.34-1.977l5.981 5.945c-3.892 2.766-8.488 4.225-13.32 4.225z"/>
    </g>
    
</symbol><symbol id="vi_icon_logo_pic_hover_dark" viewBox="0 0 40 46">
    <path d="M23.46 36.934c-.06 0-.118-.004-.177-.005V23.913l.009-.009V9.4l-9.388 9.446v14.397a13.855 13.855 0 0 1-4.489-10.243c0-7.64 6.105-13.513 13.877-13.601V0C10.412.09 0 10.351 0 23c0 12.702 10.503 23 23.46 23 5.294 0 10.177-1.72 14.103-4.62l-6.59-6.554a14.354 14.354 0 0 1-7.513 2.108zm-.901-12.292v12.261a14.014 14.014 0 0 1-8.6-3.608l8.6-8.653z"/>
    <path d="M39 8.404l-7.392-7.18L23.293 9.4l7.392 7.179L39 8.404z"/>
    <path d="M24 10l-1-1-.5.5.5.5h1z"/>
    <path d="M30.677 34.33a13.785 13.785 0 0 1-7.202 2.018c-.112 0-.225-.005-.338-.009V10.92h-.005v-.936l7.314 7.094 8.556-8.406-7.322-7.099-8.548 8.399v-.026l-.002.001V0l-.384.012C16.63.195 10.908 2.667 6.638 6.973 2.357 11.288 0 16.98 0 22.998 0 35.682 10.531 46 23.475 46c5.138 0 10.019-1.597 14.111-4.62l.34-.25-6.995-6.956-.254.155zm1.007-31.727l6.262 6.073-7.503 7.372-6.263-6.073 7.504-7.372zM14.307 32.801l8.083-7.905v11.405a13.362 13.362 0 0 1-8.083-3.5zm.36-13.405l7.72-7.67v12.145l-7.525 7.358-.196-11.833zm8.107-9.4l.322-.016-9.18 9.121.223 13.541c-.07-.067-.143-.133-.213-.202a13.233 13.233 0 0 1-3.91-9.442c0-7.064 5.486-12.654 12.758-13.002zm.701 35.274c-12.533 0-22.73-9.99-22.73-22.272 0-5.827 2.283-11.34 6.427-15.518 4.045-4.078 9.435-6.459 15.21-6.726v8.534c-7.499.528-13.111 6.364-13.111 13.71a13.95 13.95 0 0 0 4.123 9.953c2.67 2.66 6.25 4.126 10.08 4.126 2.59 0 5.123-.683 7.34-1.977l5.981 5.945c-3.892 2.766-8.488 4.225-13.32 4.225z"/>
</symbol><symbol id="vi_icon_logo_pic_hover_light" viewBox="0 0 40 46">
    <path d="M23.46 36.934c-.06 0-.118-.004-.177-.005V23.913l.009-.009V9.4l-9.388 9.446v14.397a13.855 13.855 0 0 1-4.489-10.243c0-7.64 6.105-13.513 13.877-13.601V0C10.412.09 0 10.351 0 23c0 12.702 10.503 23 23.46 23 5.294 0 10.177-1.72 14.103-4.62l-6.59-6.554a14.354 14.354 0 0 1-7.513 2.108zm-.901-12.292v12.261a14.014 14.014 0 0 1-8.6-3.608l8.6-8.653z"/>
    <path d="M39 8.404l-7.392-7.18L23.293 9.4l7.392 7.179L39 8.404z"/>
    <path d="M24 10l-1-1-.5.5.5.5h1z"/>
    <path d="M30.677 34.33a13.785 13.785 0 0 1-7.202 2.018c-.112 0-.225-.005-.338-.009V10.92h-.005v-.936l7.314 7.094 8.556-8.406-7.322-7.099-8.548 8.399v-.026l-.002.001V0l-.384.012C16.63.195 10.908 2.667 6.638 6.973 2.357 11.288 0 16.98 0 22.998 0 35.682 10.531 46 23.475 46c5.138 0 10.019-1.597 14.111-4.62l.34-.25-6.995-6.956-.254.155zm1.007-31.727l6.262 6.073-7.503 7.372-6.263-6.073 7.504-7.372zM14.307 32.801l8.083-7.905v11.405a13.362 13.362 0 0 1-8.083-3.5zm.36-13.405l7.72-7.67v12.145l-7.525 7.358-.196-11.833zm8.107-9.4l.322-.016-9.18 9.121.223 13.541c-.07-.067-.143-.133-.213-.202a13.233 13.233 0 0 1-3.91-9.442c0-7.064 5.486-12.654 12.758-13.002zm.701 35.274c-12.533 0-22.73-9.99-22.73-22.272 0-5.827 2.283-11.34 6.427-15.518 4.045-4.078 9.435-6.459 15.21-6.726v8.534c-7.499.528-13.111 6.364-13.111 13.71a13.95 13.95 0 0 0 4.123 9.953c2.67 2.66 6.25 4.126 10.08 4.126 2.59 0 5.123-.683 7.34-1.977l5.981 5.945c-3.892 2.766-8.488 4.225-13.32 4.225z"/>
</symbol><symbol id="vi_icon_scdown_pic" viewBox="0 0 30 30">
    <path fill-rule="evenodd" clip-rule="evenodd" d="M15 29c7.732 0 14-6.268 14-14S22.732 1 15 1 1 7.268 1 15s6.268 14 14 14zm0 1c8.284 0 15-6.716 15-15 0-8.284-6.716-15-15-15C6.716 0 0 6.716 0 15c0 8.284 6.716 15 15 15z"/>
    <path d="M17.064 16.92l-2.544 3.024-2.532-3.024h2.028V8.568h.996v8.352h2.052z"/>
</symbol><symbol id="vi_icon_socials_icon_instagram" viewBox="0 0 16 16">
    <path d="M11 0H5a5 5 0 0 0-5 5v6a5 5 0 0 0 5 5h6a5 5 0 0 0 5-5V5a5 5 0 0 0-5-5zm3.5 11c0 1.93-1.57 3.5-3.5 3.5H5c-1.93 0-3.5-1.57-3.5-3.5V5c0-1.93 1.57-3.5 3.5-3.5h6c1.93 0 3.5 1.57 3.5 3.5v6z"/>
    <path d="M8 4a4 4 0 1 0 0 8 4 4 0 0 0 0-8zm0 6.5A2.503 2.503 0 0 1 5.5 8c0-1.38 1.122-2.5 2.5-2.5s2.5 1.12 2.5 2.5c0 1.378-1.122 2.5-2.5 2.5z"/>
    <path d="M12.3 4.233a.533.533 0 1 0 0-1.066.533.533 0 0 0 0 1.066z"/>
</symbol><symbol id="vi_icon_socials_icon_tumblr" viewBox="0 0 16 16">
    <path d="M12.143 15.063l-.768-2.284c-.299.143-.866.266-1.285.28h-.06c-1.216 0-1.454-.914-1.464-1.58v-4.98h3.2V4.075H8.577V0H6.242c-.038 0-.106.034-.114.12C5.996 1.367 5.41 3.556 3 4.431v2.066h1.604v5.228C4.604 13.496 5.89 16 9.272 16l-.007-.001h.118c1.166-.02 2.47-.512 2.76-.936z"/>
</symbol><symbol id="vi_icon_socials_icon_vimeo" viewBox="0 0 16 16">
    <path d="M9.18 5.767c1.823-1.096 2.805.45 1.87 2.197-.935 1.754-1.794 2.897-2.24 2.897-.436 0-.782-1.176-1.294-3.22-.525-2.115-.525-5.93-2.721-5.497C2.719 2.554 0 5.813 0 5.813l.646.853s1.34-1.06 1.786-.533c.452.533 2.163 6.924 2.729 8.106.494 1.035 1.865 2.401 3.363 1.427 1.512-.98 6.503-5.252 7.397-10.308.892-5.046-6.016-3.99-6.74.41z"/>
</symbol></svg>