<?xml version="1.0" encoding="utf-8"?>
<!-- Generator: Adobe Illustrator 23.0.0, SVG Export Plug-In . SVG Version: 6.00 Build 0)  -->
<svg version="1.1" id="Шар_1" xmlns="http://www.w3.org/2000/svg" xmlns:xlink="http://www.w3.org/1999/xlink" x="0px" y="0px"
	 viewBox="0 0 64 64" style="enable-background:new 0 0 64 64;" xml:space="preserve">
<g>
	<path style="fill:#1F191A;" d="M54,51.5H10c-0.79,0-1.55-0.12-2.26-0.35c-0.77-0.25-1.45-0.77-1.8-1.5
		c-0.59-1.21-0.34-2.58,0.56-3.49l2.45-2.45C8.98,43.69,9,43.65,9,43.61V27.5C9,13.48,19.41,8.19,22.48,6.93
		c0.03-0.01,0.06-0.04,0.07-0.07c2.68-5.21,8.85-6.29,9.12-6.34c0.22-0.04,0.44-0.04,0.66,0c0.27,0.04,6.44,1.13,9.12,6.34
		c0.02,0.03,0.04,0.06,0.07,0.07C44.59,8.19,55,13.49,55,27.5v16.11c0,0.04,0.02,0.08,0.05,0.11l2.34,2.34c0.6,0.6,1.01,1.4,1,2.25
		c-0.02,1.3-0.82,2.39-1.99,2.8C55.64,51.37,54.84,51.5,54,51.5z M54.66,48.99L54.66,48.99L54.66,48.99z M11.21,47.5h41.57
		c0.14,0,0.21-0.17,0.11-0.27l-0.97-0.97c-0.59-0.59-0.93-1.4-0.93-2.23V27.5c0-12.15-9.42-16.29-11.31-16.99
		c-0.74-0.28-1.34-0.84-1.67-1.57c-1.39-3-4.84-4.1-5.98-4.38c-0.03-0.01-0.05-0.01-0.07,0c-1.13,0.28-4.59,1.38-5.98,4.39
		c-0.34,0.74-0.93,1.29-1.67,1.57C22.42,11.21,13,15.35,13,27.5v16.52c0,0.84-0.33,1.64-0.93,2.23l-0.97,0.97
		C11,47.33,11.07,47.5,11.21,47.5z M41.64,7.26C41.64,7.26,41.64,7.26,41.64,7.26C41.64,7.26,41.64,7.26,41.64,7.26z"/>
</g>
<path style="fill:#00B6D0;" d="M39.21,53.98c-1.04-0.38-2.19,0.15-2.57,1.19c-0.02,0.04-1.69,4.33-5.14,4.33
	c-3.45,0-5.11-4.26-5.14-4.34c-0.38-1.03-1.53-1.56-2.56-1.18c-1.04,0.38-1.57,1.53-1.19,2.57c0.1,0.28,2.63,6.95,8.9,6.95
	s8.79-6.67,8.9-6.95C40.78,55.51,40.25,54.36,39.21,53.98z"/>
</svg>
