<?xml version="1.0" encoding="utf-8"?>
<!-- Generator: Adobe Illustrator 23.0.0, SVG Export Plug-In . SVG Version: 6.00 Build 0)  -->
<svg version="1.1" id="Шар_1" xmlns="http://www.w3.org/2000/svg" xmlns:xlink="http://www.w3.org/1999/xlink" x="0px" y="0px"
	 viewBox="0 0 64 64" style="enable-background:new 0 0 64 64;" xml:space="preserve">
<g>
	<path style="fill:#00B6D0;" d="M32,44.71c-7.01,0-12.71-5.7-12.71-12.71S24.99,19.29,32,19.29S44.71,24.99,44.71,32
		S39.01,44.71,32,44.71z M32,23.29c-4.8,0-8.71,3.91-8.71,8.71c0,4.8,3.91,8.71,8.71,8.71c4.8,0,8.71-3.91,8.71-8.71
		C40.71,27.2,36.8,23.29,32,23.29z"/>
</g>
<path style="fill:none;stroke:#1F191A;stroke-width:4;stroke-linecap:round;stroke-linejoin:round;stroke-miterlimit:10;" d="
	M58.33,19.31C53.61,9.53,43.59,2.78,32,2.78C15.86,2.78,2.78,15.86,2.78,32S15.86,61.22,32,61.22S61.22,48.14,61.22,32"/>
<polyline style="fill:none;stroke:#1F191A;stroke-width:4;stroke-linecap:round;stroke-linejoin:round;stroke-miterlimit:10;" points="
	58.38,6.34 58.38,19.29 46.23,19.29 "/>
</svg>
