<?xml version="1.0" encoding="utf-8"?>
<!-- Generator: Adobe Illustrator 23.0.0, SVG Export Plug-In . SVG Version: 6.00 Build 0)  -->
<svg version="1.1" id="Шар_1" xmlns="http://www.w3.org/2000/svg" xmlns:xlink="http://www.w3.org/1999/xlink" x="0px" y="0px"
	 viewBox="0 0 64 64" style="enable-background:new 0 0 64 64;" xml:space="preserve">
<path style="fill:#1F191A;" d="M53.88,32.89c-1.1,0-2,0.9-2,2v23.36H41.5V41.54c0-1.1-0.9-2-2-2H32h-7.5c-1.1,0-2,0.9-2,2v16.71
	H12.12V34.89c0-1.1-0.9-2-2-2s-2,0.9-2,2v25.36c0,1.1,0.9,2,2,2H24.5c1.1,0,2-0.9,2-2V43.54H32h5.5v16.71c0,1.1,0.9,2,2,2h14.38
	c1.1,0,2-0.9,2-2V34.89C55.88,33.79,54.98,32.89,53.88,32.89z"/>
<g>
	<path style="fill:#1F191A;" d="M61.45,35.5c-0.51,0-1.02-0.2-1.41-0.59L31.98,6.86L4.19,34.65c-0.78,0.78-2.05,0.78-2.83,0
		c-0.78-0.78-0.78-2.05,0-2.83l29.2-29.2c0.78-0.78,2.05-0.78,2.83,0l29.47,29.47c0.78,0.78,0.78,2.05,0,2.83
		C62.47,35.31,61.96,35.5,61.45,35.5z"/>
</g>
<g>
	<path style="fill:#00B6D0;" d="M52.3,17.02c-1.1,0-2-0.9-2-2V6.8h-8.26c-1.1,0-2-0.9-2-2s0.9-2,2-2H52.3c1.1,0,2,0.9,2,2v10.23
		C54.3,16.13,53.41,17.02,52.3,17.02z"/>
</g>
</svg>
