<?xml version="1.0" encoding="utf-8"?>
<!-- Generator: Adobe Illustrator 22.0.1, SVG Export Plug-In . SVG Version: 6.00 Build 0)  -->
<svg version="1.1" id="Шар_1" xmlns="http://www.w3.org/2000/svg" xmlns:xlink="http://www.w3.org/1999/xlink" x="0px" y="0px"
	 viewBox="0 0 360 320" style="enable-background:new 0 0 360 320;" xml:space="preserve">
<g id="bg">
	<path style="fill:none;stroke:#E6E6E6;stroke-width:2;stroke-linecap:round;stroke-linejoin:round;stroke-miterlimit:10;" d="
		M-177,330c-3-16-11-93-35-96s-43,61-43,61"/>
	<path style="opacity:0.2;fill:#2DC1C9;enable-background:new    ;" d="M612,320l20-1l24,14l-931,23V255l22-69c0,0,17-59,41-56
		s32,80,35,96s7,65,37,69s47-25,65-30s35-7,55,33c16,32,47.9,20.9,64,3c9-10,30-10,44-6s20,4,41-19s43.7-33.7,88,4
		C237,297,370,320,612,320z"/>
	<path style="fill:none;stroke:#2DC1C9;stroke-width:2;stroke-linecap:round;stroke-linejoin:round;stroke-miterlimit:10;" d="
		M-186.7,172.7c-27.7,23.7-61.7,0-61.7,0"/>
	<path style="fill:none;stroke:#E6E6E6;stroke-width:2;stroke-linecap:round;stroke-linejoin:round;stroke-miterlimit:10;" d="
		M41,304c-24,9-41-14-56-54s-26-45-37-46s-23,12-27,18s-15,25-25,25s-19-31-23-42s-16-43-28-43s-26.6,35.5-26.6,35.5"/>
	
		<line style="fill:none;stroke:#2DC1C9;stroke-linecap:round;stroke-linejoin:round;stroke-miterlimit:10;" x1="-203.9" y1="323" x2="-203.9" y2="134.2"/>
	
		<line style="fill:none;stroke:#2DC1C9;stroke-linecap:round;stroke-linejoin:round;stroke-miterlimit:10;" x1="-130" y1="322" x2="-130" y2="295.1"/>
	
		<line style="fill:none;stroke:#2DC1C9;stroke-linecap:round;stroke-linejoin:round;stroke-miterlimit:10;" x1="-57" y1="321" x2="-57" y2="262.5"/>
	
		<line style="fill:none;stroke:#2DC1C9;stroke-linecap:round;stroke-linejoin:round;stroke-miterlimit:10;" x1="90.7" y1="322" x2="90.7" y2="295.7"/>
	
		<line style="fill:none;stroke:#2DC1C9;stroke-linecap:round;stroke-linejoin:round;stroke-miterlimit:10;" x1="163.6" y1="321" x2="163.6" y2="256"/>
	
		<line style="fill:none;stroke:#2DC1C9;stroke-linecap:round;stroke-linejoin:round;stroke-miterlimit:10;" x1="237.1" y1="322" x2="237.1" y2="289.1"/>
	
		<line style="fill:none;stroke:#2DC1C9;stroke-linecap:round;stroke-linejoin:round;stroke-miterlimit:10;" x1="297.3" y1="321" x2="297.3" y2="301.6"/>
	<path style="fill:none;stroke:#2DC1C9;stroke-width:2;stroke-linecap:round;stroke-linejoin:round;stroke-miterlimit:10;" d="
		M205,323c-18-22-32,0-32,0"/>
	<path style="fill:none;stroke:#2DC1C9;stroke-width:2;stroke-linecap:round;stroke-linejoin:round;stroke-miterlimit:10;" d="
		M-275,255l22-69c0,0,17-59,41-56s32,80,35,96s7,65,37,69s47-25,65-30s35-7,55,33c16,32,47.9,20.9,64,3c9-10,30-10,44-6s20,4,41-19
		s43.7-33.7,88,4c20,17,153,40,395,40l20-1"/>
	<path style="fill:none;stroke:#2DC1C9;stroke-width:2;stroke-linecap:round;stroke-linejoin:round;stroke-miterlimit:10;" d="
		M-195.4,146.9c-19.4,14.9-40.5,0-40.5,0"/>
</g>
<g id="point">
	
		<circle style="fill:none;stroke:#2DC1C9;stroke-width:2;stroke-linecap:round;stroke-linejoin:round;stroke-miterlimit:10;" cx="-20" cy="298" r="6"/>
	<circle style="fill:none;stroke:#2DC1C9;stroke-width:2;stroke-miterlimit:10;" cx="-20" cy="298" r="2"/>
</g>
<circle style="fill:none;stroke:#E6E6E6;stroke-width:2;stroke-linecap:round;stroke-linejoin:round;stroke-miterlimit:10;" cx="17" cy="195" r="3"/>
<path id="cloud3" style="fill:none;stroke:#E6E6E6;stroke-width:2;stroke-linecap:round;stroke-linejoin:round;stroke-miterlimit:10;" d="
	M101,149.5c0-2,1.5-3.6,3.4-3.6c0.2,0,0.3,0,0.5,0.1c-0.3-0.7-0.5-1.6-0.5-2.4c0-3.3,2.5-5.9,5.6-5.9c1.3,0,2.6,0.5,3.5,1.4
	c-0.1-0.4-0.2-0.9-0.2-1.4c0-3.3,2.5-5.9,5.6-5.9c3,0,5.4,2.5,5.6,5.6c1.2-1.9,3.3-3.2,5.6-3.2c3.7,0,6.7,3.2,6.7,7.1
	c0,1.4-0.4,2.7-1,3.8c1.3,0.5,2.2,1.8,2.2,3.3c0,0.4-0.1,0.8-0.2,1.2H101V149.5z"/>
<path id="cloud1" style="fill:none;stroke:#2DC1C9;stroke-width:2;stroke-linecap:round;stroke-linejoin:round;stroke-miterlimit:10;" d="
	M29,270c0-1.1-0.9-1.9-1.9-1.9c-0.1,0-0.2,0-0.3,0c0.2-0.4,0.3-0.8,0.3-1.3c0-1.8-1.4-3.2-3.2-3.2c-0.8,0-1.5,0.3-2,0.7
	c0.1-0.2,0.1-0.5,0.1-0.7c0-1.8-1.4-3.2-3.2-3.2c-1.7,0-3.1,1.3-3.2,3c-0.7-1-1.9-1.7-3.2-1.7c-2.1,0-3.8,1.7-3.8,3.8
	c0,0.8,0.2,1.4,0.6,2c-0.7,0.3-1.2,1-1.2,1.8c0,0.2,0,0.4,0.1,0.6L29,270L29,270z"/>
<g id="trees2">
	<g>
		<path style="fill:none;stroke:#2DC1C9;stroke-width:2;stroke-linecap:round;stroke-linejoin:round;stroke-miterlimit:10;" d="
			M193.1,306.5c0-2.3-1.8-5.5-4.1-5.5s-4.1,3.2-4.1,5.5s1.8,4.1,4.1,4.1S193.1,308.7,193.1,306.5z"/>
		
			<line style="fill:none;stroke:#2DC1C9;stroke-width:2;stroke-linecap:round;stroke-linejoin:round;stroke-miterlimit:10;" x1="189" y1="310.6" x2="189" y2="313"/>
	</g>
	<g>
		<path style="fill:none;stroke:#2DC1C9;stroke-width:2;stroke-linecap:round;stroke-linejoin:round;stroke-miterlimit:10;" d="
			M200.4,311.3c0-1.4-1.1-3.3-2.4-3.3s-2.4,1.9-2.4,3.3c0,1.4,1.1,2.4,2.4,2.4S200.4,312.6,200.4,311.3z"/>
		
			<line style="fill:none;stroke:#2DC1C9;stroke-width:2;stroke-linecap:round;stroke-linejoin:round;stroke-miterlimit:10;" x1="198" y1="313.7" x2="198" y2="316"/>
	</g>
</g>
<g id="trees1">
	<g>
		<path style="fill:none;stroke:#2DC1C9;stroke-width:2;stroke-linecap:round;stroke-linejoin:round;stroke-miterlimit:10;" d="
			M329,293.6c0-3.3-2.7-8-6-8s-6,4.7-6,8s2.7,6,6,6S329,296.9,329,293.6z"/>
		
			<line style="fill:none;stroke:#2DC1C9;stroke-width:2;stroke-linecap:round;stroke-linejoin:round;stroke-miterlimit:10;" x1="323" y1="299.6" x2="323" y2="305"/>
	</g>
	<g>
		<path style="fill:none;stroke:#2DC1C9;stroke-width:2;stroke-linecap:round;stroke-linejoin:round;stroke-miterlimit:10;" d="
			M311.6,294.7c0-2-1.6-4.7-3.6-4.7s-3.6,2.8-3.6,4.7c0,1.9,1.6,3.6,3.6,3.6S311.6,296.7,311.6,294.7z"/>
		
			<line style="fill:none;stroke:#2DC1C9;stroke-width:2;stroke-linecap:round;stroke-linejoin:round;stroke-miterlimit:10;" x1="308" y1="298.3" x2="308" y2="302.8"/>
		
			<line style="fill:none;stroke:#2DC1C9;stroke-width:2;stroke-linecap:round;stroke-linejoin:round;stroke-miterlimit:10;" x1="308" y1="298.3" x2="308" y2="302.8"/>
	</g>
	<g>
		<path style="fill:none;stroke:#2DC1C9;stroke-width:2;stroke-linecap:round;stroke-linejoin:round;stroke-miterlimit:10;" d="
			M300,295.5c0-1.1-0.9-2.7-2-2.7s-2,1.6-2,2.7s0.9,2,2,2S300,296.6,300,295.5z"/>
		
			<line style="fill:none;stroke:#2DC1C9;stroke-width:2;stroke-linecap:round;stroke-linejoin:round;stroke-miterlimit:10;" x1="298" y1="297.5" x2="298" y2="301"/>
	</g>
</g>
<g id="windmill1">
	
		<polyline style="fill:none;stroke:#2DC1C9;stroke-width:2;stroke-linecap:round;stroke-linejoin:round;stroke-miterlimit:10;" points="
		93,296.3 92,236 88,236 87.1,294.7 	"/>
	<g id="rotate1">
		<circle style="fill:#FFFFFF;fill-opacity:0;" cx="90" cy="228" r="58"/>
		
			<circle style="fill:none;stroke:#2DC1C9;stroke-width:2;stroke-linecap:round;stroke-linejoin:round;stroke-miterlimit:10;" cx="90" cy="228" r="3"/>
		
			<polygon style="fill:#FFFFFF;stroke:#2DC1C9;stroke-width:2;stroke-linecap:round;stroke-linejoin:round;stroke-miterlimit:10;" points="
			90,221 90,171 83,209 		"/>
		<path style="fill:none;stroke:#2DC1C9;stroke-width:2;stroke-linecap:round;stroke-linejoin:round;stroke-miterlimit:10;" d="
			M83,182.5c-3.2,0.5-6.4,1.3-9.3,2.5"/>
		<path style="fill:none;stroke:#2DC1C9;stroke-width:2;stroke-linecap:round;stroke-linejoin:round;stroke-miterlimit:10;" d="
			M83,177.5c-4.3,0.6-8.3,1.7-12.2,3.3"/>
		
			<polygon style="fill:#FFFFFF;stroke:#2DC1C9;stroke-width:2;stroke-linecap:round;stroke-linejoin:round;stroke-miterlimit:10;" points="
			96,231.6 138.8,257.4 109.9,231.8 		"/>
		<path style="fill:none;stroke:#2DC1C9;stroke-width:2;stroke-linecap:round;stroke-linejoin:round;stroke-miterlimit:10;" d="
			M132.6,245.5c1.2-3,2.1-6.1,2.7-9.3"/>
		<path style="fill:none;stroke:#2DC1C9;stroke-width:2;stroke-linecap:round;stroke-linejoin:round;stroke-miterlimit:10;" d="
			M136.9,248.1c1.7-3.9,2.9-8,3.5-12.1"/>
		
			<polygon style="fill:#FFFFFF;stroke:#2DC1C9;stroke-width:2;stroke-linecap:round;stroke-linejoin:round;stroke-miterlimit:10;" points="
			84.1,231.7 41.6,258.1 77.6,244 		"/>
		<path style="fill:none;stroke:#2DC1C9;stroke-width:2;stroke-linecap:round;stroke-linejoin:round;stroke-miterlimit:10;" d="
			M55.1,258c2.1,2.5,4.5,4.7,7,6.6"/>
		<path style="fill:none;stroke:#2DC1C9;stroke-width:2;stroke-linecap:round;stroke-linejoin:round;stroke-miterlimit:10;" d="
			M50.8,260.6c2.7,3.3,5.9,6.2,9.2,8.6"/>
	</g>
</g>
<g id="windmill2">
	
		<polyline style="fill:none;stroke:#2DC1C9;stroke-width:2;stroke-linecap:round;stroke-linejoin:round;stroke-miterlimit:10;" points="
		183.4,258.5 182.2,184.3 177.4,184.3 176.3,256.4 	"/>
	<g id="rotate2">
		<circle style="fill:#FFFFFF;fill-opacity:0;" cx="180" cy="175" r="65"/>
		
			<circle style="fill:none;stroke:#2DC1C9;stroke-width:2;stroke-linecap:round;stroke-linejoin:round;stroke-miterlimit:10;" cx="179.9" cy="175.3" r="3.4"/>
		
			<polygon style="fill:#FFFFFF;stroke:#2DC1C9;stroke-width:2;stroke-linecap:round;stroke-linejoin:round;stroke-miterlimit:10;" points="
			179.9,167.4 179.9,110.7 171.9,153.8 		"/>
		<path style="fill:none;stroke:#2DC1C9;stroke-width:2;stroke-linecap:round;stroke-linejoin:round;stroke-miterlimit:10;" d="
			M171.9,123.8c-3.7,0.6-7.2,1.5-10.6,2.8"/>
		<path style="fill:none;stroke:#2DC1C9;stroke-width:2;stroke-linecap:round;stroke-linejoin:round;stroke-miterlimit:10;" d="
			M171.9,118c-4.8,0.7-9.5,1.9-13.8,3.7"/>
		
			<polygon style="fill:#FFFFFF;stroke:#2DC1C9;stroke-width:2;stroke-linecap:round;stroke-linejoin:round;stroke-miterlimit:10;" points="
			186.7,179.4 235.2,208.7 202.4,179.6 		"/>
		<path style="fill:none;stroke:#2DC1C9;stroke-width:2;stroke-linecap:round;stroke-linejoin:round;stroke-miterlimit:10;" d="
			M228.1,195.1c1.4-3.4,2.4-7,3.1-10.5"/>
		<path style="fill:none;stroke:#2DC1C9;stroke-width:2;stroke-linecap:round;stroke-linejoin:round;stroke-miterlimit:10;" d="
			M233,198.1c1.9-4.5,3.2-9.1,4-13.8"/>
		
			<polygon style="fill:#FFFFFF;stroke:#2DC1C9;stroke-width:2;stroke-linecap:round;stroke-linejoin:round;stroke-miterlimit:10;" points="
			173.1,179.5 125,209.5 165.8,193.4 		"/>
		<path style="fill:none;stroke:#2DC1C9;stroke-width:2;stroke-linecap:round;stroke-linejoin:round;stroke-miterlimit:10;" d="
			M140.3,209.3c2.4,2.8,5.1,5.3,8,7.5"/>
		<path style="fill:none;stroke:#2DC1C9;stroke-width:2;stroke-linecap:round;stroke-linejoin:round;stroke-miterlimit:10;" d="
			M135.4,212.3c3.1,3.7,6.6,7,10.5,9.8"/>
	</g>
</g>
<g id="windmill3">
	
		<polyline style="fill:none;stroke:#2DC1C9;stroke-width:2;stroke-linecap:round;stroke-linejoin:round;stroke-miterlimit:10;" points="
		267.2,296.5 266.6,260.4 264.1,260.4 263.6,295.7 	"/>
	<g id="rotate3">
		<circle style="fill:#FFFFFF;fill-opacity:0;" cx="265" cy="255" r="36"/>
		
			<circle style="fill:none;stroke:#2DC1C9;stroke-width:2;stroke-linecap:round;stroke-linejoin:round;stroke-miterlimit:10;" cx="265.4" cy="255.3" r="1.9"/>
		
			<polygon style="fill:#FFFFFF;stroke:#2DC1C9;stroke-width:2;stroke-linecap:round;stroke-linejoin:round;stroke-miterlimit:10;" points="
			260.6,258.7 235,274.2 257.6,265.4 		"/>
		<path style="fill:none;stroke:#2DC1C9;stroke-width:2;stroke-linecap:round;stroke-linejoin:round;stroke-miterlimit:10;" d="
			M244.9,275.6c1.4,1.5,3,2.7,4.7,3.8"/>
		<path style="fill:none;stroke:#2DC1C9;stroke-width:2;stroke-linecap:round;stroke-linejoin:round;stroke-miterlimit:10;" d="
			M241.7,276.9c1.8,2,3.8,3.7,6,5.2"/>
		
			<polygon style="fill:#FFFFFF;stroke:#2DC1C9;stroke-width:2;stroke-linecap:round;stroke-linejoin:round;stroke-miterlimit:10;" points="
			265,249.6 264.8,219.6 260.8,243.5 		"/>
		<path style="fill:none;stroke:#2DC1C9;stroke-width:2;stroke-linecap:round;stroke-linejoin:round;stroke-miterlimit:10;" d="
			M258.5,227.3c-2,0.5-3.9,1.2-5.7,2.1"/>
		<path style="fill:none;stroke:#2DC1C9;stroke-width:2;stroke-linecap:round;stroke-linejoin:round;stroke-miterlimit:10;" d="
			M259,224c-2.6,0.5-5.2,1.4-7.5,2.5"/>
		
			<polygon style="fill:#FFFFFF;stroke:#2DC1C9;stroke-width:2;stroke-linecap:round;stroke-linejoin:round;stroke-miterlimit:10;" points="
			270.6,257.8 296.8,272.4 277.9,257.2 		"/>
		<path style="fill:none;stroke:#2DC1C9;stroke-width:2;stroke-linecap:round;stroke-linejoin:round;stroke-miterlimit:10;" d="
			M293.2,263.2c0.6-2,0.9-4,1-6"/>
		<path style="fill:none;stroke:#2DC1C9;stroke-width:2;stroke-linecap:round;stroke-linejoin:round;stroke-miterlimit:10;" d="
			M295.8,265.3c0.8-2.6,1.3-5.2,1.5-7.8"/>
	</g>
</g>
</svg>
