<?xml version="1.0" encoding="utf-8"?>
<!-- Generator: Adobe Illustrator 23.0.0, SVG Export Plug-In . SVG Version: 6.00 Build 0)  -->
<svg version="1.1" id="Шар_1" xmlns="http://www.w3.org/2000/svg" xmlns:xlink="http://www.w3.org/1999/xlink" x="0px" y="0px"
	 viewBox="0 0 320 320" style="enable-background:new 0 0 320 320;" xml:space="preserve">
<style type="text/css">
	.st0{fill:#C54E49;}
	.st1{fill:#FFFFFF;}
	.st2{fill:#753D37;}
	.st3{fill:#659B97;}
	.st4{fill:none;stroke:#676768;stroke-width:6;stroke-miterlimit:10;}
	.st5{fill:#191A19;}
	.st6{fill:#626366;}
</style>
gΩz 
<circle id="logo-bg" class="st0" cx="160.5" cy="142.3" r="47.3"/>
<g id="line1">
	<polygon class="st1" points="109.8,195.8 125.5,195.8 154.9,112.7 139.1,112.7 	"/>
	<polygon class="st2" points="125.5,195.8 141.3,195.8 164.3,130.8 154.9,112.7 	"/>
</g>
<g id="line2">
	<polygon class="st1" points="128.7,213.9 144.5,213.9 173.9,130.8 158.1,130.8 	"/>
	<polygon class="st3" points="144.5,214 160.2,214 183.2,149 173.9,130.9 	"/>
</g>
<g id="line3">
	<polygon class="st1" points="148.5,232.1 164.3,232.1 193.7,149 177.9,149 	"/>
	<polygon class="st2" points="164.3,232.1 180,232.1 203,167.1 193.6,149 	"/>
</g>
<path class="st1" d="M88.7,70.4V320h143.7V70.4H88.7z M207,150.7c-0.9,5.1-2.6,9.9-5,14.2c-0.1,0.2-0.3,0.5-0.4,0.7
	c-0.2,0.3-0.4,0.6-0.6,0.9c-3.5,5.9-8.3,10.9-13.7,14.6c-0.1,0-0.1,0.1-0.2,0.1c-1.1,0.8-2.3,1.5-3.5,2.1c-0.3,0.2-0.6,0.3-0.9,0.5
	c-0.3,0.1-0.5,0.3-0.8,0.4c-0.1,0.1-0.2,0.1-0.3,0.2l0,0c-11.3,5.6-24.8,6.8-37.5,2.1c-1.6-0.6-3.1-1.2-4.6-2l0,0l0,0
	c-8.3-4.1-14.9-10.4-19.4-17.9l0,0c-0.1-0.2-0.3-0.4-0.4-0.7c0,0,0,0,0-0.1c-2.6-4.5-4.5-9.4-5.5-14.6c0-0.1-0.1-0.3-0.1-0.4
	c-0.1-0.5-0.2-1.1-0.3-1.6c0-0.2-0.1-0.5-0.1-0.7c-0.1-0.5-0.1-1-0.2-1.5c0-0.4-0.1-0.9-0.1-1.3c0-0.2,0-0.3,0-0.5
	c-0.2-3.7-0.1-7.5,0.6-11.3c0.7-4,1.9-7.7,3.5-11.3c0-0.1,0.1-0.1,0.1-0.2c0.9-1.9,1.8-3.7,2.9-5.4c0.2-0.3,0.3-0.5,0.5-0.8
	c0.4-0.6,0.8-1.2,1.2-1.8c0.3-0.4,0.5-0.7,0.8-1.1c0.4-0.5,0.8-1.1,1.3-1.6c0.3-0.3,0.6-0.7,0.9-1c0.4-0.4,0.7-0.8,1.1-1.2
	c0.3-0.3,0.5-0.6,0.8-0.8c0.6-0.6,1.3-1.2,1.9-1.8c0.2-0.2,0.5-0.4,0.7-0.6c0.6-0.5,1.1-1,1.7-1.4c0.2-0.1,0.3-0.3,0.5-0.4
	c5.8-4.4,12.7-7.6,20.2-8.9h0.1c1-0.2,2.1-0.3,3.1-0.5c0,0,0,0,0.1,0l0,0c1.7-0.2,3.4-0.3,5.2-0.3c13.5,0,25.7,5.7,34.3,14.8l0,0
	c0.1,0.1,0.2,0.2,0.3,0.3c0.3,0.3,0.6,0.6,0.8,0.9c0.2,0.2,0.4,0.5,0.6,0.7c0.3,0.4,0.6,0.8,0.9,1.1c0.1,0.2,0.3,0.4,0.4,0.5
	c0.4,0.5,0.7,1,1.1,1.4c0.1,0.1,0.1,0.2,0.2,0.3c0.4,0.6,0.8,1.2,1.2,1.8l0,0l0,0c3.1,4.9,5.4,10.4,6.5,16.3l0,0
	c0.1,0.6,0.2,1.1,0.3,1.7c0,0.1,0,0.1,0,0.2C208,140.3,208,145.5,207,150.7z"/>
<circle class="st4" cx="160.5" cy="142.3" r="49.8"/>
<g>
	<polygon id="letter1" class="st5" points="115.4,215.2 115.4,236.2 112.7,236.2 112.7,218.2 105.2,232.9 103.1,232.9 95.6,218.2 
		95.6,236.2 92.9,236.2 92.9,215.2 96.9,215.2 104.1,229.4 111.4,215.2 	"/>
	<polygon id="letter2" class="st5" points="134.6,218.8 128.1,229.1 128.1,236.3 125.7,236.3 125.7,229.1 119.1,218.8 119.1,218.3 
		121.6,218.3 126.9,226.7 132.1,218.3 134.6,218.3 	"/>
	<path id="letter3" class="st6" d="M138.8,232.2v-17.1h2.8v16.1c0.7,1.5,2.7,2.8,5.5,2.8s4.9-1.3,5.6-2.8v-16.1h2.8v17.1
		c-1,2.4-4.2,4.4-8.4,4.4C143,236.7,139.8,234.7,138.8,232.2"/>
	<path id="letter4" class="st6" d="M159.3,232.6l2.1-1.1c0.8,1.9,2.6,3,4.9,3c2,0,3.7-0.9,4.2-2.2v-1.7c-0.4-0.8-1.1-1.5-2.2-1.9
		c-1.7-0.6-2.9-0.4-4.9-1c-1.9-0.6-3.1-1.8-3.7-3.2v-2.9c0.9-2.1,3.4-3.7,6.5-3.7c3.2,0,5.8,1.6,6.8,4.1l-2.1,1
		c-0.8-1.8-2.5-2.9-4.6-2.9c-1.9,0-3.5,0.9-4.1,2.2v1.5c0.4,0.8,1.1,1.4,2.2,1.8c1.7,0.6,2.9,0.4,4.9,1c1.9,0.6,3.2,1.8,3.7,3.2v3.1
		c-0.9,2.1-3.5,3.7-6.7,3.7C163,236.7,160.2,234.9,159.3,232.6"/>
	<path id="letter5" class="st6" d="M192.5,235.7v0.6h-2.3l-1.8-4.5h-9l-1.8,4.5h-2.3v-0.6l7.1-17.5h3.1L192.5,235.7z M187.5,229.6
		l-3.7-9.2l-3.7,9.2H187.5z"/>
	<path id="letter6" class="st6" d="M211.8,226.7v4.9c-1.2,2.7-4.3,5.1-8.6,5.1c-4.2,0-7.8-2.5-8.8-5.8v-7.1c1-3.4,4.6-5.8,8.8-5.8
		c4,0,7.3,2.1,8.5,5.1l-2.3,1c-0.9-2.2-3.4-3.8-6.3-3.8c-3,0-5.7,1.9-6.4,4.3v5.7c0.7,2.5,3.4,4.3,6.4,4.3s5.4-1.8,6.2-3.6v-1.9h-7
		v-2.2h9.5V226.7z"/>
	<polygon id="letter7" class="st6" points="218.3,220.5 218.3,226.1 227.2,226.1 227.2,228.3 218.3,228.3 218.3,234.1 228.1,234.1 
		228.1,236.3 215.9,236.3 215.9,218.3 228.1,218.3 228.1,220.5 	"/>
</g>
</svg>
