<?xml version="1.0" encoding="utf-8"?>
<!-- Generator: Adobe Illustrator 23.0.0, SVG Export Plug-In . SVG Version: 6.00 Build 0)  -->
<svg version="1.1" id="Шар_1" xmlns="http://www.w3.org/2000/svg" xmlns:xlink="http://www.w3.org/1999/xlink" x="0px" y="0px"
	 viewBox="0 0 64 64" style="enable-background:new 0 0 64 64;" xml:space="preserve">
<style type="text/css">
	.st0{fill:#1F191A;}
</style>
<path class="st0" d="M56.6,21.8H7.4c-1.1,0-2-0.9-2-2s0.9-2,2-2h49.3c1.1,0,2,0.9,2,2S57.7,21.8,56.6,21.8z"/>
<path class="st0" d="M56.6,34H7.4c-1.1,0-2-0.9-2-2s0.9-2,2-2h49.3c1.1,0,2,0.9,2,2S57.7,34,56.6,34z"/>
<path class="st0" d="M56.6,46.2H7.4c-1.1,0-2-0.9-2-2s0.9-2,2-2h49.3c1.1,0,2,0.9,2,2S57.7,46.2,56.6,46.2z"/>
</svg>
