<?xml version="1.0" encoding="utf-8"?>
<!-- Generator: Adobe Illustrator 23.0.0, SVG Export Plug-In . SVG Version: 6.00 Build 0)  -->
<svg version="1.1" id="Шар_1" xmlns="http://www.w3.org/2000/svg" xmlns:xlink="http://www.w3.org/1999/xlink" x="0px" y="0px"
	 viewBox="0 0 64 64" style="enable-background:new 0 0 64 64;" xml:space="preserve">
<g>
	<path style="fill:#FFFFFF;" d="M23.95,3.44L12.7,28.64C12,30.22,13.15,32,14.88,32h13.11c1.66,0,2.81,1.65,2.24,3.2l-9.72,26.71
		l31.88-36.19c1.36-1.54,0.26-3.97-1.79-3.97H37.52c-1.8,0-2.95-1.92-2.11-3.51l6.76-12.71c0.85-1.59-0.31-3.51-2.11-3.51H26.13
		C25.19,2.03,24.34,2.58,23.95,3.44z"/>
	<path style="fill:#1F191A;" d="M20.51,63.91c-0.35,0-0.7-0.09-1.02-0.28c-0.83-0.49-1.19-1.5-0.86-2.4l9.72-26.71
		c0.06-0.16,0.01-0.28-0.05-0.35C28.26,34.09,28.16,34,27.99,34H14.88c-1.49,0-2.87-0.75-3.68-2c-0.81-1.25-0.93-2.81-0.33-4.18
		l11.25-25.2l0,0c0.71-1.58,2.28-2.6,4.01-2.6h13.93c1.55,0,2.96,0.8,3.76,2.13c0.8,1.33,0.84,2.95,0.11,4.32l-6.76,12.71
		c-0.07,0.13-0.06,0.26,0.01,0.38c0.08,0.12,0.19,0.19,0.33,0.19H50.6c1.75,0,3.28,0.99,4,2.58c0.72,1.59,0.45,3.4-0.71,4.71
		L22.01,63.24C21.62,63.68,21.07,63.91,20.51,63.91z M25.78,4.26l-11.25,25.2c-0.07,0.16-0.02,0.29,0.03,0.37S14.71,30,14.88,30
		h13.11c1.43,0,2.77,0.7,3.59,1.87c0.82,1.17,1.02,2.67,0.53,4.02l-6.1,16.75L50.89,24.4c0.04-0.05,0.17-0.19,0.06-0.42
		c-0.1-0.23-0.29-0.23-0.35-0.23H37.52c-1.55,0-2.96-0.8-3.76-2.13c-0.8-1.33-0.84-2.95-0.11-4.32L40.41,4.6
		c0.07-0.13,0.06-0.26-0.01-0.38c-0.07-0.12-0.19-0.19-0.33-0.19H26.13C25.98,4.03,25.84,4.12,25.78,4.26L25.78,4.26z"/>
</g>
<g>
	<path style="fill:#00B6D0;" d="M56.92,42.13c-0.33,0-0.66-0.08-0.96-0.25L5.33,14.03c-0.97-0.53-1.32-1.75-0.79-2.72
		c0.53-0.97,1.75-1.32,2.72-0.79l50.63,27.85c0.97,0.53,1.32,1.75,0.79,2.72C58.31,41.76,57.63,42.13,56.92,42.13z"/>
</g>
</svg>
