<?xml version="1.0" encoding="utf-8"?>
<!-- Generator: Adobe Illustrator 23.0.0, SVG Export Plug-In . SVG Version: 6.00 Build 0)  -->
<svg version="1.1" id="Шар_1" xmlns="http://www.w3.org/2000/svg" xmlns:xlink="http://www.w3.org/1999/xlink" x="0px" y="0px"
	 viewBox="0 0 64 64" style="enable-background:new 0 0 64 64;" xml:space="preserve">
<style type="text/css">
	.st0{fill:#1F191A;}
	.st1{fill:#00B6D0;}
</style>
<g>
	<path class="st0" d="M62.1,55.7H8.8c-1.1,0-2-0.9-2-2V17.8c0-1.1,0.9-2,2-2h53.3c1.1,0,2,0.9,2,2v35.8
		C64.1,54.8,63.2,55.7,62.1,55.7z M10.8,51.7h49.3V19.8H10.8V51.7z"/>
</g>
<g>
	<path class="st0" d="M2.1,48c-1.1,0-2-0.9-2-2V10.1c0-1.1,0.9-2,2-2h53.3c1.1,0,2,0.9,2,2s-0.9,2-2,2H4.1V46
		C4.1,47.1,3.2,48,2.1,48z"/>
</g>
<path class="st1" d="M39.7,34.1c1.1,0,2-0.9,2-2v-0.4c0-2.6-1.8-4.8-4.3-5.4v-0.7c0-1.1-0.9-2-2-2s-2,0.9-2,2v0.7
	c-2.5,0.5-4.3,2.8-4.3,5.4c0,2.3,1.4,4.3,3.5,5.2l2.3,0.9c0,0,0,0,0.1,0l1.8,0.7c0.6,0.2,1,0.8,1,1.4c0,0.8-0.7,1.5-1.5,1.5h-1.6
	c-0.8,0-1.5-0.7-1.5-1.5v-0.4c0-1.1-0.9-2-2-2s-2,0.9-2,2v0.4c0,2.6,1.9,4.8,4.3,5.4V46c0,1.1,0.9,2,2,2s2-0.9,2-2v-0.7
	c2.5-0.5,4.3-2.8,4.3-5.4c0-2.3-1.4-4.3-3.5-5.2l-2.3-0.9c0,0,0,0-0.1,0L34,33.1c-0.6-0.2-1-0.8-1-1.4c0-0.9,0.7-1.5,1.5-1.5h1.6
	c0.8,0,1.5,0.7,1.5,1.5v0.4C37.7,33.2,38.6,34.1,39.7,34.1z"/>
</svg>
