<?xml version="1.0" encoding="utf-8"?>
<!-- Generator: Adobe Illustrator 23.0.0, SVG Export Plug-In . SVG Version: 6.00 Build 0)  -->
<svg version="1.1" id="Шар_1" xmlns="http://www.w3.org/2000/svg" xmlns:xlink="http://www.w3.org/1999/xlink" x="0px" y="0px"
	 viewBox="0 0 64 64" style="enable-background:new 0 0 64 64;" xml:space="preserve">
<circle style="fill:none;stroke:#00B6D0;stroke-width:4;stroke-linecap:round;stroke-linejoin:round;stroke-miterlimit:10;" cx="32" cy="32" r="12.12"/>
<path style="fill:none;stroke:#00B6D0;stroke-width:4;stroke-linecap:round;stroke-linejoin:round;stroke-miterlimit:10;" d="
	M61.84,32c0-1.67-0.14-3.31-0.4-4.91l-6.71-0.68l0,0c-0.01-0.03-0.02-0.06-0.03-0.09c-0.02-0.08-0.04-0.16-0.06-0.25
	c-0.01-0.05-0.03-0.1-0.04-0.16c-0.02-0.07-0.04-0.15-0.06-0.22c-0.02-0.08-0.05-0.17-0.07-0.25c0,0,0,0,0,0
	c-0.02-0.05-0.03-0.11-0.05-0.16c-0.01-0.04-0.02-0.07-0.03-0.11c-0.05-0.16-0.1-0.33-0.16-0.49c-0.04-0.11-0.07-0.21-0.11-0.32
	c-0.01-0.02-0.01-0.03-0.02-0.05c-0.03-0.08-0.05-0.15-0.08-0.23c-0.03-0.1-0.07-0.19-0.11-0.29c-0.03-0.07-0.05-0.14-0.08-0.21
	c-0.01-0.02-0.02-0.04-0.02-0.06c-0.03-0.09-0.06-0.17-0.1-0.26c-0.02-0.06-0.05-0.11-0.07-0.17c-0.05-0.11-0.09-0.22-0.14-0.33
	c-0.03-0.07-0.06-0.14-0.09-0.21c-0.01-0.02-0.02-0.04-0.02-0.05c-0.05-0.1-0.09-0.2-0.14-0.3c-0.02-0.04-0.04-0.09-0.06-0.14
	c-0.03-0.06-0.05-0.12-0.08-0.18c-0.03-0.07-0.07-0.13-0.1-0.2c-0.05-0.1-0.1-0.2-0.15-0.29c-0.02-0.04-0.04-0.09-0.07-0.13
	c-0.04-0.08-0.08-0.16-0.12-0.24c-0.02-0.04-0.04-0.07-0.06-0.11c-0.04-0.07-0.08-0.14-0.12-0.22c-0.04-0.07-0.08-0.14-0.12-0.22
	c-0.01-0.02-0.03-0.05-0.04-0.07c-0.07-0.12-0.13-0.23-0.2-0.35c-0.02-0.03-0.03-0.05-0.05-0.08c-0.02-0.04-0.04-0.08-0.06-0.11l0,0
	c0,0,4.27-5.23,4.27-5.23c-0.94-1.32-2.01-2.57-3.19-3.76c-1.18-1.18-2.44-2.25-3.76-3.19l-5.23,4.27l0,0
	c-0.04-0.02-0.08-0.04-0.11-0.06c-0.03-0.02-0.05-0.03-0.08-0.05c-0.11-0.07-0.23-0.13-0.35-0.2c-0.02-0.01-0.05-0.03-0.07-0.04
	c-0.07-0.04-0.14-0.08-0.22-0.12c-0.07-0.04-0.14-0.08-0.22-0.12c-0.04-0.02-0.07-0.04-0.11-0.06c-0.08-0.04-0.16-0.08-0.25-0.12
	c-0.04-0.02-0.09-0.04-0.13-0.07c-0.1-0.05-0.2-0.1-0.29-0.15c-0.07-0.03-0.13-0.07-0.2-0.1c-0.06-0.03-0.12-0.05-0.18-0.08
	c-0.04-0.02-0.09-0.04-0.13-0.06c-0.1-0.05-0.2-0.09-0.3-0.14c-0.02-0.01-0.04-0.02-0.05-0.02c-0.07-0.03-0.14-0.06-0.21-0.09
	c-0.11-0.05-0.22-0.09-0.33-0.14c-0.06-0.02-0.12-0.05-0.17-0.07c-0.08-0.03-0.17-0.07-0.25-0.1c-0.02-0.01-0.04-0.02-0.06-0.02
	c-0.07-0.03-0.14-0.06-0.21-0.08c-0.1-0.04-0.19-0.07-0.29-0.11c-0.08-0.03-0.15-0.05-0.23-0.08c-0.01-0.01-0.03-0.01-0.04-0.02
	c-0.11-0.04-0.21-0.07-0.32-0.11c-0.16-0.05-0.32-0.11-0.49-0.16c-0.04-0.01-0.07-0.02-0.11-0.03c-0.05-0.02-0.11-0.03-0.16-0.05
	c0,0,0,0,0,0c-0.08-0.02-0.17-0.05-0.25-0.07c-0.07-0.02-0.15-0.04-0.22-0.06c-0.05-0.01-0.1-0.03-0.16-0.04
	c-0.08-0.02-0.16-0.04-0.25-0.06c-0.03-0.01-0.06-0.02-0.09-0.03l0,0c0,0-0.68-6.71-0.68-6.71c-1.6-0.26-3.24-0.4-4.91-0.4
	c-1.67,0-3.31,0.14-4.91,0.4l-0.68,6.71l0,0c-0.03,0.01-0.06,0.02-0.09,0.03c-0.08,0.02-0.16,0.04-0.25,0.06
	c-0.05,0.01-0.1,0.03-0.16,0.04c-0.07,0.02-0.15,0.04-0.22,0.06c-0.08,0.02-0.17,0.05-0.25,0.07c0,0,0,0,0,0
	c-0.05,0.02-0.11,0.03-0.16,0.05c-0.04,0.01-0.07,0.02-0.11,0.03c-0.16,0.05-0.33,0.1-0.49,0.16c-0.11,0.04-0.21,0.07-0.32,0.11
	c-0.01,0.01-0.03,0.01-0.04,0.02c-0.08,0.03-0.15,0.05-0.23,0.08c-0.1,0.03-0.19,0.07-0.29,0.11c-0.07,0.03-0.14,0.05-0.21,0.08
	c-0.02,0.01-0.04,0.02-0.06,0.02c-0.08,0.03-0.17,0.06-0.25,0.1c-0.06,0.02-0.12,0.05-0.17,0.07c-0.11,0.05-0.22,0.09-0.33,0.14
	c-0.07,0.03-0.14,0.06-0.21,0.09c-0.02,0.01-0.03,0.02-0.05,0.02c-0.1,0.05-0.2,0.09-0.3,0.14c-0.04,0.02-0.09,0.04-0.13,0.06
	c-0.06,0.03-0.12,0.05-0.18,0.08c-0.07,0.03-0.13,0.07-0.2,0.1c-0.1,0.05-0.2,0.1-0.29,0.15c-0.04,0.02-0.09,0.04-0.13,0.07
	c-0.08,0.04-0.16,0.08-0.24,0.12c-0.04,0.02-0.07,0.04-0.11,0.06c-0.07,0.04-0.14,0.08-0.22,0.12c-0.07,0.04-0.15,0.08-0.22,0.13
	c-0.02,0.01-0.05,0.03-0.07,0.04c-0.12,0.07-0.23,0.13-0.35,0.2c-0.03,0.02-0.05,0.03-0.08,0.05c-0.04,0.02-0.08,0.04-0.11,0.06l0,0
	c0,0-5.23-4.27-5.23-4.27c-1.32,0.94-2.57,2.01-3.76,3.19c-1.18,1.18-2.25,2.44-3.19,3.76l4.27,5.23l0,0
	c-0.02,0.04-0.04,0.08-0.06,0.11c-0.02,0.03-0.03,0.05-0.05,0.08c-0.07,0.11-0.13,0.23-0.2,0.35c-0.01,0.02-0.03,0.05-0.04,0.07
	c-0.04,0.07-0.08,0.14-0.12,0.22c-0.04,0.07-0.08,0.14-0.12,0.22c-0.02,0.04-0.04,0.07-0.06,0.11c-0.04,0.08-0.08,0.16-0.12,0.24
	c-0.02,0.04-0.05,0.09-0.07,0.13c-0.05,0.1-0.1,0.2-0.15,0.29c-0.03,0.07-0.07,0.13-0.1,0.2c-0.03,0.06-0.05,0.12-0.08,0.18
	c-0.02,0.04-0.04,0.09-0.06,0.14c-0.05,0.1-0.09,0.2-0.14,0.3c-0.01,0.02-0.02,0.04-0.02,0.05c-0.03,0.07-0.06,0.14-0.09,0.21
	c-0.05,0.11-0.09,0.22-0.14,0.33c-0.02,0.06-0.05,0.11-0.07,0.17c-0.03,0.08-0.07,0.17-0.1,0.25c-0.01,0.02-0.02,0.04-0.02,0.06
	c-0.03,0.07-0.06,0.14-0.08,0.21c-0.04,0.1-0.07,0.19-0.11,0.29c-0.03,0.08-0.05,0.15-0.08,0.23c-0.01,0.01-0.01,0.03-0.02,0.04
	c-0.04,0.11-0.07,0.21-0.11,0.32c-0.05,0.16-0.11,0.32-0.16,0.49c-0.01,0.04-0.02,0.07-0.03,0.11c-0.02,0.05-0.03,0.11-0.05,0.16
	c0,0,0,0,0,0c-0.02,0.08-0.05,0.17-0.07,0.25c-0.02,0.07-0.04,0.15-0.06,0.22c-0.01,0.05-0.03,0.1-0.04,0.16
	c-0.02,0.08-0.04,0.16-0.06,0.25c-0.01,0.03-0.02,0.06-0.03,0.09l0,0c0,0-6.71,0.68-6.71,0.68c-0.26,1.6-0.4,3.24-0.4,4.91
	c0,1.67,0.14,3.31,0.4,4.91l6.71,0.68l0,0c0.01,0.03,0.02,0.06,0.03,0.09c0.02,0.08,0.04,0.16,0.06,0.25
	c0.01,0.05,0.03,0.1,0.04,0.16c0.02,0.07,0.04,0.15,0.06,0.22c0.02,0.08,0.05,0.17,0.07,0.25c0,0,0,0,0,0
	c0.02,0.05,0.03,0.11,0.05,0.16c0.01,0.04,0.02,0.07,0.03,0.11c0.05,0.16,0.1,0.33,0.16,0.49c0.03,0.11,0.07,0.21,0.11,0.32
	c0.01,0.02,0.01,0.03,0.02,0.05c0.03,0.08,0.05,0.15,0.08,0.23c0.03,0.1,0.07,0.19,0.11,0.29c0.03,0.07,0.05,0.14,0.08,0.21
	c0.01,0.02,0.02,0.04,0.02,0.06c0.03,0.08,0.06,0.17,0.1,0.25c0.02,0.06,0.05,0.11,0.07,0.17c0.05,0.11,0.09,0.22,0.14,0.33
	c0.03,0.07,0.06,0.14,0.09,0.21c0.01,0.02,0.02,0.04,0.02,0.05c0.05,0.1,0.09,0.2,0.14,0.3c0.02,0.04,0.04,0.09,0.06,0.13
	c0.03,0.06,0.05,0.12,0.08,0.18c0.03,0.07,0.07,0.13,0.1,0.2c0.05,0.1,0.1,0.2,0.15,0.29c0.02,0.04,0.04,0.09,0.07,0.13
	c0.04,0.08,0.08,0.16,0.12,0.24c0.02,0.04,0.04,0.07,0.06,0.11c0.04,0.07,0.08,0.14,0.12,0.22c0.04,0.07,0.08,0.14,0.12,0.22
	c0.01,0.02,0.03,0.05,0.04,0.07c0.07,0.12,0.13,0.23,0.2,0.35c0.02,0.03,0.03,0.06,0.05,0.08c0.02,0.04,0.04,0.07,0.06,0.11l0,0
	c0,0-4.27,5.23-4.27,5.23c0.94,1.32,2.01,2.57,3.19,3.76c1.18,1.18,2.44,2.25,3.76,3.19l5.23-4.27l0,0
	c0.04,0.02,0.07,0.04,0.11,0.06c0.03,0.02,0.06,0.03,0.08,0.05c0.11,0.07,0.23,0.13,0.34,0.2c0.02,0.01,0.05,0.03,0.07,0.04
	c0.07,0.04,0.14,0.08,0.22,0.12c0.07,0.04,0.14,0.08,0.22,0.12c0.04,0.02,0.07,0.04,0.11,0.06c0.08,0.04,0.16,0.08,0.24,0.12
	c0.04,0.02,0.09,0.05,0.13,0.07c0.1,0.05,0.19,0.1,0.29,0.15c0.07,0.03,0.13,0.07,0.2,0.1c0.06,0.03,0.12,0.05,0.17,0.08
	c0.05,0.02,0.09,0.04,0.14,0.06c0.1,0.05,0.2,0.09,0.3,0.14c0.02,0.01,0.04,0.02,0.05,0.02c0.07,0.03,0.13,0.06,0.2,0.09
	c0.11,0.05,0.22,0.09,0.33,0.14c0.06,0.02,0.11,0.05,0.17,0.07c0.08,0.03,0.17,0.06,0.25,0.1c0.02,0.01,0.04,0.02,0.06,0.03
	c0.07,0.03,0.14,0.05,0.2,0.08c0.1,0.04,0.19,0.07,0.29,0.11c0.08,0.03,0.15,0.05,0.23,0.08c0.02,0.01,0.03,0.01,0.05,0.02
	c0.11,0.04,0.21,0.07,0.32,0.11c0.16,0.05,0.33,0.11,0.49,0.16c0.04,0.01,0.07,0.02,0.11,0.03c0.05,0.02,0.11,0.03,0.16,0.05
	c0,0,0,0,0.01,0c0.08,0.02,0.17,0.05,0.25,0.07c0.07,0.02,0.15,0.04,0.22,0.06c0.05,0.01,0.1,0.03,0.16,0.04
	c0.08,0.02,0.16,0.04,0.25,0.06c0.03,0.01,0.06,0.02,0.09,0.03l0,0c0,0,0.68,6.71,0.68,6.71c1.6,0.26,3.24,0.4,4.91,0.4
	c1.67,0,3.31-0.14,4.91-0.4l0.68-6.71l0,0c0.03-0.01,0.06-0.02,0.09-0.03c0.08-0.02,0.16-0.04,0.25-0.06
	c0.05-0.01,0.1-0.03,0.16-0.04c0.07-0.02,0.15-0.04,0.22-0.06c0.08-0.02,0.17-0.05,0.25-0.07c0,0,0,0,0.01,0
	c0.05-0.02,0.11-0.03,0.16-0.05c0.04-0.01,0.07-0.02,0.11-0.03c0.16-0.05,0.33-0.1,0.49-0.16c0.11-0.04,0.21-0.07,0.32-0.11
	c0.02-0.01,0.03-0.01,0.05-0.02c0.08-0.03,0.15-0.05,0.23-0.08c0.1-0.03,0.19-0.07,0.29-0.11c0.07-0.03,0.14-0.05,0.2-0.08
	c0.02-0.01,0.04-0.02,0.06-0.03c0.08-0.03,0.17-0.06,0.25-0.1c0.06-0.02,0.11-0.05,0.17-0.07c0.11-0.05,0.22-0.09,0.33-0.14
	c0.07-0.03,0.14-0.06,0.2-0.09c0.02-0.01,0.04-0.02,0.05-0.02c0.1-0.05,0.2-0.09,0.3-0.14c0.05-0.02,0.09-0.04,0.14-0.06
	c0.06-0.03,0.12-0.05,0.17-0.08c0.07-0.03,0.13-0.07,0.2-0.1c0.1-0.05,0.19-0.1,0.29-0.15c0.04-0.02,0.09-0.05,0.13-0.07
	c0.08-0.04,0.16-0.08,0.24-0.12c0.04-0.02,0.07-0.04,0.11-0.06c0.07-0.04,0.14-0.08,0.22-0.12c0.07-0.04,0.15-0.08,0.22-0.13
	c0.02-0.01,0.05-0.03,0.07-0.04c0.11-0.07,0.23-0.13,0.34-0.2c0.03-0.02,0.06-0.03,0.08-0.05c0.04-0.02,0.07-0.04,0.11-0.06l0,0
	c0,0,5.23,4.27,5.23,4.27c1.32-0.94,2.57-2.01,3.76-3.19c1.18-1.18,2.25-2.44,3.19-3.76l-4.27-5.23l0,0
	c0.02-0.04,0.04-0.08,0.06-0.11c0.02-0.03,0.03-0.05,0.05-0.08c0.07-0.11,0.13-0.23,0.2-0.35c0.01-0.02,0.03-0.05,0.04-0.07
	c0.04-0.07,0.08-0.14,0.12-0.22c0.04-0.07,0.08-0.14,0.12-0.22c0.02-0.04,0.04-0.07,0.06-0.11c0.04-0.08,0.08-0.16,0.12-0.24
	c0.02-0.04,0.05-0.09,0.07-0.13c0.05-0.1,0.1-0.2,0.15-0.29c0.03-0.07,0.07-0.13,0.1-0.2c0.03-0.06,0.05-0.12,0.08-0.17
	c0.02-0.04,0.04-0.09,0.06-0.14c0.05-0.1,0.09-0.2,0.14-0.3c0.01-0.02,0.02-0.04,0.02-0.05c0.03-0.07,0.06-0.14,0.09-0.21
	c0.05-0.11,0.09-0.22,0.14-0.33c0.02-0.06,0.05-0.11,0.07-0.17c0.03-0.08,0.07-0.17,0.1-0.25c0.01-0.02,0.02-0.04,0.02-0.06
	c0.03-0.07,0.06-0.14,0.08-0.21c0.04-0.1,0.07-0.19,0.11-0.29c0.03-0.08,0.05-0.15,0.08-0.23c0.01-0.01,0.01-0.03,0.02-0.04
	c0.04-0.11,0.07-0.21,0.11-0.32c0.05-0.16,0.11-0.32,0.16-0.49c0.01-0.04,0.02-0.07,0.03-0.11c0.02-0.05,0.03-0.11,0.05-0.16
	c0,0,0,0,0,0c0.02-0.08,0.05-0.17,0.07-0.25c0.02-0.07,0.04-0.15,0.06-0.22c0.01-0.05,0.03-0.1,0.04-0.16
	c0.02-0.08,0.04-0.16,0.06-0.25c0.01-0.03,0.02-0.06,0.03-0.09l0,0c0,0,6.71-0.68,6.71-0.68C61.7,35.31,61.84,33.67,61.84,32z"/>
</svg>
