<svg xmlns="http://www.w3.org/2000/svg" viewBox="0 0 400 500"><style>.st0{fill:#f8f8f8}.st1{fill:#d8676a}.st2{fill:#ce5555}.st3{fill:#e8e8e8}.st4{fill:#f3f3f2}.st5{opacity:.65}.st6{fill:#ecb056}.st6,.st7{opacity:.65}.st7,.st8{fill:#fff}.st9{fill:#2e3a46}</style><g id="Шар_2"><path class="st0" d="M0 0h400v500H0z"/><g id="iPad"><path class="st1" d="M315 393.4V72.3l.9-.5V58l-.9.5v-3.1l.9-.5V41l-.9.5V29.9c0-8.2-5.8-11.5-12.9-7.4l-2 1.2v-.9l-14.6 8.4v.9L66.7 158.4c-7.1 4.1-12.9 14.1-12.9 22.3v363.5c0 8.2 5.8 11.5 12.9 7.4l235.4-135.9c7.1-4.1 12.9-14.1 12.9-22.3z"/><path class="st2" d="M64.3 535.1V177.7c0-3.5 2.1-7.5 4.7-9L299.8 35.4c2.6-1.5 4.7.1 4.7 3.6v357.4c0 3.5-2.1 7.5-4.7 9L69 538.7c-2.6 1.5-4.7-.1-4.7-3.6z"/><ellipse transform="rotate(-60 184.398 95.26)" class="st2" cx="184.4" cy="95.3" rx="1.9" ry="1.1"/></g><g id="iPhone"><path id="XMLID_1_" class="st3" d="M294.3 401.5l28.6-16.5c7.3-4.2 7.2-10.7-.2-14.9l-63.2-36.5c-7.3-4.2-19-4.6-26.3-.4l-11 6.4-.8-.4-6.9 4 .8.4-6.4 3.7-.8-.4-13 7.5.8.4-3.8 2.2-.8-.4-13 7.5.8.4-102 58.9c-7.3 4.2-7.4 11.4-.2 15.6l63.2 36.5c7.3 4.2 19.3 3.9 26.6-.4L273 413.7l1 .6 21.1-12.2-.8-.6zm1.8-40.2c-.6.4-1.6.4-2.2 0-.6-.4-.6-.9 0-1.3s1.6-.4 2.2 0c.6.4.6 1 0 1.3zm-15-8.8l9.9 5.7c.4.2.5.6.1.8-.4.2-1 .2-1.4-.1l-9.9-5.7c-.4-.2-.5-.6-.1-.8s.9-.1 1.4.1zM162.6 471.9"/><path id="XMLID_156_" class="st1" d="M294.3 378.9l28.6-16.5c7.3-4.2 7.2-10.7-.2-14.9L259.5 311c-7.3-4.2-19-4.6-26.3-.4l-11 6.4-.8-.4-6.9 4 .8.4-6.4 3.7-.8-.4-13 7.5.8.4-3.8 2.2-.8-.4-13 7.5.8.4-102 58.9c-7.3 4.2-7.4 11.4-.2 15.6l63.2 36.5c7.3 4.2 19.3 3.9 26.6-.4L273 391.1l1 .6 21.1-12.2-.8-.6zm1.8-40.2c-.6.4-1.6.4-2.2 0-.6-.4-.6-.9 0-1.3s1.6-.4 2.2 0c.6.3.6.9 0 1.3zm-15-8.8l9.9 5.7c.4.2.5.6.1.8-.4.2-1 .2-1.4-.1l-9.9-5.7c-.4-.2-.5-.6-.1-.8.3-.2.9-.2 1.4.1zM162.7 449.3c-4.4 2.6-11.6 2.9-16.1.4l-63.3-36.5c-4.4-2.6-4.4-7 .1-9.6l155.8-90c4.4-2.6 11.4-2.1 15.9.4l7.3 4.2c1.5.9 2.3 1.1.5 2.3-1 .6-1.3 1.3-1.4 2 0 .7.2 1.5.9 2.2.4.5.9 1 1.6 1.4l1.4.8 30.7 17.7 1.4.8c.7.4 1.7.6 2.5.9 1.2.4 2.6.6 3.8.5 1.2 0 2.3-.2 3.4-.8 2.1-1.1 2.5-.7 4 .2l7.2 4.2c4.4 2.6 4.6 6.3.2 8.8l-155.9 90.1z"/><path id="XMLID_159_" class="st4" d="M291 335.6l-9.9-5.7c-.4-.2-1-.3-1.4-.1-.4.2-.3.6.1.8l9.9 5.7c.4.2 1 .3 1.4.1.4-.2.3-.6-.1-.8z"/><ellipse id="XMLID_51_" class="st4" cx="294.9" cy="338" rx="1.6" ry=".9"/><path class="st2" d="M293.8 337.4c-.6.4-.6.9 0 1.3s1.6.4 2.2 0c.6-.4.6-.9 0-1.3s-1.6-.4-2.2 0z"/><path class="st2" d="M239.2 313.6l-155.8 90c-4.4 2.6-4.5 7-.1 9.6l63.3 36.5c4.4 2.6 11.6 2.2 16.1-.4h-.1l155.8-90c4.4-2.6 4.3-6.3-.2-8.8l-7.2-4.2c-1.5-.9-2-1.3-4-.2-1.1.6-2.2.8-3.4.8-1.2 0-2.6-.2-3.8-.5-.8-.2-1.8-.5-2.5-.9l-1.4-.8-30.7-17.7-1.4-.8c-.7-.4-1.2-.9-1.6-1.4-.7-.7-.9-1.5-.9-2.2.1-.7.5-1.4 1.4-2 1.9-1.2 1.1-1.4-.5-2.3l-7.3-4.2c-4.2-2.6-11.2-3.1-15.7-.5z"/><path class="st2" d="M281.1 329.9c-.4-.2-1-.3-1.4-.1-.4.2-.3.6.1.8l9.9 5.7c.4.2 1 .3 1.4.1.4-.2.3-.6-.1-.8l-9.9-5.7z"/><g class="st5"><path class="st3" d="M239.2 298.5l-155.8 90c-4.4 2.6-4.5 7-.1 9.6l63.3 36.5c4.4 2.6 11.6 2.2 16.1-.4h-.1l155.8-90c4.4-2.6 4.3-6.3-.2-8.8l-7.2-4.2c-1.5-.9-2-1.3-4-.2-1.1.6-2.2.8-3.4.8-1.2 0-2.6-.2-3.8-.5-.8-.2-1.8-.5-2.5-.9l-1.4-.8-30.7-17.7-1.4-.8c-.7-.4-1.2-.9-1.6-1.4-.7-.7-.9-1.5-.9-2.2.1-.7.5-1.4 1.4-2 1.9-1.2 1.1-1.4-.5-2.3l-7.3-4.2c-4.2-2.6-11.2-3-15.7-.5z"/></g><path class="st6" d="M276 361.2l-65-37.5c-1.3-.8-1.2-2.1.4-3l22.7-13.1c1.5-.9 3.9-1 5.2-.2l65 37.5c1.3.8 1.2 2.1-.4 3L281.2 361c-1.6.9-3.9 1-5.2.2z"/><path class="st7" d="M244.2 379.5l-65-37.5c-1.3-.8-1.2-2.1.4-3l22.7-13.1c1.5-.9 3.9-1 5.2-.2l65 37.5c1.3.8 1.2 2.1-.4 3l-22.7 13.1c-1.6.9-3.9 1-5.2.2zm-31.8 18.4l-65-37.5c-1.3-.8-1.2-2.1.4-3l22.7-13.1c1.5-.9 3.9-1 5.2-.2l65 37.5c1.3.8 1.2 2.1-.4 3l-22.7 13.1c-1.5.9-3.9 1-5.2.2zm-31.8 18.3l-65-37.5c-1.3-.8-1.2-2.1.4-3l22.7-13.1c1.5-.9 3.9-1 5.2-.2l65 37.5c1.3.8 1.2 2.1-.4 3L185.8 416c-1.5.9-3.8 1-5.2.2z"/></g><g id="iPad_screen"><g class="st5"><path class="st2" d="M105.9 561.4V204c0-3.5 2.1-7.5 4.7-9L341.5 61.8c2.6-1.5 4.7.1 4.7 3.6v357.4c0 3.5-2.1 7.5-4.7 9L110.6 565c-2.5 1.5-4.7-.1-4.7-3.6z"/><path class="st3" d="M105.9 561.4V204c0-3.5 2.1-7.5 4.7-9L341.5 61.8c2.6-1.5 4.7.1 4.7 3.6v357.4c0 3.5-2.1 7.5-4.7 9L110.6 565c-2.5 1.5-4.7-.1-4.7-3.6z"/></g><path class="st8" d="M341.5 289.1v-94.8l-84.6 48.9v-1.5l-3.2 4c-.4-17-12.6-23.8-27.6-15.1-14.8 8.5-26.9 29.1-27.6 46.4l-87.8 50.7v94.8L122 416v1.5l3.2-4v20l55.3-31.9v-19.3l14.9-8.6v1.5l3.2-4v20l55.3-31.9V340l15.2-8.8v1.5l3.2-4v20l55.3-31.9v-19.3l13.9-8.4zm-115.4-55.5c13.8-8 25-1.5 25 14.5s-11.2 35.4-25 43.4-25 1.5-25-14.5c-.1-16 11.2-35.5 25-43.4zM177.8 400l-50.1 28.9v-35.7l50.1-28.9V400zm73.3-42.3L201 386.6v-35.7l50.1-28.9v35.7zm17.8-31.1v1.5l-15.2 8.8v-19.3l-55.3 31.9v20l-3.2-.3v1.5l-14.9 8.6V360L125 391.9v20l-3.2-.3v1.5l-8.7 5v-88.8l85.2-49.2c.7 16.5 12.8 23 27.6 14.5 15-8.7 27.2-29.6 27.6-47l3.2.3v-1.5l82-47.4v88.8l-11.6 6.7V275L272 306.9v20l-3.1-.3zm55.8-11.4l-50.1 28.9v-35.7l50.1-28.9v35.7z"/><path class="st9" d="M182.4 228.1c-.2-.2-.4-.2-.7-.2-.3 0-.6.1-.9.3-.4.2-.7.5-1 .8-.3.3-.6.7-.8 1.1-.2.4-.4.9-.5 1.3-.1.5-.2.9-.2 1.4 0 .5.1.9.2 1.2.1.3.3.6.5.7.2.2.5.2.8.2.3 0 .6-.1 1-.3.4-.2.7-.5 1-.9s.5-.8.7-1.2l1.6.4c-.4.8-.8 1.5-1.4 2.1-.6.6-1.1 1.1-1.7 1.4-.7.4-1.3.6-1.9.7-.6.1-1.1 0-1.5-.2-.4-.2-.7-.6-1-1.1-.2-.5-.3-1.2-.3-2s.1-1.6.3-2.4c.2-.8.6-1.5 1-2.2.4-.7.9-1.3 1.5-1.9.6-.6 1.2-1 1.9-1.4.2-.1.5-.3.8-.4.3-.1.5-.2.8-.2h.7l.6.3-1.5 2.5zm8 1.6c-.3.6-.7 1.1-1.1 1.6-.4.5-.9.9-1.4 1.1-.5.3-.9.4-1.3.5-.4.1-.7 0-1-.1-.3-.1-.5-.4-.7-.7-.2-.3-.3-.8-.3-1.3s.1-1.1.3-1.6c.2-.5.4-1 .7-1.5.3-.5.6-.9 1-1.3s.8-.7 1.3-1c.4-.2.8-.4 1.1-.4.3 0 .6 0 .9.2.2.2.4.4.6.8.1.4.2.8.2 1.4v.7l-4.2 2.4c.1.4.2.6.5.7.2.1.5 0 .9-.2.3-.2.6-.4.8-.7.2-.3.4-.6.5-.9l1.2.3zm-1.5-2.2c0-.4-.1-.6-.3-.7-.2-.1-.5-.1-.8.1-.2.1-.4.3-.5.4-.2.2-.3.3-.4.5l-.3.6c-.1.2-.1.4-.1.5l2.4-1.4zm2.9-4.3l1.7-1v.9c.1-.2.1-.3.2-.5s.2-.4.4-.6c.1-.2.3-.4.5-.5.2-.2.4-.3.6-.4.5-.3.8-.4 1.1-.4.3 0 .5.1.7.3.2.2.3.5.3.8s.1.8.1 1.2v3.8l-1.8 1.1V224c0-.2 0-.4-.1-.5l-.3-.3c-.1 0-.3 0-.5.1s-.4.3-.6.5-.3.4-.3.6c-.1.2-.1.4-.2.6v4.1l-1.8 1v-6.9zm11-4.6l-1.6.9v2.8c0 .1.1.3.1.3.1.1.1.1.3.1.1 0 .3-.1.5-.2.1-.1.2-.1.4-.3s.3-.2.4-.4v1.7c-.2.2-.4.4-.6.5-.2.2-.4.3-.6.4-.3.2-.6.3-.8.4-.3.1-.5.1-.7 0-.2-.1-.3-.2-.5-.4s-.2-.5-.2-.9v-3.2l-1.2.7v-1.7l1.2-.7v-2l1.8-1v2l1.6-.9v1.9zm.9-2.2l1.8-1v1.1c.2-.5.4-1 .7-1.3.3-.4.6-.7 1-.9.1-.1.2-.1.3-.2.1-.1.2-.1.3-.1v1.9c-.1 0-.3.1-.4.1s-.3.1-.4.2c-.3.2-.6.4-.8.6-.2.2-.4.5-.5.7s-.2.5-.2.8v3.8l-1.8 1v-6.7zm8.6.9c-.2.5-.5.9-.8 1.3-.3.4-.7.6-1.1.9-.3.2-.5.3-.8.3-.3.1-.5.1-.7 0-.2-.1-.3-.2-.5-.4-.1-.2-.2-.5-.2-.8 0-.4.1-.8.2-1.1.1-.3.3-.7.5-1 .2-.3.5-.6.7-.8.3-.3.6-.5.9-.7l.9-.6c.3-.2.6-.3.8-.5 0-.4-.1-.6-.3-.7-.2-.1-.5 0-.8.1-.3.2-.6.4-.8.7-.2.3-.5.6-.7 1l-1-.6c.3-.6.7-1.1 1.2-1.5.5-.4.9-.8 1.4-1.1.5-.3 1-.5 1.3-.5.3 0 .6 0 .8.2.2.2.3.5.4.9.1.4.1.9.1 1.4v3.5l-1.7 1v-1zm-.4-1.8c-.1.1-.3.2-.5.3-.2.1-.4.3-.6.5s-.4.4-.5.6c-.1.2-.2.4-.2.7 0 .3.1.4.3.4.2 0 .4 0 .6-.2.2-.1.3-.2.5-.4s.3-.3.4-.5l.3-.6c.1-.2.1-.4.1-.6v-.4l-.4.2zm3.3-9.5l1.8-1.1v10.6l-1.8 1.1V206zm8.7 4.3c-.3.6-.7 1.1-1.1 1.6-.4.5-.9.9-1.4 1.1-.5.3-.9.4-1.3.5-.4.1-.7 0-1-.1-.3-.1-.5-.4-.7-.7-.2-.3-.3-.8-.3-1.3s.1-1.1.3-1.6c.2-.5.4-1 .7-1.5.3-.5.6-.9 1-1.3s.8-.7 1.3-1c.4-.2.8-.4 1.1-.4.3 0 .6 0 .9.2.2.2.4.4.6.8.1.4.2.8.2 1.4v.7l-4.2 2.4c.1.4.2.6.5.7.2.1.5 0 .9-.2.3-.2.6-.4.8-.7.2-.3.4-.6.5-.9l1.2.3zm-1.6-2.1c0-.4-.1-.6-.3-.7-.2-.1-.5-.1-.8.1-.2.1-.4.3-.5.4-.2.2-.3.3-.4.5l-.3.6c-.1.2-.1.4-.1.5l2.4-1.4zm6.8-9.6l1.9-1.1v9.9l-1.9 1.1v-9.9zm3.3 1.2l1.7-1v.9c.1-.2.1-.3.2-.5s.2-.4.4-.6c.1-.2.3-.4.5-.5.2-.2.4-.3.6-.4.5-.3.8-.4 1.1-.4.3 0 .5.1.7.3.2.2.3.5.3.8.1.4.1.8.1 1.2v3.8l-1.8 1.1v-4.1c0-.2 0-.4-.1-.5l-.3-.3c-.1 0-.3 0-.5.1s-.4.3-.6.5c-.1.2-.3.4-.3.6-.1.2-.1.4-.2.6v4.1l-1.8 1v-6.7zm11-4.2c-.1-.1-.2-.1-.4-.2-.2 0-.3 0-.5.2-.5.3-.8.6-1.1 1.1-.3.5-.4 1-.4 1.5s.1.9.4 1c.3.2.6.1 1.1-.1.2-.1.4-.3.5-.5.1-.2.3-.4.4-.6l1.2.8c-.3.5-.6.9-1 1.3s-.7.6-1.1.8c-.5.3-.9.4-1.3.5-.4.1-.7 0-1-.1-.3-.1-.5-.4-.7-.7-.2-.3-.3-.8-.3-1.3s.1-1.1.3-1.6c.2-.5.4-1 .7-1.5.3-.5.6-.9 1-1.3s.8-.7 1.3-1c.3-.2.7-.3 1.1-.4.4-.1.7 0 1 .1l-1.2 2zm7.4-.8c-.3.6-.7 1.1-1.1 1.6-.4.5-.9.9-1.4 1.1-.5.3-.9.4-1.3.5-.4.1-.7 0-1-.1-.3-.1-.5-.4-.7-.7-.2-.3-.3-.8-.3-1.3s.1-1.1.3-1.6c.2-.5.4-1 .7-1.5.3-.5.6-.9 1-1.3s.8-.7 1.3-1c.4-.2.8-.4 1.1-.4.3 0 .6 0 .9.2.2.2.4.4.6.8.1.4.2.8.2 1.4v.7l-4.2 2.4c.1.4.2.6.5.7.2.1.5 0 .9-.2.3-.2.6-.4.8-.7.2-.3.4-.6.5-.9l1.2.3zm-1.5-2.1c0-.4-.1-.6-.3-.7-.2-.1-.5-.1-.8.1-.2.1-.4.3-.5.4-.2.2-.3.3-.4.5l-.3.6c-.1.2-.1.4-.1.5l2.4-1.4zm2.9-4.3l1.7-1v.9c.1-.2.1-.3.2-.5s.2-.4.4-.6c.1-.2.3-.4.5-.5.2-.2.4-.3.6-.4.5-.3.8-.4 1.1-.4.3 0 .5.1.7.3.2.2.3.5.3.8.1.4.1.8.1 1.2v3.8l-1.8 1.1v-3.9c0-.2 0-.4-.1-.5l-.3-.3c-.1 0-.3 0-.5.1s-.4.3-.6.5-.3.4-.3.6c-.1.2-.1.4-.2.6v4.1l-1.8 1v-6.9zm13.1-.8l-1.7 1v-.9c-.1.2-.2.3-.3.5s-.3.4-.4.6c-.2.2-.3.4-.5.6-.2.2-.4.3-.6.4-.4.3-.8.4-1.2.4-.4 0-.7 0-.9-.2-.3-.2-.5-.4-.6-.8-.1-.3-.2-.8-.2-1.3s.1-1 .2-1.5.3-1 .5-1.5.5-.9.8-1.3c.3-.4.7-.7 1.1-1 .4-.2.7-.4 1.1-.4.3-.1.6 0 .8.2V178l1.8-1v10.6zm-1.6-2.5c0-.5-.1-.9-.4-1-.3-.2-.6-.1-1.1.1-.5.3-.8.6-1.1 1.1-.3.5-.4 1-.4 1.5s.1.9.4 1c.3.2.6.1 1.1-.1.5-.3.8-.6 1.1-1.1.2-.5.4-.9.4-1.5zm3-7.2c0-.3.1-.7.3-1 .2-.4.5-.6.7-.8.3-.2.5-.2.7-.1.2.1.3.3.3.7 0 .3-.1.7-.3 1-.2.4-.5.6-.7.8-.3.2-.5.2-.7.1-.2-.2-.3-.4-.3-.7zm.1 2l1.8-1.1v6.8l-1.8 1.1v-6.8zm8.7.6c-.3.6-.7 1.1-1.1 1.6-.4.5-.9.9-1.4 1.1-.5.3-.9.4-1.3.5s-.7 0-1-.1c-.3-.1-.5-.4-.7-.7-.2-.3-.3-.8-.3-1.3s.1-1.1.3-1.6c.2-.5.4-1 .7-1.5.3-.5.6-.9 1-1.3s.8-.7 1.3-1c.4-.2.8-.4 1.1-.4.3 0 .6 0 .9.2.2.2.4.4.6.8.1.4.2.8.2 1.4v.7l-4.2 2.4c.1.4.2.6.5.7.2.1.5 0 .9-.2.3-.2.6-.4.8-.7.2-.3.4-.6.5-.9l1.2.3zm-1.5-2.1c0-.4-.1-.6-.3-.7-.2-.1-.5-.1-.8.1-.2.1-.4.3-.5.4-.2.2-.3.3-.4.5l-.3.6c-.1.2-.1.4-.1.5l2.4-1.4zM169.2 427.5l2.8-1.6c.7-.4 1.3-.7 2-.9s1.2-.2 1.6-.1c.5.1.8.4 1.1.9.3.5.4 1.2.4 2.1 0 .8-.1 1.6-.4 2.3-.3.8-.6 1.5-1.1 2.2-.4.7-1 1.3-1.5 1.8-.6.6-1.2 1-1.8 1.4l-3.1 1.8v-9.9zm1.9 6.8l1-.6c.4-.3.8-.5 1.2-.9.4-.3.7-.7 1-1.1.3-.4.5-.8.6-1.3.2-.5.2-1 .2-1.6 0-.5-.1-.9-.2-1.1-.2-.3-.4-.4-.6-.5-.3-.1-.6-.1-.9 0-.4.1-.7.3-1.1.5l-1.1.6v6zm12.7-6.4c-.3.6-.7 1.1-1.1 1.6-.4.5-.9.9-1.4 1.1-.5.3-.9.4-1.3.5-.4.1-.7 0-1-.1-.3-.1-.5-.4-.7-.7-.2-.3-.3-.8-.3-1.3s.1-1.1.3-1.6c.2-.5.4-1 .7-1.5.3-.5.6-.9 1-1.3s.8-.7 1.3-1c.4-.2.8-.4 1.1-.4.3 0 .6 0 .9.2.2.2.4.4.6.8.1.4.2.8.2 1.4v.7l-4.2 2.4c.1.4.2.6.5.7.2.1.5 0 .9-.2.3-.2.6-.4.8-.7.2-.3.4-.6.5-.9l1.2.3zm-1.5-2.1c0-.4-.1-.6-.3-.7-.2-.1-.5-.1-.8.1-.2.1-.4.3-.5.4-.2.2-.3.3-.4.5l-.3.6c-.1.2-.1.4-.1.5l2.4-1.4zm6.9-5l-1.6.9v2.8c0 .1.1.3.1.3.1.1.1.1.3.1.1 0 .3-.1.5-.2.1-.1.2-.1.4-.3.2-.1.3-.2.4-.4v1.8c-.2.2-.4.4-.6.5-.2.2-.4.3-.6.4-.3.2-.6.3-.8.4-.3.1-.5.1-.7 0-.2-.1-.3-.2-.5-.4s-.2-.5-.2-.9v-3.2l-1.2.7v-1.7l1.2-.7v-2l1.8-1v2l1.6-.9v1.8zm6.5.2c-.3.6-.7 1.1-1.1 1.6-.4.5-.9.9-1.4 1.1-.5.3-.9.4-1.3.5-.4.1-.7 0-1-.1-.3-.1-.5-.4-.7-.7-.2-.3-.3-.8-.3-1.3s.1-1.1.3-1.6c.2-.5.4-1 .7-1.5.3-.5.6-.9 1-1.3s.8-.7 1.3-1c.4-.2.8-.4 1.1-.4.3 0 .6 0 .9.2.2.2.4.4.6.8.1.4.2.8.2 1.4v.7l-4.2 2.4c.1.4.2.6.5.7.2.1.5 0 .9-.2.3-.2.6-.4.8-.7.2-.3.4-.6.5-.9l1.2.3zm-1.5-2.1c0-.4-.1-.6-.3-.7-.2-.1-.5-.1-.8.1-.2.1-.4.3-.5.4-.2.2-.3.3-.4.5l-.3.6c-.1.2-.1.4-.1.5l2.4-1.4zm6.9-4.4c-.1-.1-.2-.1-.4-.2-.2 0-.3 0-.5.2-.5.3-.8.6-1.1 1.1-.3.5-.4 1-.4 1.5s.1.9.4 1c.3.2.6.1 1.1-.1.2-.1.4-.3.5-.5.1-.2.3-.4.4-.6l1.2.8c-.3.5-.6.9-1 1.3s-.7.6-1.1.8c-.5.3-.9.4-1.3.5-.4.1-.7 0-1-.1-.3-.1-.5-.4-.7-.7-.2-.3-.3-.8-.3-1.3s.1-1.1.3-1.6c.2-.5.4-1 .7-1.5.3-.5.6-.9 1-1.3s.8-.7 1.3-1c.3-.2.7-.3 1.1-.4.4-.1.7 0 1 .1l-1.2 2zm5.8-3.9l-1.6.9v2.8c0 .1.1.3.1.3.1.1.1.1.3.1.1 0 .3-.1.5-.2.1-.1.2-.1.4-.3s.3-.2.4-.4v1.8c-.2.2-.4.4-.6.5s-.4.3-.6.4c-.3.2-.6.3-.8.4-.3.1-.5.1-.7 0-.2-.1-.3-.2-.5-.4-.1-.2-.2-.5-.2-.9v-3.2l-1.2.7v-1.7l1.2-.7v-2l1.8-1v2l1.6-.9v1.8zm6.5.2c-.3.6-.7 1.1-1.1 1.6-.4.5-.9.9-1.4 1.1-.5.3-.9.4-1.3.5s-.7 0-1-.1c-.3-.1-.5-.4-.7-.7-.2-.3-.3-.8-.3-1.3s.1-1.1.3-1.6c.2-.5.4-1 .7-1.5.3-.5.6-.9 1-1.3s.8-.7 1.3-1c.4-.2.8-.4 1.1-.4.3 0 .6 0 .9.2.2.2.4.4.6.8.1.4.2.8.2 1.4v.7l-4.2 2.4c.1.4.2.6.5.7.2.1.5 0 .9-.2.3-.2.6-.4.8-.7.2-.3.4-.6.5-.9l1.2.3zm-1.5-2.1c0-.4-.1-.6-.3-.7-.2-.1-.5-.1-.8.1-.2.1-.4.3-.5.4-.2.2-.3.3-.4.5l-.3.6c-.1.2-.1.4-.1.5l2.4-1.4zm8.6-.8l-1.7 1v-.9c-.1.2-.1.3-.2.5s-.2.4-.4.6c-.1.2-.3.4-.5.5-.2.2-.4.3-.6.4-.5.3-.8.4-1.1.4-.3 0-.5-.1-.7-.3-.2-.2-.3-.5-.3-.8-.1-.4-.1-.8-.1-1.2v-3.8l1.8-1v3.9c0 .2 0 .4.1.5l.3.3c.1 0 .3 0 .5-.1s.4-.3.6-.5c.1-.2.3-.4.3-.6.1-.2.1-.4.2-.6v-4.1l1.8-1.1v6.9zm1.3-7.6l1.8-1v1.1c.2-.5.4-1 .7-1.3.3-.4.6-.7 1-.9.1-.1.2-.1.3-.2.1-.1.2-.1.3-.1v1.9c-.1 0-.3.1-.4.1s-.3.1-.4.2c-.3.2-.6.4-.8.6-.2.2-.4.5-.5.7s-.2.5-.2.8v3.8l-1.8 1v-6.7zm8.2-2.7c-.3-.2-.6-.2-1.1 0-.2.1-.3.2-.4.4s-.2.4-.2.6c0 .2.1.2.2.2s.3 0 .6-.1c.2-.1.5-.1.7-.2.3-.1.5-.1.7-.1.2 0 .4.1.6.3.1.2.2.5.2.9s-.1.8-.2 1.2c-.2.4-.4.7-.6 1.1-.3.3-.5.6-.9.9-.3.3-.6.5-1 .7-.4.2-.8.4-1.2.5-.4.1-.8.1-1.1-.1l1.1-2.1c.2.1.4.2.6.2.2 0 .4-.1.7-.2.2-.1.4-.3.6-.4.2-.2.3-.3.3-.5s-.1-.3-.2-.3-.3 0-.6.1c-.2.1-.5.1-.7.2-.3.1-.5.1-.7.1-.2 0-.4-.1-.6-.3-.1-.2-.2-.5-.2-.9s.1-.8.2-1.2c.1-.4.3-.7.6-1 .2-.3.5-.6.8-.9.3-.3.6-.5.9-.7.4-.2.8-.4 1.2-.5.4-.1.7-.1 1 .1l-1.3 2zm6.1-8.7l1.9-1.1v9.9l-1.9 1.1v-9.9zm3.4 1.2l1.7-1v.9c.1-.2.1-.3.2-.5s.2-.4.4-.6c.1-.2.3-.4.5-.5.2-.2.4-.3.6-.4.5-.3.8-.4 1.1-.4.3 0 .5.1.7.3.2.2.3.5.3.8.1.4.1.8.1 1.2v3.8l-1.8 1.1v-3.9c0-.2 0-.4-.1-.5l-.3-.3c-.1 0-.3 0-.5.1s-.4.3-.6.5-.3.4-.3.6c-.1.2-.1.4-.2.6v4.1l-1.8 1v-6.9zm10.9-4.1c-.1-.1-.2-.1-.4-.2-.2 0-.3 0-.5.2-.5.3-.8.6-1.1 1.1-.3.5-.4 1-.4 1.5s.1.9.4 1c.3.2.6.1 1.1-.1.2-.1.4-.3.5-.5.1-.2.3-.4.4-.6l1.2.8c-.3.5-.6.9-1 1.3s-.7.6-1.1.8c-.5.3-.9.4-1.3.5s-.7 0-1-.1c-.3-.1-.5-.4-.7-.7-.2-.3-.3-.8-.3-1.3s.1-1.1.3-1.6c.2-.5.4-1 .7-1.5.3-.5.6-.9 1-1.3s.8-.7 1.3-1c.3-.2.7-.3 1.1-.4.4-.1.7 0 1 .1l-1.2 2zm7.5-.9c-.3.6-.7 1.1-1.1 1.6-.4.5-.9.9-1.4 1.1-.5.3-.9.4-1.3.5s-.7 0-1-.1c-.3-.1-.5-.4-.7-.7-.2-.3-.3-.8-.3-1.3s.1-1.1.3-1.6c.2-.5.4-1 .7-1.5.3-.5.6-.9 1-1.3s.8-.7 1.3-1c.4-.2.8-.4 1.1-.4.3 0 .6 0 .9.2.2.2.4.4.6.8.1.4.2.8.2 1.4v.7l-4.2 2.4c.1.4.2.6.5.7.2.1.5 0 .9-.2.3-.2.6-.4.8-.7.2-.3.4-.6.5-.9l1.2.3zm-1.6-2.1c0-.4-.1-.6-.3-.7-.2-.1-.5-.1-.8.1-.2.1-.4.3-.5.4-.2.2-.3.3-.4.5l-.3.6c-.1.2-.1.4-.1.5l2.4-1.4zm3-4.3l1.7-1v.9c.1-.2.1-.3.2-.5s.2-.4.4-.6c.1-.2.3-.4.5-.5.2-.2.4-.3.6-.4.5-.3.8-.4 1.1-.4.3 0 .5.1.7.3.2.2.3.5.3.8.1.4.1.8.1 1.2v3.8l-1.8 1.1v-3.9c0-.2 0-.4-.1-.5l-.3-.3c-.1 0-.3 0-.5.1s-.4.3-.6.5c-.1.2-.3.4-.3.6-.1.2-.1.4-.2.6v4.1l-1.8 1v-6.9zm13.1-.8l-1.7 1v-.9c-.1.2-.2.3-.3.5-.1.2-.3.4-.4.6-.2.2-.3.4-.5.6-.2.2-.4.3-.6.4-.4.3-.8.4-1.2.4-.4 0-.7 0-.9-.2-.3-.2-.5-.4-.6-.8-.1-.3-.2-.8-.2-1.3s.1-1 .2-1.5.3-1 .5-1.5.5-.9.8-1.3c.3-.4.7-.7 1.1-1 .4-.2.7-.4 1.1-.4.3-.1.6 0 .8.2v-4.5l1.8-1v10.7zm-1.7-2.4c0-.5-.1-.9-.4-1-.3-.2-.6-.1-1.1.1-.5.3-.8.6-1.1 1.1-.3.5-.4 1-.4 1.5s.1.9.4 1c.3.2.6.1 1.1-.1.5-.3.8-.6 1.1-1.1.3-.5.4-1 .4-1.5zm3-7.3c0-.3.1-.7.3-1 .2-.4.5-.6.7-.8.3-.2.5-.2.7-.1.2.1.3.3.3.7 0 .3-.1.7-.3 1-.2.4-.5.6-.7.8-.3.2-.5.2-.7.1-.2-.2-.3-.4-.3-.7zm.2 2l1.8-1.1v6.8l-1.8 1.1v-6.8zm8.7.6c-.3.6-.7 1.1-1.1 1.6-.4.5-.9.9-1.4 1.1-.5.3-.9.4-1.3.5-.4.1-.7 0-1-.1-.3-.1-.5-.4-.7-.7-.2-.3-.3-.8-.3-1.3s.1-1.1.3-1.6c.2-.5.4-1 .7-1.5.3-.5.6-.9 1-1.3s.8-.7 1.3-1c.4-.2.8-.4 1.1-.4.3 0 .6 0 .9.2.2.2.4.4.6.8.1.4.2.8.2 1.4v.7l-4.2 2.4c.1.4.2.6.5.7.2.1.5 0 .9-.2.3-.2.6-.4.8-.7.2-.3.4-.6.5-.9l1.2.3zm-1.6-2.1c0-.4-.1-.6-.3-.7-.2-.1-.5-.1-.8.1-.2.1-.4.3-.5.4-.2.2-.3.3-.4.5l-.3.6c-.1.2-.1.4-.1.5l2.4-1.4z"/></g></g></svg>