<?xml version="1.0" encoding="utf-8"?>
<!-- Generator: Adobe Illustrator 23.0.0, SVG Export Plug-In . SVG Version: 6.00 Build 0)  -->
<svg version="1.1" id="Шар_1" xmlns="http://www.w3.org/2000/svg" xmlns:xlink="http://www.w3.org/1999/xlink" x="0px" y="0px"
	 viewBox="0 0 140.4 140.4" style="enable-background:new 0 0 140.4 140.4;" xml:space="preserve">
<style type="text/css">
	.st0{fill:#16181C;}
	.st1{fill:#FFFFFF;}
</style>
<rect x="-1.9" y="-1.9" class="st0" width="144.1" height="144.1"/>
<polygon class="st1" points="41.4,32.5 23.1,43.1 23.1,97.5 44.1,109.5 91.1,82.4 80.7,76.3 44.1,97.5 33.6,91.4 33.6,49.1 
	41.4,44.6 "/>
<polygon class="st1" points="51.9,114.1 70.2,124.6 117.3,97.5 117.3,73.3 70.2,46.1 70.2,58.1 106.8,79.3 106.8,91.4 70.2,112.5 
	62.4,108 "/>
<polygon class="st1" points="117.3,64.2 117.3,43.1 70.2,15.9 49.3,28 49.3,82.4 59.7,76.3 59.7,34 70.2,28 106.8,49.1 106.8,58.1 
	"/>
</svg>
