<svg width="30" height="30" fill="none" xmlns="http://www.w3.org/2000/svg"><path fill-rule="evenodd" clip-rule="evenodd" d="M26.53 2.15l-6.838 6.843a.945.945 0 01-.092.081.936.936 0 01-.082.094l-3.182 3.184 1.324 1.325L27.853 3.474a.936.936 0 10-1.324-1.325zm-7.546 12.852L29.177 4.8a2.81 2.81 0 00-.001-3.976 2.804 2.804 0 00-3.971.002l-6.837 6.843a.95.95 0 00-.082.094.942.942 0 00-.092.08l-3.181 3.185-.598-.597a.928.928 0 00-.036-.035L4.834.84a2.804 2.804 0 00-3.972 0 2.814 2.814 0 000 3.975L11.04 15.003.88 25.173a2.967 2.967 0 00-.433.558c-.653 1.061-.655 2.31.426 3.391 1.1 1.078 2.336 1.08 3.4.457.255-.149.446-.302.57-.422l8.214-8.223a.938.938 0 00-1.324-1.325l-8.206 8.214c-.014.014-.09.074-.2.139-.4.233-.724.233-1.116-.15-.408-.408-.407-.712-.17-1.098a1.25 1.25 0 01.153-.206l12.818-12.83 1.324 1.324-1.82 1.822a.932.932 0 00-.245.429.938.938 0 00.148 1.132l10.78 10.79a2.807 2.807 0 003.973 0 2.814 2.814 0 000-3.975L18.984 15.002zm-1.324 1.325l-1.325 1.326L26.523 27.85a.935.935 0 001.325.001.939.939 0 000-1.325L17.66 16.327zM2.186 3.49l10.178 10.188 1.324-1.325L3.509 2.165a.933.933 0 00-1.322 0 .939.939 0 000 1.325z" fill="#fff"/></svg>