<svg width="35" height="30" fill="none" xmlns="http://www.w3.org/2000/svg"><path fill-rule="evenodd" clip-rule="evenodd" d="M29.787 27.514V12.585c0-.46.392-.834.875-.834s.875.373.875.834v14.93c0 2.078-2.504 3.251-4.305 1.919l-3.37-3.127-2.984-2.704a.907.907 0 00-.606-.232l-16.2.007-1.456-.017C1.166 23.346 0 22.221 0 20.84V2.503C0 1.121 1.174 0 2.625 0h29.75C33.825 0 35 1.121 35 2.503v20.024c0 .46-.392.834-.875.834s-.875-.373-.875-.834V2.503c0-.46-.392-.834-.875-.834H2.625c-.484 0-.875.373-.875.834V20.84c0 .467.395.848.885.853l1.447.016 16.19-.006c.672 0 1.32.247 1.81.69l2.993 2.711 3.302 3.072c.575.423 1.41.032 1.41-.662zm-6.464-16.122c-4.424 4.218-11.599 4.218-16.023 0a.807.807 0 010-1.18.905.905 0 011.237 0c3.741 3.567 9.808 3.567 13.549 0a.905.905 0 011.237 0 .807.807 0 010 1.18z" fill="#fff"/></svg>