<svg width="35" height="35" fill="none" xmlns="http://www.w3.org/2000/svg"><path fill-rule="evenodd" clip-rule="evenodd" d="M16.625.877V2.63a.876.876 0 101.75 0V.877a.876.876 0 10-1.75 0zm3.401 21.9h-5.043c-1.496 0-2.729 1.166-2.729 2.63v7.338c0 1.257 1.054 2.255 2.331 2.255h5.828c1.277 0 2.332-.998 2.332-2.255l.007-5.094a11.407 11.407 0 006.123-10.114c0-6.294-5.094-11.398-11.375-11.398-6.282 0-11.375 5.104-11.375 11.398 0 2.767.988 5.38 2.753 7.435a.874.874 0 001.234.092.878.878 0 00.092-1.236 9.613 9.613 0 01-2.329-6.291c0-5.326 4.31-9.644 9.625-9.644s9.625 4.319 9.625 9.644a9.65 9.65 0 01-4.371 8.084v-.211c0-1.467-1.232-2.634-2.728-2.634zm.977 3.747l.001-1.116c0-.474-.427-.878-.978-.878h-5.043c-.552 0-.979.404-.979.877v7.338c0 .266.25.502.581.502h5.828c.332 0 .582-.237.582-.503l.006-4.358a11.32 11.32 0 01-2.491.505.876.876 0 01-.154-1.747 9.563 9.563 0 002.647-.62zm11.372-9.866h1.75a.876.876 0 010 1.754h-1.75a.876.876 0 010-1.754zm-29.75 0H.875a.876.876 0 000 1.754h1.75a.876.876 0 000-1.754zM5.25 4.021l1.237 1.24a.878.878 0 010 1.24.874.874 0 01-1.237 0L4.013 5.26a.878.878 0 010-1.24.874.874 0 011.237 0zm24.5 2.48l1.237-1.24a.878.878 0 000-1.24.874.874 0 00-1.237 0l-1.238 1.24a.878.878 0 000 1.24.874.874 0 001.238 0z" fill="#fff"/></svg>