<svg width="30" height="28" fill="none" xmlns="http://www.w3.org/2000/svg"><path d="M3.809 19.273V11.54c0-.458.125-.793.108-.748a3.829 3.829 0 00-.226.024V5.094a.879.879 0 00-1.757 0v6.424C.77 12.344 0 13.778 0 15.406c0 2.441 1.731 4.446 3.917 4.616.01.025-.108-.308-.108-.749zm13.066 2.754h-3.75a2.758 2.758 0 00-2.61 1.875h-.203A2.875 2.875 0 017.58 21.91c-1.223 0-1.397.025-1.828-.093a4.636 4.636 0 004.56 3.843h.204a2.758 2.758 0 002.609 1.875h3.75a2.757 2.757 0 002.754-2.754 2.757 2.757 0 00-2.754-2.754zM7.548 8.902c.604-3.812 3.724-6.68 7.452-6.68 3.728 0 6.848 2.868 7.452 6.68 1.192 0 1.363-.023 1.788.091C23.651 4.154 19.722.465 15 .465s-8.651 3.69-9.24 8.528c.423-.114.596-.09 1.788-.09zm16.007 1.758h-1.991a.88.88 0 00-.879.88v7.733a.88.88 0 00.879.88h1.99a.88.88 0 00.88-.88V11.54a.88.88 0 00-.88-.879zm-17.11 9.492h1.992a.88.88 0 00.88-.879V11.54a.88.88 0 00-.88-.879H6.446a.88.88 0 00-.879.88v7.733a.88.88 0 00.88.88zm19.637-9.362c-.001-.005.11.323.11.75v7.733c0 .46-.123.776-.11.749C28.27 19.852 30 17.847 30 15.406c0-2.44-1.731-4.445-3.918-4.616z" fill="#3700F9"/></svg>