<svg width="35" height="26" fill="none" xmlns="http://www.w3.org/2000/svg"><path fill-rule="evenodd" clip-rule="evenodd" d="M32.375 0C33.825 0 35 1.248 35 2.786v20.428C35 24.752 33.824 26 32.375 26H2.625C1.175 26 0 24.752 0 23.214V2.786C0 1.248 1.176 0 2.625 0h29.75zm-.91 1.857H2.625c-.483 0-.875.416-.875.929v20.213l10.172-10.847-6.868-6.826a.97.97 0 01-.041-1.312.84.84 0 011.237-.043l10.747 10.693c.303.225.704.225.923.07L31.465 1.857zm.114 22.286H3.146L13.2 13.422l2.698 2.681c1.002.755 2.204.755 3.108.083L33.242 2.661c.005.04.008.082.008.125v20.428c0 .025 0 .05-.003.074l-8.136-8.67a.84.84 0 00-1.237-.003.97.97 0 00-.003 1.313l7.708 8.215z" fill="#fff"/></svg>