<svg width="35" height="35" fill="none" xmlns="http://www.w3.org/2000/svg"><path fill-rule="evenodd" clip-rule="evenodd" d="M34.882 15.472a17.482 17.482 0 01-6.82 15.97.875.875 0 01-1.057-1.394 15.733 15.733 0 006.14-14.374 15.73 15.73 0 00-1.204-4.476l-12.546 12.54c-.512.512-1.2.78-1.897.773a2.654 2.654 0 01-1.916-.772l-6.518-6.516a.874.874 0 111.237-1.236l6.518 6.515a.92.92 0 00.68.26.905.905 0 00.659-.26l12.95-12.944C28.05 4.324 22.092 1.11 15.683 1.856 7.043 2.86.853 10.674 1.857 19.311c.822 7.07 6.273 12.657 13.22 13.74a18.763 18.763 0 001.72.201.875.875 0 11-.122 1.746 20.428 20.428 0 01-1.881-.22C7.089 33.576 1.032 27.368.118 19.513-.996 9.917 5.881 1.234 15.48.119c6.96-.81 13.44 2.581 16.903 8.164l1.11-1.108a.875.875 0 011.236 1.237l-1.468 1.467a17.456 17.456 0 011.621 5.593z" fill="#fff"/></svg>