<svg width="200" height="197" fill="none" xmlns="http://www.w3.org/2000/svg"><path d="M59.869 6.409c0 3.553-2.9 6.378-6.548 6.378s-6.548-2.825-6.548-6.378c0-3.554 2.9-6.378 6.548-6.378 3.555 0 6.548 2.824 6.548 6.378zm46.679 0c0 3.553-2.9 6.378-6.548 6.378s-6.548-2.825-6.548-6.378c0-3.554 2.9-6.378 6.548-6.378s6.548 2.824 6.548 6.378zm40.225 6.378c3.616 0 6.548-2.856 6.548-6.378 0-3.523-2.932-6.378-6.548-6.378-3.617 0-6.548 2.855-6.548 6.378 0 3.522 2.931 6.378 6.548 6.378zM200 6.409c0 3.553-2.9 6.378-6.548 6.378s-6.548-2.825-6.548-6.378c0-3.554 2.9-6.378 6.548-6.378S200 2.855 200 6.409zM6.548 12.787c3.617 0 6.548-2.856 6.548-6.378 0-3.523-2.931-6.378-6.548-6.378C2.932.031 0 2.886 0 6.409c0 3.522 2.932 6.378 6.548 6.378zM59.869 52.42c0 3.554-2.9 6.378-6.548 6.378s-6.548-2.824-6.548-6.377c0-3.554 2.9-6.378 6.548-6.378 3.555 0 6.548 2.824 6.548 6.378zm46.679 0c0 3.554-2.9 6.378-6.548 6.378s-6.548-2.824-6.548-6.377c0-3.554 2.9-6.378 6.548-6.378s6.548 2.824 6.548 6.378zm46.773 0c0 3.554-2.9 6.378-6.548 6.378-3.649 0-6.548-2.824-6.548-6.377 0-3.554 2.899-6.378 6.548-6.378 3.554 0 6.548 2.824 6.548 6.378zm46.679 0c0 3.554-2.9 6.378-6.548 6.378s-6.548-2.824-6.548-6.377c0-3.554 2.9-6.378 6.548-6.378S200 48.867 200 52.42zm-186.904 0c0 3.554-2.9 6.378-6.548 6.378S0 55.974 0 52.421c0-3.554 2.9-6.378 6.548-6.378s6.548 2.824 6.548 6.378zm46.773 46.012c0 3.554-2.9 6.378-6.548 6.378s-6.548-2.824-6.548-6.378c0-3.553 2.9-6.378 6.548-6.378 3.555 0 6.548 2.825 6.548 6.378zm46.679 0c0 3.554-2.9 6.378-6.548 6.378s-6.548-2.824-6.548-6.378c0-3.553 2.9-6.378 6.548-6.378s6.548 2.825 6.548 6.378zm40.225 6.378c3.616 0 6.548-2.855 6.548-6.378 0-3.522-2.932-6.378-6.548-6.378-3.617 0-6.548 2.856-6.548 6.378 0 3.523 2.931 6.378 6.548 6.378zM200 98.432c0 3.554-2.9 6.378-6.548 6.378s-6.548-2.824-6.548-6.378c0-3.553 2.9-6.378 6.548-6.378S200 94.88 200 98.432zM6.548 104.81c3.617 0 6.548-2.855 6.548-6.378 0-3.522-2.931-6.378-6.548-6.378C2.932 92.054 0 94.91 0 98.432c0 3.523 2.932 6.378 6.548 6.378zm53.321 39.634c0 3.553-2.9 6.378-6.548 6.378s-6.548-2.825-6.548-6.378 2.9-6.378 6.548-6.378c3.555 0 6.548 2.825 6.548 6.378zm46.679 0c0 3.553-2.9 6.378-6.548 6.378s-6.548-2.825-6.548-6.378 2.9-6.378 6.548-6.378 6.548 2.825 6.548 6.378zm40.225 6.378c3.616 0 6.548-2.856 6.548-6.378 0-3.522-2.932-6.378-6.548-6.378-3.617 0-6.548 2.856-6.548 6.378 0 3.522 2.931 6.378 6.548 6.378zM200 144.444c0 3.553-2.9 6.378-6.548 6.378s-6.548-2.825-6.548-6.378 2.9-6.378 6.548-6.378 6.548 2.825 6.548 6.378zM6.548 150.822c3.617 0 6.548-2.856 6.548-6.378 0-3.522-2.931-6.378-6.548-6.378-3.616 0-6.548 2.856-6.548 6.378 0 3.522 2.932 6.378 6.548 6.378zm53.321 39.634c0 3.553-2.9 6.378-6.548 6.378s-6.548-2.825-6.548-6.378c0-3.554 2.9-6.378 6.548-6.378 3.555 0 6.548 2.824 6.548 6.378zm46.679 0c0 3.553-2.9 6.378-6.548 6.378s-6.548-2.825-6.548-6.378c0-3.554 2.9-6.378 6.548-6.378s6.548 2.824 6.548 6.378zm40.225 6.378c3.616 0 6.548-2.856 6.548-6.378 0-3.523-2.932-6.378-6.548-6.378-3.617 0-6.548 2.855-6.548 6.378 0 3.522 2.931 6.378 6.548 6.378zM200 190.456c0 3.553-2.9 6.378-6.548 6.378s-6.548-2.825-6.548-6.378c0-3.554 2.9-6.378 6.548-6.378s6.548 2.824 6.548 6.378zM6.548 196.834c3.617 0 6.548-2.856 6.548-6.378 0-3.523-2.931-6.378-6.548-6.378-3.616 0-6.548 2.855-6.548 6.378 0 3.522 2.932 6.378 6.548 6.378z" opacity=".3" fill="#4A4342"/></svg>