<svg width="217" height="256" fill="none" xmlns="http://www.w3.org/2000/svg"><path d="M59.869 6.481c0 3.612-2.9 6.482-6.548 6.482-3.649 0-6.548-2.87-6.548-6.482 0-3.61 2.9-6.481 6.548-6.481 3.554 0 6.548 2.87 6.548 6.481zm46.679 0c0 3.612-2.9 6.482-6.548 6.482s-6.548-2.87-6.548-6.482C93.452 2.871 96.352 0 100 0s6.548 2.87 6.548 6.481zm40.225 6.482c3.616 0 6.548-2.902 6.548-6.482S150.389 0 146.773 0c-3.617 0-6.548 2.902-6.548 6.481 0 3.58 2.931 6.482 6.548 6.482zM200 6.481c0 3.612-2.9 6.482-6.548 6.482s-6.548-2.87-6.548-6.482c0-3.61 2.9-6.481 6.548-6.481S200 2.87 200 6.481zM6.548 12.963c3.617 0 6.548-2.902 6.548-6.482S10.165 0 6.548 0C2.932 0 0 2.902 0 6.481c0 3.58 2.932 6.482 6.548 6.482zM59.869 53.24c0 3.612-2.9 6.482-6.548 6.482-3.649 0-6.548-2.87-6.548-6.481 0-3.611 2.9-6.482 6.548-6.482 3.554 0 6.548 2.87 6.548 6.482zm46.679 0c0 3.612-2.9 6.482-6.548 6.482s-6.548-2.87-6.548-6.481c0-3.611 2.9-6.482 6.548-6.482s6.548 2.87 6.548 6.482zm46.773 0c0 3.612-2.9 6.482-6.548 6.482s-6.548-2.87-6.548-6.481c0-3.611 2.9-6.482 6.548-6.482 3.555 0 6.548 2.87 6.548 6.482zm46.679 0c0 3.612-2.9 6.482-6.548 6.482s-6.548-2.87-6.548-6.481c0-3.611 2.9-6.482 6.548-6.482S200 49.63 200 53.241zm-186.904 0c0 3.612-2.9 6.482-6.548 6.482S0 56.852 0 53.241c0-3.611 2.9-6.482 6.548-6.482s6.548 2.87 6.548 6.482zM59.869 100c0 3.611-2.9 6.481-6.548 6.481-3.649 0-6.548-2.87-6.548-6.481 0-3.611 2.9-6.481 6.548-6.481 3.554 0 6.548 2.87 6.548 6.481zm46.679 0c0 3.611-2.9 6.481-6.548 6.481s-6.548-2.87-6.548-6.481c0-3.611 2.9-6.481 6.548-6.481s6.548 2.87 6.548 6.481zm40.225 6.481c3.616 0 6.548-2.901 6.548-6.481s-2.932-6.481-6.548-6.481c-3.617 0-6.548 2.901-6.548 6.481s2.931 6.481 6.548 6.481zM200 100c0 3.611-2.9 6.481-6.548 6.481s-6.548-2.87-6.548-6.481c0-3.611 2.9-6.481 6.548-6.481S200 96.389 200 100zM6.548 106.481c3.617 0 6.548-2.901 6.548-6.481s-2.931-6.481-6.548-6.481C2.932 93.519 0 96.42 0 100s2.932 6.481 6.548 6.481zm53.321 40.278c0 3.611-2.9 6.482-6.548 6.482-3.649 0-6.548-2.871-6.548-6.482s2.9-6.481 6.548-6.481c3.554 0 6.548 2.87 6.548 6.481zm46.679 0c0 3.611-2.9 6.482-6.548 6.482s-6.548-2.871-6.548-6.482 2.9-6.481 6.548-6.481 6.548 2.87 6.548 6.481zm40.225 6.482c3.616 0 6.548-2.902 6.548-6.482 0-3.579-2.932-6.481-6.548-6.481-3.617 0-6.548 2.902-6.548 6.481 0 3.58 2.931 6.482 6.548 6.482zM200 146.759c0 3.611-2.9 6.482-6.548 6.482s-6.548-2.871-6.548-6.482 2.9-6.481 6.548-6.481 6.548 2.87 6.548 6.481zM6.548 153.241c3.617 0 6.548-2.902 6.548-6.482 0-3.579-2.931-6.481-6.548-6.481-3.616 0-6.548 2.902-6.548 6.481 0 3.58 2.932 6.482 6.548 6.482zm53.321 40.278c0 3.611-2.9 6.481-6.548 6.481-3.649 0-6.548-2.87-6.548-6.481 0-3.612 2.9-6.482 6.548-6.482 3.554 0 6.548 2.87 6.548 6.482zm46.679 0c0 3.611-2.9 6.481-6.548 6.481s-6.548-2.87-6.548-6.481c0-3.612 2.9-6.482 6.548-6.482s6.548 2.87 6.548 6.482zM146.773 200c3.616 0 6.548-2.902 6.548-6.481 0-3.58-2.932-6.482-6.548-6.482-3.617 0-6.548 2.902-6.548 6.482 0 3.579 2.931 6.481 6.548 6.481zM200 193.519c0 3.611-2.9 6.481-6.548 6.481s-6.548-2.87-6.548-6.481c0-3.612 2.9-6.482 6.548-6.482s6.548 2.87 6.548 6.482zM6.548 200c3.617 0 6.548-2.902 6.548-6.481 0-3.58-2.931-6.482-6.548-6.482-3.616 0-6.548 2.902-6.548 6.482C0 197.098 2.932 200 6.548 200z" opacity=".3" fill="#2F3544"/><path d="M217 256v-90h-90v90h90z" fill="#FFDE29"/></svg>