<svg width="145" height="200" fill="none" xmlns="http://www.w3.org/2000/svg"><path d="M84.869 6.481c0 3.612-2.9 6.482-6.548 6.482-3.649 0-6.549-2.87-6.549-6.482 0-3.61 2.9-6.481 6.549-6.481 3.554 0 6.548 2.87 6.548 6.481zm46.68 0c0 3.612-2.9 6.482-6.549 6.482-3.648 0-6.548-2.87-6.548-6.482 0-3.61 2.9-6.481 6.548-6.481 3.649 0 6.549 2.87 6.549 6.481zM31.548 12.963c3.617 0 6.548-2.902 6.548-6.482S35.165 0 31.548 0C27.932 0 25 2.902 25 6.481c0 3.58 2.932 6.482 6.548 6.482zM84.869 53.24c0 3.612-2.9 6.482-6.548 6.482-3.649 0-6.549-2.87-6.549-6.481 0-3.611 2.9-6.482 6.549-6.482 3.554 0 6.548 2.87 6.548 6.482zm46.68 0c0 3.612-2.9 6.482-6.549 6.482-3.648 0-6.548-2.87-6.548-6.481 0-3.611 2.9-6.482 6.548-6.482 3.649 0 6.549 2.87 6.549 6.482zm-93.453 0c0 3.612-2.9 6.482-6.548 6.482S25 56.852 25 53.241c0-3.611 2.9-6.482 6.548-6.482s6.548 2.87 6.548 6.482zM84.869 100c0 3.611-2.9 6.481-6.548 6.481-3.649 0-6.549-2.87-6.549-6.481 0-3.611 2.9-6.481 6.549-6.481 3.554 0 6.548 2.87 6.548 6.481zm46.68 0c0 3.611-2.9 6.481-6.549 6.481-3.648 0-6.548-2.87-6.548-6.481 0-3.611 2.9-6.481 6.548-6.481 3.649 0 6.549 2.87 6.549 6.481zm-100.001 6.481c3.617 0 6.548-2.901 6.548-6.481s-2.931-6.481-6.548-6.481C27.932 93.519 25 96.42 25 100s2.932 6.481 6.548 6.481zm53.321 40.278c0 3.611-2.9 6.482-6.548 6.482-3.649 0-6.549-2.871-6.549-6.482s2.9-6.481 6.549-6.481c3.554 0 6.548 2.87 6.548 6.481zm46.68 0c0 3.611-2.9 6.482-6.549 6.482-3.648 0-6.548-2.871-6.548-6.482s2.9-6.481 6.548-6.481c3.649 0 6.549 2.87 6.549 6.481zm-100.001 6.482c3.617 0 6.548-2.902 6.548-6.482 0-3.579-2.931-6.481-6.548-6.481-3.616 0-6.548 2.902-6.548 6.481 0 3.58 2.932 6.482 6.548 6.482zm53.321 40.278c0 3.611-2.9 6.481-6.548 6.481-3.649 0-6.549-2.87-6.549-6.481 0-3.612 2.9-6.482 6.549-6.482 3.554 0 6.548 2.87 6.548 6.482zm46.68 0c0 3.611-2.9 6.481-6.549 6.481-3.648 0-6.548-2.87-6.548-6.481 0-3.612 2.9-6.482 6.548-6.482 3.649 0 6.549 2.87 6.549 6.482zM31.548 200c3.617 0 6.548-2.902 6.548-6.481 0-3.58-2.931-6.482-6.548-6.482-3.616 0-6.548 2.902-6.548 6.482 0 3.579 2.932 6.481 6.548 6.481z" opacity=".3" fill="#2F3544"/><path d="M0 147.5C0 133.969 10.969 123 24.5 123S49 133.969 49 147.5 38.031 172 24.5 172 0 161.031 0 147.5z" fill="#FFDE29"/></svg>