<svg width="200" height="233" fill="none" xmlns="http://www.w3.org/2000/svg"><path d="M59.87 39.481c0 3.612-2.9 6.482-6.55 6.482-3.647 0-6.547-2.87-6.547-6.482 0-3.61 2.9-6.481 6.548-6.481 3.555 0 6.548 2.87 6.548 6.481zm46.678 0c0 3.612-2.9 6.482-6.548 6.482s-6.548-2.87-6.548-6.482c0-3.61 2.9-6.481 6.548-6.481s6.548 2.87 6.548 6.481zm40.225 6.482c3.616 0 6.548-2.902 6.548-6.482S150.389 33 146.773 33c-3.617 0-6.548 2.902-6.548 6.481 0 3.58 2.931 6.482 6.548 6.482zM200 39.481c0 3.612-2.9 6.482-6.548 6.482-3.649 0-6.548-2.87-6.548-6.482 0-3.61 2.899-6.481 6.548-6.481C197.1 33 200 35.87 200 39.481zM6.548 45.963c3.617 0 6.548-2.902 6.548-6.482S10.165 33 6.548 33C2.932 33 0 35.902 0 39.481c0 3.58 2.932 6.482 6.548 6.482zM59.87 86.24c0 3.612-2.9 6.482-6.55 6.482-3.647 0-6.547-2.87-6.547-6.481 0-3.611 2.9-6.482 6.548-6.482 3.555 0 6.548 2.87 6.548 6.482zm46.678 0c0 3.612-2.9 6.482-6.548 6.482s-6.548-2.87-6.548-6.481c0-3.611 2.9-6.482 6.548-6.482s6.548 2.87 6.548 6.482zm46.773 0c0 3.612-2.9 6.482-6.548 6.482s-6.548-2.87-6.548-6.481c0-3.611 2.9-6.482 6.548-6.482 3.555 0 6.548 2.87 6.548 6.482zm46.679 0c0 3.612-2.9 6.482-6.548 6.482-3.649 0-6.548-2.87-6.548-6.481 0-3.611 2.899-6.482 6.548-6.482 3.648 0 6.548 2.87 6.548 6.482zm-186.904 0c0 3.612-2.9 6.482-6.548 6.482S0 89.852 0 86.241c0-3.611 2.9-6.482 6.548-6.482s6.548 2.87 6.548 6.482zM59.87 133c0 3.611-2.9 6.481-6.55 6.481-3.647 0-6.547-2.87-6.547-6.481 0-3.611 2.9-6.481 6.548-6.481 3.555 0 6.548 2.87 6.548 6.481zm46.678 0c0 3.611-2.9 6.481-6.548 6.481s-6.548-2.87-6.548-6.481c0-3.611 2.9-6.481 6.548-6.481s6.548 2.87 6.548 6.481zm40.225 6.481c3.616 0 6.548-2.901 6.548-6.481s-2.932-6.481-6.548-6.481c-3.617 0-6.548 2.901-6.548 6.481s2.931 6.481 6.548 6.481zM200 133c0 3.611-2.9 6.481-6.548 6.481-3.649 0-6.548-2.87-6.548-6.481 0-3.611 2.899-6.481 6.548-6.481 3.648 0 6.548 2.87 6.548 6.481zM6.548 139.481c3.617 0 6.548-2.901 6.548-6.481s-2.931-6.481-6.548-6.481C2.932 126.519 0 129.42 0 133s2.932 6.481 6.548 6.481zm53.322 40.278c0 3.611-2.9 6.482-6.55 6.482-3.647 0-6.547-2.871-6.547-6.482s2.9-6.481 6.548-6.481c3.555 0 6.548 2.87 6.548 6.481zm46.678 0c0 3.611-2.9 6.482-6.548 6.482s-6.548-2.871-6.548-6.482 2.9-6.481 6.548-6.481 6.548 2.87 6.548 6.481zm40.225 6.482c3.616 0 6.548-2.902 6.548-6.482 0-3.579-2.932-6.481-6.548-6.481-3.617 0-6.548 2.902-6.548 6.481 0 3.58 2.931 6.482 6.548 6.482zM200 179.759c0 3.611-2.9 6.482-6.548 6.482-3.649 0-6.548-2.871-6.548-6.482s2.899-6.481 6.548-6.481c3.648 0 6.548 2.87 6.548 6.481zM6.548 186.241c3.617 0 6.548-2.902 6.548-6.482 0-3.579-2.931-6.481-6.548-6.481-3.616 0-6.548 2.902-6.548 6.481 0 3.58 2.932 6.482 6.548 6.482zm53.322 40.278c0 3.611-2.9 6.481-6.55 6.481-3.647 0-6.547-2.87-6.547-6.481 0-3.612 2.9-6.482 6.548-6.482 3.555 0 6.548 2.87 6.548 6.482zm46.678 0c0 3.611-2.9 6.481-6.548 6.481s-6.548-2.87-6.548-6.481c0-3.612 2.9-6.482 6.548-6.482s6.548 2.87 6.548 6.482zM146.773 233c3.616 0 6.548-2.902 6.548-6.481 0-3.58-2.932-6.482-6.548-6.482-3.617 0-6.548 2.902-6.548 6.482 0 3.579 2.931 6.481 6.548 6.481zM200 226.519c0 3.611-2.9 6.481-6.548 6.481-3.649 0-6.548-2.87-6.548-6.481 0-3.612 2.899-6.482 6.548-6.482 3.648 0 6.548 2.87 6.548 6.482zM6.548 233c3.617 0 6.548-2.902 6.548-6.481 0-3.58-2.931-6.482-6.548-6.482-3.616 0-6.548 2.902-6.548 6.482C0 230.098 2.932 233 6.548 233z" opacity=".3" fill="#2F3544"/><path d="M99.5 141c38.936 0 70.5-31.564 70.5-70.5S138.436 0 99.5 0 29 31.564 29 70.5 60.564 141 99.5 141z" fill="#FF6365"/><path d="M149 177c20.987 0 38-17.013 38-38s-17.013-38-38-38-38 17.013-38 38 17.013 38 38 38z" fill="#FFDE29"/></svg>