<svg width="35" height="35" fill="none" xmlns="http://www.w3.org/2000/svg"><path d="M32.083 24.675v4.375a2.916 2.916 0 01-3.179 2.917A28.86 28.86 0 0116.32 27.49a28.44 28.44 0 01-8.75-8.75A28.86 28.86 0 013.092 6.096a2.917 2.917 0 012.902-3.18h4.375a2.916 2.916 0 012.916 2.509 18.73 18.73 0 001.021 4.098 2.917 2.917 0 01-.656 3.077l-1.852 1.852a23.334 23.334 0 008.75 8.75L22.4 21.35a2.916 2.916 0 013.077-.656c1.323.493 2.698.836 4.098 1.02a2.916 2.916 0 012.508 2.961z" stroke="#fff" stroke-width="2" stroke-linecap="round" stroke-linejoin="round"/></svg>