<?xml version="1.0" encoding="utf-8"?>
<!-- Generator: Adobe Illustrator 19.0.1, SVG Export Plug-In . SVG Version: 6.00 Build 0)  -->
<svg version="1.1" id="Шар_1" xmlns="http://www.w3.org/2000/svg" xmlns:xlink="http://www.w3.org/1999/xlink" x="0px" y="0px"
	 viewBox="-32 34 164 218" style="enable-background:new -32 34 164 218;" xml:space="preserve">
<style type="text/css">
	.st0{fill:#F9F9F9;}
	.st1{fill:#92D8D3;}
	.st2{fill:#00A499;}
	.st3{fill:none;stroke:#053544;stroke-width:3;stroke-linecap:round;stroke-linejoin:round;}
	.st4{opacity:0.75;fill:#FFFFFF;}
</style>
<path class="st0" d="M25,196.6c0,0-52.9-43.7-52.9-94c0-38.7,34-63.9,78-63.9s78,25.2,78,63.9c0,50.2-52.9,94-52.9,94L25,196.6z"/>
<path class="st1" d="M115.4,102.6c0,50.2-44.3,94-44.3,94h-6.7c0,0,29.9-43.7,29.9-94c0-38.1-18.6-63.1-43-63.9
	C87.6,39.3,115.4,64.4,115.4,102.6z"/>
<path class="st1" d="M6,102.6c0,50.2,30,94,30,94h-6.9c0,0-44.3-43.7-44.3-94c0.1-38.3,27.9-63.4,64.2-63.9
	C24.6,39.5,6,64.6,6,102.6z"/>
<path class="st1" d="M68.2,102.6c-0.3,31.7-4.4,63.3-12.3,94H44.3c-7.9-30.7-12-62.3-12.3-94c0-38.7,7.9-63.9,18.1-63.9
	S68.2,64,68.2,102.6z"/>
<path class="st2" d="M31.6,223.4h36.1l0,0v15.3c0,4.9-4,8.9-8.9,8.9H40.3c-4.9,0-8.9-4-8.9-8.9v-15.3H31.6z"/>
<line class="st3" x1="50.2" y1="207.4" x2="50.2" y2="213.3"/>
<line class="st3" x1="67.6" y1="207.4" x2="67.6" y2="213.3"/>
<line class="st3" x1="31.5" y1="207.4" x2="31.5" y2="213.3"/>
<path class="st4" d="M106.8,120l21-21c-0.3-4.8-1.1-9.3-2.5-13.6l-9.7,0c-0.5,0-0.9,0.2-1.2,0.5l-20.8,20.8L72.8,85.9
	c-0.3-0.3-0.8-0.5-1.2-0.5l-43.2,0c-0.5,0-0.9,0.2-1.2,0.5L6.3,106.7l-20.8-20.8c-0.3-0.3-0.8-0.5-1.2-0.5l-9.7,0
	C-27.1,91-28,96.9-28,103.2c0,17.1,6.2,33.5,14.3,47.7l0-37.8L5.1,132c0.6,0.6,1.6,0.8,2.5,0l19.4-19.3l0,17.2L5.5,151.2
	c-0.8,0.8-0.7,3,1.2,3l21.5,0c0.5,0,0.9-0.2,1.2-0.5L50,133.2l8.6,8.6l-9.4,9.4c-0.9,0.9-0.7,3,1.2,3l42.8,0c1.7,0,2.2-2,1.2-3
	L51.2,108c-0.8-0.8-1.6-0.9-2.5,0l-3.1,3.1l0-17.2l4.3-4.3l62.8,62.8c3.3-5.6,6.3-11.5,8.7-17.7L106.8,120z"/>
<path class="st3" d="M45.8,93.4l0,17.2l3.1-3.1c0.9-0.9,1.7-0.8,2.5,0l43.2,43.3c1,1,0.5,3-1.2,3l-42.8,0c-1.9,0-2.1-2.1-1.2-3
	l9.4-9.4l-8.6-8.6l-20.5,20.5c-0.3,0.3-0.8,0.5-1.2,0.5l-21.5,0c-1.9,0-2.1-2.1-1.2-3l21.4-21.4l0-17.2L7.8,131.4
	c-0.8,0.8-1.9,0.6-2.5,0l-18.8-18.8l0,37.8C2.1,177.6,25,196.6,25,196.6h50.2c0,0,22.1-18.3,37.7-44.8L50.2,89L45.8,93.4z"/>
<path class="st3" d="M121.7,134.1c3.9-9.9,6.4-20.6,6.4-31.5c0-1.4-0.1-2.8-0.1-4.2l-21,21L121.7,134.1z"/>
<path class="st3" d="M25,196.6c0,0-52.9-43.7-52.9-94c0-38.7,34-63.9,78-63.9s78,25.2,78,63.9c0,50.2-52.9,94-52.9,94L25,196.6z"/>
<path class="st3" d="M-14.3,85.4l20.8,20.8l20.8-20.8c0.3-0.3,0.8-0.5,1.2-0.5l43.2,0c0.5,0,0.9,0.2,1.2,0.5l20.8,20.8l20.8-20.8
	c0.3-0.3,0.8-0.5,1.2-0.5l9.7,0C116.8,56.4,87,38.7,50.2,38.7c-36.8,0-66.6,17.7-75.4,46.1l9.7,0C-15,84.9-14.6,85-14.3,85.4z"/>
<path class="st3" d="M31.6,223.4h36.1l0,0v15.3c0,4.9-4,8.9-8.9,8.9H40.3c-4.9,0-8.9-4-8.9-8.9v-15.3H31.6z"/>
</svg>
