<?xml version="1.0" encoding="utf-8"?>
<!-- Generator: Adobe Illustrator 19.0.1, SVG Export Plug-In . SVG Version: 6.00 Build 0)  -->
<svg version="1.1" id="business" xmlns="http://www.w3.org/2000/svg" xmlns:xlink="http://www.w3.org/1999/xlink" x="0px" y="0px"
	 viewBox="385 -168 1000 620" style="enable-background:new 385 -168 1000 620;" xml:space="preserve">
<style type="text/css">
	.st0{fill:#92D8D3;}
	.st1{fill:#FFFFFF;}
	.st2{fill:#00A499;}
	.st3{fill:#F2F2F2;}
	.st4{fill:none;stroke:#053544;stroke-width:3;stroke-linecap:round;stroke-linejoin:round;}
</style>
<title>Artboard 1</title>
<g id="business-2">
	<path class="st0" d="M1088.4,285H566.5c-18.6,0-33.7,15.1-33.7,33.7l0,0c0,18.6,15.1,33.7,33.7,33.7h153.8c4.4,0,8,3.6,8,8
		s-3.6,8-8,8H605.4c-7.3,0-13.3,6-13.3,13.3l0,0c0,7.3,6,13.3,13.3,13.3h326.9c7.3,0,13.3-6,13.3-13.3l0,0c0-7.3-6-13.3-13.3-13.3
		h-15.5c-4.4,0-8-3.6-8-8s3.6-8,8-8h171.7c18.6,0,33.7-15.1,33.7-33.7l0,0C1122.2,300.1,1107.1,285,1088.4,285z"/>
	<rect x="577.8" y="0.5" class="st1" width="421.6" height="317.8"/>
	<path class="st2" d="M817.9,266.6v-1.4h-0.4C817.8,265.7,817.9,266.1,817.9,266.6z"/>
	<path class="st2" d="M817.9,268.1c-0.4,3.1-3,5.5-6.2,5.5H625.9c-3.4,0-6.2-2.8-6.2-6.2v9.4c0,3.4,2.8,6.2,6.2,6.2h185.9
		c3.1,0,5.8-2.4,6.2-5.5l0,0c0.1-0.5,0.1-1,0-1.5V268.1z"/>
	<path class="st2" d="M619.7,266v1.4c0-0.5,0.1-0.9,0.2-1.4H619.7z"/>
	<rect x="856.3" y="222.1" class="st3" width="79.1" height="86.2"/>
	<polygon class="st3" points="699,109.5 674.1,109.5 811.2,246.5 811.2,221.6 	"/>
	<polygon class="st3" points="811.2,213.8 811.2,109.5 706.8,109.5 	"/>
	<polygon class="st3" points="786.1,261.1 797.8,261.1 646.1,109.5 634.4,109.5 	"/>
	<polygon class="st3" points="626.6,109.5 626.5,109.5 626.5,261.1 778.3,261.1 	"/>
	<path class="st4" d="M620.3,0.5h199.8"/>
	<path class="st4" d="M829.5,0.5h169.9v317.8H577.8V98.8"/>
	<path class="st4" d="M577.8,90.2V0.5h33.9"/>
	<path class="st2" d="M846.3,109.5v208.8h99.1V109.5H846.3z M935.4,308.3h-79.1V119.5h79.1V308.3z"/>
	<rect x="846.3" y="109.5" class="st4" width="99.1" height="208.8"/>
	<rect x="856.3" y="119.5" class="st4" width="79.1" height="188.8"/>
	<path class="st4" d="M625.9,261.1h185.9c3.4,0,6.2,2.8,6.2,6.2v0c0,3.4-2.8,6.2-6.2,6.2H625.9c-3.4,0-6.2-2.8-6.2-6.2v0
		C619.7,263.9,622.5,261.1,625.9,261.1z"/>
	<path class="st4" d="M856.3,222.1h38.1"/>
	<path class="st4" d="M901,222.1h34.4"/>
	<circle class="st4" cx="872.5" cy="201.2" r="6.1"/>
	<path class="st2" d="M609.7,23.6v45.8c0,9,7.3,16.3,16.3,16.3s16.3-7.3,16.3-16.3V23.6H609.7z"/>
	<path class="st2" d="M674.7,23.6v45.8c0,9,7.3,16.3,16.3,16.3c9,0,16.3-7.3,16.3-16.3V23.6H674.7z"/>
	<path class="st2" d="M739.8,23.6v45.8c0,9,7.3,16.3,16.3,16.3s16.3-7.3,16.3-16.3V23.6H739.8z"/>
	<path class="st2" d="M804.9,23.6v45.8c0,9,7.3,16.3,16.3,16.3c9,0,16.3-7.3,16.3-16.3V23.6H804.9z"/>
	<path class="st2" d="M869.9,23.6v45.8c0,9,7.3,16.3,16.3,16.3c9,0,16.3-7.3,16.3-16.3c0,0,0,0,0,0V23.6H869.9z"/>
	<path class="st2" d="M935,23.6v45.8c0,9,7.3,16.3,16.3,16.3c9,0,16.3-7.3,16.3-16.3c0,0,0,0,0,0V23.6H935z"/>
	<path class="st4" d="M609.7,23.6v45.8c0,9,7.3,16.3,16.3,16.3s16.3-7.3,16.3-16.3V23.6H609.7z"/>
	<path class="st3" d="M642.2,23.6v45.8c0,9,7.3,16.3,16.3,16.3s16.3-7.3,16.3-16.3V23.6H642.2z"/>
	<path class="st3" d="M707.3,23.6v45.8c0,9,7.3,16.3,16.3,16.3c9,0,16.3-7.3,16.3-16.3V23.6H707.3z"/>
	<path class="st3" d="M772.3,23.6v45.8c0,9,7.3,16.3,16.3,16.3c9,0,16.3-7.3,16.3-16.3V23.6H772.3z"/>
	<path class="st3" d="M837.4,23.6v45.8c0,9,7.3,16.3,16.3,16.3s16.3-7.3,16.3-16.3V23.6H837.4z"/>
	<path class="st3" d="M902.5,23.6v45.8c0,9,7.3,16.3,16.3,16.3c9,0,16.3-7.3,16.3-16.3c0,0,0,0,0,0V23.6H902.5z"/>
	<path class="st2" d="M951.3,85.7c-9,0-16.3-7.3-16.3-16.3v0c0,9-7.3,16.3-16.3,16.3c-9,0-16.3-7.3-16.3-16.3c0,0,0,0,0,0
		c0,9-7.3,16.3-16.3,16.3s-16.3-7.3-16.3-16.3c0,9-7.3,16.3-16.3,16.3c-9,0-16.3-7.3-16.3-16.3c0,9-7.3,16.3-16.3,16.3
		c-9,0-16.3-7.3-16.3-16.3c0,9-7.3,16.3-16.3,16.3s-16.3-7.3-16.3-16.3c0,9-7.3,16.3-16.3,16.3s-16.3-7.3-16.3-16.3
		c0,9-7.3,16.3-16.3,16.3c-9,0-16.3-7.3-16.3-16.3c0,9-7.3,16.3-16.3,16.3c-9,0-16.3-7.3-16.3-16.3c0,9-7.3,16.3-16.3,16.3
		s-16.3-7.3-16.3-16.3c0,9-7.3,16.3-16.3,16.3s-16.3-7.3-16.3-16.3v10c0,9,7.3,16.3,16.3,16.3s16.3-7.3,16.3-16.3l0,0
		c0,9,7.3,16.3,16.3,16.3s16.3-7.3,16.3-16.3l0,0c0,9,7.3,16.3,16.3,16.3c9,0,16.3-7.3,16.3-16.3l0,0c0,9,7.3,16.3,16.3,16.3
		c9,0,16.3-7.3,16.3-16.3l0,0c0,9,7.3,16.3,16.3,16.3s16.3-7.3,16.3-16.3l0,0c0,9,7.3,16.3,16.3,16.3s16.3-7.3,16.3-16.3l0,0
		c0,9,7.3,16.3,16.3,16.3c9,0,16.3-7.3,16.3-16.3l0,0c0,9,7.3,16.3,16.3,16.3c9,0,16.3-7.3,16.3-16.3l0,0c0,9,7.3,16.3,16.3,16.3
		s16.3-7.3,16.3-16.3l0,0c0,9,7.3,16.3,16.3,16.3S935,88.4,935,79.5c0,0,0,0,0,0c0,9,7.3,16.3,16.3,16.3s16.3-7.3,16.3-16.3
		c0,0,0,0,0,0v-10C967.5,78.4,960.3,85.7,951.3,85.7z"/>
	<path class="st4" d="M642.2,23.6v45.8c0,9,7.3,16.3,16.3,16.3s16.3-7.3,16.3-16.3V23.6H642.2z"/>
	<path class="st4" d="M674.7,23.6v45.8c0,9,7.3,16.3,16.3,16.3c9,0,16.3-7.3,16.3-16.3V23.6H674.7z"/>
	<path class="st4" d="M707.3,23.6v45.8c0,9,7.3,16.3,16.3,16.3c9,0,16.3-7.3,16.3-16.3V23.6H707.3z"/>
	<path class="st4" d="M739.8,23.6v45.8c0,9,7.3,16.3,16.3,16.3s16.3-7.3,16.3-16.3V23.6H739.8z"/>
	<path class="st4" d="M772.3,23.6v45.8c0,9,7.3,16.3,16.3,16.3c9,0,16.3-7.3,16.3-16.3V23.6H772.3z"/>
	<path class="st4" d="M804.9,23.6v45.8c0,9,7.3,16.3,16.3,16.3c9,0,16.3-7.3,16.3-16.3V23.6H804.9z"/>
	<path class="st4" d="M837.4,23.6v45.8c0,9,7.3,16.3,16.3,16.3s16.3-7.3,16.3-16.3V23.6H837.4z"/>
	<path class="st4" d="M869.9,23.6v45.8c0,9,7.3,16.3,16.3,16.3c9,0,16.3-7.3,16.3-16.3c0,0,0,0,0,0V23.6H869.9z"/>
	<path class="st4" d="M902.5,23.6v45.8c0,9,7.3,16.3,16.3,16.3c9,0,16.3-7.3,16.3-16.3c0,0,0,0,0,0V23.6H902.5z"/>
	<path class="st4" d="M935,23.6v45.8c0,9,7.3,16.3,16.3,16.3c9,0,16.3-7.3,16.3-16.3c0,0,0,0,0,0V23.6H935z"/>
	<path class="st1" d="M935-78.2c-91.2-50.1-201.6-50.1-292.8,0c0,18.7,0,37.5,0,56.2H935V-78.2z"/>
	<path class="st4" d="M674.5-93.6c-11,4.5-21.8,9.6-32.3,15.3c0,18.7,0,37.5,0,56.2H935v-56.2c-35.8-19.7-75.1-31.9-115.7-36"/>
	<path class="st4" d="M808.4-115.2c-39.5-2.6-79,2.6-116.5,15.2"/>
	<path class="st0" d="M662.2-42.1v-24.1c79.6-39.6,173.2-39.6,252.8,0v24.1H662.2z"/>
	<path class="st4" d="M662.2-42.1v-24.1c79.6-39.6,173.2-39.6,252.8,0v24.1H662.2z"/>
	<circle class="st4" cx="715.9" cy="-64" r="4.4"/>
	<circle class="st4" cx="861.3" cy="-64" r="4.4"/>
	<path class="st4" d="M734.3-67c4.5,0,4.5,4,9,4s4.5-4,9-4s4.5,4,9,4s4.5-4,9-4s4.5,4,9,4s4.5-4,9-4s4.5,4,9,4s4.5-4,9-4s4.5,4,9,4
		s4.5-4,9-4s4.5,4,9,4s4.5-4,9-4"/>
	<rect x="680" y="-22.1" class="st4" width="11" height="22.6"/>
	<rect x="886.2" y="-22.1" class="st4" width="11" height="22.6"/>
	<path class="st4" d="M770.6,168.6h-9.8c-4.6,0-8.4,3.7-8.4,8.4l0,0l0,0c0,4.6,3.7,8.4,8.4,8.4l0,0h20.5c2.3,0,4.2-1.9,4.2-4.2l0,0
		c0-2.3-1.9-4.1-4.2-4.1h-15.9"/>
	<path class="st4" d="M752.5,177v8.9c0,9.1,7.4,16.5,16.5,16.5l0,0c9.1,0,16.5-7.4,16.5-16.5c0,0,0,0,0,0v-4.7"/>
	<polygon class="st2" points="785,234.8 752.9,234.8 756.9,261.1 781,261.1 	"/>
	<polygon class="st2" points="687.7,232 660.9,232 664.3,261.1 684.3,261.1 	"/>
	<polygon class="st4" points="785,234.8 752.9,234.8 756.9,261.1 781,261.1 	"/>
	<polygon class="st4" points="687.7,232 660.9,232 664.3,261.1 684.3,261.1 	"/>
	<line class="st4" x1="769" y1="234.8" x2="769" y2="202.3"/>
	<path class="st4" d="M756.7,226.1c3.2,3.2,7.7,4.7,12.2,4.1c1-8-4.6-15.3-12.6-16.3c-1.2-0.2-2.5-0.2-3.7,0
		C752,218.4,753.5,222.9,756.7,226.1z"/>
	<path class="st4" d="M781.3,219.7c-3.2,3.2-7.7,4.7-12.2,4.1c-1-8,4.6-15.3,12.6-16.3c1.2-0.2,2.5-0.2,3.7,0
		C786,212,784.5,216.5,781.3,219.7z"/>
	<line class="st4" x1="674.3" y1="230.1" x2="674.3" y2="190.6"/>
	<path class="st4" d="M686.6,221.3c-3.2,3.2-7.7,4.7-12.2,4.1c-1-8,4.6-15.3,12.6-16.3c1.2-0.2,2.5-0.2,3.7,0
		C691.3,213.6,689.8,218.1,686.6,221.3z"/>
	<path class="st4" d="M662,214.9c3.2,3.2,7.7,4.7,12.2,4.1c1-8-4.6-15.3-12.6-16.3c-1.2-0.2-2.5-0.2-3.7,0
		C657.3,207.2,658.8,211.7,662,214.9z"/>
	<polygon class="st4" points="730.4,261.1 714,261.1 711,211.5 733.4,211.5 	"/>
	<path class="st4" d="M712.4,211.5c0-1.3-0.1-2.7-0.1-4.1c0-14.3,1.9-25.9,4.3-25.9c0.9,0,1.7,1.6,2.4,4.4"/>
	<path class="st4" d="M718,211.5c0-1.3,0-2.7,0-4.1c0-14.3,1.9-25.9,4.3-25.9c0.9,0,1.7,1.6,2.4,4.4"/>
	<path class="st4" d="M723.5,211.5c0-1.3,0-2.7,0-4.1c0-14.3,1.9-25.9,4.3-25.9s4.3,11.6,4.3,25.9c0,1.4,0,2.8,0,4.1"/>
	<path class="st4" d="M681.6,176.4l-7.5-5.1l-7.5,5.1l-7.3-5c-1.9,8.3,3.2,16.6,11.5,18.5c8.3,1.9,16.6-3.2,18.5-11.5
		c0.5-2.3,0.5-4.7,0-7.1l-0.2-0.1L681.6,176.4z"/>
	<rect x="626.5" y="109.5" class="st4" width="184.6" height="151.7"/>
	<path class="st3" d="M1184.3,386l-32.1-104.7l7-63.3c0,0-7-56.7-7-113.4c-5.8-1.6-11.7-2.4-17.7-2.4h-90.4c-6,0-11.9,0.8-17.7,2.4
		c0,56.7-7,113.4-7,113.4l7,63.3L993.3,386H1184.3z"/>
	<path class="st0" d="M1154,287.6c-6.2,4-14,4.7-20.7,1.8l-4.3-1.8l23.7-10l3.1-28.5c-4.2-2.4-9.2-2.7-13.6-0.8l-53.3,22.4
		l-53.3-22.4c-4.1-1.7-8.7-1.6-12.7,0.3l3.2,29.4l22.7,9.5l-4.3,1.8c-6.5,2.8-13.9,2.3-20-1.3l-8.7,30.2c13.1,5.3,27.7,5.2,40.7-0.3
		l32.4-13.6l32.4,13.6c13.2,5.6,28.1,5.6,41.3,0L1154,287.6z"/>
	<path class="st2" d="M1201.1,168.8V218h-41.9c0,0-7-56.7-7-113.4C1181.1,112.6,1201.1,138.8,1201.1,168.8z"/>
	<path class="st2" d="M1026.4,104.6c0,56.7-7,113.4-7,113.4h-41.9v-49.2C977.5,138.8,997.5,112.6,1026.4,104.6z"/>
	<path class="st4" d="M1201.1,168.8V218h-41.9c0,0-7-56.7-7-113.4C1181.1,112.6,1201.1,138.8,1201.1,168.8z"/>
	<path class="st4" d="M1026.4,104.6c0,56.7-7,113.4-7,113.4h-41.9v-49.2C977.5,138.8,997.5,112.6,1026.4,104.6z"/>
	<path class="st4" d="M1184.3,386l-32.1-104.7l7-63.3c0,0-7-56.7-7-113.4c-5.8-1.6-11.7-2.4-17.7-2.4h-90.4c-6,0-11.9,0.8-17.7,2.4
		c0,56.7-7,113.4-7,113.4l7,63.3L993.3,386H1184.3z"/>
	<path class="st1" d="M1154.1,259.4l-25.2,10.6l-40.1,16.8l-32.4,13.6c-27.2,11.4-58.5-1.4-69.9-28.6c-2.7-6.4-4.1-13.3-4.2-20.3
		l-0.2-33.6h31l0.2,33.3c0.1,12.4,10.2,22.3,22.6,22.2c2.9,0,5.8-0.6,8.4-1.7l4.3-1.8l40.1-16.8l53.3-22.4c7.8-3.6,17-0.2,20.6,7.6
		c3.6,7.8,0.2,17-7.6,20.6c-0.3,0.1-0.6,0.3-0.9,0.4H1154.1z"/>
	<path class="st1" d="M1088.8,253.1l-40.1,16.9l-25.2-10.6c-7.9-3.3-11.6-12.4-8.3-20.3s12.4-11.6,20.3-8.3L1088.8,253.1z"/>
	<path class="st1" d="M1195.5,218l-0.2,33.5c-0.2,29.5-24.2,53.2-53.7,53c-7,0-13.9-1.5-20.4-4.2l-32.4-13.6l40.1-16.8l4.3,1.8
		c11.4,4.8,24.5-0.6,29.3-12c1.1-2.7,1.7-5.6,1.7-8.5l0.2-33.3L1195.5,218z"/>
	<path class="st4" d="M1154.1,259.4l-25.2,10.6l-40.1,16.8l-32.4,13.6c-27.2,11.4-58.5-1.4-69.9-28.6c-2.7-6.4-4.1-13.3-4.2-20.3
		l-0.2-33.6h31l0.2,33.3c0.1,12.4,10.2,22.3,22.6,22.2c2.9,0,5.8-0.6,8.4-1.7l4.3-1.8l40.1-16.8l53.3-22.4c7.8-3.6,17-0.2,20.6,7.6
		c3.6,7.8,0.2,17-7.6,20.6c-0.3,0.1-0.6,0.3-0.9,0.4H1154.1z"/>
	<path class="st4" d="M1088.8,253.1l-40.1,16.9l-25.2-10.6c-7.9-3.3-11.6-12.4-8.3-20.3s12.4-11.6,20.3-8.3L1088.8,253.1z"/>
	<path class="st4" d="M1195.5,218l-0.2,33.5c-0.2,29.5-24.2,53.2-53.7,53c-7,0-13.9-1.5-20.4-4.2l-32.4-13.6l40.1-16.8l4.3,1.8
		c11.4,4.8,24.5-0.6,29.3-12c1.1-2.7,1.7-5.6,1.7-8.5l0.2-33.3L1195.5,218z"/>
	<path class="st3" d="M1086.9-107c-41.1-14.4-85.9,26-85.9,93.1c0,33.2-15.2,82.3-15.2,82.3c80.3,36.1,131.3,36.1,211.5,0
		c0,0-13.7-47.6-13.7-87.7C1183.7-78.8,1125.2-122.1,1086.9-107z"/>
	<path class="st4" d="M1020.9-81.9c-12.1,16.7-19.9,40-19.9,68c0,33.2-15.2,82.3-15.2,82.3c80.3,36.1,131.3,36.1,211.5,0
		c0,0-13.7-47.7-13.7-87.7c0-41.4-28.3-75-58.5-86.5"/>
	<path class="st4" d="M1119.4-107.7c-11.3-3.2-22.6-3.2-32.5,0.7c-20.8-7.3-42.6-0.6-59,16.6"/>
	<path class="st1" d="M1150.6-21.7c-34.8,0-64.6-25.2-70.3-59.5c-34.3,2.6-60.8,31.1-60.8,65.5V16c0,36.3,29.4,65.7,65.7,65.7h8.3
		c36.3,0,65.7-29.4,65.7-65.7c0,0,0,0,0,0v-31.7c0-2.2-0.1-4.4-0.3-6.5C1156.1-21.9,1153.3-21.7,1150.6-21.7z"/>
	<path class="st4" d="M1148.7-21.8c-34.1-0.9-62.9-25.8-68.5-59.5c-34.3,2.6-60.8,31.1-60.8,65.5V16c0,36.3,29.4,65.7,65.7,65.7h8.3
		c36.3,0,65.7-29.4,65.7-65.7c0,0,0,0,0,0v-31.7c0-2.2-0.1-4.4-0.3-6.5h-0.3"/>
	<path class="st4" d="M1067.7-9.3c-1.8-5.4-7.7-8.3-13.1-6.4c-2.6,0.9-4.7,2.7-5.9,5.1"/>
	<path class="st4" d="M1111-9.3c1.8-5.4,7.7-8.3,13.1-6.4c2.6,0.9,4.7,2.7,5.9,5.1"/>
	<path class="st1" d="M1113.5,43.5c3.8-3.3,6.9-7.4,9-12c-21.1,4.6-42.9,4.6-63.9,0c2.1,4.6,5.2,8.7,9,12
		C1082.8,45.8,1098.3,45.8,1113.5,43.5L1113.5,43.5z"/>
	<path class="st3" d="M1113.5,43.5c-15.2,2.3-30.7,2.3-45.8,0C1080.8,54.8,1100.3,54.8,1113.5,43.5z"/>
	<path class="st4" d="M1090.6,35c-10.8,0.1-21.5-1.1-32-3.5c8.1,17.6,29,25.4,46.6,17.3c7.6-3.5,13.8-9.6,17.3-17.3
		C1112,33.9,1101.3,35.1,1090.6,35z"/>
	<path class="st2" d="M1134.6,102.2h-7.3c-11.2,21.2-37.5,29.3-58.8,18.1c-7.7-4.1-14-10.4-18.1-18.1h-6.4V178h90.7v-75.8H1134.6z"
		/>
	<path class="st1" d="M1092.2,90.7c-8.2,0-16.5-0.5-24.7-1.4v12.9h-17.1c11.2,21.2,37.5,29.3,58.8,18.1c7.7-4.1,14-10.4,18.1-18.1
		h-16.1V89.9C1105,90.4,1098.7,90.7,1092.2,90.7z"/>
	<path class="st3" d="M1111.2,89.9V79.3c-5.8,1.6-11.7,2.4-17.7,2.4h-8.3c-6,0-11.9-0.8-17.7-2.4v10c8.2,0.9,16.4,1.4,24.7,1.4
		C1098.7,90.7,1105,90.4,1111.2,89.9z"/>
	<path class="st4" d="M1134.6,102.2h-7.3c-11.2,21.2-37.5,29.3-58.8,18.1c-7.7-4.1-14-10.4-18.1-18.1h-6.4V178h90.7v-75.8H1134.6z"
		/>
	<path class="st4" d="M1088.8,125.4c16.1,0,30.9-8.9,38.4-23.1h-16.1V79.3c-5.8,1.6-11.7,2.4-17.7,2.4h-8.3c-6,0-11.9-0.8-17.7-2.4
		v22.9h-17.1C1057.9,116.5,1072.7,125.4,1088.8,125.4z"/>
	<path class="st4" d="M1051.4,237v-35.8h47.9"/>
	<path class="st4" d="M1106.5,201.2h20.8V237"/>
	<path class="st4" d="M1051.4,213.8h17.2"/>
	<path class="st4" d="M1075.8,213.8h51.5"/>
	<path class="st4" d="M1099.3,10.2L1099.3,10.2c0,3.3-2.7,6-6,6h-3"/>
	<line class="st4" x1="1085.3" y1="16.2" x2="1082.9" y2="16.2"/>
</g>
</svg>
