<?xml version="1.0" encoding="utf-8"?>
<!-- Generator: Adobe Illustrator 19.0.1, SVG Export Plug-In . SVG Version: 6.00 Build 0)  -->
<svg version="1.1" id="Шар_1" xmlns="http://www.w3.org/2000/svg" xmlns:xlink="http://www.w3.org/1999/xlink" x="0px" y="0px"
	 viewBox="38 -34 115 108" style="enable-background:new 38 -34 115 108;" xml:space="preserve">
<style type="text/css">
	.st0{fill:#FFFFFF;}
	.st1{fill:#053544;}
</style>
<path class="st0" d="M66.1,14.3c0,4.1,1.6,7.9,4.5,10.8l23,22.9l22.9-22.9c2.9-2.9,4.5-6.7,4.5-10.8c0-4.1-1.6-7.9-4.5-10.8
	S109.8-1,105.7-1c-4.1,0-7.9,1.6-10.8,4.5l-0.2,0.2c-0.6,0.6-1.5,0.6-2.1,0l-0.2-0.2c-3.2-3-7-4.5-11-4.5c-3.9,0-7.8,1.5-10.8,4.5
	C67.7,6.4,66.1,10.2,66.1,14.3z"/>
<path class="st1" d="M81.4-1c-3.9,0-7.8,1.5-10.8,4.5c-2.9,2.9-4.5,6.7-4.5,10.8s1.6,7.9,4.5,10.8l23,22.9l22.9-22.9
	c2.9-2.9,4.5-6.7,4.5-10.8s-1.6-7.9-4.5-10.8c-2.9-2.9-6.7-4.5-10.8-4.5s-7.9,1.6-10.8,4.5l-0.2,0.2c-0.6,0.6-1.5,0.6-2.1,0
	l-0.2-0.2C89.2,0.5,85.4-1,81.4-1z M93.6,51.6c-0.4,0-0.8-0.2-1.1-0.4l-24-24c-3.5-3.5-5.4-8.1-5.4-12.9c0-4.9,1.9-9.5,5.4-12.9
	c6.9-6.9,17.9-7.1,25-0.8c3.3-3,7.6-4.6,12.1-4.6c4.9,0,9.5,1.9,12.9,5.4c7.1,7.1,7.1,18.7,0,25.9l-24,24
	C94.4,51.5,93.9,51.6,93.6,51.6z"/>
<path class="st1" d="M92.4,40.9L77.6,26c-0.6-0.6-0.6-1.5,0-2.1s1.5-0.6,2.1,0l14.9,14.9L92.4,40.9z"/>
<path class="st1" d="M73.9,21.5c-0.5,0-0.9-0.2-1.2-0.6c-1.5-1.9-2.2-4.2-2.2-6.7c0-2.9,1.1-5.7,3.2-7.8l0.1-0.1
	c0.6-0.6,1.6-0.6,2.1,0c0.6,0.6,0.6,1.5,0,2.1l-0.1,0.1c-1.5,1.5-2.4,3.5-2.4,5.7c0,1.8,0.6,3.4,1.6,4.8c0.5,0.7,0.4,1.6-0.3,2.1
	C74.4,21.4,74.1,21.5,73.9,21.5z"/>
<path class="st1" d="M107.1-1c-0.4,0-0.8-0.1-1.1-0.4c-0.6-0.6-0.6-1.5,0-2.1l21.9-21.9c0.6-0.6,1.6-0.6,2.2,0
	c0.6,0.6,0.6,1.5,0,2.1l-22,21.9C107.9-1.1,107.4-1,107.1-1z"/>
<path class="st1" d="M118.9,5.4c-0.4,0-0.8-0.1-1.1-0.4c-0.6-0.6-0.6-1.5,0-2.1L137-16.3c0.6-0.6,1.5-0.6,2.1,0
	c0.6,0.6,0.6,1.5,0,2.1L119.9,5C119.6,5.3,119.2,5.4,118.9,5.4z"/>
<path class="st1" d="M122.1,20.3c-0.4,0-0.8-0.1-1.1-0.4c-0.6-0.6-0.6-1.5,0-2.1l25-25c0.6-0.6,1.5-0.6,2.1,0c0.6,0.6,0.6,1.5,0,2.1
	l-25,25C122.9,20.2,122.6,20.3,122.1,20.3z"/>
<path class="st1" d="M70.4,72c-0.4,0-0.8-0.1-1.1-0.4c-0.6-0.6-0.6-1.5,0-2.1l7.3-7.3c0.3-0.3,0.7-0.4,1.1-0.4
	c0.4,0,0.8,0.2,1.1,0.4c2.1,2.1,5,3.3,8,3.3s5.9-1.2,8-3.3l51.9-51.9c2-2,2.1-5.1,0.3-7c-0.9-1-2.2-1.5-3.5-1.6h-0.1
	c-1.3,0-2.5,0.5-3.5,1.4c-0.6,0.6-1.5,0.6-2.1,0s-0.6-1.5,0-2.1l7.9-7.9c2-2,2.1-5.1,0.3-7c-0.9-1-2.2-1.5-3.5-1.5
	c-1.3,0-2.6,0.5-3.6,1.4c-0.6,0.6-1.5,0.6-2.1,0c-0.3-0.3-0.4-0.7-0.4-1.1s0.1-0.8,0.4-1.1c0.9-0.9,1.5-2.2,1.4-3.6
	c0-1.3-0.6-2.6-1.6-3.5c-1.9-1.8-5.1-1.7-7,0.3l-5.5,5.5c-0.6,0.6-1.5,0.6-2.1,0c-0.3-0.3-0.4-0.7-0.4-1.1s0.1-0.8,0.4-1.1
	c0.9-0.9,1.5-2.2,1.4-3.6c0-1.3-0.6-2.6-1.6-3.5c-1.9-1.8-5.1-1.7-7,0.3l-26,26.3c-0.6,0.6-1.5,0.6-2.1,0s-0.6-1.5,0-2.1l26.2-26.3
	c3.1-3.1,8.1-3.2,11.2-0.3c1.4,1.3,2.2,3,2.4,4.9l1.1-1.1c3.1-3.1,8.1-3.3,11.2-0.4c1.6,1.5,2.5,3.5,2.5,5.7c0,0.5,0,0.9-0.1,1.4
	c0.5-0.1,0.9-0.1,1.4-0.1c2.2,0,4.2,0.9,5.6,2.5c2.9,3.1,2.7,8.1-0.4,11.2l-3.5,3.5c1.9,0.2,3.6,1.1,4.9,2.4
	c2.9,3.1,2.7,8.1-0.4,11.2L97.1,64.2c-2.7,2.7-6.3,4.2-10.1,4.2c-3.3,0-6.5-1.1-9-3.2l-6.3,6.3C71.2,71.8,70.9,72,70.4,72z"/>
<path class="st1" d="M56.1,70.6c-0.4,0-0.8-0.1-1.1-0.4L39.4,54.6c-0.6-0.6-0.6-1.5,0-2.1l12.9-12.9c-4.2-6.3-9.9-27.6,5.9-43.4
	c3.9-3.9,7.3-10.5,10.5-20.3c1-3,4.2-4.9,7.2-4.3c3.5,0.7,5.9,3.7,5.9,7.3c0,7.1-0.2,12.9-0.6,18.8c-0.1,0.8-0.8,1.5-1.6,1.4
	c-0.8-0.1-1.5-0.8-1.4-1.6c0.4-5.9,0.6-11.6,0.6-18.6c0-2.2-1.4-3.9-3.5-4.3c-1.6-0.3-3.3,0.7-3.8,2.3c-3.4,10.2-7,17.2-11.2,21.5
	c-15.4,15.4-8.5,36.9-5,40.4c0.6,0.6,0.6,1.5,0,2.1L42.6,53.5L57.1,68c0.6,0.6,0.6,1.5,0,2.1C56.9,70.5,56.6,70.6,56.1,70.6z"/>
</svg>
