<?xml version="1.0" encoding="utf-8"?>
<!-- Generator: Adobe Illustrator 19.0.1, SVG Export Plug-In . SVG Version: 6.00 Build 0)  -->
<svg version="1.1" id="Шар_1" xmlns="http://www.w3.org/2000/svg" xmlns:xlink="http://www.w3.org/1999/xlink" x="0px" y="0px"
	 viewBox="0 0 1440 700" style="enable-background:new 0 0 1440 700;" xml:space="preserve">
<style type="text/css">
	.st0{fill:#00A59A;}
	.st1{fill:#FFFFFF;}
	.st2{fill:#053544;}
	.st3{fill:#94D5D1;}
	.st4{fill:none;stroke:#053544;stroke-width:3;stroke-linecap:round;stroke-linejoin:round;stroke-miterlimit:10;}
</style>
<path class="st0" d="M497.6,433.1c-1.2,0-2.3-0.2-3.5-0.5c-3.5-0.9-6.4-3.2-8.2-6.3c-1.8-3.1-2.3-6.8-1.4-10.2
	c0.9-3.5,3.2-6.4,6.3-8.2c6.4-3.7,14.7-1.5,18.4,4.9c1.8,3.1,2.3,6.8,1.4,10.2c-0.9,3.5-3.2,6.4-6.3,8.2
	C502.2,432.5,499.9,433.1,497.6,433.1z M497.5,410.1c-1.6,0-3.2,0.4-4.7,1.3c-4.5,2.6-6.1,8.5-3.5,13c1.3,2.2,3.3,3.8,5.8,4.4
	c2.4,0.7,5,0.3,7.2-1c2.2-1.3,3.8-3.3,4.4-5.8s0.3-5-1-7.2C504,411.8,500.8,410.1,497.5,410.1z"/>
<path class="st0" d="M507.5,415.9c-0.7,0-1.4-0.4-1.7-1c-0.6-1-0.2-2.2,0.7-2.7l7.6-4.4l61.3-35.4l9.3-5.4c1-0.6,2.2-0.2,2.7,0.7
	c0.6,1,0.2,2.2-0.7,2.7l-9.3,5.4l-68.9,39.8C508.2,415.8,507.8,415.9,507.5,415.9z"/>
<path class="st0" d="M431,542.4c-1.2,0-2.5-0.2-3.7-0.5c-3.5-1-6.3-3.3-8.1-6.4c-3.6-6.6-1.4-14.7,5.2-18.4
	c6.6-3.5,14.8-1.2,18.4,5.2c3.6,6.5,1.3,14.7-5.1,18.4C435.5,541.8,433.3,542.4,431,542.4z M430.9,519.4c-1.6,0-3.2,0.4-4.7,1.2
	c-4.6,2.6-6.2,8.3-3.6,13c1.2,2.2,3.2,3.8,5.7,4.5c2.5,0.7,5.1,0.4,7.3-0.9c4.6-2.6,6.2-8.4,3.6-13
	C437.5,521.1,434.3,519.4,430.9,519.4z"/>
<path class="st0" d="M441,525.2c-0.7,0-1.4-0.4-1.7-1c-0.5-1-0.2-2.2,0.8-2.7l89.4-50.5c1.5-0.9,3.1-1.8,4.7-2.8l0.7-0.5
	c1.2-0.8,2.5-1.6,3.5-2.6c1.5-1.1,2.7-2.4,3.8-3.6c1.1-1.3,2-2.7,2.6-4.2c0.5-1.3,0.7-2.8,0.7-4.5c-0.3-2.8-1.6-5.6-4.1-8.9
	c-2.6-3.4-5.6-6.5-8.6-9.5c-2.1-2.1-4.3-4.3-6.3-6.6c-2.3-2.7-4.9-5.9-6.4-9.8c-0.8-2.2-1-4.4-0.7-6.4c0.3-1.9,1.1-3.9,2.4-5.8
	c2-2.8,4.8-5.2,8.7-7.6c0.9-0.6,2.2-0.3,2.8,0.7c0.6,0.9,0.3,2.2-0.7,2.8c-3.5,2.1-5.9,4.2-7.5,6.5c-0.9,1.4-1.5,2.8-1.7,4.2
	c-0.3,1.7,0.1,3.3,0.5,4.4c1.2,3.2,3.4,6,5.6,8.6c1.9,2.2,4.1,4.3,6.1,6.4c3.1,3.1,6.2,6.3,9,9.9c3,3.9,4.5,7.4,4.9,10.9
	c0,0,0,0.1,0,0.1c0.1,2.3-0.2,4.5-0.9,6.3c-0.8,1.9-1.9,3.6-3.2,5.2c-1.2,1.4-2.7,2.8-4.3,4.1c-1.2,1-2.6,1.9-3.9,2.8l-0.7,0.5
	c-1.7,1.1-3.3,2-4.9,2.9l-4.8,2.7L442,524.9C441.7,525.1,441.3,525.2,441,525.2z"/>
<path class="st0" d="M520.1,547.4c-4.7,0-9.2-2.4-11.7-6.7c-1.8-3.1-2.3-6.8-1.4-10.2c0.9-3.5,3.2-6.4,6.3-8.2
	c6.4-3.7,14.7-1.5,18.4,4.9c3.7,6.4,1.5,14.7-4.9,18.4C524.7,546.8,522.4,547.4,520.1,547.4z M520,524.4c-1.6,0-3.2,0.4-4.7,1.3
	c-4.5,2.6-6.1,8.5-3.5,13c2.6,4.5,8.5,6.1,13,3.5c4.5-2.6,6.1-8.5,3.5-13C526.5,526.1,523.3,524.4,520,524.4z"/>
<path class="st0" d="M530,530.2c-0.7,0-1.4-0.4-1.7-1c-0.6-1-0.2-2.2,0.7-2.7l7.6-4.4l148.3-85.6l9.3-5.4c1-0.6,2.2-0.2,2.7,0.7
	c0.6,1,0.2,2.2-0.7,2.7l-9.3,5.4l-148.3,85.6l-7.6,4.4C530.7,530.1,530.3,530.2,530,530.2z"/>
<path class="st0" d="M591.7,557.5c-2.3,0-4.6-0.6-6.7-1.8c-6.4-3.7-8.7-12-5-18.4c1.8-3.2,4.7-5.4,8.2-6.4c3.5-1,7.1-0.5,10.2,1.3
	c6.5,3.8,8.8,11.9,5,18.4c-1.8,3.1-4.7,5.4-8.2,6.4C594,557.3,592.9,557.5,591.7,557.5z M591.7,534.4c-0.8,0-1.7,0.1-2.5,0.3
	c-2.5,0.7-4.5,2.3-5.8,4.5c0,0,0,0,0,0c-2.6,4.5-1,10.4,3.6,13c2.2,1.3,4.7,1.6,7.2,0.9c2.5-0.7,4.5-2.3,5.8-4.5
	c2.6-4.6,1.1-10.3-3.6-13C595,534.9,593.4,534.4,591.7,534.4z"/>
<path class="st0" d="M581.7,540.3c-0.3,0-0.7-0.1-1-0.3l-7.6-4.3c-4.9-2.8-8.4-6.2-10.5-10.2c-1.3-2.7-1.8-5.2-1.7-7.6
	c0-2.3,0.7-4.7,2.1-7.4c1.8-3.1,4.5-5.9,8.1-8.3c0.9-0.6,2.2-0.4,2.8,0.6s0.4,2.2-0.6,2.8c-3.1,2.1-5.4,4.4-6.9,6.9
	c-1.1,2-1.6,3.8-1.6,5.5c-0.1,1.9,0.3,3.7,1.3,5.7c1.7,3.2,4.7,6.1,8.9,8.5l7.6,4.3c1,0.5,1.3,1.8,0.8,2.7
	C583.1,539.9,582.4,540.3,581.7,540.3z"/>
<path class="st0" d="M989.3,566.8c-2.3,0-4.6-0.6-6.7-1.8c-6.4-3.8-8.7-12-4.9-18.4c1.8-3.1,4.7-5.4,8.2-6.3
	c3.5-0.9,7.1-0.5,10.2,1.4c3.1,1.8,5.4,4.7,6.3,8.2c0.9,3.5,0.5,7.1-1.4,10.2C998.5,564.4,994,566.8,989.3,566.8z M989.4,543.8
	c-0.8,0-1.6,0.1-2.5,0.3c-2.4,0.7-4.5,2.2-5.8,4.4l0,0c-2.6,4.5-1.1,10.3,3.5,13c4.5,2.6,10.3,1.1,13-3.5c1.3-2.2,1.6-4.7,1-7.2
	c-0.7-2.4-2.2-4.5-4.4-5.8C992.6,544.2,991,543.8,989.4,543.8z"/>
<path class="st0" d="M979.4,549.6c-0.3,0-0.7-0.1-1-0.3l-7.6-4.4l-155.4-89.8l-9.4-5.3c-1-0.5-1.3-1.8-0.8-2.7
	c0.5-1,1.8-1.3,2.7-0.8l9.4,5.3l155.4,89.8l7.6,4.4c1,0.6,1.3,1.8,0.7,2.7C980.8,549.2,980.1,549.6,979.4,549.6z"/>
<path class="st0" d="M878,560.6c-2.3,0-4.7-0.6-6.7-1.8c-6.4-3.7-8.7-12-4.9-18.4l0,0c3.8-6.4,12-8.7,18.4-4.9
	c3.1,1.8,5.4,4.7,6.3,8.2c0.9,3.5,0.5,7.1-1.4,10.2c-1.8,3.1-4.7,5.4-8.2,6.3C880.4,560.5,879.2,560.6,878,560.6z M869.8,542.4
	c-2.6,4.5-1.1,10.3,3.5,13c2.2,1.3,4.7,1.6,7.2,1c2.4-0.7,4.5-2.2,5.8-4.4c2.6-4.5,1.1-10.3-3.5-13
	C878.3,536.3,872.5,537.8,869.8,542.4L869.8,542.4z"/>
<path class="st0" d="M868.1,543.4c-0.4,0-0.7-0.1-1-0.3c-1.2-0.7-2.5-1.5-3.8-2.2c-1.3-0.7-2.6-1.5-3.8-2.2
	c-3.7-2.2-6.4-4.7-8.2-7.5c0,0,0-0.1-0.1-0.1c-0.1-0.2-0.2-0.3-0.3-0.5c-0.3-0.6-0.8-1.2-1-2.1c-0.1-0.2-0.2-0.4-0.3-0.7
	c-0.1-0.1-0.1-0.3-0.2-0.4c-0.1-0.1-0.1-0.3-0.2-0.4l-0.3-1.2l-0.2-0.5c0-0.1-0.1-0.2-0.1-0.3l-0.1-0.6c0-0.1,0-0.1,0-0.2l-0.1-1.3
	c0-0.1,0-0.1,0-0.2c0-0.3,0-0.6,0.1-0.9c0-0.1,0-0.3,0-0.4c0-0.1,0-0.2,0-0.3l0.1-0.5c0-0.2,0.1-0.4,0.1-0.6c0-0.1,0-0.2,0-0.2
	c0.7-3.5,2.8-6.8,6-9.7c1.5-1.4,3.2-2.5,4.8-3.5c1.3-0.8,2.5-1.6,3.6-2.5c1.9-1.5,4.4-3.9,5.5-7.3c0.8-2.8,0.5-5.9-0.8-8.4
	c-1.4-2.4-3.6-4.7-6.6-6.6c-1-0.7-2-1.3-3.1-1.9c-0.4-0.2-0.9-0.5-1.3-0.8l-13.8-8c-1-0.6-1.3-1.8-0.7-2.7s1.8-1.3,2.7-0.7l13.8,8
	c0.4,0.3,0.9,0.5,1.3,0.7c1.1,0.6,2.2,1.3,3.3,2.1c3.4,2.2,6.1,4.9,7.8,7.9c1.9,3.4,2.4,7.6,1.2,11.6c-1.2,3.5-3.5,6.6-6.8,9.2
	c-1.2,1-2.6,1.9-4,2.8c-1.6,1-3,1.9-4.3,3.1c-2.6,2.3-4.2,4.8-4.8,7.4c0,0.2-0.1,0.4-0.1,0.5c0,0.1,0,0.1,0,0.2l-0.1,0.5
	c0,0.2,0,0.4-0.1,0.7c0,0.1,0,0.3,0,0.4l0.1,1.5l0.2,0.5c0,0.1,0,0.1,0.1,0.2l0.3,1.1c0.1,0.2,0.2,0.4,0.2,0.6
	c0.1,0.1,0.1,0.3,0.2,0.4c0,0.1,0.1,0.2,0.1,0.3c0.2,0.5,0.4,0.9,0.7,1.4c0.1,0.2,0.2,0.3,0.3,0.5c1.5,2.3,3.8,4.4,6.9,6.2
	c1.2,0.7,2.5,1.5,3.8,2.2c1.3,0.7,2.6,1.5,3.8,2.2c0.9,0.6,1.3,1.8,0.7,2.7C869.4,543,868.8,543.4,868.1,543.4z"/>
<path class="st0" d="M910,452.6c-0.8,0-1.7,0-2.6-0.1c-3.6-0.5-6.8-2.5-8.8-5.8c-1.7-2.7-2.4-6.1-2-9.9c0.1-0.8,0.2-1.6,0.5-2.4
	l0.1-0.3c0.2-0.6,0.4-1.2,0.7-1.8c0.7-1.3,1.5-2.6,2.8-3.7c0.5-0.4,1.1-0.9,1.7-1.3c0.1-0.1,0.3-0.1,0.4-0.2c0.1,0,0.2-0.1,0.2-0.1
	c0.1-0.1,0.2-0.1,0.3-0.2s0.2-0.1,0.3-0.1l0.9-0.3c0.8-0.3,1.5-0.4,2.3-0.5c0.7-0.1,1.5-0.1,2.3-0.1c1.6,0,3.2,0.2,4.8,0.7
	c1.9,0.5,3.4,1.3,4.8,2.3c1.5,1,2.7,2.4,3.6,4.1c0.9,1.6,1.3,3.5,1.3,5.4c0,0.9-0.1,1.9-0.3,2.9c-0.2,1-0.6,1.8-0.9,2.7
	c0,0.1-0.1,0.1-0.1,0.2l-0.6,1.2c-0.2,0.5-0.5,0.8-0.8,1.1c-0.1,0.1-0.2,0.2-0.2,0.3c0,0-0.1,0.1-0.1,0.1c-0.6,0.7-1.3,1.5-2.1,2.2
	c-1.6,1.4-3.5,2.4-5.4,3c-0.9,0.2-1.8,0.4-2.7,0.6C910.2,452.6,910.1,452.6,910,452.6z M904.3,430.8c-0.4,0.2-0.7,0.5-1.1,0.9
	c-0.8,0.6-1.3,1.6-1.8,2.4c-0.1,0.3-0.3,0.7-0.4,1.2l-0.1,0.4c-0.1,0.4-0.2,1.1-0.3,1.7c-0.3,2.8,0.2,5.3,1.4,7.3
	c1.4,2.3,3.5,3.7,6,4c0.6,0.1,1.3,0.1,2,0.1c0.7-0.1,1.4-0.3,2-0.4c1.3-0.4,2.7-1.1,3.9-2.2c0.6-0.5,1.1-1.1,1.6-1.7
	c0.1-0.1,0.2-0.2,0.3-0.4c0.1-0.1,0.2-0.3,0.3-0.4l0.6-1.1c0.3-0.7,0.5-1.4,0.7-2.1c0.2-0.7,0.2-1.4,0.2-2c0-1.2-0.3-2.5-0.9-3.6
	c-0.6-1.1-1.4-2-2.4-2.7c0,0-0.1,0-0.1-0.1c-1-0.8-2.1-1.3-3.5-1.7c-1.2-0.4-2.5-0.5-3.7-0.5c-0.6,0-1.2,0-1.7,0.1
	c-0.7,0.1-1.2,0.2-1.6,0.3l-0.8,0.3C904.8,430.5,904.6,430.7,904.3,430.8z"/>
<path class="st0" d="M917.4,432.4c-0.4,0-0.8-0.1-1.2-0.4c-0.9-0.6-1.1-1.9-0.5-2.8c1.8-2.6,3.2-4.9,4.1-7.2
	c1.6-3.7,2.4-7.5,2.4-11.1c0-3.6-0.8-7.4-2.3-11.2c-2.6-6.4-7.5-12.4-14.7-17.8c-1.6-1.2-3.3-2.4-4.9-3.4c-1.6-1.1-3.4-2.1-5.2-3
	l-41.1-23.7c-1-0.6-1.3-1.8-0.7-2.7c0.6-1,1.8-1.3,2.7-0.7l9.3,5.4l31.8,18.3c1.8,1,3.6,2,5.4,3.2c1.7,1.1,3.4,2.3,5.1,3.6
	c7.7,5.9,13.1,12.5,16,19.5c1.7,4.3,2.5,8.5,2.5,12.7c0,4.2-0.9,8.5-2.7,12.7c-1,2.5-2.5,5.2-4.5,8
	C918.6,432.1,918,432.4,917.4,432.4z"/>
<path class="st0" d="M966.1,427.4c-2.3,0-4.6-0.6-6.7-1.8c-6.4-3.8-8.7-12-4.9-18.4c3.8-6.4,12-8.7,18.4-4.9
	c3.1,1.8,5.4,4.7,6.3,8.2c0.9,3.5,0.5,7.1-1.4,10.2C975.3,425,970.8,427.4,966.1,427.4z M966.2,404.4c-3.3,0-6.5,1.7-8.3,4.8
	c-2.6,4.5-1.1,10.3,3.5,13c2.2,1.3,4.7,1.6,7.2,1c2.4-0.7,4.5-2.2,5.8-4.4c1.3-2.2,1.6-4.7,1-7.2c-0.7-2.4-2.2-4.5-4.4-5.8
	C969.4,404.8,967.8,404.4,966.2,404.4z"/>
<path class="st0" d="M956.2,410.2c-0.3,0-0.7-0.1-1-0.3l-7.6-4.4l-39-22.5l-9.3-5.3c-1-0.5-1.3-1.8-0.7-2.7c0.5-1,1.8-1.3,2.7-0.7
	l9.3,5.3l46.6,26.9c1,0.6,1.3,1.8,0.7,2.7C957.6,409.8,956.9,410.2,956.2,410.2z"/>
<path class="st0" d="M1022,246.9c-4.7,0-9.2-2.4-11.7-6.7c-1.8-3.1-2.3-6.8-1.4-10.2c0.9-3.5,3.2-6.4,6.3-8.2
	c6.4-3.7,14.7-1.5,18.4,4.9c3.7,6.4,1.5,14.7-4.9,18.4C1026.6,246.3,1024.3,246.9,1022,246.9z M1021.9,223.9c-1.6,0-3.2,0.4-4.7,1.3
	c-4.5,2.6-6.1,8.5-3.5,13c2.6,4.5,8.5,6.1,13,3.5c4.5-2.6,6.1-8.5,3.5-13C1028.4,225.6,1025.2,223.9,1021.9,223.9z"/>
<path class="st0" d="M855.8,331.4c-0.7,0-1.4-0.4-1.7-1c-0.6-1-0.2-2.2,0.7-2.7l9.3-5.4l139.3-80.5l7.6-4.3c1-0.5,2.2-0.2,2.7,0.8
	c0.5,1,0.2,2.2-0.8,2.7l-7.6,4.3l-139.3,80.5l-9.3,5.4C856.5,331.3,856.1,331.4,855.8,331.4z"/>
<path class="st0" d="M1086.2,384.5c-1.1,0-2.1-0.1-3.2-0.4c-3.6-0.8-6.4-2.9-8.4-6c-2-3.2-2.5-6.6-1.7-10.2c0.8-3.6,2.9-6.4,6-8.4
	c3.2-2,6.6-2.5,10.2-1.7c3.6,0.8,6.4,2.9,8.4,6l0,0c2,3.2,2.5,6.6,1.7,10.2c-0.8,3.6-2.9,6.4-6,8.4
	C1091,383.8,1088.6,384.5,1086.2,384.5z M1085.9,361.4c-1.7,0-3.3,0.5-4.9,1.5c-2.3,1.4-3.6,3.3-4.2,5.9s-0.2,4.9,1.2,7.2
	c1.4,2.3,3.3,3.6,5.9,4.2c2.6,0.6,4.9,0.2,7.2-1.2c2.3-1.4,3.6-3.3,4.2-5.9s0.2-4.9-1.2-7.2c0,0,0,0,0,0c-1.4-2.3-3.3-3.6-5.9-4.2
	C1087.4,361.5,1086.7,361.4,1085.9,361.4z"/>
<path class="st0" d="M1076,367.3c-0.3,0-0.7-0.1-1-0.3l-7.6-4.4l-81.2-46.9c-12.3-7.4-27.4-11.9-43.6-12.9c-7.4-0.5-14.9-0.2-23,0.7
	c-8.3,1.1-15.6,2.8-22.2,5.4c-1,0.4-2,0.8-3,1.3c-0.6,0.3-1.3,0.6-1.9,0.8l-1.1,0.5l-3.5,1.8c-1,0.5-2.2,0.1-2.7-0.9
	s-0.1-2.2,0.9-2.7l3.6-1.8c0,0,0.1,0,0.1-0.1l1.2-0.5c0.6-0.3,1.2-0.5,1.8-0.8c1.1-0.5,2.1-0.9,3.3-1.4c6.9-2.6,14.4-4.5,23.1-5.6
	c8.4-1,16.2-1.2,23.8-0.7c16.9,1.1,32.6,5.8,45.4,13.5l88.8,51.3c1,0.6,1.3,1.8,0.7,2.7C1077.4,366.9,1076.7,367.3,1076,367.3z"/>
<path class="st0" d="M1023.6,395.2c-2.3,0-4.7-0.6-6.7-1.8c-6.4-3.8-8.7-12-4.9-18.4c1.8-3.1,4.7-5.4,8.2-6.3
	c3.5-0.9,7.1-0.5,10.2,1.4c3.1,1.8,5.4,4.7,6.3,8.2c0.9,3.5,0.5,7.1-1.4,10.2c-1.8,3.1-4.7,5.4-8.2,6.3
	C1026,395.1,1024.8,395.2,1023.6,395.2z M1023.7,372.2c-0.8,0-1.6,0.1-2.5,0.3c-2.4,0.7-4.5,2.2-5.8,4.4c-2.6,4.5-1.1,10.3,3.5,13
	c2.2,1.3,4.7,1.6,7.2,1c2.4-0.7,4.5-2.2,5.8-4.4c1.3-2.2,1.6-4.7,1-7.2c-0.7-2.4-2.2-4.5-4.4-5.8
	C1026.9,372.6,1025.3,372.2,1023.7,372.2z"/>
<path class="st0" d="M1013.7,378c-0.3,0-0.7-0.1-1-0.3l-7.6-4.4l-15.7-9c-3.4-2-5.8-4.1-7.4-6.6c-0.3-0.5-0.8-1.3-1.3-2.3
	c-0.4-0.9-0.6-1.7-0.8-2.5c-0.2-0.6-0.2-1.1-0.2-1.6v-1.2c0-0.3,0-0.6,0.1-0.9c0-0.1,0-0.2,0-0.2c0-0.2,0-0.3,0.1-0.5l0.3-1.1
	c0.1-0.4,0.3-0.9,0.5-1.5c0-0.1,0.1-0.1,0.1-0.2c0,0,0-0.1,0.1-0.2c0.1-0.2,0.2-0.5,0.4-0.8c0.1-0.2,0.2-0.4,0.4-0.6
	c0.3-0.5,0.6-1,1-1.5l0.6-0.8c0.3-0.4,0.6-0.6,0.8-0.8c0.1-0.1,0.1-0.1,0.2-0.2l0.8-0.8c0.1-0.1,0.1-0.1,0.2-0.2l0.9-0.7
	c0.6-0.5,1.3-1,2.1-1.5l2.6-1.7l0.8-0.7c0,0,0.1-0.1,0.1-0.1c0.4-0.3,1-0.8,1.4-1.3c0,0,0.1-0.1,0.1-0.1c0.3-0.2,0.5-0.6,0.8-0.9
	c0.1-0.2,0.3-0.3,0.4-0.5c0,0,0.1-0.1,0.1-0.1c0,0,0.1-0.1,0.1-0.2c0.1-0.1,0.2-0.3,0.3-0.4c0.2-0.3,0.3-0.5,0.4-0.7
	c0.6-1.3,0.9-2.4,0.9-3.5c0-2.3-1.1-4.8-2.9-6.7c-1.9-2-4.4-3.4-6.8-4.9c-0.5-0.3-1-0.6-1.5-0.9c-0.9-0.6-1.3-1.8-0.7-2.7
	s1.8-1.3,2.7-0.7c0.5,0.3,1,0.6,1.5,0.9c2.7,1.6,5.4,3.2,7.7,5.5c2.6,2.7,4.1,6.2,4.1,9.5c0,1.9-0.6,3.6-1.3,5.1c0,0,0,0.1,0,0.1
	c-0.3,0.5-0.5,0.9-0.7,1.2c0,0.1-0.1,0.1-0.1,0.2c-0.1,0.2-0.3,0.6-0.7,1c-0.1,0.1-0.2,0.3-0.3,0.4c-0.4,0.5-0.8,1-1.3,1.5
	c-0.5,0.5-1.2,1.2-1.9,1.6l-0.8,0.7c0,0-0.1,0.1-0.1,0.1l-0.9,0.6l-1.9,1.2c-0.7,0.4-1.2,0.8-1.7,1.1l-0.9,0.7l-0.7,0.7
	c-0.1,0.1-0.3,0.3-0.4,0.4c-0.1,0.1-0.1,0.1-0.2,0.2l-0.8,1c-0.2,0.3-0.4,0.6-0.6,0.9c-0.2,0.3-0.3,0.6-0.5,0.8c0,0,0,0.1-0.1,0.2
	c-0.1,0.2-0.2,0.4-0.3,0.7c-0.1,0.2-0.1,0.3-0.2,0.6l-0.3,0.9c0,0.1,0,0.3,0,0.4c0,0.1,0,0.2,0,0.4v1.2c0,0.4,0,0.5,0,0.6
	c0.2,0.7,0.4,1.3,0.6,1.9c0.2,0.5,0.5,1.1,0.9,1.7c1.2,1.9,3.2,3.6,6,5.3l23.3,13.4c1,0.6,1.3,1.8,0.7,2.7
	C1015.1,377.6,1014.4,378,1013.7,378z"/>
<path class="st0" d="M946.8,242.9c-4.7,0-9.2-2.4-11.7-6.7c-3.7-6.4-1.5-14.7,4.9-18.4c6.4-3.7,14.7-1.5,18.4,4.9
	c3.7,6.4,1.5,14.7-4.9,18.4C951.4,242.3,949.1,242.9,946.8,242.9z M946.7,219.9c-1.6,0-3.2,0.4-4.7,1.3c-4.5,2.6-6.1,8.5-3.5,13
	c2.6,4.5,8.5,6.1,13,3.5c4.5-2.6,6.1-8.5,3.5-13C953.2,221.6,950,219.9,946.7,219.9z"/>
<path class="st0" d="M905.2,302.7c-0.7,0-1.4-0.4-1.7-1c-0.6-1-0.2-2.2,0.7-2.7l9.3-5.4c2.7-1.6,5.5-3.2,8.3-4.8l0.9-0.7
	c0.1-0.1,0.2-0.1,0.3-0.2c0.1,0,0.2-0.1,0.3-0.2c0.1-0.1,0.2-0.1,0.3-0.2c0.2-0.1,0.3-0.3,0.5-0.4c0.1-0.1,0.2-0.2,0.3-0.3
	c0,0,0.1-0.1,0.1-0.1l0.9-0.8c0.4-0.3,0.7-0.7,1-1.1c0.1-0.2,0.3-0.3,0.4-0.5c0,0,0.1-0.1,0.1-0.1c0.1-0.1,0.2-0.2,0.2-0.4
	c0-0.1,0.1-0.2,0.1-0.2c0.1-0.2,0.2-0.4,0.3-0.5c0,0,0.1-0.1,0.1-0.1c0-0.1,0.1-0.2,0.1-0.3c0.5-1,0.8-2.4,0.8-3.8
	c0-1-0.4-2.2-1.1-3.7c-1.3-2.3-3.3-4.3-6.1-5.9c0,0-0.1,0-0.1-0.1l-2-1.3c-0.1,0-0.1-0.1-0.2-0.1c-0.3-0.2-0.6-0.5-0.9-0.7
	c-0.3-0.3-0.7-0.5-1-0.8c0,0-0.1-0.1-0.1-0.1c-1.2-1.2-2.5-2.5-3.4-4.1c-2.1-3.3-2.5-7.6-1-11.1c0.7-1.8,1.9-3.3,2.9-4.6
	c1.3-1.4,2.6-2.5,4.2-3.5c1.4-0.9,2.9-1.7,4.2-2.5l11.8-6.8c1-0.6,2.2-0.2,2.7,0.7c0.6,1,0.2,2.2-0.7,2.7l-11.8,6.8
	c-1.5,0.8-2.8,1.6-4.1,2.4c-1.3,0.8-2.3,1.7-3.3,2.8c-0.8,1-1.7,2.1-2.2,3.5c-1,2.3-0.7,5.3,0.7,7.5c0.7,1.2,1.7,2.3,2.8,3.3
	c0.3,0.2,0.5,0.4,0.8,0.6c0.3,0.2,0.6,0.5,0.9,0.7l1.9,1.2c3.4,2,6,4.5,7.6,7.4c1.1,2.1,1.5,3.9,1.5,5.6c0,1.4-0.2,3.5-1.1,5.4
	c-0.2,0.5-0.4,0.8-0.5,1c0,0.1-0.1,0.1-0.1,0.2c0,0.1-0.1,0.1-0.1,0.2l-0.1,0.2c-0.2,0.3-0.4,0.7-0.7,1l-0.3,0.4
	c-0.4,0.5-0.9,1.1-1.5,1.7l-0.8,0.7c-0.2,0.2-0.4,0.3-0.5,0.5c-0.1,0.1-0.2,0.2-0.3,0.3c-0.1,0.1-0.2,0.2-0.3,0.2
	c-0.1,0-0.1,0.1-0.2,0.2c-0.2,0.2-0.5,0.4-0.9,0.6L924,292c0,0-0.1,0-0.1,0.1c-2.8,1.7-5.7,3.4-8.4,4.9l-9.3,5.4
	C905.9,302.6,905.5,302.7,905.2,302.7z"/>
<path class="st0" d="M511.8,150.7c-2.3,0-4.7-0.6-6.7-1.8c-6.4-3.8-8.7-12-4.9-18.4c1.8-3.1,4.7-5.4,8.2-6.3
	c3.5-0.9,7.1-0.4,10.2,1.4c3.1,1.8,5.4,4.7,6.3,8.2c0.9,3.5,0.5,7.1-1.4,10.2c-1.8,3.1-4.7,5.4-8.2,6.3
	C514.2,150.6,513,150.7,511.8,150.7z M511.9,127.7c-0.8,0-1.6,0.1-2.5,0.3c-2.4,0.7-4.5,2.2-5.8,4.4c-2.6,4.5-1.1,10.3,3.5,13
	c2.2,1.3,4.7,1.6,7.2,1c2.4-0.7,4.5-2.2,5.8-4.4l0,0c1.3-2.2,1.6-4.7,1-7.2c-0.7-2.4-2.2-4.5-4.4-5.8
	C515.1,128.1,513.5,127.7,511.9,127.7z"/>
<path class="st0" d="M647.4,217.5c-0.3,0-0.7-0.1-1-0.3l-9.3-5.3l-108.7-62.8l-7.6-4.4c-1-0.6-1.3-1.8-0.7-2.7s1.8-1.3,2.7-0.7
	l7.6,4.4l108.7,62.8l9.3,5.3c1,0.5,1.3,1.8,0.7,2.7C648.8,217.1,648.1,217.5,647.4,217.5z"/>
<path class="st0" d="M591.2,127.6c-2.3,0-4.7-0.6-6.7-1.8c-3.1-1.8-5.4-4.7-6.3-8.2c-0.9-3.5-0.5-7.1,1.4-10.2
	c3.8-6.4,12-8.7,18.4-4.9c6.4,3.8,8.7,12,4.9,18.4l0,0c-1.8,3.1-4.7,5.4-8.2,6.3C593.6,127.5,592.4,127.6,591.2,127.6z M591.3,104.6
	c-3.3,0-6.5,1.7-8.3,4.8c-1.3,2.2-1.6,4.7-1,7.2c0.7,2.4,2.2,4.5,4.4,5.8c2.2,1.3,4.7,1.6,7.2,1c2.4-0.7,4.5-2.2,5.8-4.4l0,0
	c2.6-4.5,1.1-10.3-3.5-13C594.5,105,592.9,104.6,591.3,104.6z"/>
<path class="st0" d="M640.1,213.3c-0.3,0-0.7-0.1-1-0.3l-9.3-5.4l-18.6-10.7c-2.4-1.3-4.5-2.7-6.3-4.1c-2.2-1.8-4-3.6-5.3-5.6
	c-0.8-1.1-1.4-2.3-1.8-3.4c-0.5-1.2-0.9-2.4-1.2-3.9c0-0.1,0-0.1,0-0.2c-0.1-1.3-0.2-2.6-0.1-3.9c0.1-1.6,0.4-2.9,0.8-4
	c0.9-2.5,2.3-4.8,4-6.7c1.4-1.7,3.2-3.3,5.6-5c1-0.7,1.9-1.3,2.9-1.9c1.1-0.7,2.1-1.3,3.1-2c2-1.5,3.6-3,4.8-4.5
	c1.5-1.9,2.5-3.7,2.9-5.6c0.6-1.9,0.6-4.1,0.2-6.2c-0.4-1.9-1.3-3.8-2.7-5.6c-1.3-1.7-2.8-3.3-4.6-4.6c-1.9-1.4-3.9-2.6-5.8-3.7
	l-7.6-4.4c-1-0.6-1.3-1.8-0.7-2.7c0.6-1,1.8-1.3,2.7-0.7l7.6,4.4c2,1.1,4.1,2.4,6.2,3.9c2.1,1.5,3.9,3.4,5.4,5.4
	c1.7,2.3,2.8,4.7,3.3,7.2c0.6,2.8,0.5,5.6-0.2,8.1c-0.6,2.3-1.8,4.7-3.6,7c-1.5,1.9-3.3,3.6-5.6,5.3c-1.1,0.8-2.2,1.5-3.3,2.2
	c-0.9,0.6-1.8,1.1-2.7,1.7c-2.1,1.5-3.7,2.9-4.9,4.3c-1.4,1.6-2.5,3.4-3.3,5.5c-0.3,0.8-0.5,1.8-0.6,3c-0.1,1,0,2.1,0.1,3.2
	c0.2,1.1,0.5,2,0.8,2.8c0.5,1,0.9,1.9,1.5,2.8c1.1,1.7,2.6,3.3,4.5,4.8c1.6,1.3,3.5,2.5,5.7,3.7l6.3,3.6l12.4,7.1l9.3,5.4
	c1,0.6,1.3,1.8,0.7,2.7C641.5,212.9,640.8,213.3,640.1,213.3z"/>
<path class="st0" d="M416.5,218.5c-2.3,0-4.7-0.6-6.7-1.8c-3.1-1.8-5.4-4.7-6.3-8.2c-0.9-3.5-0.5-7.1,1.4-10.2
	c3.7-6.4,12-8.7,18.4-4.9c3.1,1.7,5.3,4.6,6.3,8.1c1,3.5,0.5,7.2-1.4,10.3c-1.8,3.1-4.7,5.4-8.2,6.3
	C418.9,218.4,417.7,218.5,416.5,218.5z M416.6,195.5c-3.3,0-6.5,1.7-8.2,4.7c-1.3,2.2-1.6,4.7-1,7.2c0.7,2.4,2.2,4.5,4.4,5.8
	c2.2,1.3,4.7,1.6,7.2,1c2.4-0.7,4.5-2.2,5.8-4.4c1.3-2.2,1.6-4.8,0.9-7.3c-0.7-2.4-2.2-4.5-4.4-5.7
	C419.8,195.9,418.2,195.5,416.6,195.5z"/>
<path class="st0" d="M583.1,303.2c-0.3,0-0.7-0.1-1-0.3l-9.3-5.4l-139.7-80.7l-7.6-4.3c-1-0.5-1.3-1.8-0.8-2.7
	c0.5-1,1.8-1.3,2.7-0.8l7.6,4.3L574.8,294l9.3,5.4c1,0.6,1.3,1.8,0.7,2.7C584.5,302.8,583.8,303.2,583.1,303.2z"/>
<path class="st0" d="M443.7,289.5c-0.6,0-1.1,0-1.7-0.1c-1.6-0.2-3.1-0.7-4.6-1.4c-3.1-1.6-5.6-4.3-6.9-7.6
	c-1.3-3.6-1.1-7.3,0.6-10.5c0.7-1.3,1.8-3,3.4-4.2c1.3-1.1,3-1.9,5.1-2.6c1.2-0.3,2.1-0.5,2.8-0.6c1.1-0.1,2,0,2.9,0.1
	c1.9,0.2,3.6,0.8,5.1,1.7c3.1,1.7,5.4,4.7,6.1,8.5l0,0c0.6,3.3,0,6.9-1.7,10.1c-0.8,1.4-1.9,2.7-3.3,3.8c-0.7,0.6-1.6,1-2.2,1.3
	c-0.8,0.4-1.6,0.7-2.3,0.9C445.9,289.3,444.8,289.5,443.7,289.5z M443.4,266.5c-0.2,0-0.3,0-0.5,0c-0.6,0.1-1.3,0.2-2.3,0.5
	c-1.5,0.4-2.7,1-3.6,1.8c0,0-0.1,0-0.1,0.1c-0.8,0.6-1.6,1.7-2.3,2.9c-1.1,2.2-1.3,4.7-0.4,7.2c0.9,2.3,2.8,4.3,4.9,5.4
	c1.1,0.5,2.2,0.8,3.4,1c1.1,0.2,2.2,0.1,3.4-0.2c0.5-0.1,1.1-0.4,1.7-0.7c0.6-0.3,1.1-0.6,1.4-0.9c1-0.8,1.8-1.7,2.3-2.6
	c1.3-2.3,1.7-4.9,1.3-7.3l0,0c-0.5-2.6-1.9-4.6-4.1-5.7c0,0-0.1,0-0.1-0.1c-1-0.6-2.3-1-3.6-1.2
	C444.3,266.6,443.8,266.5,443.4,266.5z"/>
<path class="st0" d="M556.7,288.1c-0.3,0-0.6-0.1-0.9-0.2l-4.8-2.5c-1.2-0.6-2.4-1.1-3.7-1.7l-1.1-0.5l-2.4-1.1l-7.4-2.7l-7.6-2.3
	l-7.7-1.8c-1.7-0.4-3.3-0.7-5.2-1c-2.3-0.5-4.6-0.7-6.9-1c-1.2-0.1-2.4-0.3-3.6-0.5c-1-0.2-2-0.2-3-0.3c-0.7,0-1.4-0.1-2.2-0.2
	c-0.5,0-1.1-0.1-1.6-0.1c-1.2-0.1-2.4-0.2-3.5-0.2c-1.4,0-2.7,0-4.1-0.1c-2.2-0.1-4.3-0.1-6.5,0l-5.3,0.1l-5.2,0.4
	c-2.3,0.1-4.7,0.5-7,0.8c-1.2,0.2-2.3,0.3-3.5,0.4c-1.8,0.2-3.6,0.6-5.4,0.9c-1,0.2-2,0.4-3.1,0.6c-1.1,0.2-2.1-0.5-2.3-1.6
	c-0.2-1.1,0.5-2.1,1.6-2.3c1-0.2,2-0.4,3-0.5c1.8-0.3,3.7-0.7,5.7-1c1.2-0.1,2.3-0.3,3.5-0.4c2.4-0.3,4.9-0.6,7.3-0.8l5.3-0.4
	c0,0,0.1,0,0.1,0l5.3-0.1c2.3-0.1,4.6-0.1,6.8,0c2.6,0.1,5.3,0.1,7.8,0.3c0.5,0,1.1,0.1,1.6,0.1c0,0,0.1,0,0.1,0
	c0.7,0.1,1.4,0.1,2,0.2c1.1,0.1,2.3,0.2,3.4,0.4c1.1,0.2,2.3,0.3,3.5,0.4c2.3,0.3,4.8,0.6,7.2,1.1c1.9,0.3,3.6,0.6,5.3,1l7.8,1.8
	c0,0,0.1,0,0.1,0l2.6,0.8l5.1,1.5c0,0,0.1,0,0.1,0l7.5,2.7c0.1,0,0.1,0,0.2,0.1l3.5,1.6c1.3,0.6,2.6,1.1,3.9,1.8l4.8,2.5
	c1,0.5,1.4,1.7,0.9,2.7C558.1,287.7,557.4,288.1,556.7,288.1z"/>
<path class="st0" d="M497.6,210.1c-2.3,0-4.7-0.6-6.7-1.8c-3.1-1.8-5.4-4.7-6.3-8.2c-0.9-3.5-0.5-7.1,1.4-10.2
	c1.8-3.1,4.7-5.4,8.2-6.3c3.5-0.9,7.1-0.5,10.2,1.4c6.4,3.8,8.7,12,4.9,18.4l0,0c-1.8,3.1-4.7,5.4-8.2,6.3
	C500,210,498.8,210.1,497.6,210.1z M497.7,187.1c-0.8,0-1.6,0.1-2.5,0.3c-2.4,0.7-4.5,2.2-5.8,4.4c-1.3,2.2-1.6,4.7-1,7.2
	c0.7,2.4,2.2,4.5,4.4,5.8c2.2,1.3,4.7,1.6,7.2,1c2.4-0.7,4.5-2.2,5.8-4.4l0,0c2.6-4.5,1.1-10.3-3.5-13
	C500.9,187.5,499.3,187.1,497.7,187.1z"/>
<path class="st0" d="M537.1,277c-0.3,0-0.7-0.1-1-0.3l-9.3-5.4c-2.3-1.4-4.7-2.7-7.1-4.1c-3.8-2.2-7.8-4.4-11.6-6.7
	c-3.6-2.1-6.5-4.9-8.4-8c-0.3-0.4-0.5-0.8-0.6-1.1c0-0.1-0.1-0.2-0.1-0.3c0,0,0-0.1-0.1-0.2l-0.2-0.4c-0.2-0.4-0.3-0.7-0.4-1.2
	l-0.1-0.4c-0.2-0.7-0.4-1.6-0.4-2.5c-0.1-1.1,0-2.1,0.1-3c0-0.1,0-0.2,0-0.3c0-0.2,0.1-0.4,0.1-0.6c0.1-0.2,0.1-0.5,0.2-0.7l0.2-0.8
	c0-0.1,0.1-0.2,0.1-0.3l0.3-0.5c1.5-3.5,4.2-6.6,7.6-8.9l4.5-2.9c0.3-0.3,0.7-0.5,1-0.8c0.3-0.2,0.6-0.5,0.9-0.7
	c0.2-0.2,0.4-0.4,0.6-0.6c0.4-0.4,0.8-0.8,1.1-1.2c0.5-0.6,1-1.2,1.3-1.8c0.1-0.3,0.3-0.5,0.4-0.8c0.1-0.1,0.2-0.3,0.2-0.4l0.5-1.1
	c0,0,0-0.1,0.1-0.1c0.1-0.1,0.1-0.4,0.2-0.7l0.1-0.2c0-0.1,0.1-0.3,0.1-0.5c0-0.1,0.1-0.3,0.1-0.4l0.1-1.3c0-0.1,0-0.2,0-0.4
	c0-0.3-0.1-0.6-0.1-0.9c0-0.4-0.1-0.8-0.3-1.4c-0.1-0.3-0.1-0.5-0.2-0.8c0-0.1-0.2-0.4-0.3-0.7l-0.6-1.1l-0.7-1.1c0,0,0-0.1-0.1-0.1
	c0-0.1-0.2-0.2-0.3-0.4c-0.1-0.1-0.2-0.3-0.3-0.4c0,0-0.1-0.1-0.1-0.1c-0.3-0.4-0.7-0.8-1.1-1.3l-0.4-0.4c-1.8-1.8-4.2-3.1-6.8-4.6
	c-1-0.5-1.3-1.8-0.8-2.7c0.5-1,1.8-1.3,2.7-0.8c2.7,1.5,5.4,3.1,7.6,5.2l0.4,0.4c0.5,0.5,1.2,1.1,1.7,1.9c0.1,0.1,0.1,0.2,0.2,0.2
	c0.2,0.3,0.5,0.6,0.7,1.1l0.7,1.2c0,0,0,0.1,0.1,0.1l0.6,1.2c0.2,0.5,0.5,1,0.7,1.6c0.1,0.3,0.1,0.5,0.2,0.7
	c0.2,0.7,0.4,1.5,0.4,2.4c0,0.1,0,0.3,0,0.4c0,0.3,0.1,0.6,0.1,0.9c0,0.1,0,0.1,0,0.2l-0.1,1.2c0,0.5-0.2,1-0.3,1.4
	c0,0.1-0.1,0.2-0.1,0.3l0,0.2c-0.1,0.4-0.2,0.9-0.5,1.5l-0.5,1.1c0,0,0,0.1-0.1,0.1c-0.1,0.3-0.3,0.5-0.4,0.8
	c-0.1,0.1-0.2,0.3-0.3,0.4c-0.5,1-1.2,1.9-1.9,2.6c-0.5,0.6-1,1-1.4,1.5c-0.2,0.2-0.4,0.4-0.6,0.6c0,0-0.1,0.1-0.1,0.1
	c-0.4,0.3-0.7,0.6-1.1,0.9c-0.3,0.3-0.7,0.5-1,0.8c-0.1,0.1-0.2,0.1-0.2,0.2l-4.6,2.9c-2.8,1.8-4.9,4.4-6.1,7.2c0,0,0,0.1-0.1,0.1
	l-0.2,0.4l-0.1,0.5c0,0.1-0.1,0.3-0.1,0.5c0,0.2-0.1,0.4-0.1,0.6c-0.1,0.8-0.2,1.5-0.1,2.1c0,0.1,0,0.1,0,0.2c0,0.5,0.2,1,0.3,1.6
	l0.1,0.5c0,0.1,0.1,0.3,0.2,0.6c0.1,0.1,0.1,0.3,0.2,0.4c0.1,0.1,0.1,0.3,0.2,0.4c0.1,0.2,0.1,0.3,0.2,0.4c0,0.1,0.1,0.1,0.1,0.2
	c1.5,2.6,3.9,4.9,7,6.7c3.9,2.3,7.8,4.5,11.6,6.7c2.4,1.4,4.7,2.7,7.1,4.1l9.3,5.4c1,0.6,1.3,1.8,0.7,2.7
	C538.5,276.6,537.8,277,537.1,277z"/>
<path class="st0" d="M499,375.6c-1.2,0-2.3-0.2-3.5-0.5c-3.5-0.9-6.4-3.2-8.2-6.3c-3.7-6.4-1.5-14.7,4.9-18.4
	c3.1-1.8,6.8-2.3,10.2-1.4c3.5,0.9,6.4,3.2,8.2,6.3l0,0c1.8,3.1,2.3,6.8,1.4,10.2c-0.9,3.5-3.2,6.4-6.3,8.2
	C503.6,375,501.3,375.6,499,375.6z M498.9,352.6c-1.6,0-3.3,0.4-4.7,1.3c-4.5,2.6-6.1,8.5-3.5,13c1.3,2.2,3.3,3.8,5.8,4.4
	c2.4,0.7,5,0.3,7.2-1c2.2-1.3,3.8-3.3,4.4-5.8c0.7-2.4,0.3-5-1-7.2l0,0c-1.3-2.2-3.3-3.8-5.8-4.4
	C500.6,352.7,499.8,352.6,498.9,352.6z"/>
<path class="st0" d="M508.9,358.4c-0.7,0-1.4-0.4-1.7-1c-0.6-1-0.2-2.2,0.7-2.7l7.5-4.4l79.5-45.9l9.4-5.4c1-0.6,2.2-0.2,2.7,0.7
	c0.5,1,0.2,2.2-0.7,2.7l-9.4,5.4l-79.5,45.9l-7.5,4.4C509.6,358.3,509.2,358.4,508.9,358.4z"/>
<path class="st0" d="M350.9,355.9c-0.4,0-0.8,0-1.2,0c0,0-0.1,0-0.1,0c-1.8-0.2-3.8-0.9-5.5-1.9c-0.4-0.2-0.8-0.5-1-0.6l-0.2-0.1
	c0,0-0.1,0-0.1-0.1l-0.2-0.2c-0.3-0.2-0.6-0.4-0.9-0.8c-0.7-0.6-1.3-1.2-1.8-2c-1-1.4-1.8-3-2.1-4.7c-0.8-3.5-0.3-7.1,1.7-10.2
	c1.9-3.1,4.9-5.2,8.3-6.1c1.8-0.4,3.5-0.5,5.2-0.2c0.9,0.1,1.9,0.4,2.7,0.7c0.2,0.1,0.4,0.1,0.6,0.2c0.1,0.1,0.2,0.1,0.3,0.1
	c0.5,0.2,1,0.5,1.3,0.7c1.4,0.8,2.6,1.9,3.6,3.2c0.9,1.2,1.7,2.7,2.2,4.2c0.5,1.6,0.7,3.2,0.7,4.9c0,0,0,0.1,0,0.1
	c-0.1,1.9-0.6,3.6-1.3,5.1c-0.6,1.6-1.6,3-3,4.4c-1.3,1.2-2.8,2.1-4.7,2.7C353.9,355.7,352.5,355.9,350.9,355.9z M350,351.9
	c1.5,0.1,2.8,0,3.9-0.4c1.3-0.4,2.3-1,3.2-1.8c1-1,1.6-2,2.1-3.1c0-0.1,0-0.1,0.1-0.2c0.5-1,0.8-2.2,0.9-3.6c0-1.3-0.2-2.5-0.5-3.7
	c-0.3-1-0.9-2.1-1.5-2.9c-0.7-1-1.5-1.7-2.4-2.2c0,0-0.1,0-0.1-0.1c-0.1-0.1-0.4-0.2-0.4-0.3c-0.2-0.1-0.4-0.2-0.6-0.3
	c-0.1-0.1-0.2-0.1-0.3-0.1c-0.1,0-0.1,0-0.2-0.1c-0.5-0.2-1.1-0.4-1.7-0.5c-1.2-0.2-2.4-0.1-3.7,0.2c-2.4,0.6-4.5,2.1-5.8,4.3
	c-1.3,2.1-1.7,4.7-1.1,7.2c0.3,1.2,0.8,2.3,1.5,3.3c0,0,0,0.1,0.1,0.1c0.3,0.5,0.7,0.9,1.1,1.3c0,0,0.1,0.1,0.1,0.1
	c0.1,0.1,0.3,0.2,0.5,0.4l0.4,0.3c0.2,0.1,0.5,0.3,0.6,0.4c0,0,0.1,0,0.1,0.1C347.3,351.2,348.7,351.7,350,351.9z"/>
<path class="st0" d="M395.5,356.6c-8.9,0-17.9-1.4-26.9-4.3c0,0-0.1,0-0.1,0c-0.5-0.2-1-0.3-1.6-0.5c-0.9-0.3-1.7-0.5-2.6-0.9
	l-4-1.6c-1-0.4-1.5-1.6-1.1-2.6c0.4-1,1.6-1.5,2.6-1.1l4.1,1.6c0,0,0.1,0,0.1,0c0.6,0.3,1.4,0.5,2.1,0.7c0.6,0.2,1.2,0.4,1.8,0.6
	c8.8,2.8,17.8,4.2,26.5,4.1c8.8,0,17.7-1.4,26.6-4.1l1.6-0.5c0.2-0.1,0.5-0.2,0.8-0.3c0.3-0.1,0.5-0.2,0.7-0.3l3.2-1.2
	c0.8-0.3,1.5-0.6,2.3-1l3.9-1.8c1.4-0.7,3-1.6,4.5-2.4l1.5-0.8l6-3.5l35.9-20.7c2-1.2,4.2-2.3,6.4-3.2c0,0,0.1,0,0.1,0
	c1.1-0.4,2.3-0.8,3.4-1.1c1.2-0.3,2.3-0.6,3.5-0.8c4.3-1,9.1-1.4,14.1-1.1c4.9,0.2,9.6,1.1,14,2.5l2,0.8c0.4,0.2,0.9,0.3,1.4,0.6
	c0.8,0.3,1.6,0.7,2.3,1.1c0.3,0.1,0.5,0.3,0.8,0.4c0.4,0.2,0.8,0.4,1.2,0.7c0.6,0.3,1.1,0.6,1.7,0.9c0.5,0.2,0.9,0.4,1.4,0.6
	c0.6,0.3,1.1,0.5,1.6,0.6c0,0,0.1,0,0.1,0c4.1,1.4,8.4,2.3,13,2.6c4.4,0.3,8.9,0,13.2-0.9c4.9-1,8.9-2.4,12.3-4.5l9.3-5.4
	c1-0.6,2.2-0.2,2.7,0.7c0.6,1,0.2,2.2-0.7,2.7l-9.3,5.4c-3.7,2.2-8.2,3.9-13.5,4.9c-4.7,0.9-9.4,1.2-14.2,0.9
	c-4.9-0.3-9.6-1.3-14-2.8c-0.8-0.2-1.4-0.5-2.1-0.8c-0.4-0.2-0.8-0.4-1.2-0.5c0,0-0.1,0-0.1-0.1c-0.7-0.3-1.4-0.7-2-1
	c-0.4-0.2-0.8-0.4-1.1-0.6c-0.3-0.1-0.6-0.3-0.9-0.5c-0.7-0.4-1.3-0.7-2-0.9c-0.1,0-0.2-0.1-0.3-0.2c-0.2-0.1-0.6-0.3-0.9-0.4
	l-1.9-0.7c-4-1.3-8.4-2.1-12.9-2.3c-4.7-0.2-9.1,0.2-13.2,1.1c-1.1,0.2-2.1,0.5-3.1,0.8c-1.1,0.3-2.1,0.7-3.2,1.1
	c-2.1,0.9-4,1.8-5.9,2.9l-12,6.9L442,344.5c-1.6,0.9-3.2,1.8-4.7,2.5l-3.9,1.8c-0.8,0.4-1.7,0.8-2.6,1.1l-3.2,1.2
	c-0.2,0.1-0.5,0.2-0.8,0.3c-0.3,0.1-0.5,0.2-0.8,0.3c-0.1,0-0.1,0-0.2,0.1l-1.7,0.5c-9.3,2.8-18.6,4.3-27.8,4.3
	C396.1,356.6,395.8,356.6,395.5,356.6z"/>
<path class="st0" d="M770,116.6c-1.2,0-2.4-0.2-3.6-0.5c-3.5-0.9-6.4-3.2-8.1-6.3c-1.8-3.1-2.3-6.7-1.4-10.2
	c0.9-3.5,3.2-6.4,6.3-8.2c6.4-3.7,14.7-1.5,18.4,4.9c3.7,6.4,1.5,14.7-4.9,18.4C774.6,116,772.3,116.6,770,116.6z M769.9,93.6
	c-1.6,0-3.2,0.4-4.7,1.3c-4.5,2.6-6.1,8.5-3.5,13c0,0,0,0,0,0c1.2,2.2,3.2,3.7,5.7,4.4c2.5,0.7,5.1,0.3,7.3-1
	c4.5-2.6,6.1-8.5,3.5-13C776.4,95.3,773.2,93.6,769.9,93.6z"/>
<path class="st0" d="M679.6,157.3c-0.7,0-1.4-0.4-1.7-1c-0.6-1-0.2-2.2,0.7-2.7l9.3-5.4l63.5-36.6l7.6-4.4c1-0.6,2.2-0.2,2.7,0.7
	c0.6,1,0.2,2.2-0.7,2.7l-7.6,4.4l-63.5,36.6l-9.3,5.4C680.3,157.2,679.9,157.3,679.6,157.3z"/>
<path class="st0" d="M830.2,134.5c-1.2,0-2.3-0.2-3.5-0.5c-3.5-0.9-6.4-3.2-8.2-6.3c-3.7-6.4-1.5-14.7,4.9-18.4
	c6.4-3.7,14.7-1.5,18.4,4.9c1.8,3.1,2.3,6.8,1.4,10.2c-0.9,3.5-3.2,6.4-6.3,8.2C834.8,133.9,832.5,134.5,830.2,134.5z M830.1,111.5
	c-1.6,0-3.2,0.4-4.7,1.3c-4.5,2.6-6.1,8.5-3.5,13c1.3,2.2,3.3,3.8,5.8,4.4c2.4,0.7,5,0.3,7.2-1c2.2-1.3,3.8-3.3,4.4-5.8
	c0.7-2.4,0.3-5-1-7.2C836.6,113.2,833.4,111.5,830.1,111.5z"/>
<path class="st0" d="M698.3,146.5c-0.7,0-1.4-0.4-1.7-1c-0.6-1-0.2-2.2,0.7-2.7l9.3-5.4c3.6-2.2,8-3.8,13.5-4.9
	c4.9-0.9,9.7-1.1,14.3-0.8c5.2,0.3,10,1.3,14.1,2.8c0.6,0.2,1.1,0.4,1.7,0.7c0.5,0.2,1,0.4,1.5,0.6c0.1,0,0.2,0.1,0.2,0.1l3.1,1.6
	c0.3,0.1,0.6,0.3,0.9,0.5c0.7,0.4,1.3,0.7,2,0.9c0.1,0,0.2,0.1,0.3,0.2c0.2,0.1,0.6,0.3,1,0.4l1.9,0.7c3.9,1.3,8.1,2.1,13,2.3
	c4.9,0.1,9.2-0.3,13.2-1.2c1.1-0.3,2.1-0.5,3.1-0.8l0.2-0.1c1-0.3,2-0.6,3.1-1c2.1-0.9,4-1.8,5.9-3l19.6-11.3c1-0.6,2.2-0.2,2.7,0.7
	c0.6,1,0.2,2.2-0.7,2.7l-19.6,11.3c-2,1.2-4.2,2.3-6.4,3.2c0,0-0.1,0-0.1,0c-1.1,0.4-2.2,0.8-3.4,1.1l-0.2,0.1
	c-1,0.3-2.1,0.6-3.2,0.9c-4.3,1-9,1.4-14.2,1.3c-5.3-0.2-9.9-1-14.2-2.5l-2-0.8c-0.4-0.2-0.9-0.3-1.4-0.6c-0.8-0.3-1.6-0.7-2.3-1.1
	c-0.3-0.1-0.5-0.3-0.8-0.4l-3-1.6c-0.5-0.2-1.1-0.4-1.6-0.6c-0.5-0.2-1-0.4-1.5-0.6c-3.8-1.4-8.1-2.3-12.9-2.6
	c-4.3-0.3-8.8,0-13.3,0.8c-5,1-9,2.4-12.2,4.4l-9.3,5.4C699,146.4,698.6,146.5,698.3,146.5z"/>
<path class="st0" d="M688.7,594.7c-2.7,0-5.2-0.8-7.5-2.4c-3.1-2.1-4.9-5-5.6-8.7c-0.7-3.6,0.1-7,2.2-10.1c2.1-3.1,5-4.9,8.7-5.6
	c3.6-0.7,7,0.1,10.1,2.2c3.1,2.1,4.9,5,5.6,8.7s-0.1,7-2.2,10.1c-2.1,3.1-5,4.9-8.7,5.6C690.4,594.6,689.5,594.7,688.7,594.7z
	 M689,571.7c-0.6,0-1.2,0.1-1.9,0.2c-2.6,0.5-4.6,1.8-6.1,3.9c-1.5,2.2-2,4.5-1.5,7.1c0.5,2.6,1.8,4.6,3.9,6.1
	c2.2,1.5,4.5,2,7.1,1.5c2.6-0.5,4.6-1.8,6.1-3.9c1.5-2.2,2-4.5,1.5-7.1c-0.5-2.6-1.8-4.6-3.9-6.1C692.6,572.2,690.8,571.7,689,571.7
	z"/>
<path class="st0" d="M698.8,577.5c-0.7,0-1.4-0.4-1.7-1c-0.6-1-0.2-2.2,0.7-2.7l7.6-4.4l39.5-22.8l19.7-11.4
	c0.9-0.5,1.9-1.1,2.8-1.6c2.3-1.3,4.7-2.7,7-4.1c3-1.9,5.4-4.5,6.7-7.5c3.1-6.3,2.3-14.1-1.9-19.4c-0.1-0.1-0.2-0.3-0.4-0.5
	c-0.4-0.5-0.8-1-1.2-1.4c-0.2-0.2-0.4-0.3-0.6-0.5c-0.5-0.4-0.9-0.8-1.4-1.1c-0.7-0.5-1.2-0.8-1.8-1.2c-1-0.7-2-1.3-3-2.1
	c-3.3-2.6-5.8-6-7.3-10c-1.4-4-1.7-8.3-0.9-12.3c0.8-4.1,2.7-7.9,5.7-10.9c0.6-0.6,1.2-1.2,1.8-1.7c0.2-0.1,0.3-0.3,0.5-0.4
	c0,0,0.1-0.1,0.1-0.1c0.2-0.1,0.3-0.2,0.4-0.4c0.2-0.2,0.4-0.4,0.7-0.5c0.1,0,0.1-0.1,0.2-0.1l1.2-0.7c0.8-0.5,1.6-1,2.6-1.5
	l22.1-11.5c1-0.5,2.2-0.1,2.7,0.8c0.5,1,0.1,2.2-0.8,2.7l-9.6,5l-12.6,6.5c0,0-0.1,0-0.1,0.1c-0.8,0.3-1.5,0.8-2.3,1.3l-1.1,0.7
	c-0.1,0.1-0.2,0.2-0.4,0.3c-0.2,0.2-0.4,0.3-0.6,0.5c-0.2,0.1-0.3,0.3-0.5,0.4c-0.5,0.4-1,0.8-1.4,1.2c0,0-0.1,0.1-0.1,0.1
	c-2.4,2.5-4,5.6-4.7,9c-0.7,3.4-0.5,6.9,0.7,10.1c1.2,3.2,3.3,6.2,5.9,8.2c0.9,0.6,1.8,1.3,2.8,1.9c0.6,0.4,1.2,0.8,1.8,1.2
	c0.7,0.4,1.3,1,1.9,1.5c0.2,0.2,0.3,0.3,0.5,0.4c0.7,0.6,1.2,1.2,1.7,1.8l0.4,0.5c5.1,6.6,6.1,16,2.4,23.7c-1.7,3.7-4.6,6.9-8.2,9.2
	c-2.3,1.5-4.8,2.8-7.1,4.2c-0.9,0.5-1.8,1-2.8,1.6L746.9,550l-47.1,27.2C699.5,577.4,699.1,577.5,698.8,577.5z"/>
<path class="st0" d="M779.2,625c-1.2,0-2.3-0.2-3.5-0.5c-3.5-0.9-6.4-3.2-8.2-6.3c-3.7-6.4-1.5-14.7,4.9-18.4
	c0.8-0.5,1.6-0.8,2.3-1.1c0.1,0,0.2-0.1,0.3-0.1c0.2,0,0.3-0.1,0.5-0.1c0.2-0.1,0.4-0.1,0.5-0.1c0.5-0.2,1-0.2,1.4-0.2
	c1.7-0.1,3.2,0.2,4.4,0.5c3.3,0.8,6.3,2.6,8.4,5.3c2.4,3,3.2,6.7,2.4,10.4c-0.4,1.5-1.1,3.5-2.6,5.3c0,0-0.1,0.1-0.1,0.1
	c-0.1,0.1-0.2,0.3-0.3,0.4c-0.2,0.2-0.4,0.4-0.6,0.6l-0.8,0.8c0,0-0.1,0.1-0.1,0.1c-0.6,0.5-1.3,1.1-2.2,1.6
	C783.8,624.4,781.5,625,779.2,625z M776.1,602.5c-0.6,0.3-1.2,0.5-1.8,0.8c-4.5,2.6-6.1,8.5-3.5,13c1.3,2.2,3.3,3.8,5.8,4.4
	c2.4,0.7,5,0.3,7.2-1c0.5-0.3,1-0.7,1.6-1.2l0.7-0.7c0.1-0.1,0.2-0.2,0.3-0.4c0.2-0.2,0.3-0.4,0.5-0.5c1-1.2,1.5-2.6,1.8-3.6
	c0.5-2.4,0-4.9-1.6-6.9c-1.6-2-3.8-3.3-6.2-3.9c-1.4-0.3-2.4-0.4-3.3-0.4c-0.1,0-0.2,0-0.3,0c-0.1,0-0.1,0-0.2,0c0,0-0.1,0-0.1,0
	c-0.2,0-0.3,0.1-0.5,0.1C776.5,602.4,776.3,602.4,776.1,602.5z"/>
<path class="st0" d="M788.7,607.2c-0.6,0-1.2-0.3-1.6-0.8c-0.7-0.9-0.5-2.1,0.3-2.8c2.2-1.7,4.2-3.7,5.9-5.9
	c3.5-4.4,5.4-9.5,5.3-14.3c-0.1-2.6-0.6-5.1-1.6-7.5c-1-2.3-2.4-4.6-4.1-6.7c-1.5-1.8-3.3-3.5-5.8-5.6c-2-1.6-4.4-3.1-6.7-4.5
	l-23.9-13.9c-1-0.6-1.3-1.8-0.7-2.7c0.6-1,1.8-1.3,2.7-0.7l23.9,13.9c2.5,1.5,5,3.1,7.2,4.8c2.8,2.3,4.8,4.2,6.4,6.2
	c2,2.4,3.6,5,4.7,7.7c1.2,2.8,1.8,5.8,2,8.9c0.1,5.8-2.1,11.8-6.1,16.9c-1.9,2.4-4.1,4.6-6.5,6.5C789.6,607,789.1,607.2,788.7,607.2
	z"/>
<path class="st0" d="M964.3,188.6c-4.7,0-9.2-2.4-11.7-6.7c-1.8-3.1-2.3-6.8-1.4-10.2c0.9-3.5,3.2-6.4,6.3-8.2
	c6.4-3.7,14.7-1.5,18.4,4.9c1.8,3.1,2.3,6.8,1.4,10.2c-0.9,3.5-3.2,6.4-6.3,8.2C968.9,188,966.6,188.6,964.3,188.6z M964.2,165.6
	c-1.6,0-3.2,0.4-4.7,1.3c-4.5,2.6-6.1,8.5-3.5,13c2.6,4.5,8.4,6,13,3.5c2.2-1.3,3.8-3.3,4.4-5.8c0.7-2.4,0.3-5-1-7.2
	C970.7,167.3,967.5,165.6,964.2,165.6z"/>
<path class="st0" d="M824.6,257.7c-0.7,0-1.4-0.4-1.7-1c-0.5-1-0.2-2.2,0.7-2.7l9.4-5.4l112.7-65.1l7.6-4.3c1-0.5,2.2-0.2,2.7,0.8
	c0.5,1,0.2,2.2-0.8,2.7l-7.6,4.3L835,252l-9.4,5.4C825.3,257.6,824.9,257.7,824.6,257.7z"/>
<path class="st0" d="M882.6,167.1c-2.7,0-5.2-0.8-7.5-2.4c-3.1-2.1-4.9-5-5.6-8.7c-0.7-3.6,0.1-7,2.2-10.1s5-4.9,8.7-5.6
	c3.7-0.7,7,0.1,10.1,2.2c3.1,2.1,4.9,5,5.6,8.7c0.7,3.7-0.1,7-2.2,10.1c-2.1,3.1-5,4.9-8.7,5.6C884.3,167,883.4,167.1,882.6,167.1z
	 M882.9,144.1c-0.6,0-1.2,0.1-1.9,0.2c-2.6,0.5-4.6,1.8-6.1,3.9c-1.5,2.2-2,4.5-1.5,7.1c0.5,2.6,1.8,4.6,3.9,6.1
	c2.2,1.5,4.5,2,7.1,1.5c2.6-0.5,4.6-1.8,6.1-3.9c1.5-2.2,2-4.5,1.5-7.1c-0.5-2.6-1.8-4.6-3.9-6.1
	C886.5,144.6,884.7,144.1,882.9,144.1z"/>
<path class="st0" d="M838.3,249.9c-0.7,0-1.4-0.4-1.7-1c-0.6-1-0.2-2.2,0.7-2.7l9.3-5.4c0.9-0.5,1.8-1,2.7-1.6
	c3-1.7,5.9-3.3,8.4-5.5c1.6-1.4,3-3,4-4.7c1.1-1.7,1.8-3.6,2-5.5c0.3-1.9,0-3.9-0.7-5.7c-0.6-1.9-1.7-3.6-3-5.2
	c-1.2-1.4-2.7-2.8-4.7-4.2c-0.9-0.7-1.9-1.3-3-2c-0.9-0.5-1.8-1.1-2.7-1.7c-2-1.4-3.8-3-5.4-4.8c-1.6-1.9-3-4.1-3.9-6.4
	c-1-2.6-1.3-5.3-1-7.7c0.2-2.2,1-4.7,2.5-7.1c2.2-3.7,5.6-6.9,10.5-9.8l19.4-11.2c1-0.6,2.2-0.2,2.7,0.7c0.6,1,0.2,2.2-0.7,2.7
	l-19.4,11.2c-4.3,2.5-7.2,5.3-9.1,8.4c-1.1,1.9-1.8,3.8-1.9,5.6c-0.2,1.8,0,3.9,0.8,5.8c0.7,1.9,1.8,3.7,3.1,5.2
	c1.4,1.6,3,3,4.7,4.2c0.8,0.6,1.6,1.1,2.5,1.6c1.1,0.7,2.2,1.3,3.3,2.2c2.2,1.6,4,3.2,5.3,4.8c1.7,1.9,3,4.1,3.8,6.4
	c0.9,2.4,1.2,5,0.9,7.6c-0.3,2.5-1.2,4.9-2.6,7.1c-1.3,2-2.9,3.8-4.8,5.5c-2.8,2.5-6,4.3-9,6c-0.9,0.5-1.8,1-2.7,1.5l-9.3,5.4
	C839,249.8,838.6,249.9,838.3,249.9z"/>
<path class="st0" d="M367.4,399.9c-4.6,0-9.2-2.4-11.6-6.7c-3.7-6.4-1.6-14.7,4.8-18.4c3.1-1.8,6.7-2.3,10.2-1.4
	c3.5,0.9,6.4,3.1,8.2,6.2c1.8,3.1,2.3,6.8,1.4,10.2c-0.9,3.5-3.1,6.4-6.2,8.2C372.1,399.3,369.7,399.9,367.4,399.9z M367.4,377
	c-1.7,0-3.3,0.4-4.8,1.3c-4.5,2.6-6,8.4-3.4,13c2.6,4.5,8.4,6,13,3.4c2.2-1.3,3.7-3.3,4.4-5.8c0.6-2.4,0.3-5-1-7.2l0,0
	c-1.3-2.2-3.3-3.7-5.8-4.4C369,377.1,368.2,377,367.4,377z"/>
<path class="st0" d="M377.3,382.7c-0.7,0-1.4-0.4-1.7-1c-0.6-1-0.2-2.2,0.7-2.7l7.5-4.4l74.4-43.8l9.3-5.5c1-0.6,2.2-0.2,2.7,0.7
	c0.6,1,0.2,2.2-0.7,2.7l-9.3,5.5L385.8,378l-7.5,4.4C378,382.6,377.6,382.7,377.3,382.7z"/>
<path class="st0" d="M798.7,163v150.2c0,2.6-1.7,5.2-5.1,7.1L748,346.6c-13.8-5-32.3-4.1-44.3,2.9c-12,6.9-13.7,17.6-4.9,25.6
	l-38.9,22.4c-19.2,11.1-50.3,11.1-69.6,0c-9.9-5.7-14.7-13.2-14.4-20.7V227.9c0.3,7,5.1,14,14.4,19.4c19.2,11.1,50.3,11.1,69.6,0
	l38.8-22.4c-8.7-8-7.1-18.6,4.9-25.6c12-6.9,30.5-7.9,44.3-2.9l45.6-26.3C797,168.2,798.7,165.6,798.7,163z"/>
<path class="st0" d="M603.5,403c14.3,4,31.3,3.8,45.4-0.6V252.1c-14,4.5-31.1,4.7-45.4,0.6V403z"/>
<path class="st1" d="M798.7,163c0,2.6-1.7,5.2-5.1,7.1L748,196.4c-13.8-5-32.3-4.1-44.3,2.9c-12,6.9-13.7,17.6-4.9,25.6l-38.9,22.4
	c-19.2,11.1-50.3,11.1-69.6,0c-9.3-5.4-14.1-12.4-14.4-19.4c0-0.4,0-0.9,0-1.3c0.2-5.3,3-10.6,8.5-15.3c-11.8-7.1-18-16.3-18.4-25.5
	c-0.5-10.2,6-20.5,19.5-28.2c15.8-9.2,37.7-12.7,58.2-10.7c3.4-4.5,8.2-8.7,14.6-12.3c27.2-15.7,71.3-15.7,98.4,0l36.9,21.3
	C797,157.8,798.7,160.4,798.7,163z"/>
<path class="st2" d="M625.1,257c-12.9,0-25.8-2.8-35.6-8.5c-9.4-5.5-14.8-12.8-15.2-20.6l0-1.4c0.2-5.4,2.8-10.5,7.5-15.1
	c-10.8-7-17-16.1-17.4-25.7c-0.5-11.1,6.8-21.9,20.3-29.6c15.1-8.8,36.9-12.9,58.3-11c3.6-4.6,8.5-8.7,14.5-12
	c27.6-15.9,72.4-15.9,99.9,0l36.9,21.3c3.7,2.1,5.9,5.1,5.9,8.4c0,3.3-2.1,6.3-5.9,8.4l-45.6,26.3c-0.4,0.2-0.8,0.3-1.3,0.1
	c-13.7-5-31.8-3.8-43,2.8c-5.7,3.3-9.1,7.6-9.6,12.1c-0.4,3.9,1.3,7.7,5,11.1c0.4,0.3,0.5,0.8,0.5,1.3c-0.1,0.5-0.3,0.9-0.7,1.1
	l-38.9,22.4C650.9,254.2,638,257,625.1,257z M632.5,147.8c-17.3,0-34,3.9-46.2,11c-12.4,7.1-19.2,16.9-18.8,26.8
	c0.4,9,6.7,17.7,17.7,24.3c0.4,0.2,0.7,0.7,0.7,1.2c0,0.5-0.2,1-0.5,1.3c-5,4.3-7.8,9.2-8,14.2l0,1.2c0.3,6.7,5.1,13.2,13.7,18.1
	c18.8,10.8,49.4,10.8,68.1,0l37.2-21.4c-3.4-3.7-5-7.9-4.5-12.2c0.6-5.5,4.5-10.6,11.1-14.4c12-7,30.3-8.3,44.9-3.2l45-26
	c2.8-1.5,4.3-3.7,4.3-5.8c0-2.1-1.6-4.3-4.3-5.8L756,135.9c-26.7-15.4-70.1-15.4-96.9,0c-6,3.4-10.7,7.4-14.2,11.9
	c-0.3,0.4-0.8,0.6-1.3,0.6C639.9,148,636.2,147.8,632.5,147.8z"/>
<path class="st3" d="M584.4,211.3c-5.4,4.6-8.2,9.9-8.5,15.3c0,0.4,0,0.9,0,1.3v127.3c-6.3-5.8-9.6-12.5-9.9-19.1V336V185.8
	C566.4,195.1,572.6,204.2,584.4,211.3z"/>
<path class="st2" d="M575.9,356.7c-0.4,0-0.7-0.1-1-0.4c-6.5-6-10.1-12.9-10.4-20.1c0,0,0-0.1,0-0.2V185.8c0-0.8,0.7-1.5,1.5-1.5
	c0.8,0,1.5,0.6,1.5,1.4c0.4,9,6.7,17.7,17.7,24.3c0.4,0.2,0.7,0.7,0.7,1.2c0,0.5-0.2,1-0.5,1.3c-4.9,4.2-7.7,9.1-8,14.2l0,1.2v127.3
	c0,0.6-0.4,1.1-0.9,1.4C576.3,356.6,576.1,356.7,575.9,356.7z M567.5,196.6V336c0.2,5.5,2.6,10.8,6.9,15.6v-125
	c0.3-5.5,2.9-10.6,7.5-15.1C575.3,207.2,570.4,202.1,567.5,196.6z"/>
<path class="st2" d="M575.9,378.9c-0.8,0-1.5-0.7-1.5-1.5v-0.6c0-0.8,0.7-1.5,1.5-1.5s1.5,0.7,1.5,1.5v0.6
	C577.4,378.2,576.7,378.9,575.9,378.9z"/>
<path class="st2" d="M575.9,229.4c-0.8,0-1.5-0.7-1.5-1.5v-1.3c0-0.8,0.7-1.5,1.5-1.5s1.5,0.7,1.5,1.5v1.3
	C577.4,228.7,576.7,229.4,575.9,229.4z"/>
<path class="st3" d="M629.4,255.5c-14,0.7-28.3-2-39-8.2c-9.3-5.4-14.1-12.4-14.4-19.4v148.9c-0.3,7.5,4.5,15,14.4,20.7
	c10.7,6.2,25.1,8.9,39,8.2V255.5z"/>
<path class="st2" d="M625.1,407.2c-12.9,0-25.8-2.8-35.6-8.5c-10.1-5.8-15.5-13.7-15.2-22.1l0-148.8c0-0.8,0.7-1.5,1.5-1.5
	c0.8,0,1.5,0.6,1.5,1.4c0.3,6.8,5.1,13.2,13.7,18.2c18.7,10.8,49.3,10.8,68.1,0l37.1-21.4c-3.4-3.7-4.9-7.9-4.5-12.2
	c0.6-5.5,4.5-10.6,11.1-14.4c12.1-6.9,30.4-8.3,44.9-3.2l45-26c2.9-1.6,4.4-3.6,4.4-5.8c0-0.8,0.7-1.5,1.5-1.5s1.5,0.7,1.5,1.5
	v150.2c0,3.3-2.1,6.3-5.9,8.4l-45.6,26.3c-0.4,0.2-0.8,0.3-1.3,0.1c-13.7-5-31.8-3.8-43,2.8c-5.7,3.3-9.2,7.6-9.6,12.1
	c-0.4,3.9,1.3,7.7,5,11.1c0.4,0.3,0.5,0.8,0.5,1.3c-0.1,0.5-0.3,0.9-0.7,1.1l-38.9,22.4C650.9,404.4,638,407.2,625.1,407.2z
	 M577.4,237.4v139.4c-0.3,7.3,4.6,14.2,13.6,19.4c18.8,10.8,49.4,10.8,68.1,0l37.2-21.4c-3.4-3.7-5-7.9-4.5-12.2
	c0.6-5.5,4.5-10.6,11.1-14.4c12-7,30.3-8.3,44.9-3.2l45-26c2.8-1.5,4.3-3.7,4.3-5.8V169.3c-0.8,0.8-1.8,1.5-3,2.1l-45.6,26.3
	c-0.4,0.2-0.8,0.3-1.3,0.1c-13.6-4.9-31.7-3.7-43,2.8c-5.7,3.3-9.1,7.6-9.6,12.1c-0.4,3.9,1.3,7.7,5,11.1c0.4,0.3,0.5,0.8,0.5,1.3
	c-0.1,0.5-0.3,0.9-0.7,1.1l-38.8,22.4c-19.7,11.3-51.5,11.3-71.1,0C584.1,245.4,579.9,241.6,577.4,237.4z"/>
<path class="st2" d="M566,337.6c-0.8,0-1.5-0.7-1.5-1.5V334c0-0.8,0.7-1.5,1.5-1.5s1.5,0.7,1.5,1.5v2.1
	C567.5,336.9,566.8,337.6,566,337.6z"/>
<path class="st4" d="M566,336.1L566,336.1z"/>
<path class="st3" d="M746.7,213.9v37.5c0,2.6-1.7,5.3-5.2,7.3c-6.9,4-18.2,4-25.2,0c-3.5-2-5.2-4.6-5.2-7.3v-37.5
	c0,2.6,1.7,5.3,5.2,7.3c7,4,18.2,4,25.2,0C745,219.1,746.7,216.5,746.7,213.9z"/>
<path class="st2" d="M728.9,263.1c-4.8,0-9.7-1.1-13.4-3.2c-3.8-2.2-6-5.3-6-8.6v-37.5c0-0.8,0.7-1.5,1.5-1.5s1.5,0.7,1.5,1.5
	c0,2.2,1.6,4.4,4.4,6c6.5,3.7,17.2,3.7,23.7,0c2.9-1.7,4.4-3.8,4.4-6c0-0.8,0.7-1.5,1.5-1.5s1.5,0.7,1.5,1.5v37.5
	c0,3.3-2.2,6.4-6,8.6C738.6,262.1,733.8,263.1,728.9,263.1z M712.6,220.3v31.1c0,2.3,1.5,4.3,4.4,6c6.6,3.8,17.2,3.8,23.7,0
	c2.8-1.6,4.5-3.8,4.5-6v-31.1c-0.8,0.8-1.8,1.5-2.9,2.2c-7.5,4.3-19.2,4.3-26.7,0C714.4,221.8,713.4,221.1,712.6,220.3z"/>
<path class="st1" d="M746.7,213.9c0,2.6-1.7,5.3-5.2,7.3c-6.9,4-18.2,4-25.2,0c-3.5-2-5.2-4.6-5.2-7.3c0-2.6,1.7-5.3,5.2-7.3
	c7-4,18.2-4,25.2,0C745,208.6,746.7,211.3,746.7,213.9z"/>
<path class="st2" d="M728.9,225.6c-4.8,0-9.7-1.1-13.4-3.2c-3.8-2.2-6-5.3-6-8.6c0-3.3,2.2-6.4,6-8.6c7.5-4.3,19.2-4.3,26.7,0
	c3.8,2.2,6,5.3,6,8.6c0,3.3-2.2,6.4-6,8.6C738.6,224.6,733.8,225.6,728.9,225.6z M728.9,205.1c-4.3,0-8.6,0.9-11.9,2.8
	c-2.8,1.6-4.4,3.8-4.4,6c0,2.3,1.5,4.3,4.4,6c6.6,3.8,17.2,3.8,23.7,0c2.8-1.6,4.5-3.8,4.5-6c0-2.2-1.6-4.4-4.4-6
	C737.5,206,733.2,205.1,728.9,205.1z"/>
<path class="st3" d="M733.9,297.6v150.3c-19.1,7.5-45.4,6.4-62.4-3.4c-9.5-5.5-14.3-12.6-14.4-19.8c0-0.1,0-0.2,0-0.2V274.6
	c0.2,7.1,5,14.2,14.4,19.6C688.5,304,714.7,305.1,733.9,297.6z"/>
<path class="st0" d="M887.2,226.6v150.2c0,10.3-6.8,20.6-20.4,28.4c-6.1,3.5-13,6.2-20.4,8.2V270.6c0.1-2.4-0.2-4.8-0.9-7.2
	c7.7-1.9,15-4.8,21.3-8.4C880.4,247.1,887.2,236.9,887.2,226.6z"/>
<path class="st2" d="M846.4,414.9c-0.3,0-0.6-0.1-0.9-0.3c-0.4-0.3-0.6-0.7-0.6-1.2V270.6c0.1-2.3-0.2-4.5-0.8-6.8
	c-0.1-0.4-0.1-0.8,0.1-1.2c0.2-0.4,0.5-0.6,0.9-0.7c7.5-1.8,14.7-4.7,20.9-8.2c12.7-7.4,19.6-17,19.6-27.1c0-0.8,0.7-1.5,1.5-1.5
	s1.5,0.7,1.5,1.5v150.2c0,11.3-7.5,21.9-21.2,29.7c-6,3.4-13,6.2-20.8,8.3C846.7,414.9,846.5,414.9,846.4,414.9z M847.3,264.5
	c0.5,2.1,0.7,4.1,0.6,6.2l0,140.8c6.8-2,12.9-4.5,18.2-7.5c12.7-7.3,19.6-16.9,19.6-27.1V238.6c-3.4,6.6-9.5,12.6-18.1,17.6
	C861.5,259.7,854.5,262.5,847.3,264.5z"/>
<path class="st1" d="M887.2,226.6c0,10.3-6.8,20.6-20.4,28.4c-6.3,3.7-13.6,6.5-21.3,8.4c3.5,11.9-2.7,24.5-18.5,33.6
	c-25.6,14.8-66.9,15-93,0.6c-19.1,7.5-45.4,6.4-62.4-3.4c-9.4-5.4-14.2-12.5-14.4-19.6c-0.2-7.4,4.6-14.9,14.4-20.5l39-22.5
	c13.7,4.8,31.8,3.8,43.6-3.1c11.8-6.8,13.6-17.3,5.3-25.2l45.8-26.4c6.8-3.9,17.9-3.9,24.7,0l36.9,21.3
	C880.4,206,887.2,216.3,887.2,226.6z"/>
<path class="st2" d="M780,309.8c-16.5,0-33-3.5-46.1-10.6c-19.8,7.5-46.2,6-63-3.7c-9.5-5.5-14.9-12.9-15.2-20.9
	c-0.2-8.3,5.3-16.2,15.2-21.8l39-22.5c0.4-0.2,0.8-0.3,1.2-0.1c13.7,4.8,31.1,3.6,42.3-3c5.7-3.3,9.1-7.5,9.6-12
	c0.5-3.8-1.1-7.5-4.6-10.8c-0.3-0.3-0.5-0.8-0.5-1.3c0.1-0.5,0.3-0.9,0.7-1.1l45.8-26.4c7.2-4.1,19-4.1,26.2,0l36.9,21.3
	c13.6,7.8,21,18.4,21,29.7c0,11.3-7.5,21.9-21.2,29.7c-5.9,3.4-12.7,6.2-20.2,8.2c2.9,12.5-4.4,25-19.6,33.8
	C814.5,305.9,797.2,309.8,780,309.8z M734,296.1c0.3,0,0.5,0.1,0.7,0.2c25.5,14.1,66.6,13.8,91.5-0.6c14.6-8.4,21.2-20.3,17.8-31.9
	c-0.1-0.4-0.1-0.8,0.1-1.2c0.2-0.4,0.5-0.6,0.9-0.7c7.9-1.9,14.9-4.7,20.9-8.2c12.7-7.3,19.7-16.9,19.7-27.1
	c0-10.2-6.9-19.8-19.5-27.1l-36.9-21.3c-6.3-3.6-16.9-3.6-23.2,0l-44.1,25.4c3.2,3.6,4.6,7.8,4.1,11.9c-0.7,5.4-4.6,10.5-11.1,14.2
	c-11.7,6.9-29.8,8.3-44.2,3.4l-38.4,22.2c-8.9,5.1-13.8,12.1-13.6,19.2c0.2,6.9,5,13.4,13.6,18.3c16.3,9.4,42,10.8,61.1,3.3
	C733.6,296.1,733.8,296.1,734,296.1z"/>
<path class="st2" d="M780,309.8c-16.5,0-33-3.5-46.1-10.6c-19.8,7.5-46.2,6-63-3.7c-9.5-5.5-14.9-12.9-15.2-20.9
	c-0.2-8.3,5.3-16.2,15.2-21.8l39-22.5c0.4-0.2,0.8-0.3,1.2-0.1c13.7,4.8,31.1,3.6,42.3-3c5.7-3.3,9.1-7.5,9.6-12
	c0.5-3.8-1.1-7.5-4.6-10.8c-0.3-0.3-0.5-0.8-0.5-1.3c0.1-0.5,0.3-0.9,0.7-1.1l45.8-26.4c7.2-4.1,19-4.1,26.2,0l36.9,21.3
	c13.6,7.8,21,18.4,21,29.7c0,11.3-7.5,21.9-21.2,29.7c-5.9,3.4-12.7,6.2-20.2,8.2c2.9,12.5-4.4,25-19.6,33.8
	C814.5,305.9,797.2,309.8,780,309.8z M734,296.1c0.3,0,0.5,0.1,0.7,0.2c25.5,14.1,66.6,13.8,91.5-0.6c14.6-8.4,21.2-20.3,17.8-31.9
	c-0.1-0.4-0.1-0.8,0.1-1.2c0.2-0.4,0.5-0.6,0.9-0.7c7.9-1.9,14.9-4.7,20.9-8.2c12.7-7.3,19.7-16.9,19.7-27.1
	c0-10.2-6.9-19.8-19.5-27.1l-36.9-21.3c-6.3-3.6-16.9-3.6-23.2,0l-44.1,25.4c3.2,3.6,4.6,7.8,4.1,11.9c-0.7,5.4-4.6,10.5-11.1,14.2
	c-11.7,6.9-29.8,8.3-44.2,3.4l-38.4,22.2c-8.9,5.1-13.8,12.1-13.6,19.2c0.2,6.9,5,13.4,13.6,18.3c16.3,9.4,42,10.8,61.1,3.3
	C733.6,296.1,733.8,296.1,734,296.1z"/>
<path class="st2" d="M846.4,422.4c-0.8,0-1.5-0.7-1.5-1.5v-0.2c0-0.8,0.7-1.5,1.5-1.5s1.5,0.7,1.5,1.5v0.2
	C847.9,421.7,847.2,422.4,846.4,422.4z"/>
<path class="st3" d="M846.4,270.6v150.2c-0.3,9.6-6.7,19.2-19.5,26.5c-25.6,14.8-66.9,15-93,0.6V297.6c26.1,14.4,67.4,14.2,93-0.6
	C839.6,289.7,846.1,280.1,846.4,270.6z"/>
<path class="st0" d="M826.9,297c-5.1,2.9-10.7,5.3-16.8,7v150.2c6-1.8,11.7-4.1,16.8-7c12.7-7.3,19.2-16.9,19.5-26.5V270.6
	C846.1,280.1,839.6,289.7,826.9,297z"/>
<path class="st0" d="M701.7,302.4v150.2c11.1,0.6,22.6-1,32.2-4.8V297.6C724.3,301.4,712.8,303,701.7,302.4z"/>
<path class="st2" d="M706.3,454.3c-13,0-25.9-2.9-35.6-8.5c-9.7-5.6-15-13.1-15.2-21.1V274.6c0-0.8,0.7-1.5,1.5-1.5c0,0,0,0,0,0
	c0.8,0,1.5,0.6,1.5,1.5c0.2,6.9,5,13.4,13.6,18.3c16.3,9.4,42,10.8,61.1,3.3c0.5-0.2,1-0.1,1.4,0.2c0.4,0.3,0.7,0.7,0.7,1.2v150.3
	c0,0.6-0.4,1.2-1,1.4C725.9,452.6,716.1,454.3,706.3,454.3z M658.6,284.4v140.3c0.1,6.9,4.9,13.5,13.7,18.5
	c16,9.3,41.2,10.7,60.1,3.7V299.7c-19.7,6.9-45.2,5.2-61.6-4.3C665.3,292.3,661.1,288.5,658.6,284.4z"/>
<path class="st2" d="M779.9,460.1c-16.7,0-33.5-3.6-46.7-10.9c-0.5-0.3-0.8-0.8-0.8-1.3V297.6c0-0.5,0.3-1,0.7-1.3
	c0.5-0.3,1-0.3,1.5,0c25.5,14.1,66.6,13.8,91.5-0.6c11.8-6.8,18.5-15.7,18.8-25.1c0-0.8,0.7-1.5,1.5-1.5c0,0,0,0,0,0
	c0.8,0,1.5,0.7,1.5,1.5v150.2c-0.3,10.7-7.5,20.5-20.3,27.8C814.4,456.2,797.1,460.1,779.9,460.1z M735.4,447
	c25.6,13.7,66.1,13.3,90.7-1c11.8-6.7,18.5-15.7,18.8-25.2l0-139c-3.3,6.2-9.1,11.9-17.3,16.6c-25.5,14.7-65.4,15.4-92.2,1.8V447z"
	/>
<path class="st0" d="M793.1,354.3v14.4c-13.5,1.6-27.7,0.7-40.4-2.6v-14.4C765.5,355,779.7,355.9,793.1,354.3z"/>
<path class="st0" d="M793.1,382.7v14.4c-13.5,1.6-27.7,0.7-40.4-2.6v-14.4C765.5,383.5,779.7,384.3,793.1,382.7z"/>
<path class="st0" d="M793.1,411.2v14.4c-13.5,1.6-27.7,0.7-40.4-2.6v-14.4C765.5,411.9,779.7,412.8,793.1,411.2z"/>
<path class="st2" d="M780,370.9c-9.5,0-19-1.2-27.7-3.4c-0.7-0.2-1.1-0.8-1.1-1.5v-14.4c0-0.5,0.2-0.9,0.6-1.2
	c0.4-0.3,0.8-0.4,1.3-0.3c12.5,3.2,26.7,4.1,39.8,2.6c0.4,0,0.9,0.1,1.2,0.4c0.3,0.3,0.5,0.7,0.5,1.1v14.4c0,0.8-0.6,1.4-1.3,1.5
	C788.9,370.7,784.5,370.9,780,370.9z M754.2,364.9c11.7,2.9,24.9,3.7,37.4,2.4v-11.4c-12.4,1.3-25.5,0.5-37.4-2.4V364.9z"/>
<path class="st2" d="M780,399.3c-9.5,0-19-1.2-27.7-3.4c-0.7-0.2-1.1-0.8-1.1-1.5v-14.4c0-0.5,0.2-0.9,0.6-1.2
	c0.4-0.3,0.8-0.4,1.3-0.3c12.3,3.3,26.4,4.2,39.8,2.6c0.4,0,0.9,0.1,1.2,0.4c0.3,0.3,0.5,0.7,0.5,1.1v14.4c0,0.8-0.6,1.4-1.3,1.5
	C788.9,399.1,784.5,399.3,780,399.3z M754.2,393.3c11.7,2.9,24.9,3.7,37.4,2.4v-11.4c-12.6,1.3-25.8,0.5-37.4-2.3V393.3z"/>
<path class="st2" d="M780,427.8c-9.5,0-19-1.2-27.7-3.4c-0.7-0.2-1.1-0.8-1.1-1.5v-14.4c0-0.5,0.2-0.9,0.6-1.2
	c0.4-0.3,0.8-0.4,1.3-0.3c12.5,3.2,26.7,4.1,39.8,2.6c0.4,0,0.9,0.1,1.2,0.4c0.3,0.3,0.5,0.7,0.5,1.1v14.4c0,0.8-0.6,1.4-1.3,1.5
	C788.9,427.6,784.5,427.8,780,427.8z M754.2,421.8c11.7,2.9,24.9,3.7,37.4,2.4v-11.4c-12.4,1.3-25.5,0.5-37.4-2.4V421.8z"/>
<path class="st3" d="M596.6,299.5c1.1,2,1.7,3.9,1.7,5.7c0,1.9-0.6,3.1-1.7,3.8c-1.1,0.7-2.5,0.5-4.1-0.4s-3-2.4-4.1-4.3
	s-1.7-3.9-1.7-5.7c0-1.9,0.6-3.1,1.7-3.8c1.1-0.7,2.5-0.5,4.1,0.4S595.5,297.5,596.6,299.5z"/>
<path class="st2" d="M595,310.9c-0.9,0-2-0.3-3.3-1c-1.8-1-3.4-2.7-4.7-4.9c-1.3-2.2-1.9-4.4-1.9-6.5c0-3,1.4-4.4,2.5-5.1
	c1.1-0.6,3-1.1,5.6,0.4c1.8,1,3.4,2.7,4.7,4.9c0,0,0,0,0,0c1.3,2.2,1.9,4.4,1.9,6.5c0,3-1.4,4.4-2.5,5.1
	C596.8,310.6,596,310.9,595,310.9z M590,295.8c-0.4,0-0.7,0.1-0.8,0.2c-0.2,0.1-1,0.6-1,2.5c0,1.6,0.5,3.2,1.5,5
	c1,1.7,2.2,3,3.6,3.8c1.7,1,2.4,0.5,2.6,0.4c0.2-0.1,1-0.6,1-2.5c0-1.6-0.5-3.2-1.5-5l0,0c-1-1.7-2.2-3-3.6-3.8
	C591,296,590.4,295.8,590,295.8z"/>
<path class="st3" d="M596.6,325c1.1,2,1.7,3.9,1.7,5.7c0,1.9-0.6,3.1-1.7,3.8c-1.1,0.7-2.5,0.5-4.1-0.4s-3-2.4-4.1-4.3
	s-1.7-3.9-1.7-5.7c0-1.9,0.6-3.1,1.7-3.8c1.1-0.7,2.5-0.5,4.1,0.4S595.5,323,596.6,325z"/>
<path class="st2" d="M595,336.4c-0.9,0-2-0.3-3.3-1c-1.8-1-3.4-2.7-4.7-4.9s-1.9-4.4-1.9-6.5c0-3,1.4-4.4,2.5-5.1
	c1.1-0.6,3-1.1,5.6,0.4c1.8,1,3.4,2.7,4.7,4.9c0,0,0,0,0,0c1.3,2.2,1.9,4.4,1.9,6.5c0,3-1.4,4.4-2.5,5.1
	C596.8,336.1,596,336.4,595,336.4z M589.9,321.4c-0.4,0-0.7,0.1-0.8,0.2c-0.2,0.1-1,0.6-1,2.5c0,1.6,0.5,3.2,1.5,5s2.2,3,3.6,3.8
	c1.7,1,2.4,0.5,2.6,0.4c0.2-0.1,1-0.6,1-2.5c0-1.6-0.5-3.2-1.5-5s-2.2-3-3.6-3.8C591,321.5,590.4,321.4,589.9,321.4z"/>
<path class="st3" d="M596.6,350.5c1.1,2,1.7,3.9,1.7,5.7c0,1.9-0.6,3.1-1.7,3.8c-1.1,0.7-2.5,0.5-4.1-0.4s-3-2.4-4.1-4.3
	s-1.7-3.9-1.7-5.7c0-1.9,0.6-3.1,1.7-3.8c1.1-0.7,2.5-0.5,4.1,0.4S595.5,348.5,596.6,350.5z"/>
<path class="st2" d="M595,361.9c-0.9,0-2-0.3-3.3-1c-1.8-1-3.4-2.7-4.7-4.9s-1.9-4.4-1.9-6.5c0-3,1.4-4.4,2.5-5.1
	c1.1-0.6,3-1.1,5.6,0.4c1.8,1,3.4,2.7,4.7,4.9c0,0,0,0,0,0c1.3,2.2,1.9,4.4,1.9,6.5c0,3-1.4,4.4-2.5,5.1
	C596.7,361.6,596,361.9,595,361.9z M589.9,346.9c-0.4,0-0.7,0.1-0.8,0.2c-0.2,0.1-1,0.6-1,2.5c0,1.6,0.5,3.2,1.5,5s2.2,3,3.6,3.8
	c1.7,1,2.4,0.5,2.6,0.4c0.2-0.1,1-0.6,1-2.5c0-1.6-0.5-3.2-1.5-5s-2.2-3-3.6-3.8C590.9,347,590.4,346.9,589.9,346.9z"/>
<path class="st2" d="M595,310.9c-0.9,0-2-0.3-3.3-1c-1.8-1-3.4-2.7-4.7-4.9c-1.3-2.2-1.9-4.4-1.9-6.5c0-3,1.4-4.4,2.5-5.1
	c1.1-0.6,3-1.1,5.6,0.4c1.8,1,3.4,2.7,4.7,4.9c0,0,0,0,0,0c1.3,2.2,1.9,4.4,1.9,6.5c0,3-1.4,4.4-2.5,5.1
	C596.8,310.6,596,310.9,595,310.9z M590,295.8c-0.4,0-0.7,0.1-0.8,0.2c-0.2,0.1-1,0.6-1,2.5c0,1.6,0.5,3.2,1.5,5
	c1,1.7,2.2,3,3.6,3.8c1.7,1,2.4,0.5,2.6,0.4c0.2-0.1,1-0.6,1-2.5c0-1.6-0.5-3.2-1.5-5l0,0c-1-1.7-2.2-3-3.6-3.8
	C591,296,590.4,295.8,590,295.8z"/>
<path class="st2" d="M595,336.4c-0.9,0-2-0.3-3.3-1c-1.8-1-3.4-2.7-4.7-4.9s-1.9-4.4-1.9-6.5c0-3,1.4-4.4,2.5-5.1
	c1.1-0.6,3-1.1,5.6,0.4c1.8,1,3.4,2.7,4.7,4.9c0,0,0,0,0,0c1.3,2.2,1.9,4.4,1.9,6.5c0,3-1.4,4.4-2.5,5.1
	C596.8,336.1,596,336.4,595,336.4z M589.9,321.4c-0.4,0-0.7,0.1-0.8,0.2c-0.2,0.1-1,0.6-1,2.5c0,1.6,0.5,3.2,1.5,5s2.2,3,3.6,3.8
	c1.7,1,2.4,0.5,2.6,0.4c0.2-0.1,1-0.6,1-2.5c0-1.6-0.5-3.2-1.5-5s-2.2-3-3.6-3.8C591,321.5,590.4,321.4,589.9,321.4z"/>
<path class="st2" d="M595,361.9c-0.9,0-2-0.3-3.3-1c-1.8-1-3.4-2.7-4.7-4.9s-1.9-4.4-1.9-6.5c0-3,1.4-4.4,2.5-5.1
	c1.1-0.6,3-1.1,5.6,0.4c1.8,1,3.4,2.7,4.7,4.9c0,0,0,0,0,0c1.3,2.2,1.9,4.4,1.9,6.5c0,3-1.4,4.4-2.5,5.1
	C596.7,361.6,596,361.9,595,361.9z M589.9,346.9c-0.4,0-0.7,0.1-0.8,0.2c-0.2,0.1-1,0.6-1,2.5c0,1.6,0.5,3.2,1.5,5s2.2,3,3.6,3.8
	c1.7,1,2.4,0.5,2.6,0.4c0.2-0.1,1-0.6,1-2.5c0-1.6-0.5-3.2-1.5-5s-2.2-3-3.6-3.8C590.9,347,590.4,346.9,589.9,346.9z"/>
<path class="st2" d="M715.8,279.2c-3.8,0-7.6-0.8-10.5-2.5c-3.1-1.8-4.8-4.2-4.8-7c0-2,1-3.9,2.8-5.5l-24.1-13.8
	c-0.7-0.4-1-1.3-0.6-2c0.4-0.7,1.3-1,2-0.6l25.4,14.6c5.9-2.9,14.9-2.8,20.3,0.4c3.1,1.8,4.8,4.2,4.8,6.9c0,2.7-1.7,5.2-4.8,7
	C723.4,278.3,719.6,279.2,715.8,279.2z M703.5,269.7c0,1.6,1.2,3.1,3.3,4.3c4.9,2.8,13.2,2.8,18.1,0c2.1-1.2,3.3-2.8,3.3-4.3
	c0-1.6-1.2-3.1-3.3-4.4c-4.8-2.8-13.1-2.8-18.1,0c0,0,0,0,0,0C704.6,266.6,703.5,268.1,703.5,269.7z M793.2,275.6
	c-3.8,0-7.6-0.8-10.5-2.5c-3.1-1.8-4.8-4.2-4.8-7c0-2,0.9-3.9,2.7-5.5l-43.7-25.3c-0.7-0.4-1-1.3-0.5-2c0.4-0.7,1.3-1,2-0.5l45,26
	c5.9-3,14.8-2.8,20.4,0.4c3.1,1.8,4.8,4.2,4.8,7c0,2.7-1.7,5.2-4.8,7C800.8,274.7,797,275.6,793.2,275.6z M780.8,266.1
	c0,1.6,1.2,3.1,3.3,4.4c4.9,2.8,13.2,2.8,18.1,0c2.1-1.2,3.3-2.8,3.3-4.4c0-1.6-1.2-3.1-3.3-4.3c-4.8-2.7-12.8-2.8-17.7-0.2
	c-0.2,0.2-0.5,0.4-0.8,0.5C781.9,263.2,780.9,264.6,780.8,266.1z M668.3,243.7c-0.3,0-0.5-0.1-0.7-0.2l-25.4-14.6
	c-5.9,2.9-14.8,2.8-20.3-0.4c-3.1-1.8-4.8-4.2-4.8-7c0-2.7,1.7-5.2,4.8-7c5.8-3.3,15.3-3.3,21.1,0l0,0c3.1,1.8,4.8,4.2,4.8,7
	c0,2-1,3.9-2.8,5.5l24.1,13.8c0.7,0.4,1,1.3,0.6,2C669.3,243.4,668.8,243.7,668.3,243.7z M620.1,221.5c0,1.6,1.2,3.1,3.3,4.3
	c4.9,2.8,13.2,2.8,18.1,0c0,0,0,0,0,0c2.1-1.2,3.3-2.8,3.3-4.3c0-1.6-1.2-3.1-3.3-4.3l0,0c-4.9-2.8-13.2-2.8-18.1,0
	C621.2,218.4,620.1,219.9,620.1,221.5z M803.7,234c-0.3,0-0.5-0.1-0.8-0.2l-38.6-22.3c-0.7-0.4-1-1.3-0.5-2c0.4-0.7,1.3-1,2-0.5
	l37.8,21.9l16.2-9.4c-1.8-1.6-2.8-3.5-2.8-5.5c0-2.7,1.7-5.2,4.8-7l0,0c5.8-3.3,15.3-3.3,21.1,0c3.1,1.8,4.8,4.2,4.8,7
	c0,2.7-1.7,5.2-4.8,7c-5.6,3.2-14.5,3.3-20.3,0.4l-18.3,10.6C804.2,233.9,804,234,803.7,234z M823.5,220.2c4.9,2.8,13.2,2.8,18.1,0
	c2.1-1.2,3.3-2.8,3.3-4.3c0-1.6-1.2-3.1-3.3-4.3c-4.9-2.8-13.2-2.8-18.1,0l0,0c-2.1,1.2-3.3,2.8-3.3,4.3
	C820.2,217.4,821.3,218.9,823.5,220.2C823.4,220.2,823.5,220.2,823.5,220.2z M694.1,210.5c-0.3,0-0.5-0.1-0.8-0.2l-45.1-26.1
	c-5.8,2.9-14.8,2.8-20.3-0.4c-3.1-1.8-4.8-4.2-4.8-6.9c0-2.7,1.7-5.2,4.8-7c5.8-3.3,15.3-3.3,21.1,0c3.1,1.8,4.9,4.2,4.9,7
	c0,2-1,4-2.8,5.5l43.8,25.3c0.7,0.4,1,1.3,0.5,2C695.1,210.2,694.6,210.5,694.1,210.5z M626.1,176.8c0,1.6,1.2,3.1,3.3,4.3
	c4.9,2.8,13.2,2.8,18.1,0h0c0,0,0,0,0,0c0,0,0,0,0,0c2.1-1.2,3.4-2.8,3.4-4.3c0-1.6-1.2-3.1-3.4-4.3c0,0,0,0,0,0
	c-4.9-2.8-13.2-2.8-18.1,0C627.3,173.7,626.1,175.2,626.1,176.8z M735.5,194.6c-0.3,0-0.5-0.1-0.7-0.2l-38.6-22.3
	c-0.5-0.3-0.7-0.8-0.7-1.3c0-0.5,0.3-1,0.7-1.3l17-9.8c-1.8-1.6-2.8-3.5-2.8-5.5c0-2.7,1.7-5.2,4.8-7c5.8-3.3,15.3-3.3,21.1,0
	c0,0,0,0,0,0c3.1,1.8,4.8,4.3,4.8,7c0,0,0,0,0,0c0,2.7-1.7,5.1-4.8,6.9c-5.6,3.2-14.5,3.3-20.3,0.4l-16,9.3l36.4,21
	c0.7,0.4,1,1.3,0.5,2C736.5,194.3,736,194.6,735.5,194.6z M716.7,158.5c4.9,2.8,13.2,2.8,18.1,0c2.1-1.2,3.3-2.7,3.3-4.3
	c0,0,0,0,0,0c0-1.6-1.2-3.1-3.3-4.4c-4.9-2.8-13.2-2.8-18.1,0c-2.1,1.2-3.3,2.8-3.3,4.3C713.4,155.7,714.5,157.2,716.7,158.5
	C716.6,158.5,716.7,158.5,716.7,158.5z"/>
<path class="st0" d="M725.7,156.2c-2.6,0-5.1-0.6-6.8-1.5c-0.3-0.2-0.5-0.3-0.7-0.5c0.2-0.1,0.4-0.3,0.7-0.5c1.7-1,4.2-1.5,6.8-1.5
	s5.1,0.6,6.8,1.5c0.3,0.2,0.5,0.3,0.7,0.5c-0.2,0.1-0.4,0.3-0.7,0.5C730.8,155.7,728.3,156.2,725.7,156.2z M638.5,178.9
	c-2.6,0-5.1-0.6-6.8-1.5c-0.3-0.2-0.5-0.3-0.7-0.5c0.2-0.1,0.4-0.3,0.7-0.5c1.7-1,4.2-1.5,6.8-1.5s5.1,0.6,6.8,1.5
	c0.3,0.2,0.5,0.3,0.7,0.5c-0.2,0.1-0.4,0.3-0.7,0.5C643.6,178.3,641.1,178.9,638.5,178.9z M832.5,217.9c-2.6,0-5.1-0.6-6.8-1.5
	c-0.3-0.2-0.5-0.3-0.7-0.5c0.2-0.1,0.4-0.3,0.7-0.5c1.7-1,4.2-1.5,6.8-1.5s5.1,0.6,6.8,1.5c0.3,0.2,0.5,0.3,0.7,0.5
	c-0.2,0.1-0.4,0.3-0.7,0.5C837.6,217.3,835.2,217.9,832.5,217.9z M632.4,223.6c-2.6,0-5.1-0.6-6.8-1.5c-0.3-0.2-0.5-0.3-0.7-0.5
	c0.2-0.1,0.4-0.3,0.7-0.5c1.7-1,4.2-1.5,6.8-1.5s5.1,0.6,6.8,1.5c0.3,0.2,0.5,0.3,0.7,0.5c-0.2,0.1-0.4,0.3-0.7,0.5
	C637.5,223,635,223.6,632.4,223.6z M793.2,268.2c-2.6,0-5.1-0.6-6.8-1.5c-0.3-0.2-0.5-0.3-0.7-0.5c0.2-0.1,0.4-0.3,0.7-0.5
	c1.7-1,4.2-1.5,6.8-1.5s5.1,0.6,6.8,1.5c0.3,0.2,0.5,0.3,0.7,0.5c-0.2,0.1-0.4,0.3-0.7,0.5C798.4,267.7,795.9,268.2,793.2,268.2z
	 M715.9,271.8c-2.6,0-5.1-0.6-6.8-1.5c-0.3-0.2-0.5-0.3-0.7-0.5c0.2-0.1,0.4-0.3,0.7-0.5c1.7-1,4.2-1.5,6.8-1.5s5.1,0.6,6.8,1.5
	c0.3,0.2,0.5,0.3,0.7,0.5c-0.2,0.1-0.4,0.3-0.7,0.5C721,271.2,718.5,271.8,715.9,271.8z"/>
<path class="st1" d="M1011.5,121.7c0-24.9-20.2-45.2-45.2-45.2c-24.9,0-45.2,20.2-45.2,45.2c0,22.2,16,40.7,37.2,44.4l8,9.9l8-9.9
	C995.4,162.3,1011.5,143.9,1011.5,121.7"/>
<path class="st2" d="M966.3,177.5c-0.5,0-0.9-0.2-1.2-0.6l-7.6-9.5c-22-4.1-37.9-23.3-37.9-45.8c0-25.8,20.9-46.7,46.7-46.7
	c25.8,0,46.7,20.9,46.7,46.7c0,22.4-15.9,41.5-37.9,45.8l-7.7,9.5C967.2,177.3,966.8,177.5,966.3,177.5z M966.3,78
	c-24.1,0-43.7,19.6-43.7,43.7c0,21.2,15.1,39.3,36,42.9c0.4,0.1,0.7,0.3,0.9,0.5l6.8,8.5l6.8-8.5c0.2-0.3,0.5-0.5,0.9-0.5
	c20.8-3.8,36-21.8,36-42.9C1010,97.6,990.4,78,966.3,78z"/>
<path class="st2" d="M984,132.9c-2.7,0-4.1-1-5.2-1.8c-1-0.7-1.8-1.2-3.6-1.2s-2.5,0.5-3.6,1.2c-1.2,0.8-2.6,1.8-5.2,1.8
	s-4.1-1-5.2-1.8c-1-0.7-1.8-1.2-3.6-1.2s-2.5,0.5-3.6,1.2c-1.2,0.8-2.6,1.8-5.2,1.8c-2.7,0-4.1-1-5.2-1.8c-1-0.7-1.8-1.2-3.6-1.2
	c-0.8,0-1.5-0.7-1.5-1.5s0.7-1.5,1.5-1.5c2.7,0,4.1,1,5.2,1.8c1,0.7,1.8,1.2,3.6,1.2s2.5-0.5,3.6-1.2c1.2-0.8,2.6-1.8,5.2-1.8
	c2.7,0,4.1,1,5.2,1.8c1,0.7,1.8,1.2,3.6,1.2s2.5-0.5,3.6-1.2c1.2-0.8,2.6-1.8,5.2-1.8c2.7,0,4.1,1,5.2,1.8c1,0.7,1.8,1.2,3.6,1.2
	s2.5-0.5,3.6-1.2c1.2-0.8,2.6-1.8,5.2-1.8c0.8,0,1.5,0.7,1.5,1.5s-0.7,1.5-1.5,1.5c-1.7,0-2.5,0.5-3.6,1.2
	C988.1,131.9,986.7,132.9,984,132.9z"/>
<path class="st2" d="M984,141.8c-2.7,0-4.1-1-5.2-1.8c-1-0.7-1.8-1.2-3.6-1.2s-2.5,0.5-3.6,1.2c-1.2,0.8-2.6,1.8-5.2,1.8
	s-4.1-1-5.2-1.8c-1-0.7-1.8-1.2-3.6-1.2s-2.5,0.5-3.6,1.2c-1.2,0.8-2.6,1.8-5.2,1.8c-2.7,0-4.1-1-5.2-1.8c-1-0.7-1.8-1.2-3.6-1.2
	c-0.8,0-1.5-0.7-1.5-1.5s0.7-1.5,1.5-1.5c2.7,0,4.1,1,5.2,1.8c1,0.7,1.8,1.2,3.6,1.2s2.5-0.5,3.6-1.2c1.2-0.8,2.6-1.8,5.2-1.8
	c2.7,0,4.1,1,5.2,1.8c1,0.7,1.8,1.2,3.6,1.2s2.5-0.5,3.6-1.2c1.2-0.8,2.6-1.8,5.2-1.8c2.7,0,4.1,1,5.2,1.8c1,0.7,1.8,1.2,3.6,1.2
	s2.5-0.5,3.6-1.2c1.2-0.8,2.6-1.8,5.2-1.8c0.8,0,1.5,0.7,1.5,1.5s-0.7,1.5-1.5,1.5c-1.7,0-2.5,0.5-3.6,1.2
	C988.1,140.8,986.7,141.8,984,141.8z"/>
<path class="st2" d="M966.3,150.7c-2.7,0-4.1-1-5.2-1.8c-1-0.7-1.8-1.2-3.6-1.2c-0.8,0-1.5-0.7-1.5-1.5s0.7-1.5,1.5-1.5
	c2.7,0,4.1,1,5.2,1.8c1,0.7,1.8,1.2,3.6,1.2s2.5-0.5,3.6-1.2c1.2-0.8,2.6-1.8,5.2-1.8c0.8,0,1.5,0.7,1.5,1.5s-0.7,1.5-1.5,1.5
	c-1.7,0-2.5,0.5-3.6,1.2C970.4,149.7,969,150.7,966.3,150.7z"/>
<path class="st0" d="M975.3,113.8c0-4.5-9-18.4-9-18.4s-9,13.9-9,18.4s4,8.1,9,8.1S975.3,118.2,975.3,113.8"/>
<path class="st2" d="M966.3,123.4c-5.8,0-10.5-4.3-10.5-9.6c0-4.8,8.3-17.8,9.2-19.2c0.6-0.9,2-0.9,2.5,0c0.9,1.5,9.2,14.4,9.2,19.2
	C976.8,119.1,972.1,123.4,966.3,123.4z M966.3,98.2c-3.3,5.4-7.5,13-7.5,15.6c0,3.6,3.4,6.6,7.5,6.6s7.5-3,7.5-6.6
	C973.8,111.2,969.6,103.5,966.3,98.2z"/>
<path class="st1" d="M1037,501.9c0-24.9-20.2-45.2-45.2-45.2c-24.9,0-45.2,20.2-45.2,45.2c0,22.2,16,40.7,37.2,44.4l8,9.9l8-9.9
	C1021,542.6,1037,524.1,1037,501.9"/>
<path class="st2" d="M991.8,557.7c-0.5,0-0.9-0.2-1.2-0.6l-7.6-9.5c-22-4.1-37.9-23.3-37.9-45.8c0-25.8,20.9-46.7,46.7-46.7
	c25.8,0,46.7,20.9,46.7,46.7c0,22.5-15.9,41.7-37.9,45.8l-7.6,9.5C992.7,557.5,992.3,557.7,991.8,557.7z M991.8,458.2
	c-24.1,0-43.7,19.6-43.7,43.7c0,21.2,15.1,39.3,36,42.9c0.4,0.1,0.7,0.3,0.9,0.5l6.8,8.5l6.8-8.5c0.2-0.3,0.6-0.5,0.9-0.5
	c20.8-3.6,36-21.7,36-42.9C1035.5,477.8,1015.9,458.2,991.8,458.2z"/>
<polygon class="st0" points="1021.3,500.5 1011.8,506.4 1011.8,500.5 "/>
<path class="st2" d="M1011.8,507.9c-0.3,0-0.5-0.1-0.7-0.2c-0.5-0.3-0.8-0.8-0.8-1.3v-5.9c0-0.8,0.7-1.5,1.5-1.5h9.5
	c0.7,0,1.3,0.4,1.4,1.1c0.2,0.6-0.1,1.3-0.7,1.7l-9.5,5.9C1012.3,507.8,1012.1,507.9,1011.8,507.9z M1013.3,502v1.7l2.7-1.7H1013.3z
	"/>
<path class="st2" d="M1011.1,516.7h-13.3c-0.8,0-1.5-0.7-1.5-1.5v-13.3h-8.1v13.3c0,0.8-0.7,1.5-1.5,1.5h-14c-0.8,0-1.5-0.7-1.5-1.5
	v-1.4c0-0.4,0.2-0.8,0.5-1.1l5.3-4.9l-4.9-1.9c-0.6-0.2-0.9-0.8-0.9-1.4v-19.7c0-0.5,0.3-1,0.7-1.3l19.5-12.2c0.5-0.3,1.1-0.3,1.6,0
	l19.6,12.3c0.4,0.3,0.7,0.8,0.7,1.3v21.6c0,0.5-0.3,1-0.7,1.3l-4.2,2.6l4.2,2.7c0.4,0.3,0.7,0.8,0.7,1.3v0.3c0,0.5-0.2,0.9-0.6,1.2
	l-0.7,0.5C1011.7,516.6,1011.4,516.7,1011.1,516.7z M999.3,513.7h8.6l-3.2-2c-0.4-0.3-0.7-0.8-0.7-1.3s0.3-1,0.7-1.3l5.5-3.5v-19.9
	l-18.1-11.4l-18,11.3v17.8l6.2,2.4c0.5,0.2,0.8,0.6,0.9,1.1c0.1,0.5-0.1,1-0.5,1.4l-5.8,5.3h10.2v-13.3c0-0.8,0.7-1.5,1.5-1.5h11.1
	c0.8,0,1.5,0.7,1.5,1.5V513.7z M992.3,493.3c-2.8,0-5-2.2-5-5c0-2.7,2.3-5,5-5s5,2.3,5,5C997.2,491.1,995,493.3,992.3,493.3z
	 M992.3,486.3c-1.1,0-2,0.9-2,2c0,1.1,0.9,2,2,2c1,0,1.9-0.9,2-2.1C994.3,487.2,993.4,486.3,992.3,486.3z"/>
<polygon class="st0" points="972.7,500.5 972.7,504.6 962.4,500.5 "/>
<path class="st2" d="M972.7,506.1c-0.2,0-0.4,0-0.6-0.1l-10.3-4.1c-0.7-0.3-1.1-1-0.9-1.7c0.1-0.7,0.8-1.2,1.5-1.2h10.3
	c0.8,0,1.5,0.7,1.5,1.5v4.1c0,0.5-0.2,1-0.7,1.2C973.3,506,973,506.1,972.7,506.1z M970.2,502l1,0.4V502H970.2z"/>
<path class="st2" d="M1011.8,516.2c-0.2,0-0.5-0.1-0.7-0.2c-0.5-0.3-0.8-0.8-0.8-1.3v-0.3c0-0.5,0.2-0.9,0.6-1.2
	c0.4-0.3,0.9-0.4,1.4-0.2l0.3,0.1c0.5,0.2,0.9,0.7,1,1.2c0.1,0.6-0.2,1.1-0.7,1.4l-0.3,0.2C1012.4,516.1,1012.1,516.2,1011.8,516.2z
	"/>
<path class="st2" d="M1017.1,489.7c-0.3,0-0.5-0.1-0.8-0.2l-5.3-3.3c-0.7-0.4-0.9-1.4-0.5-2.1c0.4-0.7,1.4-0.9,2.1-0.5l5.3,3.3
	c0.7,0.4,0.9,1.4,0.5,2.1C1018.1,489.4,1017.6,489.7,1017.1,489.7z"/>
<path class="st2" d="M967.3,489.7c-0.5,0-1-0.3-1.3-0.7c-0.4-0.7-0.2-1.6,0.5-2.1l5.4-3.3c0.7-0.4,1.6-0.2,2.1,0.5
	c0.4,0.7,0.2,1.6-0.5,2.1l-5.4,3.3C967.8,489.6,967.6,489.7,967.3,489.7z"/>
<polygon class="st0" points="983,535.5 986.4,525.1 971.7,514.8 972.7,513.8 972.7,515.2 986.7,515.2 986.7,500.5 997.8,500.5 
	997.8,515.2 1011.1,515.2 "/>
<path class="st2" d="M983,537c-0.3,0-0.6-0.1-0.9-0.3c-0.5-0.4-0.7-1.1-0.5-1.7l3.1-9.3l-13.8-9.7c-0.4-0.3-0.6-0.7-0.6-1.1
	c0-0.4,0.1-0.9,0.4-1.2l1-1c0.4-0.4,1.1-0.6,1.6-0.3c0.5,0.2,0.9,0.7,0.9,1.3h11v-13.2c0-0.8,0.7-1.5,1.5-1.5h11.1
	c0.8,0,1.5,0.7,1.5,1.5v13.2h11.8c0.7,0,1.2,0.4,1.4,1s0,1.3-0.5,1.7l-28.1,20.3C983.6,536.9,983.3,537,983,537z M977,516.7
	l10.2,7.2c0.5,0.4,0.8,1.1,0.6,1.7l-2,6l20.6-14.9h-8.7c-0.8,0-1.5-0.7-1.5-1.5V502h-8.1v13.2c0,0.8-0.7,1.5-1.5,1.5H977z"/>
<path class="st0" d="M995.7,488.3c0,1.9-1.6,3.5-3.5,3.5s-3.5-1.5-3.5-3.5c0-1.9,1.6-3.5,3.5-3.5S995.7,486.4,995.7,488.3"/>
<path class="st2" d="M992.2,493.3c-2.8,0-5-2.2-5-5c0-2.7,2.3-5,5-5s5,2.3,5,5S994.9,493.3,992.2,493.3z M992.2,486.3
	c-1.1,0-2,0.9-2,2c0,1.1,0.9,2,2,2c1.1,0,2-0.9,2-2S993.3,486.3,992.2,486.3z"/>
<path class="st1" d="M473.9,477.4c0-24.9-20.2-45.2-45.2-45.2c-24.9,0-45.2,20.2-45.2,45.2c0,22.2,16,40.7,37.2,44.4l8,9.9l8-9.9
	C457.9,518.1,473.9,499.6,473.9,477.4"/>
<path class="st2" d="M428.7,533.2c-0.5,0-0.9-0.2-1.2-0.6l-7.6-9.5c-22-4.1-37.9-23.3-37.9-45.8c0-25.8,20.9-46.7,46.7-46.7
	s46.7,20.9,46.7,46.7c0,22.5-15.9,41.7-37.9,45.8l-7.6,9.5C429.6,533,429.2,533.2,428.7,533.2z M428.7,433.7
	c-24.1,0-43.7,19.6-43.7,43.7c0,21.2,15.1,39.3,36,42.9c0.4,0.1,0.7,0.3,0.9,0.5l6.8,8.5l6.8-8.5c0.2-0.3,0.6-0.5,0.9-0.5
	c20.8-3.6,36-21.7,36-42.9C472.4,453.3,452.8,433.7,428.7,433.7z"/>
<polygon class="st0" points="428.4,485.3 422.1,481.7 422.1,474.4 428.4,470.7 434.7,474.4 434.7,481.7 "/>
<path class="st2" d="M428.4,486.8c-0.3,0-0.5-0.1-0.7-0.2l-6.3-3.6c-0.5-0.3-0.8-0.8-0.8-1.3v-7.3c0-0.5,0.3-1,0.7-1.3l6.3-3.7
	c0.5-0.3,1-0.3,1.5,0l6.3,3.7c0.5,0.3,0.7,0.8,0.7,1.3v7.3c0,0.5-0.3,1-0.8,1.3l-6.3,3.6C428.9,486.7,428.7,486.8,428.4,486.8z
	 M423.6,480.8l4.8,2.7l4.8-2.7v-5.6l-4.8-2.8l-4.8,2.8V480.8z"/>
<path class="st2" d="M428.4,472.2c-0.8,0-1.5-0.7-1.5-1.5v-20.5c0-0.8,0.7-1.5,1.5-1.5s1.5,0.7,1.5,1.5v20.5
	C429.9,471.5,429.2,472.2,428.4,472.2z"/>
<path class="st2" d="M428.4,464.8c-0.4,0-0.8-0.1-1.1-0.4l-8.2-8.1c-0.6-0.6-0.6-1.5,0-2.1c0.6-0.6,1.5-0.6,2.1,0l7.1,7.1l7-7
	c0.6-0.6,1.5-0.6,2.1,0s0.6,1.5,0,2.1l-8.1,8.1C429.2,464.6,428.8,464.8,428.4,464.8z"/>
<path class="st2" d="M428.4,507.3c-0.8,0-1.5-0.7-1.5-1.5v-20.5c0-0.8,0.7-1.5,1.5-1.5s1.5,0.7,1.5,1.5v20.5
	C429.9,506.6,429.2,507.3,428.4,507.3z"/>
<path class="st2" d="M420.2,502.3c-0.4,0-0.8-0.1-1.1-0.4c-0.6-0.6-0.6-1.5,0-2.1l8.2-8.1c0.6-0.6,1.5-0.6,2.1,0l8.1,8.1
	c0.6,0.6,0.6,1.5,0,2.1s-1.5,0.6-2.1,0l-7-7l-7.1,7.1C421,502.1,420.6,502.3,420.2,502.3z"/>
<path class="st2" d="M422.4,475.6c-0.3,0-0.5-0.1-0.7-0.2L404,465.2c-0.7-0.4-1-1.3-0.6-2s1.3-1,2-0.6l17.7,10.2
	c0.7,0.4,1,1.3,0.6,2C423.4,475.3,422.9,475.6,422.4,475.6z"/>
<path class="st2" d="M404.9,475c-0.7,0-1.3-0.4-1.4-1.1c-0.2-0.8,0.3-1.6,1.1-1.8l9.7-2.6l-2.6-9.8c-0.2-0.8,0.3-1.6,1.1-1.8
	c0.8-0.2,1.6,0.3,1.8,1.1l3,11.2c0.2,0.8-0.3,1.6-1.1,1.8l-11.1,3C405.2,475,405,475,404.9,475z"/>
<path class="st2" d="M452.7,493.2c-0.3,0-0.5-0.1-0.7-0.2l-17.7-10.2c-0.7-0.4-1-1.3-0.6-2c0.4-0.7,1.3-1,2-0.6l17.7,10.2
	c0.7,0.4,1,1.3,0.6,2C453.7,492.9,453.2,493.2,452.7,493.2z"/>
<path class="st2" d="M444.4,497.8c-0.7,0-1.3-0.4-1.4-1.1l-3-11.2c-0.1-0.4,0-0.8,0.2-1.1c0.2-0.3,0.5-0.6,0.9-0.7l11.1-2.9
	c0.8-0.2,1.6,0.3,1.8,1.1s-0.3,1.6-1.1,1.8l-9.6,2.5l2.6,9.7c0.2,0.8-0.3,1.6-1.1,1.8C444.7,497.8,444.5,497.8,444.4,497.8z"/>
<path class="st2" d="M404.7,493.3c-0.5,0-1-0.3-1.3-0.8c-0.4-0.7-0.2-1.6,0.6-2l17.8-10.2c0.7-0.4,1.6-0.2,2,0.6s0.2,1.6-0.6,2
	l-17.8,10.2C405.2,493.2,405,493.3,404.7,493.3z"/>
<path class="st2" d="M413.1,497.9c-0.1,0-0.3,0-0.4-0.1c-0.8-0.2-1.3-1-1.1-1.8l2.6-9.7l-9.7-2.6c-0.8-0.2-1.3-1-1.1-1.8
	c0.2-0.8,1-1.3,1.8-1.1l11.1,3c0.4,0.1,0.7,0.4,0.9,0.7s0.3,0.8,0.1,1.1l-3,11.1C414.4,497.4,413.8,497.9,413.1,497.9z"/>
<path class="st2" d="M435.1,475.8c-0.5,0-1-0.3-1.3-0.8c-0.4-0.7-0.2-1.6,0.6-2l17.7-10.2c0.7-0.4,1.6-0.2,2,0.6
	c0.4,0.7,0.2,1.6-0.6,2l-17.7,10.2C435.6,475.7,435.4,475.8,435.1,475.8z"/>
<path class="st2" d="M452.6,475.1c-0.1,0-0.3,0-0.4-0.1l-11.1-3c-0.4-0.1-0.7-0.4-0.9-0.7s-0.3-0.8-0.1-1.1l3-11.1
	c0.2-0.8,1-1.3,1.8-1.1c0.8,0.2,1.3,1,1.1,1.8l-2.6,9.7l9.7,2.6c0.8,0.2,1.3,1,1.1,1.8C453.9,474.6,453.3,475.1,452.6,475.1z"/>
<path class="st1" d="M393.4,288.6c0-24.9-20.2-45.2-45.2-45.2c-24.9,0-45.2,20.2-45.2,45.2c0,22.2,16,40.7,37.2,44.4l8,9.9l8-9.9
	C377.3,329.3,393.4,310.8,393.4,288.6"/>
<path class="st2" d="M348.2,344.4c-0.5,0-0.9-0.2-1.2-0.6l-7.6-9.5c-22-4.1-37.9-23.3-37.9-45.8c0-25.8,20.9-46.7,46.7-46.7
	s46.7,20.9,46.7,46.7c0,22.5-15.9,41.6-37.9,45.8l-7.6,9.5C349.1,344.2,348.7,344.4,348.2,344.4z M348.2,244.9
	c-24.1,0-43.7,19.6-43.7,43.7c0,21.2,15.1,39.3,36,42.9c0.4,0.1,0.7,0.3,0.9,0.5l6.8,8.5l6.8-8.5c0.2-0.3,0.6-0.5,0.9-0.5
	c20.8-3.7,36-21.7,36-42.9C391.9,264.5,372.3,244.9,348.2,244.9z"/>
<path class="st0" d="M359,269.9c1.6,10.8,16.8,19.5,7.6,33.8c-11.1,17.4-31,11.6-37.1,2c-3.5-5.5-3.3-12-0.7-18.9
	c0,3.1,10.4,18.9,14.3,15.3c4-3.6-8.8-12.8-8.2-20.2c0.7-9.9,10.2-10.3,2.2-21.6c5.7,3.5,10.9,8,12.5,15.2c1.2,5.3-6,18.3,2.8,19
	C363.2,295.2,354.9,280.5,359,269.9"/>
<path class="st2" d="M347.7,316.3C347.6,316.3,347.6,316.3,347.7,316.3c-7.9,0-15.7-4-19.4-9.9c-3.5-5.5-3.8-12.3-0.8-20.2
	c0.3-0.7,1-1.1,1.7-0.9c0.7,0.1,1.2,0.8,1.2,1.5c0,1.9,6.5,12.3,10.7,14.1c0.8,0.3,1,0.1,1.1,0.1c1.1-1-1.2-4.2-3.2-7
	c-2.7-3.8-5.8-8.1-5.4-12.2c0.3-4.1,2-6.8,3.4-8.9c2.2-3.4,3.5-5.5-0.9-11.7c-0.4-0.6-0.4-1.4,0.1-1.9c0.5-0.5,1.3-0.6,1.9-0.3
	c5.2,3.2,11.3,7.9,13.2,16.2c0.5,2.1-0.1,4.9-0.7,7.8c-0.7,3.4-1.5,7.3-0.2,9c0.5,0.6,1.2,1,2.4,1c1.5,0.1,2.6-0.2,3.2-0.8
	c1.3-1.4,1.1-4.9,0.8-8.7c-0.3-4.5-0.7-9.6,1.1-14.2c0.2-0.6,0.9-1,1.6-1c0.7,0.1,1.2,0.6,1.3,1.3c0.5,3.4,2.6,6.8,4.8,10.3
	c4.3,6.8,9.1,14.4,2.6,24.6C363,312.1,355.8,316.3,347.7,316.3z M329,291.3c-1.2,5.2-0.6,9.8,1.8,13.5c3.2,5,10.1,8.5,16.9,8.5
	c0,0,0,0,0,0c5,0,12.2-1.8,17.7-10.5c5.5-8.5,1.6-14.8-2.6-21.3c-1.2-1.9-2.4-3.9-3.4-5.9c-0.2,2.6,0,5.2,0.2,7.7
	c0.3,4.7,0.6,8.7-1.7,11c-1.3,1.3-3.1,1.8-5.5,1.6c-2.1-0.2-3.6-0.9-4.6-2.2c-2.1-2.8-1.2-7.1-0.3-11.4c0.5-2.5,1-5.1,0.7-6.6
	c-1-4.7-3.7-8.1-6.8-10.7c1.3,4.1-0.4,6.6-2,9.3c-1.3,2.1-2.7,4.2-2.9,7.6c-0.2,3.1,2.5,6.9,4.9,10.2c2.9,4,5.9,8.2,2.8,11
	c-0.6,0.6-2.1,1.5-4.4,0.5C336.3,302.1,331.5,296,329,291.3z"/>
<path class="st1" d="M459,152.2c0-24.9-20.2-45.2-45.2-45.2c-24.9,0-45.2,20.2-45.2,45.2c0,22.2,16,40.7,37.2,44.4l8,9.9l8-9.9
	C443,192.9,459,174.4,459,152.2"/>
<path class="st2" d="M413.8,208c-0.5,0-0.9-0.2-1.2-0.6l-7.6-9.5c-22-4.1-37.9-23.3-37.9-45.8c0-25.8,20.9-46.7,46.7-46.7
	s46.7,20.9,46.7,46.7c0,22.5-15.9,41.7-37.9,45.8l-7.6,9.5C414.7,207.8,414.3,208,413.8,208z M413.8,108.5
	c-24.1,0-43.7,19.6-43.7,43.7c0,21.2,15.1,39.3,36,42.9c0.4,0.1,0.7,0.3,0.9,0.5l6.8,8.5l6.8-8.5c0.2-0.3,0.6-0.5,0.9-0.5
	c20.8-3.6,36-21.7,36-42.9C457.5,128.1,437.9,108.5,413.8,108.5z"/>
<path class="st2" d="M405.4,157.1c-3.8,0-7.2-0.6-9.5-1.9c-3-1.6-3.6-3.9-3.6-5.5c0-0.7,0.1-1.3,0.2-2c-2.1-1.6-3.2-3.8-3.2-6.3
	c0-9.4,14.3-15.7,28.2-16.2c12.4-0.5,20.4,3.6,21,10.7c0.4,5.4-2.5,10.3-8.5,14.2C423.2,154.5,413.4,157.1,405.4,157.1z
	 M395.3,149.4c0,0.1,0,0.3,0,0.4c0,0.4,0,1.7,2,2.8c5.6,3,21.4,1.3,31-5c3.5-2.3,7.6-6.1,7.2-11.4c-0.5-6.4-10-8.3-17.9-8
	c-12.2,0.5-25.3,5.9-25.3,13.2c0,1.4,0.5,2.5,1.5,3.5c1.8-2.6,4.9-4.6,7.7-6.1c0.7-0.4,1.6-0.1,2,0.6c0.4,0.7,0.1,1.6-0.6,2
	c-3.3,1.8-5.4,3.4-6.6,5.1c2.2,1,5.3,1.5,8.7,1.5c8.6,0,18.3-3.4,18.3-8.1c0-0.7-0.3-1.2-0.8-1.7c-2.2-1.6-8.1-1.3-14.3,0.8
	c-0.8,0.3-1.6-0.2-1.9-0.9c-0.3-0.8,0.2-1.6,0.9-1.9c5.5-1.9,13.2-3.1,17-0.4c1.4,1,2.1,2.4,2.1,4.1c0,6.8-11,11.1-21.3,11.1
	C401.2,151,397.9,150.5,395.3,149.4z"/>
<path class="st2" d="M415.3,183.5c-0.2,0-0.4,0-0.5-0.1c-0.8-0.3-1.2-1.2-0.9-1.9c0.5-1.2,0.9-2.6,0.9-3.9c-1.7,0.6-3.4,1-4.8,1.1
	c-5.3,0.5-6.2-2.3-6.4-3.6c-0.2-1.4,0.7-2.7,2.4-3.6c2.8-1.5,7.2-1.6,9.7,0.6c0.4,0.4,0.8,0.8,1.1,1.4c4.5-2.1,8.4-5.3,8.3-7.9
	c0-0.5-0.1-1-0.3-1.4c-1.2,0.8-2.6,1.5-4,2.1c-5,2.2-14.6,5.1-18.8,2.6c-1.2-0.7-1.9-1.8-2-3.2c-0.1-1.4,0.8-2.8,2.8-4.2
	c4.5-3.1,14.9-5.8,20.8-2.9c0.8,0.4,1.4,0.8,2,1.3c3.1-2.6,4.5-5.4,4.1-7.3c-0.4-1.9-2.7-2.9-6.3-2.8c-0.9,0-1.5-0.6-1.5-1.5
	c0-0.8,0.6-1.5,1.5-1.5c7.3-0.2,8.9,3.5,9.3,5.2c0.7,3.4-1.3,7.2-5.3,10.4c0.4,0.9,0.7,1.9,0.7,3c0.2,4.4-5,8.5-10.4,10.9
	c0.1,1.6-0.1,3.6-1.1,6.1C416.5,183.1,415.9,183.5,415.3,183.5z M406.6,174.8c0.2,1,2.3,0.9,3.1,0.9c1.3-0.1,2.8-0.5,4.3-1
	c-0.3-0.4-0.7-0.7-1.3-0.9C410.2,172.8,407,174.1,406.6,174.8z M417.4,160.4c-7,0-14.1,3.7-14.3,5.1c0,0.4,0.2,0.6,0.5,0.8
	c2.2,1.3,9.4,0.1,16.1-2.8c1.3-0.5,2.4-1.2,3.4-1.8c-1.2-0.8-2.9-1.3-5.1-1.4C417.8,160.4,417.6,160.4,417.4,160.4z"/>
<path class="st1" d="M731.5,531c0-24.9-20.2-45.2-45.2-45.2S641.1,506,641.1,531c0,22.2,16,40.7,37.2,44.4l8,9.9l8-9.9
	C715.4,571.6,731.5,553.2,731.5,531z"/>
<path class="st2" d="M686.3,586.8c-0.5,0-0.9-0.2-1.2-0.6l-7.6-9.5c-22-4.1-37.9-23.3-37.9-45.8c0-25.8,20.9-46.7,46.7-46.7
	S733,505.2,733,531c0,22.4-15.9,41.5-37.9,45.8l-7.7,9.5C687.2,586.6,686.8,586.8,686.3,586.8z M686.3,487.3
	c-24.1,0-43.7,19.6-43.7,43.7c0,21.2,15.1,39.3,36,42.9c0.4,0.1,0.7,0.3,0.9,0.5l6.8,8.5l6.8-8.5c0.2-0.3,0.5-0.5,0.9-0.5
	c20.8-3.8,36-21.8,36-42.9C730,506.9,710.4,487.3,686.3,487.3z"/>
<polygon class="st0" points="679.2,505.4 670.7,528.3 680.3,528.3 674.2,539.8 681.7,539.8 674.2,562.5 701.9,533.2 689.2,533.2 
	696.9,521.3 685.5,521.3 696.7,505.4 "/>
<path class="st2" d="M674.2,564c-0.3,0-0.5-0.1-0.8-0.2c-0.6-0.4-0.9-1.1-0.7-1.8l6.8-20.7h-5.4c-0.5,0-1-0.3-1.3-0.7
	c-0.3-0.5-0.3-1,0-1.5l4.9-9.3h-7.1c-0.5,0-1-0.2-1.2-0.6s-0.3-0.9-0.2-1.4l8.5-22.9c0.2-0.6,0.8-1,1.4-1h17.5
	c0.6,0,1.1,0.3,1.3,0.8s0.2,1.1-0.1,1.6l-9.5,13.5h8.5c0.5,0,1.1,0.3,1.3,0.8c0.3,0.5,0.2,1.1-0.1,1.5l-6.2,9.6h9.9
	c0.6,0,1.1,0.4,1.4,0.9c0.2,0.6,0.1,1.2-0.3,1.6l-27.7,29.3C675,563.8,674.6,564,674.2,564z M676.7,538.3h5c0.5,0,0.9,0.2,1.2,0.6
	c0.3,0.4,0.4,0.9,0.2,1.3l-5.4,16.3l20.7-21.9h-9.2c-0.5,0-1.1-0.3-1.3-0.8c-0.3-0.5-0.2-1.1,0.1-1.5l6.2-9.6h-8.6
	c-0.6,0-1.1-0.3-1.3-0.8s-0.2-1.1,0.1-1.6l9.5-13.5h-13.6l-7.4,19.9h7.4c0.5,0,1,0.3,1.3,0.7c0.3,0.5,0.3,1,0,1.5L676.7,538.3z"/>
<path class="st2" d="M1089.2,374.6c-0.5,0-0.9-0.2-1.2-0.6l-7.6-9.5c-22-4.1-37.9-23.3-37.9-45.8c0-25.8,20.9-46.7,46.7-46.7
	s46.7,21,46.7,46.7c0,22.5-15.9,41.6-37.9,45.8l-7.6,9.5C1090.1,374.4,1089.7,374.6,1089.2,374.6z M1089.2,275.1
	c-24.1,0-43.7,19.6-43.7,43.7c0,21.2,15.1,39.3,36,42.9c0.4,0.1,0.7,0.3,0.9,0.5l6.8,8.5l6.8-8.5c0.2-0.3,0.6-0.5,0.9-0.5
	c20.8-3.7,36-21.7,36-42.9C1132.9,294.7,1113.3,275.1,1089.2,275.1z"/>
<path class="st1" d="M1134.4,318.8c0-24.9-20.2-45.2-45.2-45.2s-45.2,20.2-45.2,45.2c0,22.2,16,40.7,37.2,44.4l8,9.9l8-9.9
	C1118.3,359.5,1134.4,341.1,1134.4,318.8z"/>
<path class="st2" d="M1089.2,374.6c-0.5,0-0.9-0.2-1.2-0.6l-7.6-9.5c-22-4.1-37.9-23.3-37.9-45.8c0-25.8,20.9-46.7,46.7-46.7
	s46.7,21,46.7,46.7c0,22.5-15.9,41.6-37.9,45.8l-7.6,9.5C1090.1,374.4,1089.7,374.6,1089.2,374.6z M1089.2,275.1
	c-24.1,0-43.7,19.6-43.7,43.7c0,21.2,15.1,39.3,36,42.9c0.4,0.1,0.7,0.3,0.9,0.5l6.8,8.5l6.8-8.5c0.2-0.3,0.6-0.5,0.9-0.5
	c20.8-3.7,36-21.7,36-42.9C1132.9,294.7,1113.3,275.1,1089.2,275.1z"/>
<path class="st2" d="M1086.1,313.7h-18.3c-0.8,0-1.5-0.7-1.5-1.5s0.7-1.5,1.5-1.5h18.3c0.8,0,1.5,0.7,1.5,1.5
	S1086.9,313.7,1086.1,313.7z"/>
<path class="st2" d="M1103.7,313.7h-12.1c-0.8,0-1.5-0.7-1.5-1.5s0.7-1.5,1.5-1.5h12.1c3.1,0,5.6-2.5,5.6-5.6s-2.5-5.6-5.6-5.6
	c-1.9,0-3.7,1-4.8,2.5c-0.5,0.7-1.4,0.9-2.1,0.4c-0.7-0.5-0.9-1.4-0.4-2.1c1.7-2.4,4.4-3.9,7.2-3.9c4.7,0,8.6,3.9,8.6,8.6
	S1108.4,313.7,1103.7,313.7z"/>
<path class="st2" d="M1097.4,341.6c-2.6,0-5.1-1.4-6.6-3.6c-0.5-0.7-0.3-1.6,0.4-2.1s1.6-0.3,2.1,0.4c0.9,1.3,2.5,2.2,4,2.2
	c2.7,0,4.8-2.1,4.8-4.8c0-2.7-2.1-4.8-4.8-4.8h-28.8c-0.8,0-1.5-0.7-1.5-1.5s0.7-1.5,1.5-1.5h28.8c4.3,0,7.8,3.5,7.8,7.8
	C1105.2,338.1,1101.7,341.6,1097.4,341.6z"/>
<path class="st2" d="M1086.5,336.5h-9.9c-0.8,0-1.5-0.7-1.5-1.5s0.7-1.5,1.5-1.5h9.9c0.8,0,1.5,0.7,1.5,1.5
	S1087.3,336.5,1086.5,336.5z"/>
<path class="st2" d="M1100.4,321.4h-38.7c-0.8,0-1.5-0.7-1.5-1.5s0.7-1.5,1.5-1.5h38.7c0.8,0,1.5,0.7,1.5,1.5
	S1101.2,321.4,1100.4,321.4z"/>
<path class="st2" d="M1111.9,321.4h-6.1c-0.8,0-1.5-0.7-1.5-1.5s0.7-1.5,1.5-1.5h6.1c0.8,0,1.5,0.7,1.5,1.5
	S1112.7,321.4,1111.9,321.4z"/>
<path class="st2" d="M1091.7,306.2h-8.1c-0.8,0-1.5-0.7-1.5-1.5s0.7-1.5,1.5-1.5h8.1c0.8,0,1.5,0.7,1.5,1.5
	S1092.5,306.2,1091.7,306.2z"/>
</svg>
