<?xml version="1.0" encoding="utf-8"?>
<!-- Generator: Adobe Illustrator 19.0.1, SVG Export Plug-In . SVG Version: 6.00 Build 0)  -->
<svg version="1.1" id="Шар_1" xmlns="http://www.w3.org/2000/svg" xmlns:xlink="http://www.w3.org/1999/xlink" x="0px" y="0px"
	 viewBox="45 -34 130 108" style="enable-background:new 45 -34 130 108;" xml:space="preserve">
<style type="text/css">
	.st0{fill:#FFFFFF;}
	.st1{fill:#053544;}
</style>
<path class="st0" d="M100.5,52.9h0.7v-1.7C94.1,48.4,89,41.5,89,33.4c0-2.9,0.7-5.6,1.8-8c-2-0.9-4.2-1.4-6.4-1.4h-0.8
	c-1.5,3-4.5,5-8,5h-1.2c-3.5,0-6.6-2.1-8-5.1h-0.8c-8.6,0-15.6,7-15.6,15.6V52c0,8.8,7.2,16,16,16h23v-3.6
	C89,58.1,94.2,52.9,100.5,52.9z"/>
<path class="st0" d="M160.5,54.5V37.8c0-4-1.9-7.7-5.1-9.9c-3.2,5.8-9.3,9.5-16.1,9.5c-4.6,0-8.8-1.7-12.1-4.6c0,0.2,0,0.4,0,0.6
	c0,8-5,14.9-12,17.7v1.8h0.6c6.3,0,11.5,5.2,11.5,11.5V68H147C154.4,68,160.5,62,160.5,54.5z"/>
<path class="st1" d="M75-29C62.6-29,52.5-18.9,52.5-6.5S62.6,15.9,75,15.9S97.4,5.8,97.4-6.6S87.4-29,75-29z M75,18.9
	c-14,0-25.5-11.4-25.5-25.5S60.9-32,75-32s25.4,11.4,25.4,25.5S89,18.9,75,18.9z"/>
<path class="st1" d="M52.5,3.3c-0.4,0-0.9-0.2-1.2-0.6c-0.5-0.6-0.4-1.6,0.2-2.1c5.7-4.6,9.1-11.8,9.1-19.3c0-0.8,0.7-1.5,1.5-1.5
	h33.5c0.8,0,1.5,0.7,1.5,1.5s-0.7,1.5-1.5,1.5h-32C63.2-9.3,59.5-1.8,53.5,3C53.2,3.2,52.9,3.3,52.5,3.3z"/>
<path class="st1" d="M92.8,26.2c-0.3,0-0.5-0.1-0.7-0.2c-2.3-1.3-5-2-7.7-2h-1.8c-0.8,0-1.5-0.7-1.5-1.5s0.7-1.5,1.5-1.5h1.8
	c3.2,0,6.4,0.8,9.2,2.4c0.7,0.4,1,1.3,0.6,2C93.8,25.9,93.3,26.2,92.8,26.2z"/>
<path class="st1" d="M78.7,58.4H66c-3.5,0-6.4-2.9-6.4-6.4V39.5c0-0.8,0.7-1.5,1.5-1.5c0.8,0,1.5,0.7,1.5,1.5V52
	c0,1.9,1.5,3.4,3.4,3.4h12.7c0.8,0,1.5,0.7,1.5,1.5C80.2,57.7,79.5,58.4,78.7,58.4z"/>
<path class="st1" d="M75.6,29h-1.2c-4.9,0-8.9-4-8.9-8.9V16c0-0.8,0.7-1.5,1.5-1.5s1.5,0.7,1.5,1.5v4.1c0,3.2,2.6,5.9,5.9,5.9h1.2
	c3.2,0,5.9-2.6,5.9-5.9V16c0-0.8,0.7-1.5,1.5-1.5s1.5,0.7,1.5,1.5v4.1C84.5,25,80.5,29,75.6,29z"/>
<path class="st1" d="M108.2,17.2c-8.9,0-16.1,7.2-16.1,16.1s7.2,16.1,16.1,16.1s16.1-7.2,16.1-16.1S117.1,17.2,108.2,17.2z
	 M108.2,52.5C97.6,52.5,89,43.9,89,33.4s8.6-19.1,19.1-19.1s19.1,8.6,19.1,19.1S118.7,52.5,108.2,52.5z"/>
<path class="st1" d="M90.7,37.4c-0.4,0-0.8-0.2-1.1-0.5c-0.6-0.6-0.5-1.6,0.1-2.1c8.3-7.7,17.9-13.4,28.5-17
	c0.8-0.3,1.6,0.1,1.9,0.9c0.3,0.8-0.1,1.6-0.9,1.9c-10.2,3.5-19.4,9-27.4,16.4C91.4,37.2,91.1,37.4,90.7,37.4z"/>
<path class="st1" d="M90.5,71H66c-10.5,0-19-8.5-19-19V39.5c0-10.3,8.3-18.6,18.6-18.6h1.8c0.8,0,1.5,0.7,1.5,1.5s-0.7,1.5-1.5,1.5
	h-1.8c-8.6,0-15.6,7-15.6,15.6V52c0,8.8,7.2,16,16,16h23v-3.6c0-6.3,5.2-11.5,11.5-11.5h2.3c0.8,0,1.5,0.7,1.5,1.5s-0.7,1.5-1.5,1.5
	h-2.3c-4.7,0-8.5,3.8-8.5,8.5v5.1C92,70.3,91.3,71,90.5,71z"/>
<path class="st1" d="M108.2,60.1c-3.8,0-7-3.1-7-7v-3c0-0.8,0.7-1.5,1.5-1.5c0.8,0,1.5,0.7,1.5,1.5v3c0,2.2,1.8,4,4,4
	c2.2,0,4-1.8,4-4v-3c0-0.8,0.7-1.5,1.5-1.5s1.5,0.7,1.5,1.5v3C115.1,57,112,60.1,108.2,60.1z"/>
<path class="st1" d="M160.6,32.6c-0.6,0-1.2-0.4-1.4-1.1c-0.2-0.8,0.2-1.6,1-1.9c3-0.9,6-2.1,8.9-3.6c-5.4-9.1-6.1-18.3-6.1-24.6
	c0-13.1-10.6-23.7-23.7-23.7s-23.7,10.6-23.7,23.7c0,3.7-0.2,9.2-2,15.2c-0.2,0.8-1.1,1.2-1.9,1s-1.2-1.1-1-1.9
	c1.6-5.6,1.8-10.8,1.8-14.3c0-14.7,12-26.7,26.7-26.7s26.7,12,26.7,26.7c0,6.2,0.7,15.5,6.5,24.4c0.2,0.4,0.3,0.8,0.2,1.2
	s-0.4,0.8-0.8,1c-3.5,1.9-7.2,3.4-10.9,4.5C160.9,32.5,160.7,32.6,160.6,32.6z"/>
<path class="st1" d="M147,60.9h-14.4c-0.8,0-1.5-0.7-1.5-1.5s0.7-1.5,1.5-1.5H147c1.9,0,3.4-1.5,3.4-3.4V41.2c0-0.8,0.7-1.5,1.5-1.5
	c0.8,0,1.5,0.7,1.5,1.5v13.3C153.4,58.1,150.5,60.9,147,60.9z"/>
<path class="st1" d="M139.3-13C130.9-13,124-6.1,124,2.3c0,2.7,0.7,5.3,2.1,7.6c1.9,3.3,5,5.8,8.7,7c3,0.9,6.2,0.9,9.2,0
	c3.7-1.2,6.7-3.6,8.7-6.9c1.3-2.3,2.1-5,2.1-7.7c0-1.1-0.1-2.2-0.4-3.2c-6-1.5-11-6-13-11.9C140.6-13,139.9-13,139.3-13z
	 M139.3,20.6c-1.9,0-3.7-0.3-5.5-0.8c-4.4-1.4-8.1-4.3-10.4-8.3c-1.6-2.8-2.5-5.9-2.5-9.2c0-10.1,8.2-18.3,18.3-18.3
	c1.1,0,2.3,0.1,3.4,0.3c0.6,0.1,1,0.5,1.2,1.1c1.5,5.6,6.2,9.8,11.9,10.9c0.6,0.1,1,0.5,1.2,1.1c0.5,1.6,0.7,3.3,0.7,4.9
	c0,3.2-0.9,6.4-2.5,9.2c-2.3,4-6,6.9-10.4,8.3C143,20.3,141.1,20.6,139.3,20.6z"/>
<path class="st1" d="M125.6,26.6c0.2,0.1,0.5,0.3,0.6,0.6c2.8,4.6,7.7,7.3,13,7.3c5.6,0,10.7-3.1,13.4-7.9c-1.4-0.6-2.9-0.8-4.4-0.8
	h-3.9c-0.8,0-1.5-0.7-1.5-1.5v-3.9c-2.3,0.5-4.8,0.5-7.1,0v3.9c0,0.8-0.7,1.5-1.5,1.5h-3.9C128.7,25.6,127.1,25.9,125.6,26.6z
	 M147,71h-21.2c-0.8,0-1.5-0.7-1.5-1.5v-5.1c0-4.7-3.8-8.5-8.5-8.5h-2.2c-0.8,0-1.5-0.7-1.5-1.5s0.7-1.5,1.5-1.5h2.2
	c6.3,0,11.5,5.2,11.5,11.5V68H147c7.4,0,13.5-6,13.5-13.5V37.8c0-4-1.9-7.7-5.1-9.9c-3.2,5.8-9.3,9.5-16.1,9.5
	c-6.4,0-12.2-3.3-15.6-8.7c-0.2-0.2-0.2-0.5-0.2-0.8s0.1-0.6,0.2-0.8c-0.4-0.1-0.8-0.4-1-0.8c-0.4-0.7-0.1-1.6,0.6-2
	c2.1-1.1,4.5-1.7,6.9-1.7h2.4v-4.3c0-0.5,0.2-0.9,0.6-1.2c0.4-0.3,0.9-0.4,1.3-0.2c3,0.9,6.2,0.9,9.2,0c0.5-0.1,1-0.1,1.3,0.2
	c0.3,0.3,0.6,0.7,0.6,1.2v4.3h2.4c2.5,0,5,0.6,7.2,1.8c5,2.6,8.1,7.8,8.1,13.4v16.7C163.4,63.6,156.1,71,147,71z"/>
<path class="st1" d="M108.2,45.8c-2.1,0-4.2-0.5-6.1-1.6c-0.7-0.4-1-1.3-0.6-2c0.4-0.7,1.3-1,2-0.6c2.8,1.6,6.4,1.6,9.2,0
	c0.7-0.4,1.6-0.1,2,0.6s0.1,1.6-0.6,2C112.4,45.2,110.3,45.8,108.2,45.8z"/>
<path class="st1" d="M106.5,71h-3.4c-0.8,0-1.5-0.7-1.5-1.5c0-1.5-1.2-2.7-2.7-2.7s-2.7,1.2-2.7,2.7c0,0.8-0.7,1.5-1.5,1.5
	s-1.5-0.7-1.5-1.5c0-3.1,2.6-5.7,5.7-5.7c2.6,0,4.8,1.8,5.5,4.2h2.1c0.8,0,1.5,0.7,1.5,1.5S107.3,71,106.5,71z"/>
<path class="st1" d="M121.6,71c-0.8,0-1.5-0.7-1.5-1.5c0-1.5-1.2-2.7-2.7-2.7s-2.7,1.2-2.7,2.7c0,0.8-0.7,1.5-1.5,1.5h-3.4
	c-0.8,0-1.5-0.7-1.5-1.5s0.7-1.5,1.5-1.5h2.1c0.7-2.4,2.9-4.2,5.5-4.2c3.1,0,5.7,2.6,5.7,5.7C123.1,70.3,122.4,71,121.6,71z"/>
</svg>
