<?xml version="1.0" encoding="utf-8"?>
<!-- Generator: Adobe Illustrator 19.0.1, SVG Export Plug-In . SVG Version: 6.00 Build 0)  -->
<svg version="1.1" id="Шар_1" xmlns="http://www.w3.org/2000/svg" xmlns:xlink="http://www.w3.org/1999/xlink" x="0px" y="0px"
	 viewBox="0 0 1920 1080" style="enable-background:new 0 0 1920 1080;" xml:space="preserve">
<style type="text/css">
	.st0{fill:#92D8D3;}
	.st1{fill:none;stroke:#053544;stroke-width:5;stroke-linecap:round;stroke-linejoin:round;}
	.st2{fill:none;stroke:#053544;stroke-width:5;stroke-linecap:round;stroke-linejoin:round;stroke-dasharray:0.997,13.959;}
	.st3{fill:none;stroke:#053544;stroke-width:3;stroke-linecap:round;stroke-linejoin:round;stroke-miterlimit:10;}
	.st4{fill:#00A499;}
	.st5{fill:#FFFFFF;}
	.st6{fill:#F2F2F2;}
	.st7{fill:none;stroke:#053544;stroke-width:3;stroke-linejoin:round;stroke-miterlimit:10;}
</style>
<g>
	<g>
		<g>
			<path class="st0" d="M1424.8,756.4v-65.1H507.1c-18.2,0-33,14.8-33,33c0,18.2,14.8,33,33,33h41.6c11.1,0,20.1,9,20.1,20.1
				c0,11.1-9,20.1-20.1,20.1H403.7c-21.4,0-38.8,17.4-38.8,38.8c0,21.4,17.4,38.8,38.8,38.8h147c7.1,0,12.9,5.8,12.9,12.9
				c0,7.1-5.8,12.9-12.9,12.9h-19.8c-15.9,0-28.7,12.9-28.7,28.7s12.9,28.7,28.7,28.7h649.5c9.2,0,16.6-7.5,16.6-16.6
				c0-9.2,7.4-16.6,16.6-16.6h92h35.5h94.7c12.8,0,23.1-10.4,23.1-23.1c0-12.8-10.4-23.1-23.1-23.1h-70.4
				c-13.4,0-24.2-10.8-24.2-24.2c0-13.4,10.8-24.2,24.2-24.2h117.1c21.3,0,38.6-17.3,38.6-38.6c0-19.5-15.8-35.4-35.4-35.4H1424.8z
				 M959.5,757.3h136v40.2h-136V757.3z"/>
			<path class="st0" d="M837.4,1004.8h179.9c7.3,0,13.2-5.9,13.2-13.2c0-7.3-5.9-13.2-13.2-13.2H837.4c-7.3,0-13.2,5.9-13.2,13.2
				C824.2,998.9,830.1,1004.8,837.4,1004.8"/>
			<line class="st1" x1="1271.6" y1="512.5" x2="1271.6" y2="513"/>
			<line class="st2" x1="1271.6" y1="527" x2="1271.3" y2="759.3"/>
			<line class="st1" x1="1271.3" y1="766.3" x2="1271.3" y2="766.8"/>
			<line class="st1" x1="1310.5" y1="512.5" x2="1310.5" y2="513"/>
			<line class="st2" x1="1310.5" y1="527" x2="1310.2" y2="759.3"/>
			<line class="st1" x1="1310.2" y1="766.3" x2="1310.2" y2="766.8"/>
			<line class="st1" x1="1349.4" y1="512.5" x2="1349.4" y2="513"/>
			<line class="st2" x1="1349.4" y1="527" x2="1349.1" y2="759.3"/>
			<line class="st1" x1="1349.1" y1="766.3" x2="1349.1" y2="766.8"/>
			<line class="st1" x1="1388.3" y1="512.5" x2="1388.3" y2="513"/>
			<line class="st2" x1="1388.3" y1="527" x2="1388" y2="759.3"/>
			<line class="st1" x1="1388" y1="766.3" x2="1388" y2="766.8"/>
			<line class="st1" x1="1427.2" y1="512.5" x2="1427.2" y2="513"/>
			<line class="st2" x1="1427.2" y1="527" x2="1426.9" y2="759.3"/>
			<line class="st1" x1="1426.9" y1="766.3" x2="1426.9" y2="766.8"/>
			<path class="st3" d="M1349.2,436.2c-23.3,0-42.3,18.1-43.8,41.1c-6.3-7.1-15.5-11.6-25.8-11.6c-19.2,0-34.7,15.5-34.7,34.7
				c0,0.1,0,0.2,0,0.4h208.5c0-0.1,0-0.2,0-0.4c0-19.2-15.5-34.7-34.7-34.7c-10.3,0-19.5,4.5-25.8,11.6
				C1391.6,454.3,1372.5,436.2,1349.2,436.2z"/>
			<path class="st4" d="M1349.4,638.9c-49,0-88.7,39.7-88.7,88.7c0,21.1,7.4,40.4,19.6,55.6c6.3-2.8,11.5-7.7,14.7-13.8
				c4.5,8.6,12.9,14.7,22.8,16.2c1.4,0.2,2.9,0.3,4.4,0.3c8.8,0,16.7-3.7,22.3-9.6l0.8-61.4c0.1-4.3,1.9-7.7,4.1-7.7h0
				c2.2,0,4.1,3.4,4.1,7.7l0.8,61.4c5.6,5.9,13.5,9.6,22.3,9.6c1.5,0,3-0.1,4.4-0.3c9.9-1.4,18.3-7.6,22.8-16.2
				c3.2,6.1,8.4,11,14.7,13.8c12.3-15.2,19.6-34.5,19.6-55.6C1438.1,678.6,1398.4,638.9,1349.4,638.9"/>
			<path class="st5" d="M1354.4,776.3l-0.8-61.4c-0.1-4.3-1.9-7.7-4.1-7.7h0c-2.2,0-4.1,3.4-4.1,7.7l-0.8,61.4
				c1.9-2.1,3.6-4.4,4.9-6.9C1350.8,771.9,1352.4,774.2,1354.4,776.3"/>
			<path class="st3" d="M1213.4,785.9c11.8,0,22.1-6.7,27.2-16.5c5.1,9.8,15.4,16.5,27.2,16.5c1.5,0,3-0.1,4.4-0.3
				c9.9-1.4,18.3-7.6,22.8-16.2c4.5,8.6,12.9,14.7,22.8,16.2c1.4,0.2,2.9,0.3,4.4,0.3c11.8,0,22.1-6.7,27.2-16.5
				c5.1,9.8,15.4,16.5,27.2,16.5c1.5,0,3-0.1,4.4-0.3c9.9-1.4,18.3-7.6,22.8-16.2c4.5,8.6,12.9,14.7,22.8,16.2
				c1.4,0.2,2.9,0.3,4.4,0.3c11.8,0,22.1-6.7,27.2-16.5c5.1,9.8,15.4,16.5,27.2,16.5"/>
			<path class="st3" d="M1280.3,783.2c-12.3-15.2-19.6-34.6-19.6-55.6c0-49,39.7-88.7,88.7-88.7c49,0,88.7,39.7,88.7,88.7
				c0,21.1-7.3,40.4-19.6,55.6"/>
			<path class="st3" d="M1354.4,776.3l-0.8-61.4c-0.1-4.3-1.9-7.7-4.1-7.7c-2.2,0-4.1,3.4-4.1,7.7l-0.8,61.4"/>
			<line class="st3" x1="1354.6" y1="745.5" x2="1369.7" y2="730.4"/>
			<line class="st3" x1="1344.2" y1="745.5" x2="1329.1" y2="730.4"/>
			<line class="st3" x1="1360.2" y1="781.1" x2="1385.3" y2="755.9"/>
			<line class="st3" x1="1338.7" y1="781.1" x2="1313.6" y2="755.9"/>
			<path class="st3" d="M498.9,485.5c0-23.7,19.2-43,43-43c23.7,0,43,19.3,43,43"/>
			<line class="st3" x1="605.1" y1="485.5" x2="547.5" y2="485.5"/>
			<line class="st3" x1="525.8" y1="485.5" x2="420.1" y2="485.5"/>
			<path class="st3" d="M1102.9,413.5c0-15,12.1-27.1,27.1-27.1c15,0,27.1,12.1,27.1,27.1"/>
			<line class="st3" x1="1194.6" y1="426.8" x2="1158.4" y2="426.8"/>
			<line class="st3" x1="1119.9" y1="413.5" x2="1065.9" y2="413.5"/>
			<path class="st6" d="M1184,861.7c0,0.2,0,0.4,0,0.5L1184,861.7z"/>
			<path class="st6" d="M1184,862.8v0.1V862.8z"/>
			<path class="st6" d="M983.6,855.4L983.6,855.4L983.6,855.4c2.2,0.4,4.5,0.6,6.9,0.6c14.9,0,27.8-8.4,34.2-20.7
				c6.4,12.3,19.3,20.7,34.2,20.7c14.9,0,27.8-8.4,34.2-20.7c6.4,12.3,19.3,20.7,34.2,20.7c14.9,0,27.8-8.4,34.2-20.7
				c4.7,9,12.8,15.9,22.6,18.9c0-0.3,0-0.6,0-0.9v-0.2c0-0.8,0-1.5,0-2.2l0-0.7c0-1.5,0-2.5,0-2.5l0.7-318.1l0-1.7L923.4,376.9
				l-1.2,0.7l-1.2-0.7l-0.2,0.1L661.5,525.5l-0.7,328.6c9.5-3.2,17.4-10,22-18.7c6.4,12.3,19.3,20.7,34.2,20.7
				c14.9,0,27.8-8.4,34.2-20.7c6.4,12.3,19.3,20.7,34.2,20.7s27.8-8.4,34.2-20.7c6.4,12.3,19.3,20.7,34.2,20.7
				c2.3,0,4.6-0.2,6.8-0.6v0v0v0c1.4-0.3,2.8-0.6,4.2-1l0.5-239.9l0-20.3v0l57.8-33.1l57.6,33.3l0,20.3l-0.4,199l-0.1,40.8
				C981.2,855,982.4,855.2,983.6,855.4L983.6,855.4z"/>
			<path class="st6" d="M1184,854.3L1184,854.3l0-0.9C1184,853.7,1184,854,1184,854.3"/>
			<path class="st6" d="M1184,856.4l0-2.2C1184,855,1184,855.7,1184,856.4"/>
			<path class="st6" d="M1184,857.2c0,0.3,0,0.5,0,0.8L1184,857.2z"/>
			<path class="st6" d="M1184,859.2c0,0.6,0,1.2,0,1.7L1184,859.2z"/>
			<path class="st6" d="M1184,850.3l0.7-320.6l-0.7,318.1C1184,847.8,1184,848.8,1184,850.3"/>
			<path class="st6" d="M1184,851c0,0.7,0,1.4,0,2.2L1184,851z"/>
			<path class="st0" d="M885.7,839.1c0.2-0.3,0.4-0.6,0.6-1c0.3-0.5,0.6-1,0.9-1.5c0.2-0.4,0.5-0.8,0.7-1.3c1.7,3.3,4,6.4,6.6,9.1
				l55.1,0.1c2.7-2.7,4.9-5.8,6.7-9.2c0.2,0.4,0.5,0.8,0.7,1.3c0.3,0.5,0.6,1,0.9,1.5c0.2,0.3,0.4,0.7,0.6,1
				c0.3,0.4,0.5,0.8,0.8,1.2c0.5,0.7,1,1.3,1.5,1.9l0.5-209.4l-76.9-0.2L884,841.4c0.3-0.4,0.6-0.7,0.9-1.1
				C885.1,839.9,885.4,839.5,885.7,839.1"/>
			<path class="st0" d="M894.5,844.4c7,7.2,16.8,11.7,27.6,11.7c10.8,0,20.5-4.4,27.5-11.6"/>
			<path class="st4" d="M980.6,614.8L980.6,614.8l-115.4-0.3l-0.5,239.9c4.4-1.3,8.4-3.3,12-6c1.6-1.1,3-2.4,4.4-3.8v0v0
				c1-1,2-2.2,2.9-3.3l0.5-208.8l76.9,0.2l-0.5,209.4c0.7,0.9,1.5,1.7,2.2,2.5v0v0c1.4,1.4,2.8,2.6,4.4,3.8c3.7,2.8,8,4.9,12.6,6.2
				l0.1-40.8L980.6,614.8z"/>
			
				<rect x="708.7" y="630.9" transform="matrix(1 2.229081e-003 -2.229081e-003 1 1.5668 -1.691)" class="st5" width="101.4" height="142.4"/>
			
				<rect x="703.5" y="773.2" transform="matrix(1 2.223962e-003 -2.223962e-003 1 1.736 -1.6866)" class="st5" width="111.5" height="13"/>
			
				<rect x="723.3" y="643.5" transform="matrix(1 2.214216e-003 -2.214216e-003 1 1.5563 -1.6798)" class="st4" width="72.2" height="117"/>
			
				<rect x="708.7" y="630.9" transform="matrix(1 2.229081e-003 -2.229081e-003 1 1.5668 -1.691)" class="st3" width="101.4" height="142.4"/>
			<path class="st7" d="M759.5,643.7c0,0,0,12.3-0.1,25.9"/>
			<path class="st7" d="M759.5,674.8c0,15.8-0.2,85.8-0.2,85.8"/>
			
				<rect x="703.5" y="773.2" transform="matrix(1 2.223962e-003 -2.223962e-003 1 1.736 -1.6866)" class="st3" width="111.5" height="13"/>
			
				<rect x="1032.9" y="631.6" transform="matrix(1 2.219148e-003 -2.219148e-003 1 1.5622 -2.4029)" class="st5" width="101.4" height="142.4"/>
			
				<rect x="1027.7" y="774" transform="matrix(1 2.214930e-003 -2.214930e-003 1 1.7313 -2.3978)" class="st5" width="111.5" height="13"/>
			
				<rect x="1047.5" y="644.3" transform="matrix(1 2.228185e-003 -2.228185e-003 1 1.5686 -2.4127)" class="st4" width="72.2" height="117"/>
			
				<rect x="1032.9" y="631.6" transform="matrix(1 2.219148e-003 -2.219148e-003 1 1.5622 -2.4029)" class="st3" width="101.4" height="142.4"/>
			<path class="st7" d="M1083.7,644.4c0,0,0,12.3-0.1,25.9"/>
			<path class="st7" d="M1083.7,675.5c0,15.8-0.2,85.8-0.2,85.8"/>
			
				<rect x="1027.7" y="774" transform="matrix(1 2.214930e-003 -2.214930e-003 1 1.7313 -2.3978)" class="st3" width="111.5" height="13"/>
			
				<rect x="898" y="449.2" transform="matrix(1 2.225694e-003 -2.225694e-003 1 1.0766 -2.0536)" class="st4" width="50.3" height="67"/>
			
				<rect x="898" y="449.2" transform="matrix(1 2.225694e-003 -2.225694e-003 1 1.0766 -2.0536)" class="st3" width="50.3" height="67"/>
			<path class="st4" d="M980.1,813.9l0.4-199L980.1,813.9z"/>
			<path class="st3" d="M980.7,853.4V615.8h-116v237.5c12.6-2.6,17.7-11.2,19-12.5V633.5h76v206.6"/>
			<path class="st5" d="M980.6,594.5l0,20.3l-115.4-0.3l0-20.3l0,0l57.7-33.1L980.6,594.5z M931,590.7c0-5.1-4.1-9.2-9.2-9.3
				c-5.1,0-9.2,4.1-9.3,9.2c0,5.1,4.1,9.2,9.2,9.3C926.8,600,931,595.8,931,590.7"/>
			<polygon class="st5" points="1219.9,521.4 1209,542 1184.7,528 922.2,376.2 661.5,525.5 634.8,540.8 623.9,520.1 661.6,498.6 
				746.6,449.9 796,421.5 922.3,349.2 1184.8,501.1 			"/>
			
				<rect x="764.3" y="344" transform="matrix(2.239068e-003 -1 1 2.239068e-003 401.0522 1139.2948)" class="st5" width="14.3" height="49.4"/>
			<polygon class="st4" points="796.1,375.9 796,421.5 746.6,449.9 746.7,375.8 			"/>
			<path class="st4" d="M921.8,581.5c5.1,0,9.2,4.2,9.2,9.3c0,5.1-4.2,9.2-9.2,9.2c-5.1,0-9.2-4.2-9.2-9.3
				C912.5,585.6,916.7,581.5,921.8,581.5"/>
			<polygon class="st4" points="922.2,376.2 661.5,525.5 661.4,547 922.2,397.7 1184.7,549.6 1184.7,528 			"/>
			<polyline class="st3" points="659.1,525.9 634.8,539.8 623.9,520.1 659.1,499.9 922.3,349.2 1184.8,501.1 1219.9,521.4 1209,542 
				1184.7,528 			"/>
			<polyline class="st3" points="865.3,594.3 923,561.2 980.6,594.5 1000.8,606.2 1011.2,612.2 			"/>
			<polyline class="st3" points="834.6,611.8 845.8,605.4 865.3,594.3 			"/>
			<line class="st3" x1="796.1" y1="375.9" x2="796" y2="421.5"/>
			<line class="st3" x1="746.6" y1="449.9" x2="746.7" y2="375.8"/>
			
				<rect x="764.3" y="344" transform="matrix(-2.234812e-003 1 -1 -2.234812e-003 1141.8445 -401.9529)" class="st3" width="14.3" height="49.4"/>
			<polyline class="st3" points="865.2,614.6 865.3,594.3 865.3,594.3 			"/>
			<line class="st3" x1="980.6" y1="614.8" x2="980.6" y2="594.5"/>
			<path class="st3" d="M931,590.7c0-5.1-4.1-9.2-9.2-9.3c-5.1,0-9.2,4.1-9.3,9.2c0,5.1,4.1,9.2,9.2,9.3
				C926.8,600,931,595.8,931,590.7z"/>
			
				<rect x="743.8" y="526.7" transform="matrix(1 2.216061e-003 -2.216061e-003 1 1.1881 -1.6841)" class="st5" width="33.4" height="17.1"/>
			
				<rect x="765.4" y="549.8" transform="matrix(1 2.216061e-003 -2.216061e-003 1 1.2392 -1.7319)" class="st5" width="33.4" height="17.1"/>
			
				<rect x="724.4" y="549.7" transform="matrix(1 2.216061e-003 -2.216061e-003 1 1.2389 -1.6409)" class="st5" width="33.4" height="17.1"/>
			
				<rect x="1105.5" y="569.8" transform="matrix(1 2.215992e-003 -2.215992e-003 1 1.2845 -2.4852)" class="st5" width="33.4" height="17.1"/>
			
				<rect x="1089.6" y="544.7" transform="matrix(1 2.215992e-003 -2.215992e-003 1 1.2288 -2.4502)" class="st5" width="33.4" height="17.1"/>
			<polygon class="st6" points="922.2,377.6 923.4,376.9 1184.7,528 922.2,376.2 920.8,377 921,376.9 			"/>
			<path class="st3" d="M983.6,855.5c2.2,0.4,4.5,0.6,6.9,0.6c14.9,0,27.8-8.4,34.2-20.7c6.4,12.3,19.3,20.7,34.2,20.7
				c14.9,0,27.8-8.4,34.2-20.7c6.4,12.3,19.3,20.7,34.2,20.7s27.8-8.4,34.2-20.7c6.4,12.3,19.3,20.7,34.2,20.7
				c1.9,0,3.8-0.1,5.6-0.4c12.5-1.8,23-9.6,28.6-20.3c6.4,12.3,19.3,20.7,34.2,20.7"/>
			<path class="st3" d="M957.9,838.1c0.2,0.3,0.4,0.7,0.6,1c0.3,0.4,0.5,0.8,0.8,1.2c1.1,1.6,2.4,3.1,3.8,4.4
				c1.4,1.4,2.8,2.6,4.4,3.8c4.7,3.5,10.2,5.9,16.1,7"/>
			<path class="st3" d="M956.3,835.3c0.2,0.4,0.5,0.8,0.7,1.3"/>
			<path class="st3" d="M887.2,836.6c0.2-0.4,0.5-0.8,0.7-1.3"/>
			<path class="st3" d="M860.6,855.5c6-1.1,11.5-3.5,16.1-7c1.6-1.1,3-2.4,4.4-3.8c1.4-1.4,2.6-2.8,3.8-4.4c0.3-0.4,0.6-0.8,0.8-1.2
				c0.2-0.3,0.4-0.6,0.6-1"/>
			<path class="st3" d="M580.2,856.1c14.9,0,27.7-8.4,34.2-20.7c5.6,10.8,16.2,18.5,28.6,20.3c1.8,0.3,3.7,0.4,5.6,0.4
				c14.9,0,27.7-8.4,34.2-20.7c6.4,12.3,19.3,20.7,34.2,20.7c14.9,0,27.8-8.4,34.2-20.7c6.4,12.3,19.3,20.7,34.2,20.7
				s27.8-8.4,34.2-20.7c6.4,12.3,19.3,20.7,34.2,20.7c2.3,0,4.6-0.2,6.9-0.6"/>
			<polyline class="st3" points="983.6,855.4 983.6,855.5 983.6,855.5 			"/>
			<polyline class="st3" points="860.6,855.5 860.6,855.5 860.6,855.4 			"/>
			<line class="st3" x1="963.1" y1="844.6" x2="963.1" y2="844.7"/>
			<line class="st3" x1="881.1" y1="844.7" x2="881.1" y2="844.6"/>
			<path class="st3" d="M886.3,838.1c0.3-0.5,0.6-1,0.9-1.5"/>
			<path class="st3" d="M957,836.6c0.3,0.5,0.6,1,0.9,1.5"/>
			<path class="st3" d="M887.9,835.3c6.4,12.3,19.3,20.7,34.2,20.7s27.8-8.4,34.2-20.7"/>
			<polyline class="st3" points="660.4,852.1 660.4,833.6 660.4,525.1 922,375.8 1184.7,528 1186,833.6 1186,854.3 			"/>
		</g>
	</g>
</g>
</svg>
