<?xml version="1.0" encoding="utf-8"?>
<!-- Generator: Adobe Illustrator 19.0.1, SVG Export Plug-In . SVG Version: 6.00 Build 0)  -->
<svg version="1.1" id="Шар_1" xmlns="http://www.w3.org/2000/svg" xmlns:xlink="http://www.w3.org/1999/xlink" x="0px" y="0px"
	 viewBox="0 0 1920 1080" style="enable-background:new 0 0 1920 1080;" xml:space="preserve">
<style type="text/css">
	.st0{fill:#92D8D3;}
	.st1{fill:#00A499;}
	.st2{fill:none;stroke:#053544;stroke-width:3;stroke-linecap:round;stroke-linejoin:round;stroke-miterlimit:10;}
	.st3{fill:#F2F2F2;}
	.st4{fill:#FFFFFF;}
	.st5{fill:none;stroke:#053544;stroke-width:3;stroke-linejoin:round;stroke-miterlimit:10;}
</style>
<g>
	<g>
		<g>
			<path class="st0" d="M1413.8,846.8h45.9c17.9,0,32.4,14.5,32.4,32.4s-14.5,32.4-32.4,32.4h-33.2c-7,0-12.7,5.7-12.7,12.7
				c0,7,5.7,12.7,12.7,12.7h68.8c17,0,30.8,13.8,30.8,30.8s-13.8,30.8-30.8,30.8H996.2c-5.2,0-9.5,4.2-9.5,9.5
				c0,5.2,4.2,9.5,9.5,9.5h63.9c12.9,0,23.3,10.4,23.3,23.3c0,12.9-10.4,23.3-23.3,23.3H599.7c-24,0-43.4-19.4-43.6-43.3
				c-0.1-24.2,19.4-43.8,43.6-43.8h77.1c7.7,0,14-6.3,14-14c0-7.7-6.3-14-14-14H445c-28.2,0-51-22.8-51-51c0-28.2,22.8-51,51-51
				H1413.8z"/>
			<path class="st1" d="M1336.3,683.8c-20.9,6.7-33.8,16.3-42.2,26.6c-18,22.2-8.7,60.1-35.8,60.1c-13.8,0-19-12.8-19-24.1
				c0-34,58.1-47.4,48-116.9c-5.7,10.3-16.7,22.5-30.5,34.2c-35.4,30.2-130.3,36.9-130.3,141.1c0,58.5,24.9,95.4,103.1,95.4
				c50.9,0,85-45.9,85-89c0-17.5-4.2-34.2-4.2-53.2C1310.4,737.3,1315.4,713.9,1336.3,683.8 M1201,865.7
				c-20.2-52.3,42.2-30.3,28-81.2C1292.7,848.7,1224.4,870.2,1201,865.7"/>
			<path class="st1" d="M1339,569c34.2,40.2,17.8,73.5-17.5,90.3C1306.5,599.6,1347.3,606,1339,569"/>
			<path class="st1" d="M994.8,291.9c48.1,44.3,33,87.7-7.8,113.7C959.4,334.5,1010.5,336.1,994.8,291.9"/>
			<path class="st1" d="M1067.4,279.5c18.7,70.6-32.5,109.9-40.7,140.1c-9.7,35.4,1.2,91.1,60.6,93.4c66,2.5,106-60.8,63.6-128.1
				c-5.7,28.2-20.9,55.4-55.6,51.7C1066.6,433.4,1117.5,315.9,1067.4,279.5"/>
			<path class="st2" d="M1335.3,496.4c-1-19.9-17.5-35.8-37.7-35.8c-17.9,0-32.9,12.5-36.8,29.3"/>
			<path class="st2" d="M1322.1,503.4c5.8-5.1,13.4-8.1,21.7-8.1c18.3,0,33.1,14.8,33.1,33.1c0,1.8-0.1,3.6-0.4,5.4
				c1.9-0.5,3.8-0.7,5.8-0.7c13,0,23.6,10.6,23.6,23.6h54.3"/>
			<line class="st2" x1="1276.2" y1="489.9" x2="1233.6" y2="489.9"/>
			<line class="st2" x1="415.1" y1="606.4" x2="501.2" y2="606.4"/>
			<path class="st2" d="M652.5,508.1c-0.9-16.5-14.6-29.6-31.3-29.6c-14.6,0-26.8,10-30.3,23.5c-8.9-7.6-20.5-12.2-33.2-12.2
				c-28.3,0-51.3,23-51.3,51.3c0,10.3,3,19.8,8.2,27.8c-14.7,0.3-26.5,12.2-26.5,27c0,3.7,0.7,7.2,2.1,10.4"/>
			<polygon class="st3" points="864.6,916.2 865.2,647.6 865.3,625.6 865.3,625.6 927.9,589.8 990.3,625.9 990.3,647.9 989.7,916.5 
				1210.8,917 1211.6,553.8 927,389.2 644.4,551 643.5,915.7 			"/>
			
				<rect x="885.8" y="667.3" transform="matrix(-1 -2.219409e-003 2.219409e-003 -1 1853.1727 1566.1621)" class="st0" width="83.4" height="229.6"/>
			<path class="st4" d="M990.3,625.9l0,22l-125.1-0.3l0-22v0l62.6-35.8L990.3,625.9z M936.5,621.8c0-5.5-4.5-10-10-10
				c-5.5,0-10,4.5-10,10c0,5.5,4.5,10,10,10C932,631.8,936.5,627.3,936.5,621.8"/>
			<polygon class="st4" points="1249.7,546.7 1237.8,569 1211.6,553.8 927,389.2 644.4,551 615.4,567.6 603.6,545.2 644.4,521.9 
				736.6,469.1 790.2,438.4 927.1,360 1211.6,524.6 			"/>
			
				<rect x="755.8" y="354.3" transform="matrix(2.258077e-003 -1 1 2.258077e-003 380.7862 1143.7402)" class="st4" width="15.5" height="53.5"/>
			<polygon class="st1" points="790.3,388.9 790.2,438.4 736.6,469.1 736.8,388.7 			"/>
			<path class="st1" d="M926.5,611.8c5.5,0,10,4.5,10,10c0,5.5-4.5,10-10,10c-5.5,0-10-4.5-10-10C916.5,616.2,921,611.7,926.5,611.8
				"/>
			<polygon class="st1" points="927,389.2 644.4,551 644.3,574.4 927,412.5 1211.5,577.2 1211.6,553.8 			"/>
			<path class="st1" d="M969.4,667.4l-83.4-0.2l-0.5,229.6l83.4,0.2L969.4,667.4z M865.2,647.6l125.1,0.3l-0.6,268.5l-125.1-0.3
				L865.2,647.6z"/>
			
				<rect x="885.8" y="667.3" transform="matrix(-1 -2.219409e-003 2.219409e-003 -1 1853.1727 1566.1621)" class="st2" width="83.4" height="229.6"/>
			<path class="st2" d="M969.4,667.4l-83.4-0.2l-0.5,229.6l83.4,0.2L969.4,667.4z M865.2,647.6l125.1,0.3l-0.6,268.5l-125.1-0.3
				L865.2,647.6z"/>
			<polyline class="st2" points="641.7,552.5 615.4,567.6 603.6,545.2 641.8,523.4 927.1,360 1211.6,524.6 1249.7,546.7 1237.8,569 
				1211.6,553.8 			"/>
			<polyline class="st2" points="865.3,625.6 927.9,589.8 990.3,625.9 1012.2,638.5 1023.5,645.1 			"/>
			<polyline class="st2" points="832.1,644.7 844.1,637.7 865.3,625.6 			"/>
			<polyline class="st2" points="862,916.2 640.9,915.7 641,899.2 641.7,552.5 925.7,389.9 927,390.7 928.3,389.9 1211.6,553.8 
				1210.8,900.5 1210.8,917 989.7,916.5 			"/>
			<line class="st2" x1="790.3" y1="388.9" x2="790.2" y2="438.4"/>
			<line class="st2" x1="736.6" y1="469.1" x2="736.8" y2="388.7"/>
			
				<rect x="755.8" y="354.3" transform="matrix(-2.254152e-003 1 -1 -2.254152e-003 1146.3228 -381.6491)" class="st2" width="15.5" height="53.5"/>
			<polyline class="st2" points="865.2,647.6 865.3,625.6 865.3,625.6 			"/>
			<line class="st2" x1="990.3" y1="647.9" x2="990.3" y2="625.9"/>
			<path class="st2" d="M936.5,621.8c0-5.5-4.5-10-10-10c-5.5,0-10,4.5-10,10c0,5.5,4.5,10,10,10C932,631.8,936.5,627.3,936.5,621.8
				z"/>
			
				<rect x="733.6" y="552.4" transform="matrix(1 2.210298e-003 -2.210298e-003 1 1.2433 -1.6601)" class="st4" width="36.2" height="18.6"/>
			
				<rect x="757" y="577.4" transform="matrix(1 2.210298e-003 -2.210298e-003 1 1.2985 -1.7118)" class="st4" width="36.2" height="18.6"/>
			
				<rect x="712.6" y="577.3" transform="matrix(1 2.210298e-003 -2.210298e-003 1 1.2982 -1.6135)" class="st4" width="36.2" height="18.6"/>
			
				<rect x="1125.6" y="599.1" transform="matrix(1 2.210294e-003 -2.210294e-003 1 1.3476 -2.5265)" class="st4" width="36.2" height="18.6"/>
			
				<rect x="1108.5" y="571.9" transform="matrix(1 2.210294e-003 -2.210294e-003 1 1.2873 -2.4887)" class="st4" width="36.2" height="18.6"/>
			
				<rect x="695.5" y="665.3" transform="matrix(1 2.210841e-003 -2.210841e-003 1 1.6433 -1.6574)" class="st4" width="109.9" height="154.4"/>
			
				<rect x="689.9" y="819.6" transform="matrix(1 2.216951e-003 -2.216951e-003 1 1.8346 -1.6614)" class="st4" width="120.9" height="14.1"/>
			
				<rect x="711.3" y="679" transform="matrix(1 2.221346e-003 -2.221346e-003 1 1.6511 -1.6653)" class="st1" width="78.3" height="126.8"/>
			
				<rect x="695.5" y="665.3" transform="matrix(1 2.210841e-003 -2.210841e-003 1 1.6433 -1.6574)" class="st2" width="109.9" height="154.4"/>
			<path class="st5" d="M750.6,679.2c0,0,0,13.3-0.1,28.1"/>
			<path class="st5" d="M750.6,712.9c0,17.1-0.2,93-0.2,93"/>
			
				<rect x="689.9" y="819.6" transform="matrix(1 2.216951e-003 -2.216951e-003 1 1.8346 -1.6614)" class="st2" width="120.9" height="14.1"/>
			
				<rect x="1047" y="666.1" transform="matrix(1 2.220004e-003 -2.220004e-003 1 1.6527 -2.4445)" class="st4" width="109.9" height="154.4"/>
			
				<rect x="1041.3" y="820.4" transform="matrix(1 2.225281e-003 -2.225281e-003 1 1.8441 -2.4497)" class="st4" width="120.9" height="14.1"/>
			
				<rect x="1062.8" y="679.8" transform="matrix(1 2.221346e-003 -2.221346e-003 1 1.6537 -2.446)" class="st1" width="78.3" height="126.9"/>
			
				<rect x="1047" y="666.1" transform="matrix(1 2.220004e-003 -2.220004e-003 1 1.6527 -2.4445)" class="st2" width="109.9" height="154.4"/>
			<path class="st5" d="M1102.1,680c0,0,0,13.3-0.1,28.1"/>
			<path class="st5" d="M1102,713.7c0,17.1-0.2,93-0.2,93"/>
			
				<rect x="1041.3" y="820.4" transform="matrix(1 2.225281e-003 -2.225281e-003 1 1.8441 -2.4497)" class="st2" width="120.9" height="14.1"/>
			
				<rect x="900.8" y="468.3" transform="matrix(1 2.217542e-003 -2.217542e-003 1 1.1213 -2.0568)" class="st1" width="54.6" height="72.6"/>
			
				<rect x="900.8" y="468.3" transform="matrix(1 2.217542e-003 -2.217542e-003 1 1.1213 -2.0568)" class="st2" width="54.6" height="72.6"/>
			<path class="st1" d="M810.3,386.1c7.9,54.4,84.3,97.9,38.3,170.2c-55.6,87.3-156,58.3-186.9,9.9c-17.8-27.9-16.7-60.4-3.5-95.2
				c-0.1,15.8,52.1,95.2,72,77c20-18.3-44.1-64.4-41.5-101.6c3.5-49.9,51.1-51.9,11.3-108.6c28.8,17.5,54.8,40.3,63,76.4
				c6,26.4-30.4,92.3,14.2,95.4C831.3,513.5,789.5,439.6,810.3,386.1"/>
			<path class="st1" d="M656.4,458.6c-5.9-38.3-73.1-61.6,11.5-111.2C636,399.6,683.6,405,656.4,458.6"/>
		</g>
	</g>
</g>
</svg>
