
			<svg version="1.1" id="Шар_1" xmlns="http://www.w3.org/2000/svg" xmlns:xlink="http://www.w3.org/1999/xlink" x="0px" y="0px" viewBox="0 0 1920 1080" style="enable-background:new 0 0 1920 1080;" xml:space="preserve">
				<style type="text/css">
					.st0 {
						clip-path: url(#SVGID_2_);
					}
					
					.st1 {
						clip-path: url(#SVGID_4_);
					}
					
					.st2 {
						clip-path: url(#SVGID_6_);
						fill: #CDD7DA;
					}
					
					.st3 {
						clip-path: url(#SVGID_6_);
						fill: none;
						stroke: #9BAEB4;
						stroke-width: 3;
						stroke-linecap: round;
						stroke-linejoin: round;
					}
					
					.st4 {
						clip-path: url(#SVGID_6_);
						fill: none;
						stroke: #9BAEB4;
						stroke-width: 3;
						stroke-linecap: round;
						stroke-linejoin: round;
						stroke-miterlimit: 10;
					}
					
					.st5 {
						clip-path: url(#SVGID_6_);
						fill: #92D8D3;
					}
					
					.st6 {
						clip-path: url(#SVGID_6_);
						fill: none;
						stroke: #053544;
						stroke-width: 4;
						stroke-linecap: round;
						stroke-linejoin: round;
						stroke-miterlimit: 10;
					}
					
					.st7 {
						clip-path: url(#SVGID_6_);
						fill: #FFFFFF;
					}
					
					.st8 {
						clip-path: url(#SVGID_6_);
					}
					
					.st9 {
						clip-path: url(#SVGID_8_);
						fill: #FFFFFF;
					}
					
					.st10 {
						clip-path: url(#SVGID_8_);
						fill: none;
						stroke: #9BAEB4;
						stroke-width: 3;
						stroke-linejoin: round;
					}
					
					.st11 {
						clip-path: url(#SVGID_8_);
						fill: none;
						stroke: #9BAEB4;
						stroke-width: 3;
						stroke-linecap: round;
						stroke-linejoin: round;
						stroke-miterlimit: 10;
					}
					
					.st12 {
						clip-path: url(#SVGID_8_);
						fill: none;
						stroke: #9BAEB4;
						stroke-width: 3;
						stroke-linecap: round;
						stroke-linejoin: round;
					}
					
					.st13 {
						clip-path: url(#SVGID_6_);
						fill: #00A499;
					}
					
					.st14 {
						clip-path: url(#SVGID_6_);
						fill: none;
						stroke: #CDD7DA;
						stroke-width: 3;
						stroke-linecap: round;
						stroke-linejoin: round;
						stroke-miterlimit: 10;
					}
					
					.st15 {
						opacity: 0.5;
						clip-path: url(#SVGID_6_);
					}
					
					.st16 {
						clip-path: url(#SVGID_10_);
						fill: #CDD7DA;
					}
					
					.st17 {
						clip-path: url(#SVGID_12_);
						fill: #CDD7DA;
					}
					
					.st18 {
						clip-path: url(#SVGID_6_);
						fill: none;
						stroke: #053544;
						stroke-width: 3;
						stroke-linecap: round;
						stroke-linejoin: round;
						stroke-miterlimit: 10;
					}
					
					.st19 {
						clip-path: url(#SVGID_6_);
						fill: none;
						stroke: #053544;
						stroke-width: 2.5;
						stroke-linecap: round;
						stroke-linejoin: round;
						stroke-miterlimit: 10;
					}
					
					.st20 {
						clip-path: url(#SVGID_6_);
						fill: #053544;
					}
					
					.st21 {
						clip-path: url(#SVGID_14_);
						fill: #CDD7DA;
					}
					
					.st22 {
						fill: #FFFFFF;
					}
					
					.st23 {
						font-family: 'BentonSansCond-Medium';
					}
					
					.st24 {
						font-size: 48px;
					}
					
					.st25 {
						clip-path: url(#SVGID_16_);
						fill: #CDD7DA;
					}
					
					.st26 {
						fill: #053544;
					}
					
					.st27 {
						font-family: 'AvenirNextCondensed-Medium';
					}
					
					.st28 {
						font-size: 49.9995px;
					}
					
					.st29 {
						font-size: 35.9996px;
					}
					
					.st30 {
						clip-path: url(#SVGID_6_);
						fill: none;
						stroke: #00A499;
						stroke-width: 3;
						stroke-linecap: round;
						stroke-linejoin: round;
						stroke-miterlimit: 10;
					}
					
					.st31 {
						font-size: 29.967px;
					}
					
					.st32 {
						font-size: 21.5762px;
					}
				</style>
				<g>
					<defs>
						<rect id="SVGID_1_" width="1920" height="1080" />
					</defs>
					<clipPath id="SVGID_2_">
						<use xlink:href="#SVGID_1_" style="overflow:visible;" />
					</clipPath>
					<g class="st0">
						<defs>
							<rect id="SVGID_3_" width="1920" height="1080" />
						</defs>
						<clipPath id="SVGID_4_">
							<use xlink:href="#SVGID_3_" style="overflow:visible;" />
						</clipPath>
						<g class="st1">
							<g class="frame1__wrap">
								<g>
									<defs>
										<rect id="SVGID_5_" y="-2068.7" width="12122.6" height="10231.3" />
									</defs>
									<clipPath id="SVGID_6_">
										<use xlink:href="#SVGID_5_" style="overflow:visible;" />
									</clipPath>
									<polygon class="st2 frame1__hidden" points="1815.9,344.5 1750.8,336.7 1641.9,364.1 1504.2,353.7 1444.8,313 1386.1,382.4 1324.7,418.9 
						1308.5,418.7 1104.9,328.8 1013.1,316.3 962.9,315.5 862.6,287.3 853,293.6 829.5,299.1 736.6,274.8 672.5,280.3 602.1,296.7 
						525.2,286.6 297.8,339 253,312.4 224.2,315.5 180.4,310 83.3,318.7 1.7,297.8 1.7,418.7 1920,418.7 1920,327.4 				" />
									<path class="st2" d="M849.7,917.6c-0.3,0.7-0.6,1.3-0.9,2" />
									<path class="st2" d="M1219.3,632.7c0,101.2-271,102.4-359.8,297.6l-9.7-12.7c89.7-193.3,358.9-194.8,358.9-295.6
						c0-9.7-2.1-16.8-5.4-22.2C1212,605.5,1219.3,614.6,1219.3,632.7" />
									<line class="st2" x1="849.7" y1="917.6" x2="849.7" y2="917.6" />
									<path class="st2" d="M1206.1,539.4c0,14.5-33.9,21-33.9,36.8c0,1.2,0.1,2.3,0.4,3.3c-6.4-3.1-11.1-6.8-11.1-14
						c0-15.9,33.9-22.3,33.9-36.8c0-2.8-0.7-5.4-2-7.7C1200.8,526.1,1206.1,531.8,1206.1,539.4" />
									<polygon class="st2" points="1467.6,864.4 1459.2,847.4 1448.7,853.5 1413.3,833.1 1260.3,921.1 1327.7,960.2 1480.6,871.9 				
						" />
									<path class="st3" d="M1910.3,1049.5c-271.3-2.2-232.7-113.3-360.4-153.3c-107.7-33.7-195.5-78.3-195.5-130.1
						c0-46.4,42.2-57.6,42.2-84.3c0-2.1-0.2-4.1-0.7-6c-11.4-46.7-83.2-51.1-83.2-86c0-4.6,5.5-16.3,5.5-32.4
						c0-74.9-112.7-45-112.7-78.6c0-30.1,115.7-17.4,129.1-47.2" />
									<path class="st4" d="M1328.3,424c-0.5-2.8-2.2-4.8-4.7-6.1" />
									<path class="st4" d="M1307.4,417.7c4.2,1.3,6.8,2.9,6.8,4.9c0,1.2-0.6,2.6-1.6,3.5c-9.6,9.3-30.8,10.5-54.6,10.5" />
									<path class="st4" d="M1241.6,436.4c-11.9-0.2-23.9-0.3-35,0.3c-1.6,0.1-3.2,0.2-4.8,0.3" />
									<path class="st3" d="M1177.8,441.5c-24.5,7.6-32.8,22.2-32.8,33.4c0,35.3,62.2,38.2,62.2,64.5c0,14.5-33.9,21-33.9,36.8
						c0,22.8,47.1,10.4,47.1,56.4c0,101.2-271,102.4-359.8,297.6" />
									<path class="st7" d="M1326.6,918.3c-2.4-1.4-6.2-1.4-8.6,0c-1.2,0.7-1.8,1.6-1.8,2.5v25c0,0.9,0.6,1.8,1.8,2.5
						c2.4,1.4,6.2,1.4,8.6,0c1.2-0.7,1.8-1.6,1.8-2.5v-25C1328.4,919.8,1327.8,918.9,1326.6,918.3" />
									<path class="st7" d="M1362.2,897.8c-2.4-1.4-6.2-1.4-8.6,0c-1.2,0.7-1.8,1.6-1.8,2.5v25c0,0.9,0.6,1.8,1.8,2.5
						c2.4,1.4,6.2,1.4,8.6,0c1.2-0.7,1.8-1.6,1.8-2.5v-25C1364,899.4,1363.4,898.5,1362.2,897.8" />
									<path class="st7" d="M1397.8,876.8c-2.4-1.4-6.2-1.4-8.6,0c-1.2,0.7-1.8,1.6-1.8,2.5v25c0,0.9,0.6,1.8,1.8,2.5
						c2.4,1.4,6.2,1.4,8.6,0c1.2-0.7,1.8-1.6,1.8-2.5v-25C1399.6,878.3,1399,877.4,1397.8,876.8" />
									<path class="st7" d="M1433.4,855.9c-2.4-1.4-6.2-1.4-8.6,0c-1.2,0.7-1.8,1.6-1.8,2.5v25c0,0.9,0.6,1.8,1.8,2.5
						c2.4,1.4,6.2,1.4,8.6,0c1.2-0.7,1.8-1.6,1.8-2.5v-25C1435.2,857.4,1434.6,856.6,1433.4,855.9" />
									<path class="st4" d="M1326.6,918.3c-2.4-1.4-6.2-1.4-8.6,0c-1.2,0.7-1.8,1.6-1.8,2.5v25c0,0.9,0.6,1.8,1.8,2.5
						c2.4,1.4,6.2,1.4,8.6,0c1.2-0.7,1.8-1.6,1.8-2.5v-25C1328.4,919.8,1327.8,918.9,1326.6,918.3z" />
									<path class="st4" d="M1264.4,883.5c-2.4-1.4-6.2-1.4-8.6,0c-1.2,0.7-1.8,1.6-1.8,2.5v25c0,0.9,0.6,1.8,1.8,2.5
						c2.4,1.4,6.2,1.4,8.6,0c1.2-0.7,1.8-1.6,1.8-2.5v-25C1266.1,885,1265.5,884.1,1264.4,883.5z" />
									<path class="st4" d="M1362.2,897.8c-2.4-1.4-6.2-1.4-8.6,0c-1.2,0.7-1.8,1.6-1.8,2.5v25c0,0.9,0.6,1.8,1.8,2.5
						c2.4,1.4,6.2,1.4,8.6,0c1.2-0.7,1.8-1.6,1.8-2.5v-25C1364,899.4,1363.4,898.5,1362.2,897.8z" />
									<path class="st4" d="M1397.8,876.8c-2.4-1.4-6.2-1.4-8.6,0c-1.2,0.7-1.8,1.6-1.8,2.5v25c0,0.9,0.6,1.8,1.8,2.5
						c2.4,1.4,6.2,1.4,8.6,0c1.2-0.7,1.8-1.6,1.8-2.5v-25C1399.6,878.3,1399,877.4,1397.8,876.8z" />
									<path class="st4" d="M1433.4,855.9c-2.4-1.4-6.2-1.4-8.6,0c-1.2,0.7-1.8,1.6-1.8,2.5v25c0,0.9,0.6,1.8,1.8,2.5
						c2.4,1.4,6.2,1.4,8.6,0c1.2-0.7,1.8-1.6,1.8-2.5v-25C1435.2,857.4,1434.6,856.6,1433.4,855.9z" />
									<polygon class="st7" points="1392,792.6 1238.7,881.1 1238.7,881.1 1238.7,897.1 1305.9,935.9 1305.9,919.9 1305.9,935.9 
						1459.2,847.4 1459.2,831.4 				" />
									<path class="st4" d="M1459.2,831.4l-153.3,88.5l-67.3-38.8c0,0,22.4-12.9,50.1-28.9" />
									<path class="st4" d="M1309.7,840.1c24-13.9,48.8-28.2,64.8-37.4" />
									<polygon class="st4" points="1305.9,935.9 1305.9,919.9 1238.7,881.1 1238.7,897.1 				" />
									<polygon class="st4" points="1459.2,831.4 1305.9,919.9 1305.9,935.9 1459.2,847.4 				" />
									<path class="st4" d="M977.1,921.4c0.7,0.6,1.4,1.1,2.2,1.5c4.8,2.7,8.9,2,11-1.3c2.1,5.7,6.2,11.2,10.9,14c4.8,2.7,8.9,2,11-1.3
						c2.1,5.7,6.2,11.2,10.9,14c4.8,2.7,8.9,2,11-1.3c2.1,5.7,6.2,11.2,10.9,14c0.6,0.4,1.2,0.6,1.8,0.9c4,1.6,7.4,0.7,9.2-2.2
						c2.1,5.7,6.2,11.2,10.9,14" />
									<path class="st4" d="M1470.5,1019c1,0.8,2,1.5,3.1,2.1c6.7,3.9,12.5,2.8,15.4-1.9c2.9,8.1,8.7,15.8,15.4,19.7
						c6.7,3.9,12.5,2.8,15.4-1.9c2.9,8.1,8.7,15.8,15.4,19.7c6.7,3.9,12.5,2.8,15.4-1.9c2.9,8.1,8.7,15.8,15.4,19.7
						c0.9,0.5,1.7,0.9,2.5,1.2c5.6,2.3,10.4,1,12.9-3.1c0.5,1.3,1,2.6,1.6,3.9" />
									<path class="st4" d="M1120.1,896.8c3.4,2,6.4,1.4,7.9-1c1.5,4.1,4.4,8.1,7.8,10c3.4,2,6.4,1.4,7.9-1c1.5,4.1,4.4,8.1,7.8,10
						c0.4,0.3,0.9,0.5,1.3,0.6c2.9,1.2,5.3,0.5,6.6-1.6c1.5,4.1,4.4,8.1,7.8,10" />
									<path class="st4" d="M1213.9,774.1c0.3-0.1,0.6-0.3,0.9-0.5c3.8-2.2,7.1-6.6,8.7-11.2c1.6,2.7,4.9,3.3,8.7,1.1
						c0.5-0.3,1-0.6,1.4-0.9c3.2-2.4,5.9-6.2,7.3-10.2c1.6,2.7,4.9,3.3,8.7,1.1" />
									<path class="st4" d="M1244.6,684.2c0.4-0.1,0.8-0.3,1.2-0.6c2.6-1.5,4.9-4.5,6-7.6c1.1,1.8,3.4,2.2,6,0.7c2.6-1.5,4.9-4.5,6-7.6
						c1,1.7,3,2.2,5.3,1.1" />
									<path class="st4" d="M1255.5,530.4c0.3,0.2,0.5,0.4,0.8,0.6c1.8,1,3.4,0.8,4.2-0.5c0.8,2.2,2.4,4.3,4.2,5.3
						c1.8,1,3.4,0.8,4.2-0.5c0.7,2,2.1,3.9,3.7,5" />
									<g class="st8">
										<defs>
											<rect id="SVGID_7_" x="1632.6" y="244.4" width="287.4" height="683.1" />
										</defs>
										<clipPath id="SVGID_8_">
											<use xlink:href="#SVGID_7_" style="overflow:visible;" />
										</clipPath>
										<path class="st9" d="M1722.4,394.2c-2.2,6.6-7.1,18.4-7.1,18.4c0,0.4,0.1,0.7,0.2,1c-2,4.9-3.5,8.5-3.5,8.5
							c0,0.9,0.3,1.7,0.8,2.4c-1.9,4.7-3.3,8-3.3,8c0,4.8,6.9,7.5,12.9,7.4c6,0,12.9-2.7,12.9-7.4c0,0-1.4-3.3-3.3-8
							c0.5-0.7,0.8-1.5,0.8-2.4c0,0-1.5-3.7-3.5-8.5c0.1-0.3,0.2-0.7,0.2-1C1729.5,412.6,1724.6,400.8,1722.4,394.2" />
										<path class="st10" d="M1722.4,394.2c-2.2,6.6-7.1,18.4-7.1,18.4c0,0.4,0.1,0.7,0.2,1c-2,4.9-3.5,8.5-3.5,8.5
							c0,0.9,0.3,1.7,0.8,2.4c-1.9,4.7-3.3,8-3.3,8c0,4.8,6.9,7.5,12.9,7.4c6,0,12.9-2.7,12.9-7.4c0,0-1.4-3.3-3.3-8
							c0.5-0.7,0.8-1.5,0.8-2.4c0,0-1.5-3.7-3.5-8.5c0.1-0.3,0.2-0.7,0.2-1C1729.5,412.6,1724.6,400.8,1722.4,394.2z" />
										<path class="st9" d="M1686.8,396.5c-1.9,5.7-6.2,16-6.2,16c0,0.3,0.1,0.6,0.2,0.9c-1.7,4.2-3,7.4-3,7.4c0,0.8,0.3,1.5,0.7,2.1
							c-1.7,4.1-2.9,7-2.9,7c0,4.1,6,6.5,11.2,6.5c5.2,0,11.2-2.3,11.2-6.5c0,0-1.2-2.9-2.9-7c0.5-0.6,0.7-1.3,0.7-2.1
							c0,0-1.3-3.2-3-7.4c0.1-0.3,0.2-0.6,0.2-0.9C1693,412.5,1688.7,402.3,1686.8,396.5" />
										<path class="st10" d="M1686.8,396.5c-1.9,5.7-6.2,16-6.2,16c0,0.3,0.1,0.6,0.2,0.9c-1.7,4.2-3,7.4-3,7.4c0,0.8,0.3,1.5,0.7,2.1
							c-1.7,4.1-2.9,7-2.9,7c0,4.1,6,6.5,11.2,6.5c5.2,0,11.2-2.3,11.2-6.5c0,0-1.2-2.9-2.9-7c0.5-0.6,0.7-1.3,0.7-2.1
							c0,0-1.3-3.2-3-7.4c0.1-0.3,0.2-0.6,0.2-0.9C1693,412.5,1688.7,402.3,1686.8,396.5z" />
										<path class="st9" d="M1758.5,390.3c-3.1,9.1-9.9,25.4-9.9,25.4c0,0.5,0.1,1,0.3,1.4c-2.7,6.7-4.8,11.8-4.8,11.8
							c0,1.2,0.4,2.4,1.1,3.3c-2.6,6.5-4.5,11.1-4.5,11.1c0,6.6,9.5,10.3,17.8,10.3c8.3,0,17.8-3.7,17.8-10.3c0,0-1.9-4.6-4.5-11.1
							c0.7-1,1.1-2.1,1.1-3.3c0,0-2.1-5.1-4.8-11.8c0.2-0.4,0.3-0.9,0.3-1.4C1768.4,415.7,1761.6,399.4,1758.5,390.3" />
										<path class="st10" d="M1758.5,390.3c-3.1,9.1-9.9,25.4-9.9,25.4c0,0.5,0.1,1,0.3,1.4c-2.7,6.7-4.8,11.8-4.8,11.8
							c0,1.2,0.4,2.4,1.1,3.3c-2.6,6.5-4.5,11.1-4.5,11.1c0,6.6,9.5,10.3,17.8,10.3c8.3,0,17.8-3.7,17.8-10.3c0,0-1.9-4.6-4.5-11.1
							c0.7-1,1.1-2.1,1.1-3.3c0,0-2.1-5.1-4.8-11.8c0.2-0.4,0.3-0.9,0.3-1.4C1768.4,415.7,1761.6,399.4,1758.5,390.3z" />
										<path class="st9" d="M1823.2,392.4c-2.8,8.4-9.1,23.6-9.1,23.6c0,0.5,0.1,0.9,0.3,1.3c-2.5,6.3-4.5,10.9-4.5,10.9
							c0,1.2,0.4,2.2,1.1,3.1c-2.4,6.1-4.2,10.3-4.2,10.3c0,6.1,8.8,9.5,16.5,9.5c7.7,0,16.5-3.4,16.5-9.5c0,0-1.8-4.2-4.2-10.3
							c0.7-0.9,1.1-1.9,1.1-3.1c0,0-2-4.7-4.5-10.9c0.2-0.4,0.3-0.8,0.3-1.3C1832.3,415.9,1826,400.8,1823.2,392.4" />
										<path class="st10" d="M1823.2,392.4c-2.8,8.4-9.1,23.6-9.1,23.6c0,0.5,0.1,0.9,0.3,1.3c-2.5,6.3-4.5,10.9-4.5,10.9
							c0,1.2,0.4,2.2,1.1,3.1c-2.4,6.1-4.2,10.3-4.2,10.3c0,6.1,8.8,9.5,16.5,9.5c7.7,0,16.5-3.4,16.5-9.5c0,0-1.8-4.2-4.2-10.3
							c0.7-0.9,1.1-1.9,1.1-3.1c0,0-2-4.7-4.5-10.9c0.2-0.4,0.3-0.8,0.3-1.3C1832.3,415.9,1826,400.8,1823.2,392.4z" />
										<path class="st9" d="M1908.2,388.6c-2.8,8.4-9.1,23.6-9.1,23.6c0,0.5,0.1,0.9,0.3,1.3c-2.5,6.3-4.5,10.9-4.5,10.9
							c0,1.2,0.4,2.2,1.1,3.1c-2.4,6.1-4.2,10.3-4.2,10.3c0,6.1,8.8,9.5,16.5,9.5c7.7,0,16.5-3.4,16.5-9.5c0,0-1.8-4.2-4.2-10.3
							c0.7-0.9,1.1-1.9,1.1-3.1c0,0-2-4.7-4.5-10.9c0.2-0.4,0.3-0.8,0.3-1.3C1917.3,412.2,1911,397.1,1908.2,388.6" />
										<path class="st10" d="M1908.2,388.6c-2.8,8.4-9.1,23.6-9.1,23.6c0,0.5,0.1,0.9,0.3,1.3c-2.5,6.3-4.5,10.9-4.5,10.9
							c0,1.2,0.4,2.2,1.1,3.1c-2.4,6.1-4.2,10.3-4.2,10.3c0,6.1,8.8,9.5,16.5,9.5c7.7,0,16.5-3.4,16.5-9.5c0,0-1.8-4.2-4.2-10.3
							c0.7-0.9,1.1-1.9,1.1-3.1c0,0-2-4.7-4.5-10.9c0.2-0.4,0.3-0.8,0.3-1.3C1917.3,412.2,1911,397.1,1908.2,388.6z" />
										<path class="st9" d="M1797.7,397.6c-3.4,10-10.8,27.9-10.8,27.9c0,0.6,0.1,1.1,0.3,1.6c-3,7.4-5.3,12.9-5.3,12.9
							c0,1.4,0.5,2.6,1.3,3.7c-2.9,7.2-5,12.2-5,12.2c0,7.2,10.4,11.3,19.5,11.3c9.1,0,19.5-4,19.5-11.3c0,0-2.1-5-5-12.2
							c0.8-1.1,1.3-2.3,1.3-3.7c0,0-2.3-5.5-5.3-12.9c0.2-0.5,0.3-1,0.3-1.6C1808.5,425.5,1801.1,407.6,1797.7,397.6" />
										<path class="st10" d="M1797.7,397.6c-3.4,10-10.8,27.9-10.8,27.9c0,0.6,0.1,1.1,0.3,1.6c-3,7.4-5.3,12.9-5.3,12.9
							c0,1.4,0.5,2.6,1.3,3.7c-2.9,7.2-5,12.2-5,12.2c0,7.2,10.4,11.3,19.5,11.3c9.1,0,19.5-4,19.5-11.3c0,0-2.1-5-5-12.2
							c0.8-1.1,1.3-2.3,1.3-3.7c0,0-2.3-5.5-5.3-12.9c0.2-0.5,0.3-1,0.3-1.6C1808.5,425.5,1801.1,407.6,1797.7,397.6z" />
										<path class="st9" d="M1743.5,397.6c-3.4,10-10.8,27.9-10.8,27.9c0,0.6,0.1,1.1,0.3,1.6c-3,7.4-5.3,12.9-5.3,12.9
							c0,1.4,0.5,2.6,1.3,3.7c-2.9,7.2-5,12.2-5,12.2c0,7.2,10.4,11.3,19.5,11.3c9.1,0,19.5-4,19.5-11.3c0,0-2.1-5-5-12.2
							c0.8-1.1,1.3-2.3,1.3-3.7c0,0-2.3-5.5-5.3-12.9c0.2-0.5,0.3-1,0.3-1.6C1754.3,425.5,1746.9,407.6,1743.5,397.6" />
										<path class="st10" d="M1743.5,397.6c-3.4,10-10.8,27.9-10.8,27.9c0,0.6,0.1,1.1,0.3,1.6c-3,7.4-5.3,12.9-5.3,12.9
							c0,1.4,0.5,2.6,1.3,3.7c-2.9,7.2-5,12.2-5,12.2c0,7.2,10.4,11.3,19.5,11.3c9.1,0,19.5-4,19.5-11.3c0,0-2.1-5-5-12.2
							c0.8-1.1,1.3-2.3,1.3-3.7c0,0-2.3-5.5-5.3-12.9c0.2-0.5,0.3-1,0.3-1.6C1754.3,425.5,1746.9,407.6,1743.5,397.6z" />
										<path class="st9" d="M1862.9,397.7c-3.6,10.6-11.5,29.6-11.5,29.6c0,0.6,0.1,1.1,0.3,1.7c-3.1,7.8-5.6,13.7-5.6,13.7
							c0,1.4,0.5,2.7,1.3,3.9c-3.1,7.6-5.3,12.9-5.3,12.9c0,7.7,11,12,20.7,11.9c9.6,0,20.7-4.3,20.7-11.9c0,0-2.2-5.3-5.3-12.9
							c0.8-1.1,1.3-2.4,1.3-3.9c0,0-2.4-5.9-5.6-13.7c0.2-0.5,0.3-1.1,0.3-1.7C1874.4,427.3,1866.5,408.3,1862.9,397.7" />
										<path class="st10" d="M1862.9,397.7c-3.6,10.6-11.5,29.6-11.5,29.6c0,0.6,0.1,1.1,0.3,1.7c-3.1,7.8-5.6,13.7-5.6,13.7
							c0,1.4,0.5,2.7,1.3,3.9c-3.1,7.6-5.3,12.9-5.3,12.9c0,7.7,11,12,20.7,11.9c9.6,0,20.7-4.3,20.7-11.9c0,0-2.2-5.3-5.3-12.9
							c0.8-1.1,1.3-2.4,1.3-3.9c0,0-2.4-5.9-5.6-13.7c0.2-0.5,0.3-1.1,0.3-1.7C1874.4,427.3,1866.5,408.3,1862.9,397.7z" />
										<path class="st9" d="M1925.6,398.8c-3.5,10.5-11.4,29.3-11.4,29.3c0,0.6,0.1,1.1,0.3,1.6c-3.1,7.8-5.6,13.6-5.6,13.6
							c0,1.4,0.5,2.7,1.3,3.9c-3,7.5-5.2,12.8-5.2,12.8c0,7.6,11,11.9,20.5,11.9c9.6,0,20.5-4.2,20.5-11.9c0,0-2.2-5.3-5.2-12.8
							c0.8-1.1,1.3-2.4,1.3-3.9c0,0-2.4-5.8-5.6-13.6c0.2-0.5,0.3-1.1,0.3-1.6C1937,428.1,1929.2,409.3,1925.6,398.8" />
										<path class="st10" d="M1925.6,398.8c-3.5,10.5-11.4,29.3-11.4,29.3c0,0.6,0.1,1.1,0.3,1.6c-3.1,7.8-5.6,13.6-5.6,13.6
							c0,1.4,0.5,2.7,1.3,3.9c-3,7.5-5.2,12.8-5.2,12.8c0,7.6,11,11.9,20.5,11.9c9.6,0,20.5-4.2,20.5-11.9c0,0-2.2-5.3-5.2-12.8
							c0.8-1.1,1.3-2.4,1.3-3.9c0,0-2.4-5.8-5.6-13.6c0.2-0.5,0.3-1.1,0.3-1.6C1937,428.1,1929.2,409.3,1925.6,398.8z" />
										<path class="st11" d="M1776.5,506.5c-1.1-0.6-2.9-0.6-3.9,0c-0.5,0.3-0.8,0.7-0.8,1.1v11.5c0,0.4,0.3,0.8,0.8,1.1
							c1.1,0.6,2.9,0.6,3.9,0c0.5-0.3,0.8-0.7,0.8-1.1v-11.5C1777.3,507.3,1777,506.8,1776.5,506.5z" />
										<path class="st9" d="M1774.5,420.4c-4.5,13.4-14.5,37.3-14.5,37.3c0,0.7,0.2,1.4,0.4,2.1c-4,9.9-7.1,17.3-7.1,17.3
							c0,1.8,0.6,3.5,1.7,4.9c-3.9,9.6-6.7,16.3-6.7,16.3c0,9.7,13.9,15.1,26.1,15.1c12.2,0,26.1-5.4,26.1-15.1c0,0-2.8-6.7-6.7-16.3
							c1.1-1.4,1.7-3.1,1.7-4.9c0,0-3.1-7.4-7.1-17.3c0.3-0.7,0.4-1.3,0.4-2.1C1789,457.8,1779,433.8,1774.5,420.4" />
										<path class="st10" d="M1774.5,420.4c-4.5,13.4-14.5,37.3-14.5,37.3c0,0.7,0.2,1.4,0.4,2.1c-4,9.9-7.1,17.3-7.1,17.3
							c0,1.8,0.6,3.5,1.7,4.9c-3.9,9.6-6.7,16.3-6.7,16.3c0,9.7,13.9,15.1,26.1,15.1c12.2,0,26.1-5.4,26.1-15.1c0,0-2.8-6.7-6.7-16.3
							c1.1-1.4,1.7-3.1,1.7-4.9c0,0-3.1-7.4-7.1-17.3c0.3-0.7,0.4-1.3,0.4-2.1C1789,457.8,1779,433.8,1774.5,420.4z" />
										<path class="st12" d="M1772.2,489.3c0.8,0.1,1.5,0.1,2.3,0.1c9.8,0,21.1-4.4,21.1-12.2" />
										<path class="st12" d="M1772.5,466c0.7,0.1,1.4,0.1,2,0.1c6.8,0,14.5-3,14.5-8.4" />
										<path class="st11" d="M1811.5,550.7c-1.2-0.7-3.1-0.7-4.3,0c-0.6,0.3-0.9,0.8-0.9,1.2v12.5c0,0.4,0.3,0.9,0.9,1.2
							c1.2,0.7,3.1,0.7,4.3,0c0.6-0.3,0.9-0.8,0.9-1.2v-12.5C1812.4,551.5,1812.1,551,1811.5,550.7z" />
										<path class="st9" d="M1809.4,457.5c-4.9,14.5-15.7,40.4-15.7,40.4c0,0.8,0.2,1.6,0.5,2.3c-4.3,10.7-7.7,18.8-7.7,18.8
							c0,2,0.7,3.7,1.8,5.3c-4.2,10.4-7.2,17.6-7.2,17.6c0,10.5,15.1,16.4,28.3,16.3c13.2,0,28.3-5.8,28.3-16.3c0,0-3-7.2-7.2-17.6
							c1.2-1.6,1.8-3.3,1.8-5.3c0,0-3.3-8-7.7-18.8c0.3-0.7,0.5-1.5,0.5-2.3C1825,497.9,1814.2,471.9,1809.4,457.5" />
										<path class="st10" d="M1809.4,457.5c-4.9,14.5-15.7,40.4-15.7,40.4c0,0.8,0.2,1.6,0.5,2.3c-4.3,10.7-7.7,18.8-7.7,18.8
							c0,2,0.7,3.7,1.8,5.3c-4.2,10.4-7.2,17.6-7.2,17.6c0,10.5,15.1,16.4,28.3,16.3c13.2,0,28.3-5.8,28.3-16.3c0,0-3-7.2-7.2-17.6
							c1.2-1.6,1.8-3.3,1.8-5.3c0,0-3.3-8-7.7-18.8c0.3-0.7,0.5-1.5,0.5-2.3C1825,497.9,1814.2,471.9,1809.4,457.5z" />
										<path class="st12" d="M1806.8,532c0.8,0.1,1.7,0.1,2.5,0.1c10.7,0,22.9-4.7,22.9-13.2" />
										<path class="st12" d="M1807.2,506.9c0.7,0.1,1.5,0.1,2.2,0.1c7.3,0,15.7-3.2,15.7-9.1" />
										<path class="st11" d="M1890.9,511.8c-1.3-0.7-3.3-0.7-4.5,0c-0.6,0.4-0.9,0.8-0.9,1.3v13.3c0,0.5,0.3,0.9,0.9,1.3
							c1.3,0.7,3.3,0.7,4.5,0c0.6-0.4,0.9-0.8,0.9-1.3v-13.3C1891.8,512.6,1891.5,512.1,1890.9,511.8z" />
										<path class="st9" d="M1888.6,412.6c-5.2,15.4-16.7,43-16.7,43c0,0.9,0.2,1.7,0.5,2.4c-4.6,11.4-8.1,20-8.1,20
							c0,2.1,0.7,4,1.9,5.6c-4.5,11-7.7,18.7-7.7,18.7c0,11.2,16.1,17.4,30.1,17.4c14,0,30.1-6.2,30.1-17.4c0,0-3.2-7.7-7.7-18.7
							c1.2-1.7,1.9-3.5,1.9-5.6c0,0-3.6-8.5-8.1-20c0.3-0.8,0.5-1.6,0.5-2.4C1905.3,455.6,1893.8,428,1888.6,412.6" />
										<path class="st10" d="M1888.6,412.6c-5.2,15.4-16.7,43-16.7,43c0,0.9,0.2,1.7,0.5,2.4c-4.6,11.4-8.1,20-8.1,20
							c0,2.1,0.7,4,1.9,5.6c-4.5,11-7.7,18.7-7.7,18.7c0,11.2,16.1,17.4,30.1,17.4c14,0,30.1-6.2,30.1-17.4c0,0-3.2-7.7-7.7-18.7
							c1.2-1.7,1.9-3.5,1.9-5.6c0,0-3.6-8.5-8.1-20c0.3-0.8,0.5-1.6,0.5-2.4C1905.3,455.6,1893.8,428,1888.6,412.6z" />
										<path class="st12" d="M1885.9,491.9c0.9,0.1,1.8,0.1,2.7,0.1c11.3,0,24.3-5,24.3-14.1" />
										<path class="st12" d="M1886.3,465.1c0.8,0.1,1.6,0.1,2.3,0.1c7.8,0,16.7-3.4,16.7-9.6" />
										<path class="st11" d="M1923.6,579.6c-1.6-1-4.3-1-6,0c-0.8,0.5-1.2,1.1-1.2,1.7v17.4c0,0.6,0.4,1.2,1.2,1.7c1.6,1,4.3,1,6,0
							c0.8-0.5,1.2-1.1,1.2-1.7v-17.4C1924.8,580.7,1924.4,580.1,1923.6,579.6z" />
										<path class="st9" d="M1920.6,449.3c-6.8,20.2-21.9,56.5-21.9,56.5c0,1.1,0.2,2.2,0.6,3.2c-6,15-10.7,26.2-10.7,26.2
							c0,2.8,0.9,5.2,2.5,7.4c-5.9,14.5-10.1,24.6-10.1,24.6c0,14.7,21.1,22.9,39.5,22.8c18.4,0.1,39.5-8.2,39.5-22.8
							c0,0-4.2-10.1-10.1-24.6c1.6-2.2,2.5-4.7,2.5-7.4c0,0-4.7-11.2-10.7-26.2c0.4-1,0.6-2,0.6-3.2
							C1942.5,505.8,1927.4,469.5,1920.6,449.3" />
										<path class="st10" d="M1920.6,449.3c-6.8,20.2-21.9,56.5-21.9,56.5c0,1.1,0.2,2.2,0.6,3.2c-6,15-10.7,26.2-10.7,26.2
							c0,2.8,0.9,5.2,2.5,7.4c-5.9,14.5-10.1,24.6-10.1,24.6c0,14.7,21.1,22.9,39.5,22.8c18.4,0.1,39.5-8.2,39.5-22.8
							c0,0-4.2-10.1-10.1-24.6c1.6-2.2,2.5-4.7,2.5-7.4c0,0-4.7-11.2-10.7-26.2c0.4-1,0.6-2,0.6-3.2
							C1942.5,505.8,1927.4,469.5,1920.6,449.3z" />
										<path class="st12" d="M1917.1,553.5c1.2,0.1,2.3,0.1,3.5,0.1c14.9,0,32-6.6,32-18.5" />
										<path class="st11" d="M1859.4,653.9c-2.2-1.3-5.7-1.3-7.9,0c-1.1,0.6-1.6,1.5-1.6,2.3v23.1c0,0.8,0.5,1.7,1.6,2.3
							c2.2,1.3,5.7,1.3,7.9,0c1.1-0.6,1.6-1.5,1.6-2.3v-23.1C1861,655.4,1860.5,654.5,1859.4,653.9z" />
										<path class="st9" d="M1855.4,481c-9,26.9-29.1,75-29.1,75c0,1.5,0.3,2.9,0.9,4.2c-8,19.9-14.2,34.8-14.2,34.8
							c0,3.7,1.2,6.9,3.4,9.8c-7.8,19.3-13.4,32.7-13.4,32.7c0,19.5,28,30.4,52.5,30.3c24.5,0.1,52.5-10.8,52.5-30.3
							c0,0-5.6-13.4-13.4-32.7c2.1-2.9,3.4-6.2,3.4-9.8c0,0-6.2-14.9-14.2-34.8c0.5-1.3,0.9-2.7,0.9-4.2
							C1884.5,555.9,1864.5,507.8,1855.4,481" />
										<path class="st10" d="M1855.4,481c-9,26.9-29.1,75-29.1,75c0,1.5,0.3,2.9,0.9,4.2c-8,19.9-14.2,34.8-14.2,34.8
							c0,3.7,1.2,6.9,3.4,9.8c-7.8,19.3-13.4,32.7-13.4,32.7c0,19.5,28,30.4,52.5,30.3c24.5,0.1,52.5-10.8,52.5-30.3
							c0,0-5.6-13.4-13.4-32.7c2.1-2.9,3.4-6.2,3.4-9.8c0,0-6.2-14.9-14.2-34.8c0.5-1.3,0.9-2.7,0.9-4.2
							C1884.5,555.9,1864.5,507.8,1855.4,481z" />
										<path class="st12" d="M1850.8,619.3c1.6,0.1,3.1,0.2,4.6,0.1c19.8,0.1,42.4-8.8,42.4-24.5" />
										<path class="st12" d="M1851.4,572.6c1.4,0.1,2.7,0.2,4.1,0.2c13.6,0,29.1-6,29.1-16.8" />
										<path class="st11" d="M1914.7,818.9c-3.7-2.1-9.7-2.1-13.5,0c-1.9,1.1-2.8,2.5-2.8,3.9v39.3c0,1.4,0.9,2.8,2.8,3.9
							c3.7,2.1,9.7,2.1,13.5,0c1.9-1.1,2.8-2.5,2.8-3.9v-39.3C1917.4,821.4,1916.5,820,1914.7,818.9z" />
										<path class="st9" d="M1907.9,524.9c-15.4,45.7-49.5,127.4-49.5,127.4c0,2.5,0.5,4.9,1.5,7.1c-13.6,33.8-24.1,59.2-24.1,59.2
							c0,6.2,2.1,11.8,5.7,16.7c-13.2,32.7-22.8,55.6-22.8,55.6c0,33.1,47.6,51.6,89.2,51.5c41.6,0.1,89.2-18.4,89.2-51.5
							c0,0-9.5-22.9-22.8-55.6c3.6-4.9,5.7-10.5,5.7-16.7c0,0-10.6-25.3-24.1-59.2c0.9-2.2,1.5-4.6,1.5-7.1
							C1957.4,652.4,1923.3,570.6,1907.9,524.9" />
										<path class="st10" d="M1907.9,524.9c-15.4,45.7-49.5,127.4-49.5,127.4c0,2.5,0.5,4.9,1.5,7.1c-13.6,33.8-24.1,59.2-24.1,59.2
							c0,6.2,2.1,11.8,5.7,16.7c-13.2,32.7-22.8,55.6-22.8,55.6c0,33.1,47.6,51.6,89.2,51.5c41.6,0.1,89.2-18.4,89.2-51.5
							c0,0-9.5-22.9-22.8-55.6c3.6-4.9,5.7-10.5,5.7-16.7c0,0-10.6-25.3-24.1-59.2c0.9-2.2,1.5-4.6,1.5-7.1
							C1957.4,652.4,1923.3,570.6,1907.9,524.9z" />
										<path class="st12" d="M1900,760.1c2.6,0.2,5.3,0.3,7.9,0.2c33.6,0.1,72.1-14.9,72.1-41.7" />
										<path class="st12" d="M1901,680.6c2.3,0.2,4.6,0.3,6.9,0.3c23.1,0.1,49.5-10.2,49.5-28.6" />
									</g>
									<path class="st13" d="M1720.6,820.8c-6.2,1-9.2,2.3-13.5,6.1c-0.1-5-0.7-7.9-2.9-11.8c-2.2,3.9-2.8,6.8-2.9,11.8
						c-4.4-3.8-7.4-5.1-13.5-6.1c5.3,3.9,7.9,6.5,11.1,12.2h10.7C1712.7,827.2,1715.3,824.7,1720.6,820.8" />
									<path class="st13" d="M607.4,635.7c-6.2,1-9.2,2.3-13.5,6.1c-0.1-5-0.7-7.9-2.9-11.8c-2.2,3.9-2.8,6.8-2.9,11.8
						c-4.4-3.8-7.4-5.1-13.5-6.1c5.3,3.9,7.9,6.5,11.1,12.2h10.7C599.5,642.2,602.1,639.6,607.4,635.7" />
									<path class="st13" d="M1805.7,855.6c-8.8,1.4-13,3.3-19.2,8.7c-0.2-7-1-11.1-4.2-16.7c-3.2,5.5-4,9.6-4.2,16.7
						c-6.2-5.3-10.4-7.2-19.2-8.7c7.5,5.6,11.1,9.2,15.7,17.3h15.2C1794.5,864.8,1798.2,861.1,1805.7,855.6" />
									<line class="st14" x1="659.5" y1="568.5" x2="740.1" y2="615.1" />
									<line class="st14" x1="713.5" y1="617.3" x2="758.4" y2="643.2" />
									<line class="st14" x1="676.2" y1="595.8" x2="640.5" y2="575.1" />
									<line class="st14" x1="670.9" y1="619.9" x2="712" y2="643.7" />
									<line class="st14" x1="229.4" y1="600.7" x2="282.7" y2="631.5" />
									<line class="st14" x1="254.7" y1="631" x2="277" y2="643.8" />
									<line class="st14" x1="1680.7" y1="638.7" x2="1799.4" y2="707.2" />
									<line class="st14" x1="1649.1" y1="584.7" x2="1703.7" y2="616.2" />
									<line class="st14" x1="1708.8" y1="674.8" x2="1726.8" y2="685.2" />
									<line class="st14" x1="1744.8" y1="694.8" x2="1799.4" y2="726.3" />
									<line class="st14" x1="1774.3" y1="731.7" x2="1787.2" y2="739.2" />
									<g class="st15">
										<g>
											<defs>
												<rect id="SVGID_9_" x="992.5" y="624.8" width="125.3" height="22.2" />
											</defs>
											<clipPath id="SVGID_10_">
												<use xlink:href="#SVGID_9_" style="overflow:visible;" />
											</clipPath>
											<polygon class="st16" points="992.5,647 1060.2,624.8 1117.8,625.3 1065.7,647 						" />
										</g>
									</g>
									<g class="st15">
										<g>
											<defs>
												<rect id="SVGID_11_" x="1564.9" y="536.8" width="78.7" height="20.6" />
											</defs>
											<clipPath id="SVGID_12_">
												<use xlink:href="#SVGID_11_" style="overflow:visible;" />
											</clipPath>
											<polygon class="st17" points="1564.9,557.4 1601.5,536.8 1643.7,537.2 1622.7,557.4 						" />
										</g>
									</g>
									<polygon class="st7" points="929.7,512.5 864.9,562 864.9,645.3 994.4,645.3 994.4,562 				" />
									<polygon class="st18" points="929.7,512.5 864.9,562 864.9,645.3 994.4,645.3 994.4,562 				" />
									<rect x="939.4" y="588" class="st13" width="24.4" height="57.1" />
									<rect x="939.4" y="588" class="st18" width="24.4" height="57.1" />
									<rect x="885.8" y="588.8" class="st18" width="30" height="37.8" />
									<path class="st5" d="M937,550.3c0-4-3.3-7.3-7.3-7.3s-7.3,3.3-7.3,7.3c0,4,3.3,7.3,7.3,7.3S937,554.4,937,550.3" />
									<circle class="st18" cx="929.7" cy="550.3" r="7.3" />
									<polygon class="st2" points="1059.7,548.2 994.4,562.6 994.4,645.3 1059.8,624.4 				" />
									<polygon class="st18" points="1059.7,548.2 994.4,562.6 994.4,645.3 1059.8,624.4 				" />
									<polygon class="st5" points="994.4,562 929.7,512.5 993.8,503.4 1059.7,548.2 				" />
									<polygon class="st18" points="994.4,562 929.7,512.5 993.8,503.4 1059.7,548.2 				" />
									<polygon class="st7" points="1518.1,460.1 1471.4,495.9 1471.4,556 1564.8,556 1564.8,495.9 				" />
									<polygon class="st19" points="1518.1,460.1 1471.4,495.9 1471.4,556 1564.8,556 1564.8,495.9 				" />
									<rect x="1525.1" y="514.6" class="st13" width="17.6" height="41.2" />
									<rect x="1525.1" y="514.6" class="st19" width="17.6" height="41.2" />
									<rect x="1486.4" y="515.2" class="st19" width="21.7" height="27.3" />
									<path class="st5" d="M1523.3,487.4c0-2.9-2.4-5.3-5.3-5.3c-2.9,0-5.3,2.4-5.3,5.3c0,2.9,2.4,5.3,5.3,5.3
						C1521,492.7,1523.3,490.3,1523.3,487.4" />
									<circle class="st19" cx="1518.1" cy="487.4" r="5.3" />
									<polygon class="st2" points="1600.7,482.2 1564.8,496.3 1564.8,556 1601.1,536.7 				" />
									<polygon class="st19" points="1600.7,482.2 1564.8,496.3 1564.8,556 1601.1,536.7 				" />
									<polygon class="st5" points="1564.8,495.9 1518.1,460.1 1560.9,452.6 1600.7,482.2 				" />
									<polygon class="st19" points="1564.8,495.9 1518.1,460.1 1560.9,452.6 1600.7,482.2 				" />
									<path class="st18" d="M1512.6,300.7c3.7-7.3,11.3-12.4,20.1-12.4c12.4,0,22.5,10.1,22.5,22.5" />
									<line class="st18" x1="1546.5" y1="310.8" x2="1594.7" y2="310.8" />
									<line class="st18" x1="1523.6" y1="300.7" x2="1500.6" y2="300.7" />
									<g class="frame1__house">
										<path class="st5" d="M310.4,708.3c0-6.8-5.5-12.3-12.3-12.3s-12.3,5.5-12.3,12.3c0,6.8,5.5,12.3,12.3,12.3
							S310.4,715.1,310.4,708.3" />
										<circle class="st6" cx="298.1" cy="708.3" r="12.3" />
										<polygon class="st5" points="406.4,727.9 298.1,645.1 405.2,627.4 515.7,702.5 				" />
										<polygon class="st6" points="406.4,727.9 298.1,645.1 405.2,627.4 515.7,702.5 				" />
										<path class="st5" d="M0,1083.7h1031.5C848.4,849.3,540.9,695.5,192.6,695.5c-65.8,0-130.2,5.5-192.6,16V1083.7z" />
										<polygon class="st7" points="298.1,645.1 189.8,727.9 189.8,867.3 406.4,867.3 406.4,727.9 				" />
										<polygon class="st6" points="298.1,645.1 189.8,727.9 189.8,867.3 406.4,867.3 406.4,727.9 				" />
										<rect x="314.4" y="771.3" class="st13" width="40.8" height="95.5" />
										<rect x="314.4" y="771.3" class="st6" width="40.8" height="95.5" />
										<rect x="224.7" y="772.7" class="st6" width="50.2" height="63.2" />
										<path class="st13" d="M759.4,958.9c-11.8,1.9-17.5,4.5-25.9,11.7c-0.3-9.5-1.4-15.1-5.6-22.6c-4.3,7.5-5.4,13-5.6,22.6
							c-8.4-7.2-14.1-9.8-25.9-11.7c10.1,7.5,15.1,12.4,21.3,23.4H738C744.3,971.4,749.2,966.5,759.4,958.9" />
										<polygon class="st2" points="515.7,702.5 406.4,727.1 406.4,867.3 515.7,831 				" />
										<g class="st15">
											<g>
												<defs>
													<rect id="SVGID_15_" x="404.6" y="831.8" width="215.5" height="36.9" />
												</defs>
												<clipPath id="SVGID_16_">
													<use xlink:href="#SVGID_15_" style="overflow:visible;" />
												</clipPath>
												<polygon class="st25" points="404.6,868.7 515.5,831.8 620.1,832.3 533.1,868.7 						" />
											</g>
										</g>
										<polygon class="st6" points="515.7,702.5 406.4,727.1 406.4,867.3 515.7,831 				" />
										<g class="house__name" style="opacity: 0; transform: translateY(25px)">
											<g class="st8">
												<text transform="matrix(1 0 0 1 259.0146 951.2109)" class="st26 st27 st28">GINA</text>
											</g>
											<g class="st8">
												<text transform="matrix(1 0 0 1 233.1724 1003.2109)">
													<tspan x="0" y="0" class="st26 st27 st29">NE</tspan>
													<tspan x="36" y="0" class="st26 st27 st29">W</tspan>
													<tspan x="62.4" y="0" class="st26 st27 st29"> ROOF</tspan>
												</text>
											</g>
											<polyline class="st30" points="146.2,933.3 146.2,910 169.5,910 				" />
											<polyline class="st30" points="169.5,1011.9 146.2,1011.9 146.2,988.7 				" />
											<polyline class="st30" points="463.3,933.3 463.3,910 440,910 				" />
											<polyline class="st30" points="440,1011.9 463.3,1011.9 463.3,988.7 				" />
										</g>
									</g>
									<g class="house__name" style="opacity: 0; transform: translateY(25px)">
										<g class="st8">
											<text transform="matrix(1 0 0 1 905.1768 693.1045)">
												<tspan x="0" y="0" class="st26 st27 st31">T</tspan>
												<tspan x="10.4" y="0" class="st26 st27 st31">OM</tspan>
											</text>
										</g>
										<g class="st8">
											<text transform="matrix(1 0 0 1 873.251 724.2705)" class="st26 st27 st32">NO BASEMENT</text>
										</g>
										<polyline class="st30" points="834.9,681.8 834.9,667.8 848.9,667.8 				" />
										<polyline class="st30" points="848.9,728.9 834.9,728.9 834.9,715 				" />
										<polyline class="st30" points="1025,681.8 1025,667.8 1011.1,667.8 				" />
										<polyline class="st30" points="1011.1,728.9 1025,728.9 1025,715 				" />
									</g>
									<g class="house__name" style="opacity: 0; transform: translateY(25px)">
										<g class="st8">
											<text transform="matrix(1 0 0 1 1497.6504 600.4639)" class="st26 st27 st31">BILL</text>
										</g>
										<g class="st8">
											<text transform="matrix(1 0 0 1 1463.0742 631.6299)" class="st26 st27 st32">WOOD SIDING</text>
										</g>
										<polyline class="st30" points="1424.6,589.1 1424.6,575.2 1438.6,575.2 				" />
										<polyline class="st30" points="1438.6,636.3 1424.6,636.3 1424.6,622.3 				" />
										<polyline class="st30" points="1614.7,589.1 1614.7,575.2 1600.7,575.2 				" />
										<polyline class="st30" points="1600.7,636.3 1614.7,636.3 1614.7,622.3 				" />
									</g>
								</g>
							</g>
							<g class="frame1__text-section" style="opacity: 0; transform: translateY(900px)">
								<g class="st15">
									<g>
										<defs>
											<rect id="SVGID_13_" x="18.5" y="74.6" width="1595.1" height="184.9" />
										</defs>
										<clipPath id="SVGID_14_">
											<use xlink:href="#SVGID_13_" style="overflow:visible;" />
										</clipPath>
										<rect x="18.5" y="74.6" class="st21" width="1595.1" height="184.9" />
									</g>
								</g>
								<rect y="56.3" class="st20" width="1595.1" height="184.9" />
								<g class="st8">
									<text transform="matrix(1 0 0 1 54.1943 132.1289)">
										<tspan x="0" y="0" class="st22 st23 st24">G</tspan>
										<tspan x="29.5" y="0" class="st22 st23 st24">i</tspan>
										<tspan x="40.5" y="0" class="st22 st23 st24">na’</tspan>
										<tspan x="98.9" y="0" class="st22 st23 st24">s</tspan>
										<tspan x="120" y="0" class="st22 st23 st24"> up </tspan>
										<tspan x="188.4" y="0" class="st22 st23 st24">the </tspan>
										<tspan x="261.1" y="0" class="st22 st23 st24">h</tspan>
										<tspan x="285.5" y="0" class="st22 st23 st24">i</tspan>
										<tspan x="296.5" y="0" class="st22 st23 st24">l</tspan>
										<tspan x="307.5" y="0" class="st22 st23 st24">l</tspan>
										<tspan x="318.5" y="0" class="st22 st23 st24"> </tspan>
										<tspan x="328.2" y="0" class="st22 st23 st24">w</tspan>
										<tspan x="359.1" y="0" class="st22 st23 st24">i</tspan>
										<tspan x="370.1" y="0" class="st22 st23 st24">t</tspan>
										<tspan x="386.3" y="0" class="st22 st23 st24">h</tspan>
										<tspan x="410.6" y="0" class="st22 st23 st24"> </tspan>
										<tspan x="420.3" y="0" class="st22 st23 st24">a</tspan>
										<tspan x="443.1" y="0" class="st22 st23 st24"> ne</tspan>
										<tspan x="499.7" y="0" class="st22 st23 st24">w</tspan>
										<tspan x="530.6" y="0" class="st22 st23 st24"> </tspan>
										<tspan x="540.3" y="0" class="st22 st23 st24">r</tspan>
										<tspan x="557" y="0" class="st22 st23 st24">o</tspan>
										<tspan x="580.9" y="0" class="st22 st23 st24">of.</tspan>
										<tspan x="631" y="0" class="st22 st23 st24"> </tspan>
										<tspan x="640.7" y="0" class="st22 st23 st24"> </tspan>
										<tspan x="650.3" y="0" class="st22 st23 st24">T</tspan>
										<tspan x="675.2" y="0" class="st22 st23 st24">om’</tspan>
										<tspan x="747.9" y="0" class="st22 st23 st24">s</tspan>
										<tspan x="769" y="0" class="st22 st23 st24"> </tspan>
										<tspan x="778.7" y="0" class="st22 st23 st24">ne</tspan>
										<tspan x="825.7" y="0" class="st22 st23 st24">xt</tspan>
										<tspan x="863.2" y="0" class="st22 st23 st24"> t</tspan>
										<tspan x="889" y="0" class="st22 st23 st24">o </tspan>
										<tspan x="922.6" y="0" class="st22 st23 st24">th</tspan>
										<tspan x="963.1" y="0" class="st22 st23 st24">e </tspan>
										<tspan x="995.5" y="0" class="st22 st23 st24">r</tspan>
										<tspan x="1012.2" y="0" class="st22 st23 st24">ive</tspan>
										<tspan x="1067.3" y="0" class="st22 st23 st24">r</tspan>
										<tspan x="1084" y="0" class="st22 st23 st24"> wit</tspan>
										<tspan x="1151.8" y="0" class="st22 st23 st24">h</tspan>
										<tspan x="1176.1" y="0" class="st22 st23 st24"> n</tspan>
										<tspan x="1210.2" y="0" class="st22 st23 st24">o</tspan>
										<tspan x="1234.1" y="0" class="st22 st23 st24"> bas</tspan>
										<tspan x="1312.4" y="0" class="st22 st23 st24">e</tspan>
										<tspan x="1335" y="0" class="st22 st23 st24">me</tspan>
										<tspan x="1395.3" y="0" class="st22 st23 st24">n</tspan>
										<tspan x="1419.6" y="0" class="st22 st23 st24">t</tspan>
										<tspan x="1435.8" y="0" class="st22 st23 st24">.</tspan>
									</text>
								</g>
								<g class="st8">
									<text transform="matrix(1 0 0 1 54.1943 195.105)">
										<tspan x="0" y="0" class="st22 st23 st24">B</tspan>
										<tspan x="29.3" y="0" class="st22 st23 st24">i</tspan>
										<tspan x="41.8" y="0" class="st22 st23 st24">l</tspan>
										<tspan x="54.1" y="0" class="st22 st23 st24">l</tspan>
										<tspan x="66.6" y="0" class="st22 st23 st24">’</tspan>
										<tspan x="79.2" y="0" class="st22 st23 st24">s</tspan>
										<tspan x="101.7" y="0" class="st22 st23 st24"> </tspan>
										<tspan x="112.8" y="0" class="st22 st23 st24">acro</tspan>
										<tspan x="203.8" y="0" class="st22 st23 st24">ss</tspan>
										<tspan x="248.8" y="0" class="st22 st23 st24"> </tspan>
										<tspan x="259.9" y="0" class="st22 st23 st24">the </tspan>
										<tspan x="338.3" y="0" class="st22 st23 st24">r</tspan>
										<tspan x="356.3" y="0" class="st22 st23 st24">i</tspan>
										<tspan x="368.7" y="0" class="st22 st23 st24">ver nex</tspan>
										<tspan x="517.4" y="0" class="st22 st23 st24">t</tspan>
										<tspan x="534.9" y="0" class="st22 st23 st24"> </tspan>
										<tspan x="546" y="0" class="st22 st23 st24">t</tspan>
										<tspan x="563.5" y="0" class="st22 st23 st24">o</tspan>
										<tspan x="588.9" y="0" class="st22 st23 st24"> </tspan>
										<tspan x="599.9" y="0" class="st22 st23 st24">t</tspan>
										<tspan x="617.5" y="0" class="st22 st23 st24">h</tspan>
										<tspan x="643.2" y="0" class="st22 st23 st24">e</tspan>
										<tspan x="667.3" y="0" class="st22 st23 st24"> </tspan>
										<tspan x="678.3" y="0" class="st22 st23 st24">f</tspan>
										<tspan x="694.7" y="0" class="st22 st23 st24">o</tspan>
										<tspan x="720" y="0" class="st22 st23 st24">r</tspan>
										<tspan x="738.1" y="0" class="st22 st23 st24">e</tspan>
										<tspan x="762.2" y="0" class="st22 st23 st24">s</tspan>
										<tspan x="784.7" y="0" class="st22 st23 st24">t</tspan>
										<tspan x="802.3" y="0" class="st22 st23 st24"> </tspan>
										<tspan x="813.4" y="0" class="st22 st23 st24">i</tspan>
										<tspan x="825.7" y="0" class="st22 st23 st24">n</tspan>
										<tspan x="851.5" y="0" class="st22 st23 st24"> </tspan>
										<tspan x="862.6" y="0" class="st22 st23 st24">a</tspan>
										<tspan x="886.7" y="0" class="st22 st23 st24"> </tspan>
										<tspan x="897.8" y="0" class="st22 st23 st24">h</tspan>
										<tspan x="923.6" y="0" class="st22 st23 st24">o</tspan>
										<tspan x="948.9" y="0" class="st22 st23 st24">u</tspan>
										<tspan x="974.6" y="0" class="st22 st23 st24">s</tspan>
										<tspan x="997.1" y="0" class="st22 st23 st24">e</tspan>
										<tspan x="1021.2" y="0" class="st22 st23 st24"> </tspan>
										<tspan x="1032.3" y="0" class="st22 st23 st24">w</tspan>
										<tspan x="1064.6" y="0" class="st22 st23 st24">i</tspan>
										<tspan x="1077" y="0" class="st22 st23 st24">t</tspan>
										<tspan x="1094.5" y="0" class="st22 st23 st24">h</tspan>
										<tspan x="1120.3" y="0" class="st22 st23 st24"> </tspan>
										<tspan x="1131.3" y="0" class="st22 st23 st24">w</tspan>
										<tspan x="1163.6" y="0" class="st22 st23 st24">o</tspan>
										<tspan x="1188.9" y="0" class="st22 st23 st24">o</tspan>
										<tspan x="1214.2" y="0" class="st22 st23 st24">d</tspan>
										<tspan x="1240.2" y="0" class="st22 st23 st24"> </tspan>
										<tspan x="1251.3" y="0" class="st22 st23 st24">s</tspan>
										<tspan x="1273.8" y="0" class="st22 st23 st24">i</tspan>
										<tspan x="1286.2" y="0" class="st22 st23 st24">d</tspan>
										<tspan x="1312.2" y="0" class="st22 st23 st24">i</tspan>
										<tspan x="1324.5" y="0" class="st22 st23 st24">ng</tspan>
										<tspan x="1375.7" y="0" class="st22 st23 st24">.</tspan>
									</text>
								</g>
							</g>
						</g>
					</g>
				</g>
			</svg>