<?xml version="1.0" encoding="utf-8"?>
<!-- Generator: Adobe Illustrator 19.0.1, SVG Export Plug-In . SVG Version: 6.00 Build 0)  -->
<svg version="1.1" id="Шар_1" xmlns="http://www.w3.org/2000/svg" xmlns:xlink="http://www.w3.org/1999/xlink" x="0px" y="0px"
	 viewBox="0 0 1920 1080" style="enable-background:new 0 0 1920 1080;" xml:space="preserve">
<style type="text/css">
	.st0{fill:#92D8D3;}
	.st1{fill:#FFFFFF;}
	.st2{fill:none;stroke:#053544;stroke-width:3;stroke-linecap:round;stroke-linejoin:round;stroke-miterlimit:10;}
	.st3{fill:#F2F2F2;}
	.st4{fill:#00A499;}
	.st5{fill:none;stroke:#053544;stroke-width:3;stroke-linejoin:round;stroke-miterlimit:10;}
	.st6{fill:#F9F9F9;}
	.st7{fill:none;stroke:#053544;stroke-width:3;stroke-linejoin:round;}
	.st8{fill:none;stroke:#053544;stroke-width:3;stroke-linecap:round;stroke-linejoin:round;}
</style>
<g>
	<g>
		<g>
			<path class="st0" d="M1087.9,903v-96.2H489.5c-26.6,0-48.1,21.5-48.1,48.1c0,26.6,21.5,48.1,48.1,48.1h66.8
				c8.2,0,14.9,6.7,14.9,14.9s-6.7,14.9-14.9,14.9h-33.9c-11.6,0-21.1,9.4-21.1,21.1c0,11.6,9.4,21.1,21.1,21.1h346.8
				c11.6,0,21.1-9.4,21.1-21.1c0-11.6-9.4-21.1-21.1-21.1H857c-8.2,0-14.9-6.7-14.9-14.9S848.7,903,857,903H1087.9z"/>
			<path class="st1" d="M552.9,849.7h108.2V749.4c-4.8-2-10.1-3.1-15.6-3.1c-20.1,0-36.8,14.7-39.8,34c-2.5-0.7-5.1-1.1-7.9-1.1
				c-14.6,0-26.6,11.2-27.8,25.5c-5.2-3.1-11.3-4.9-17.8-4.9c-19.1,0-34.6,15.5-34.6,34.6c0,5.6,1.3,10.8,3.6,15.5"/>
			<path class="st2" d="M552.9,849.7h108.2V749.4c-4.8-2-10.1-3.1-15.6-3.1c-20.1,0-36.8,14.7-39.8,34c-2.5-0.7-5.1-1.1-7.9-1.1
				c-14.6,0-26.6,11.2-27.8,25.5c-5.2-3.1-11.3-4.9-17.8-4.9c-19.1,0-34.6,15.5-34.6,34.6c0,5.6,1.3,10.8,3.6,15.5"/>
			<line class="st2" x1="611.4" y1="849.2" x2="611.4" y2="804.3"/>
			<line class="st2" x1="610.1" y1="846.8" x2="588.7" y2="825.4"/>
			<path class="st2" d="M953.6,351.9c0-18.1,14.6-32.7,32.7-32.7c18.1,0,32.7,14.6,32.7,32.7"/>
			<line class="st2" x1="1019" y1="351.9" x2="1059" y2="351.9"/>
			<line class="st2" x1="868" y1="351.9" x2="925.5" y2="351.9"/>
			<line class="st2" x1="970.4" y1="351.9" x2="940.9" y2="351.9"/>
			<path class="st0" d="M1484,641.9c0-45.6-37-82.6-82.6-82.6c-45.6,0-82.6,37-82.6,82.6s37,82.6,82.6,82.6
				C1447.1,724.4,1484,687.4,1484,641.9"/>
			<circle class="st2" cx="1401.5" cy="641.9" r="101.9"/>
			<path class="st3" d="M1408.5,822.2l-2.5-194c-0.1-4.6-2-8.3-4.4-8.3h0v202.3H1408.5z"/>
			<path class="st1" d="M1397,628.1l-2.5,194h7V619.8C1399.1,619.8,1397.1,623.5,1397,628.1"/>
			<path class="st2" d="M1394.5,822.2h14l-2.5-194c-0.1-4.6-2-8.3-4.4-8.3h0c-2.4,0-4.4,3.7-4.4,8.3L1394.5,822.2z"/>
			<line class="st2" x1="1407.1" y1="661.2" x2="1423.4" y2="644.9"/>
			<line class="st2" x1="1395.9" y1="661.2" x2="1379.6" y2="644.9"/>
			<line class="st2" x1="1407.9" y1="704.7" x2="1440.2" y2="672.4"/>
			<line class="st2" x1="1395.1" y1="704.7" x2="1362.8" y2="672.4"/>
			<path class="st2" d="M752.6,392.4c-0.9-28.3-24.2-50.9-52.7-50.9c-24.7,0-45.4,17-51.1,39.9c-7-6.4-16.2-10.3-26.4-10.3
				c-21.6,0-39.1,17.5-39.1,39.1c0,1.2,0.1,2.4,0.2,3.6"/>
			<line class="st2" x1="533.6" y1="413.7" x2="607.6" y2="413.7"/>
			<path class="st2" d="M1402.8,477c4.8-5.5,7.7-12.7,7.7-20.5c0-17.3-14-31.3-31.3-31.3c-4.9,0-9.6,1.1-13.7,3.1c0-0.1,0-0.1,0-0.2
				c0-19.4-15.8-35.2-35.2-35.2c-13.5,0-25.2,7.6-31.1,18.7"/>
			<line class="st2" x1="1377.2" y1="477" x2="1465.2" y2="477"/>
			<polygon class="st3" points="792.6,857.1 793,689.5 793,675.8 793,675.8 832.1,653.4 871,676 871,689.7 870.6,857.3 
				1008.6,857.6 1009.1,631 831.5,528.3 655.2,629.3 654.7,856.8 			"/>
			
				<rect x="805.8" y="701.8" transform="matrix(-1 -2.211169e-003 2.211169e-003 -1 1661.8882 1548.6466)" class="st0" width="52" height="143.2"/>
			<path class="st1" d="M871,676l0,13.7l-78-0.2l0-13.7v0l39.1-22.4L871,676z M837.4,673.4c0-3.5-2.8-6.3-6.2-6.3
				c-3.5,0-6.3,2.8-6.3,6.2c0,3.5,2.8,6.3,6.2,6.3C834.6,679.7,837.4,676.9,837.4,673.4"/>
			<polygon class="st1" points="1032.9,626.5 1025.5,640.5 1009.1,631 831.5,528.3 655.2,629.3 637.1,639.6 629.7,625.6 
				655.2,611.1 712.7,578.1 746.2,559 831.6,510 1009.1,612.8 			"/>
			
				<rect x="724.7" y="506.5" transform="matrix(2.175087e-003 -1 1 2.175087e-003 204.7545 1251.5896)" class="st1" width="9.7" height="33.4"/>
			<polygon class="st4" points="746.2,528.1 746.2,559 712.7,578.1 712.8,528 			"/>
			<path class="st4" d="M831.2,667.1c3.4,0,6.2,2.8,6.2,6.3c0,3.5-2.8,6.2-6.3,6.2c-3.5,0-6.2-2.8-6.2-6.3
				C825,669.9,827.8,667.1,831.2,667.1"/>
			<polygon class="st4" points="831.5,528.3 655.2,629.3 655.1,643.8 831.5,542.8 1009,645.6 1009.1,631 			"/>
			<path class="st4" d="M858,701.8l-52-0.1L805.6,845l52,0.1L858,701.8z M793,689.5l78,0.2l-0.4,167.6l-78-0.2L793,689.5z"/>
			
				<rect x="805.8" y="701.8" transform="matrix(-1 -2.211169e-003 2.211169e-003 -1 1661.8882 1548.6466)" class="st2" width="52" height="143.2"/>
			<path class="st2" d="M858,701.8l-52-0.1L805.6,845l52,0.1L858,701.8z M793,689.5l78,0.2l-0.4,167.6l-78-0.2L793,689.5z"/>
			<polyline class="st2" points="653.5,630.2 637.1,639.6 629.7,625.6 653.6,612 831.6,510 1009.1,612.8 1032.9,626.5 1025.5,640.5 
				1009.1,631 			"/>
			<polyline class="st2" points="793,675.8 832.1,653.4 871,676 884.7,683.9 891.7,687.9 			"/>
			<polyline class="st2" points="772.3,687.7 779.8,683.4 793,675.8 			"/>
			<polyline class="st2" points="791,857.1 653,856.8 653,846.5 653.5,630.2 830.7,528.7 831.5,529.2 832.3,528.7 1009.1,631 
				1008.6,847.3 1008.6,857.6 870.6,857.3 			"/>
			<line class="st2" x1="746.2" y1="528.1" x2="746.2" y2="559"/>
			<line class="st2" x1="712.7" y1="578.1" x2="712.8" y2="528"/>
			
				<rect x="724.7" y="506.5" transform="matrix(-2.168796e-003 1 -1 -2.168796e-003 1254.3105 -205.2034)" class="st2" width="9.7" height="33.4"/>
			<polyline class="st2" points="793,689.5 793,675.8 793,675.8 			"/>
			<line class="st2" x1="871" y1="689.7" x2="871" y2="676"/>
			<path class="st2" d="M837.4,673.4c0-3.5-2.8-6.3-6.2-6.3c-3.5,0-6.3,2.8-6.3,6.2c0,3.5,2.8,6.3,6.2,6.3
				C834.6,679.7,837.4,676.9,837.4,673.4z"/>
			
				<rect x="710.9" y="630.1" transform="matrix(1 2.213801e-003 -2.213801e-003 1 1.4095 -1.5971)" class="st1" width="22.6" height="11.6"/>
			
				<rect x="725.5" y="645.7" transform="matrix(1 2.213801e-003 -2.213801e-003 1 1.444 -1.6294)" class="st1" width="22.6" height="11.6"/>
			
				<rect x="697.7" y="645.6" transform="matrix(1 2.213801e-003 -2.213801e-003 1 1.4438 -1.568)" class="st1" width="22.6" height="11.6"/>
			
				<rect x="955.5" y="659.3" transform="matrix(1 2.213801e-003 -2.213801e-003 1 1.4747 -2.1386)" class="st1" width="22.6" height="11.6"/>
			
				<rect x="944.8" y="642.3" transform="matrix(1 2.213801e-003 -2.213801e-003 1 1.437 -2.1149)" class="st1" width="22.6" height="11.6"/>
			
				<rect x="687.1" y="700.5" transform="matrix(1 2.216218e-003 -2.216218e-003 1 1.661 -1.5969)" class="st1" width="68.6" height="96.3"/>
			
				<rect x="683.6" y="796.9" transform="matrix(1 2.214010e-003 -2.214010e-003 1 1.7757 -1.5949)" class="st1" width="75.4" height="8.8"/>
			
				<rect x="697" y="709.1" transform="matrix(1 2.209347e-003 -2.209347e-003 1 1.6559 -1.592)" class="st4" width="48.9" height="79.1"/>
			
				<rect x="687.1" y="700.5" transform="matrix(1 2.216218e-003 -2.216218e-003 1 1.661 -1.5969)" class="st2" width="68.6" height="96.3"/>
			<path class="st5" d="M721.5,709.2c0,0,0,8.3,0,17.6"/>
			<path class="st5" d="M721.4,730.3c0,10.7-0.1,58-0.1,58"/>
			
				<rect x="683.6" y="796.9" transform="matrix(1 2.214010e-003 -2.214010e-003 1 1.7757 -1.5949)" class="st2" width="75.4" height="8.8"/>
			
				<rect x="906.4" y="701" transform="matrix(1 2.216218e-003 -2.216218e-003 1 1.6627 -2.0829)" class="st1" width="68.6" height="96.3"/>
			
				<rect x="902.9" y="797.3" transform="matrix(1 2.214010e-003 -2.214010e-003 1 1.7774 -2.0805)" class="st1" width="75.4" height="8.8"/>
			
				<rect x="916.2" y="709.6" transform="matrix(1 2.209394e-003 -2.209394e-003 1 1.6575 -2.0765)" class="st4" width="48.9" height="79.1"/>
			
				<rect x="906.4" y="701" transform="matrix(1 2.216218e-003 -2.216218e-003 1 1.6627 -2.0829)" class="st2" width="68.6" height="96.3"/>
			<path class="st5" d="M940.8,709.7c0,0,0,8.3,0,17.6"/>
			<path class="st5" d="M940.7,730.8c0,10.7-0.1,58-0.1,58"/>
			
				<rect x="902.9" y="797.3" transform="matrix(1 2.214010e-003 -2.214010e-003 1 1.7774 -2.0805)" class="st2" width="75.4" height="8.8"/>
			
				<rect x="815.2" y="577.6" transform="matrix(1 2.232461e-003 -2.232461e-003 1 1.3422 -1.8563)" class="st4" width="34" height="45.3"/>
			
				<rect x="815.2" y="577.6" transform="matrix(1 2.232461e-003 -2.232461e-003 1 1.3422 -1.8563)" class="st2" width="34" height="45.3"/>
			<path class="st3" d="M1358.8,790.5v189.7c0,0,0,0.1-0.1,0.1h-317.5c0,0-0.1,0-0.1-0.1v-18.4c0-0.1-0.1-0.1-0.1,0
				c-6.7,7.3-15.2,13-24.8,16.3c-6.7,2.3-13.9,3.6-21.4,3.4c-33.6-0.6-60.2-28.9-60.2-62.5V739.3c0,0,0-0.1,0.1-0.1h22.8
				c0,0,0,0,0.1,0l4.3,8.3c0,0,0.1,0,0.1,0l5.6-8.3c0,0,0,0,0.1,0h15.9c0,0,0.1,0,0.1,0c3.9-9.7,8.5-19,13.9-27.8c0,0,0.1,0,0.1,0
				c6.9,5,15.4,8,24.6,8c22.5,0,40.8-17.7,41.9-39.8c0-0.7,0.1-1.4,0.1-2.1c0-7.2-1.8-14.1-5.1-20c0,0,0-0.1,0-0.1
				c11.3-3,23.2-4.6,35.4-4.6h0.5v10.8c0,9.6,7.7,17.3,17.3,17.3h90.9c9.6,0,17.3-7.7,17.3-17.3v-10.8h0.5
				c30.4,0,58.4,9.8,81.2,26.5C1336.5,704.2,1358.8,744.8,1358.8,790.5"/>
			<rect x="948.4" y="815.9" class="st0" width="92.9" height="18.3"/>
			<rect x="948.4" y="864" class="st0" width="92.9" height="18.3"/>
			<rect x="948.4" y="767.8" class="st0" width="92.9" height="18.3"/>
			<rect x="948.4" y="912.1" class="st0" width="92.9" height="18.3"/>
			<path class="st0" d="M1298.7,786.1h60c-0.2-6.2-0.8-12.3-1.8-18.3h-58.2V786.1z"/>
			<path class="st0" d="M1062.3,689.9h252.8c-4.1-3.8-8.4-7.4-12.9-10.7c-3.7-2.7-7.6-5.2-11.6-7.6h-72c-2.9,5.5-8.7,9.2-15.3,9.2
				h-90.9c-6.6,0-12.4-3.7-15.3-9.2h-33.3c0.3,1.9,0.4,3.8,0.4,5.8c0,0.7,0,1.4-0.1,2.1C1063.9,683.1,1063.3,686.6,1062.3,689.9"/>
			<path class="st0" d="M1339.2,719.7H992.8c-3.2,5.9-6.1,12-8.6,18.3h364.2C1345.8,731.6,1342.7,725.5,1339.2,719.7"/>
			<path class="st0" d="M976.8,978.5h38.5c0.3-0.1,0.7-0.2,1-0.3c9.6-3.4,18.1-9,24.8-16.3c0,0,0.1,0,0.1,0v16.6h0.1v-18.3h-91.4
				C957,968.5,966.3,974.9,976.8,978.5"/>
			<rect x="1062.5" y="960.2" class="st0" width="215" height="18.3"/>
			<rect x="1298.7" y="912.1" class="st0" width="60.1" height="18.3"/>
			<rect x="1062.5" y="912.1" class="st0" width="215" height="18.3"/>
			<rect x="1298.7" y="864" class="st0" width="60.1" height="18.3"/>
			<rect x="1298.7" y="815.9" class="st0" width="60.1" height="18.3"/>
			<rect x="1298.7" y="960.2" class="st0" width="60.1" height="18.3"/>
			<rect x="1062.5" y="864" class="st0" width="215" height="18.3"/>
			<rect x="1062.5" y="815.9" class="st0" width="215" height="18.3"/>
			<rect x="1062.5" y="767.8" class="st0" width="215" height="18.3"/>
			<path class="st6" d="M1095,638.8v13.9h-0.5c-12.3,0-24.2,1.6-35.5,4.6c-1.2-2.2-2.6-4.3-4.1-6.2c-1.8-2.2-3.7-4.2-5.9-6
				C1063.9,642.5,1079.3,640.4,1095,638.8"/>
			<path class="st6" d="M1463.2,796.5c0,58.6-28.2,121.8-104.4,129v-135c0-45.7-22.3-86.3-56.6-111.3
				c-22.8-16.6-50.8-26.5-81.2-26.5h-0.5v-15.5C1347.9,647.5,1463.2,695.5,1463.2,796.5"/>
			<path class="st2" d="M1095,638.8v13.9h-0.5c-12.3,0-24.2,1.6-35.5,4.6c-1.2-2.2-2.6-4.3-4.1-6.2c-1.8-2.2-3.7-4.2-5.9-6
				C1063.9,642.5,1079.3,640.4,1095,638.8z"/>
			<path class="st2" d="M1463.2,796.5c0,58.6-28.2,121.8-104.4,129v-135c0-45.7-22.3-86.3-56.6-111.3
				c-22.8-16.6-50.8-26.5-81.2-26.5h-0.5v-15.5C1347.9,647.5,1463.2,695.5,1463.2,796.5z"/>
			<path class="st2" d="M1198.5,635.9c-12.5,5.5-26.2,8.6-40.7,8.6c-13.7,0-26.8-2.8-38.8-7.7C1145.2,635,1172,634.6,1198.5,635.9z"
				/>
			<path class="st3" d="M1220.5,622.5v41.1c0,9.5-7.7,17.2-17.2,17.2h-91.1c-9.5,0-17.2-7.7-17.2-17.2v-41.1
				c7.3,5.8,15.3,10.6,24,14.2c11.9,5,25,7.7,38.8,7.7c14.5,0,28.3-3.1,40.7-8.6C1206.5,632.4,1213.8,627.8,1220.5,622.5"/>
			<path class="st0" d="M1166.9,644c-3,0.3-6.1,0.4-9.1,0.4c-3.1,0-6.1-0.2-9.1-0.4v36.8h18.3V644z"/>
			<path class="st0" d="M1206.9,680.5v-48.8c-2.7,1.5-5.5,2.9-8.4,4.2c-3.2,1.4-6.5,2.7-9.9,3.8v41.2h14.7
				C1204.5,680.8,1205.7,680.7,1206.9,680.5"/>
			<path class="st0" d="M1108.7,631.7v48.8c1.2,0.2,2.3,0.4,3.6,0.4h14.7v-41.2c-2.7-0.9-5.4-1.8-7.9-2.9
				C1115.5,635.2,1112,633.5,1108.7,631.7"/>
			<path class="st2" d="M1220.5,622.5v41.1c0,9.5-7.7,17.2-17.2,17.2h-91.1c-9.5,0-17.2-7.7-17.2-17.2v-41.1
				c7.3,5.8,15.3,10.6,24,14.2c11.9,5,25,7.7,38.8,7.7c14.5,0,28.3-3.1,40.7-8.6C1206.5,632.4,1213.8,627.8,1220.5,622.5z"/>
			<path class="st2" d="M1220.5,616v6.5c-6.7,5.3-14.1,9.8-22,13.4c-12.5,5.5-26.2,8.6-40.7,8.6c-13.7,0-26.8-2.8-38.8-7.7
				c-8.7-3.6-16.7-8.4-24-14.2V616H1220.5z"/>
			<path class="st1" d="M1050.7,539.7h12.8c6.7,0,12.1-5.5,12.1-12.1v-23.2c0-6.7-5.5-12.1-12.1-12.1h-12.8
				c-6.7,0-12.1,5.5-12.1,12.1v23.2C1038.5,534.2,1044,539.7,1050.7,539.7"/>
			<path class="st2" d="M1050.7,539.7h12.8c6.7,0,12.1-5.5,12.1-12.1v-23.2c0-6.7-5.5-12.1-12.1-12.1h-12.8
				c-6.7,0-12.1,5.5-12.1,12.1v23.2C1038.5,534.2,1044,539.7,1050.7,539.7z"/>
			<path class="st1" d="M1252.1,539.7h12.8c6.7,0,12.1-5.5,12.1-12.1v-23.2c0-6.7-5.5-12.1-12.1-12.1h-12.8
				c-6.7,0-12.1,5.5-12.1,12.1v23.2C1239.9,534.2,1245.4,539.7,1252.1,539.7"/>
			<path class="st2" d="M1252.1,539.7h12.8c6.7,0,12.1-5.5,12.1-12.1v-23.2c0-6.7-5.5-12.1-12.1-12.1h-12.8
				c-6.7,0-12.1,5.5-12.1,12.1v23.2C1239.9,534.2,1245.4,539.7,1252.1,539.7z"/>
			<path class="st2" d="M1050.7,539.7h12.8c6.7,0,12.1-5.5,12.1-12.1v-23.2c0-6.7-5.5-12.1-12.1-12.1h-12.8
				c-6.7,0-12.1,5.5-12.1,12.1v23.2C1038.5,534.2,1044,539.7,1050.7,539.7z"/>
			<path class="st2" d="M1252.1,539.7h12.8c6.7,0,12.1-5.5,12.1-12.1v-23.2c0-6.7-5.5-12.1-12.1-12.1h-12.8
				c-6.7,0-12.1,5.5-12.1,12.1v23.2C1239.9,534.2,1245.4,539.7,1252.1,539.7z"/>
			<path class="st1" d="M1258.5,477.5v66.2c0,31.9-14.8,60.3-37.9,78.7c-6.7,5.3-14.1,9.8-22,13.4c-12.5,5.5-26.2,8.6-40.7,8.6
				c-13.7,0-26.8-2.8-38.8-7.7c-8.7-3.6-16.7-8.4-24-14.2c-23.1-18.4-37.9-46.9-37.9-78.7v-66.2H1258.5z"/>
			<path class="st2" d="M1258.5,477.5v66.2c0,31.9-14.8,60.3-37.9,78.7c-6.7,5.3-14.1,9.8-22,13.4c-12.5,5.5-26.2,8.6-40.7,8.6
				c-13.7,0-26.8-2.8-38.8-7.7c-8.7-3.6-16.7-8.4-24-14.2c-23.1-18.4-37.9-46.9-37.9-78.7v-66.2H1258.5z"/>
			<line class="st2" x1="1277" y1="979.6" x2="1277" y2="763"/>
			<line class="st2" x1="1041.2" y1="961.7" x2="1041.2" y2="762.9"/>
			<path class="st1" d="M957.6,739.3h-17.4c1.6-7.3,3.7-14.5,6.4-21.3L957.6,739.3z"/>
			<path class="st2" d="M957.6,739.3h-17.4c1.6-7.3,3.7-14.5,6.4-21.3L957.6,739.3z"/>
			<path class="st1" d="M1022.2,635.5c5.1,0,10,0.9,14.6,2.6c4.5,1.7,8.6,4.1,12.2,7.1c2.1,1.8,4.1,3.8,5.9,6c1.6,1.9,2.9,4,4.1,6.2
				c3.2,6,5.1,12.8,5.1,20.1c0,0.7,0,1.4-0.1,2.1c-1.1,22.2-19.4,39.8-41.9,39.8c-9.2,0-17.7-3-24.6-8c-5.4,8.9-10,18.2-13.9,27.9
				h-16l23-34.3l6-8.9c6.6-9.8,0.1-23-11.7-23.7c-5.7-0.4-1.8-0.1-16.7-1.3C970.1,669.3,989.2,635.5,1022.2,635.5"/>
			<path class="st2" d="M1022.2,635.5c5.1,0,10,0.9,14.6,2.6c4.5,1.7,8.6,4.1,12.2,7.1c2.1,1.8,4.1,3.8,5.9,6c1.6,1.9,2.9,4,4.1,6.2
				c3.2,6,5.1,12.8,5.1,20.1c0,0.7,0,1.4-0.1,2.1c-1.1,22.2-19.4,39.8-41.9,39.8c-9.2,0-17.7-3-24.6-8c-5.4,8.9-10,18.2-13.9,27.9
				h-16l23-34.3l6-8.9c6.6-9.8,0.1-23-11.7-23.7c-5.7-0.4-1.8-0.1-16.7-1.3C970.1,669.3,989.2,635.5,1022.2,635.5z"/>
			<path class="st6" d="M996.6,696.1l-6,8.9l-23,34.3l-5.7,8.5l-4.4-8.5L946.7,718l-25.6-49.7l56.2,3.6l3.4,0.2l4.3,0.3
				C996.7,673.1,1003.2,686.3,996.6,696.1"/>
			<path class="st2" d="M957.6,739.3h-17.4c1.6-7.3,3.7-14.5,6.4-21.3L957.6,739.3z"/>
			<path class="st7" d="M1022.2,635.5c5.1,0,10,0.9,14.6,2.6c4.5,1.7,8.6,4.1,12.2,7.1c2.1,1.8,4.1,3.8,5.9,6c1.6,1.9,2.9,4,4.1,6.2
				c3.2,6,5.1,12.8,5.1,20.1c0,0.7,0,1.4-0.1,2.1c-1.1,22.2-19.4,39.8-41.9,39.8c-9.2,0-17.7-3-24.6-8c-5.4,8.9-10,18.2-13.9,27.9
				h-16l23-34.3l6-8.9c6.6-9.8,0.1-23-11.7-23.7c-5.7-0.4-1.8-0.1-16.7-1.3C970.1,669.3,989.2,635.5,1022.2,635.5z"/>
			<polyline class="st2" points="1000.7,928.2 1000.7,914.7 1000.7,739.3 983.7,739.3 			"/>
			<path class="st2" d="M1358.8,790.5v189.7c0,0,0,0.1-0.1,0.1h-317.5c0,0-0.1,0-0.1-0.1v-18.4c0-0.1-0.1-0.1-0.1,0
				c-6.7,7.3-15.2,13-24.8,16.3c-6.7,2.3-13.9,3.6-21.4,3.4c-33.6-0.6-60.2-28.9-60.2-62.5V739.3c0,0,0-0.1,0.1-0.1h22.8
				c0,0,0,0,0.1,0l4.3,8.3c0,0,0.1,0,0.1,0l5.6-8.3c0,0,0,0,0.1,0h15.9c0,0,0.1,0,0.1,0c3.9-9.7,8.5-19,13.9-27.8c0,0,0.1,0,0.1,0
				c6.9,5,15.4,8,24.6,8c22.5,0,40.8-17.7,41.9-39.8c0-0.7,0.1-1.4,0.1-2.1c0-7.2-1.8-14.1-5.1-20c0,0,0-0.1,0-0.1
				c11.3-3,23.2-4.6,35.4-4.6h0.5v10.8c0,9.6,7.7,17.3,17.3,17.3h90.9c9.6,0,17.3-7.7,17.3-17.3v-10.8h0.5
				c30.4,0,58.4,9.8,81.2,26.5C1336.5,704.2,1358.8,744.8,1358.8,790.5z"/>
			<path class="st2" d="M996.6,696.1l-6,8.9l-23,34.3l-5.7,8.5l-4.4-8.5L946.7,718l-25.6-49.7l56.2,3.6l3.4,0.2l4.3,0.3
				C996.7,673.1,1003.2,686.3,996.6,696.1z"/>
			<path class="st8" d="M1015.3,718.8c6.2-5.3,10-13.2,10-21.9c0-6.7-2.3-12.9-6.1-17.8"/>
			<path class="st8" d="M1032.7,718c6-6.1,9.7-14.5,9.7-23.7c0-7.8-2.7-15.1-7.2-20.8"/>
			<path class="st8" d="M1054.3,704.4c1.6-4.2,2.5-8.7,2.5-13.5c0-8.8-3-17-8.1-23.4"/>
			<path class="st1" d="M1184.7,477c-15,14.9-39.1,14.9-54.1,0c-6.8-6.8-14.3-11.6-22.1-11.6c-31.2,0-56.4,19.7-56.4,44
				c0,24.3,25.3,44,56.4,44c13.3,0,25.5-3.6,35.2-9.6c8.6-5.4,19.4-5.4,28,0c9.6,6,21.9,9.6,35.2,9.6c31.2,0,56.4-19.7,56.4-44
				c0-24.3-25.3-44-56.4-44C1198.9,465.4,1191.5,470.3,1184.7,477"/>
			<path class="st7" d="M1184.5,478c-14.9,16.2-38.9,16.2-53.8,0c-6.8-7.4-14.2-12.6-22-12.6c-31,0-56.1,21.4-56.1,47.8
				c0,26.4,25.1,47.8,56.1,47.8c13.2,0,25.4-3.9,35-10.4c8.6-5.8,19.3-5.8,27.8,0c9.6,6.5,21.7,10.4,35,10.4
				c31,0,56.1-21.4,56.1-47.8c0-26.4-25.1-47.8-56.1-47.8C1198.7,465.4,1191.3,470.7,1184.5,478z"/>
			<path class="st0" d="M1260.9,437.5h-206.3c12.2-45.5,53.8-79,103.2-79c29.5,0,56.2,12,75.5,31.3
				C1246.4,402.8,1256,419.2,1260.9,437.5"/>
			<path class="st2" d="M1260.9,437.5h-206.3c12.2-45.5,53.8-79,103.2-79c29.5,0,56.2,12,75.5,31.3
				C1246.4,402.8,1256,419.2,1260.9,437.5z"/>
			<path class="st0" d="M1279.7,450.8v26.3c0,7.4-6,13.3-13.3,13.3h-217.1c-7.4,0-13.3-6-13.3-13.3v-26.3c0-7.3,6-13.3,13.3-13.3
				h217.1C1273.7,437.5,1279.7,443.4,1279.7,450.8"/>
			<path class="st2" d="M1279.7,450.8v26.3c0,7.4-6,13.3-13.3,13.3h-217.1c-7.4,0-13.3-6-13.3-13.3v-26.3c0-7.3,6-13.3,13.3-13.3
				h217.1C1273.7,437.5,1279.7,443.4,1279.7,450.8z"/>
			<path class="st2" d="M1260.9,437.5h-206.3c12.2-45.5,53.8-79,103.2-79c29.5,0,56.2,12,75.5,31.3
				C1246.4,402.8,1256,419.2,1260.9,437.5z"/>
			<path class="st2" d="M1279.7,450.8v26.3c0,7.4-6,13.3-13.3,13.3h-217.1c-7.4,0-13.3-6-13.3-13.3v-26.3c0-7.3,6-13.3,13.3-13.3
				h217.1C1273.7,437.5,1279.7,443.4,1279.7,450.8z"/>
			<line class="st2" x1="1076.5" y1="437.5" x2="1076.5" y2="490.4"/>
			<line class="st2" x1="1117.2" y1="437.5" x2="1117.2" y2="490.4"/>
			<line class="st2" x1="1157.8" y1="437.5" x2="1157.8" y2="490.4"/>
			<line class="st2" x1="1198.4" y1="437.5" x2="1198.4" y2="490.4"/>
			<line class="st2" x1="1239" y1="437.5" x2="1239" y2="490.4"/>
			<path class="st1" d="M1137.6,602.1c5.3,2.2,12.3,3.5,20.1,3.5c0.1,0,0.3,0,0.4,0c0.1,0,0.3,0,0.4,0c7.8,0,14.9-1.3,20.1-3.5"/>
			<path class="st2" d="M1137.6,602.1c5.3,2.2,12.3,3.5,20.1,3.5c0.1,0,0.3,0,0.4,0c0.1,0,0.3,0,0.4,0c7.8,0,14.9-1.3,20.1-3.5"/>
			<path class="st1" d="M1136.5,520.1c0-10.7-12.3-19.3-27.4-19.3c-15.1,0-27.4,8.6-27.4,19.3c0,10.7,12.3,19.3,27.4,19.3
				C1124.2,539.4,1136.5,530.8,1136.5,520.1"/>
			<ellipse class="st2" cx="1109.1" cy="520.1" rx="27.4" ry="19.3"/>
			<path class="st1" d="M1178.1,520.1c0-10.7,12.3-19.3,27.4-19.3c15.1,0,27.4,8.6,27.4,19.3c0,10.7-12.3,19.3-27.4,19.3
				C1190.4,539.4,1178.1,530.8,1178.1,520.1"/>
			<ellipse class="st2" cx="1205.5" cy="520.1" rx="27.4" ry="19.3"/>
			<path class="st4" d="M1117.8,520.6c0-4.8-3.9-8.7-8.7-8.7c-4.8,0-8.7,3.9-8.7,8.7c0,4.8,3.9,8.7,8.7,8.7
				C1113.9,529.3,1117.8,525.4,1117.8,520.6"/>
			<circle class="st2" cx="1109.1" cy="520.6" r="8.7"/>
			<path class="st4" d="M1196.8,520.6c0-4.8,3.9-8.7,8.7-8.7c4.8,0,8.7,3.9,8.7,8.7c0,4.8-3.9,8.7-8.7,8.7
				C1200.7,529.3,1196.8,525.4,1196.8,520.6"/>
			<circle class="st2" cx="1205.5" cy="520.6" r="8.7"/>
			<path class="st2" d="M1171.7,566.9c0,4.5-3.6,8.1-8.1,8.1h-4.1"/>
			<line class="st2" x1="1152.7" y1="575" x2="1149.4" y2="575"/>
		</g>
	</g>
</g>
</svg>
