<?xml version="1.0" encoding="utf-8"?>
<!-- Generator: Adobe Illustrator 19.0.1, SVG Export Plug-In . SVG Version: 6.00 Build 0)  -->
<svg version="1.1" id="Шар_1" xmlns="http://www.w3.org/2000/svg" xmlns:xlink="http://www.w3.org/1999/xlink" x="0px" y="0px"
	 viewBox="0 0 1920 1080" style="enable-background:new 0 0 1920 1080;" xml:space="preserve">
<style type="text/css">
	.st0{fill:#92D8D3;}
	.st1{fill:#00A499;}
	.st2{fill:none;stroke:#00A499;stroke-width:5;stroke-linecap:round;stroke-linejoin:round;}
	.st3{fill:none;stroke:#00A499;stroke-width:5;stroke-linecap:round;stroke-linejoin:round;stroke-dasharray:0.983,13.758;}
	.st4{fill:none;stroke:#00A499;stroke-width:5;stroke-linecap:round;stroke-linejoin:round;stroke-dasharray:1.003,14.046;}
	.st5{fill:none;stroke:#00A499;stroke-width:5;stroke-linecap:round;stroke-linejoin:round;stroke-dasharray:1.027,14.373;}
	.st6{fill:none;stroke:#00A499;stroke-width:5;stroke-linecap:round;stroke-linejoin:round;stroke-dasharray:0.879,12.302;}
	.st7{fill:none;stroke:#00A499;stroke-width:5;stroke-linecap:round;stroke-linejoin:round;stroke-dasharray:0.934,13.081;}
	.st8{fill:none;stroke:#00A499;stroke-width:5;stroke-linecap:round;stroke-linejoin:round;stroke-dasharray:1.096,15.341;}
	.st9{fill:none;stroke:#053544;stroke-width:3;stroke-linecap:round;stroke-linejoin:round;stroke-miterlimit:10;}
	.st10{fill:#F2F2F2;}
	.st11{fill:#FFFFFF;}
</style>
<g>
	<g>
		<g>
			<g>
				<path class="st0" d="M614.8,731.5c0,0,0,0.1,0,0.1c-0.6,3.8-3.9,6.7-7.8,6.7h-30.2c-1.7,0-3.1,1.4-3,3.1c0,1.7,1.5,2.9,3.2,2.9
					H598c5.7,0,8.5,6.8,4.6,10.9c0,0-0.1,0.1-0.1,0.1c-2.2,2.3-5.3,3.6-8.4,3.6h-30.8c-1.4,0-2.7,1.1-2.7,2.5c0,1.5,1.1,2.7,2.6,2.7
					h17.1c2.9,0,3.6,4,1,5c-8.2,3.2-17.4,5-27.1,5c-20.8,0-39.1-8.2-50.2-20.7c7.7-11,18.9-21.1,35.2-33.2c0.2-0.1,0-0.4-0.2-0.3
					c-14,6.1-27.6,16.1-38.9,28.5c-4.5-6.7-7.1-14.4-7.1-22.6c0-26.7,27.4-48.4,61.1-48.4c16.7,0,31.8,5.3,42.8,13.8
					c3.3,2.6,1.5,7.9-2.7,7.9h-28.9c-2.1,0-3.7,1.7-3.6,3.8c0.1,1.9,1.8,3.3,3.7,3.3h26.3c3.3,0,5.9,2.7,5.8,6.1
					c-0.1,3.1-2.8,5.5-5.9,5.5h-16.6c-1.9,0-3.4,1.6-3.3,3.5c0.1,1.8,1.7,3.1,3.4,3.1h33.8C612.4,724.6,615.3,727.8,614.8,731.5"/>
				<path class="st1" d="M539.2,720.3c-33.4,24.8-45.6,40.9-49.1,74.4h-15.5c7.9-33,35.6-62.2,64.4-74.8
					C539.2,719.9,539.3,720.2,539.2,720.3"/>
				<line class="st2" x1="491.2" y1="502.7" x2="491.5" y2="503"/>
				<line class="st3" x1="500.2" y1="513.7" x2="729.1" y2="793.7"/>
				<line class="st2" x1="733.5" y1="799" x2="733.8" y2="799.4"/>
				<line class="st2" x1="533.2" y1="502.7" x2="533.5" y2="503"/>
				<line class="st3" x1="542.2" y1="513.7" x2="771.1" y2="793.7"/>
				<line class="st2" x1="775.5" y1="799" x2="775.8" y2="799.4"/>
				<line class="st2" x1="575.2" y1="502.7" x2="575.5" y2="503"/>
				<line class="st3" x1="584.2" y1="513.7" x2="813.1" y2="793.7"/>
				<line class="st2" x1="817.5" y1="799" x2="817.8" y2="799.4"/>
				<line class="st2" x1="617.2" y1="502.7" x2="617.5" y2="503"/>
				<line class="st3" x1="626.2" y1="513.7" x2="855.1" y2="793.7"/>
				<line class="st2" x1="859.5" y1="799" x2="859.8" y2="799.4"/>
				<path class="st2" d="M659.2,502.7c0,0,0.1,0.1,0.3,0.4"/>
				<path class="st4" d="M668.4,513.9c14.9,18.2,46.3,56.6,81.3,99.4"/>
				<path class="st2" d="M754.1,618.8c0.1,0.1,0.2,0.3,0.3,0.4"/>
				<path class="st2" d="M853.1,739.8c0.1,0.1,0.2,0.3,0.3,0.4"/>
				<path class="st5" d="M862.5,751.3c15.8,19.3,28.1,34.3,34.4,42.1"/>
				<path class="st2" d="M901.5,799c0.2,0.3,0.3,0.4,0.3,0.4"/>
				<path class="st2" d="M701.2,502.7c0,0,0.1,0.1,0.3,0.4"/>
				<path class="st6" d="M709.3,512.6c5.1,6.2,12.3,15.1,21.1,25.8"/>
				<path class="st2" d="M734.3,543.2c0.1,0.1,0.2,0.3,0.3,0.4"/>
				<path class="st2" d="M899.4,745.1c0.1,0.1,0.2,0.3,0.3,0.4"/>
				<path class="st7" d="M908,755.6c14.4,17.6,25.5,31.2,31.4,38.3"/>
				<path class="st2" d="M943.5,799c0.2,0.3,0.3,0.4,0.3,0.4"/>
				<path class="st2" d="M933.8,735.8c0.1,0.1,0.2,0.3,0.3,0.4"/>
				<path class="st8" d="M943.9,748.1c16.8,20.5,29.9,36.6,36.8,45"/>
				<path class="st2" d="M985.5,799c0.2,0.3,0.3,0.4,0.3,0.4"/>
				<path class="st9" d="M545.1,380c-5.9-11.8-18.1-19.8-32.2-19.8c-19.9,0-36.1,16.2-36.1,36.1"/>
				<line class="st9" x1="490.9" y1="396.3" x2="413.4" y2="396.3"/>
				<line class="st9" x1="527.6" y1="380" x2="564.5" y2="380"/>
				<path class="st9" d="M774.5,443.7c-9.4-7.3-21.1-11.7-34-11.7c-12,0-23,3.9-32,10.3c-5.9-32.5-34.4-57.1-68.6-57.1
					c-37,0-67.2,28.8-69.6,65.2c-10.1-11.3-24.7-18.4-41-18.4c-30.4,0-55.1,24.7-55.1,55.1c0,0.2,0,0.4,0,0.6h278.8"/>
				<path class="st9" d="M763.7,361c0-18,14.6-32.6,32.6-32.6c18,0,32.6,14.6,32.6,32.6"/>
				<line class="st9" x1="844.1" y1="361" x2="800.6" y2="361"/>
				<line class="st9" x1="784.1" y1="361" x2="704" y2="361"/>
				<path class="st9" d="M783,318.7c-0.5-16.3-13.9-29.4-30.4-29.4c-14.2,0-26.2,9.8-29.5,23c-4-3.7-9.4-5.9-15.3-5.9
					c-12.5,0-22.6,10.1-22.6,22.6c0,0.7,0,1.4,0.1,2.1"/>
				<line class="st9" x1="656.6" y1="331" x2="699.3" y2="331"/>
				<path class="st0" d="M381.9,817.5L381.9,817.5c0,12.8,10.4,23.2,23.2,23.2h129.2c9.7,0,17.5,7.8,17.5,17.5
					c0,9.7-7.8,17.5-17.5,17.5H496c-14.1,0-25.6,11.5-25.6,25.6c0,14.1,11.5,25.6,25.6,25.6h184.9c7.5,0,13.5,6,13.5,13.5
					s-6,13.5-13.5,13.5h-19.8c-15.9,0-28.8,12.9-28.8,28.8c0,15.9,12.9,28.8,28.8,28.8h331.5c20.1,0,36.4-16.3,36.4-36.4
					s-16.3-36.4-36.4-36.4h-16.4c-18.1,0-32.7-14.7-32.7-32.7c0-18.1,14.7-32.7,32.7-32.7h316.3c9.8,0,17.8,8,17.8,17.8
					c0,9.8-8,17.8-17.8,17.8h-27.3c-13.7,0-24.9,11.1-24.9,24.9s11.1,24.9,24.9,24.9h176.1c13.7,0,24.9-11.1,24.9-24.9
					s-11.1-24.9-24.9-24.9h-30.6c-14.6,0-26.4-11.8-26.4-26.4c0-14.6,11.8-26.4,26.4-26.4h96.4c17.1,0,30.9-13.8,30.9-30.9
					c0-17.1-13.8-30.9-30.9-30.9H405C392.2,794.4,381.9,804.7,381.9,817.5"/>
				<path class="st0" d="M926.4,701.6c-9.4,0-18.9-0.9-28.2-2.7c-50.3-9.9-91.5-45.3-110.3-94.9l-3-7.9l5.2-6.7
					c16.5-21.3,35.4-40.2,56.5-56.5c-15.2,7.6-29.8,16.8-43.7,27.5l-25,19.3l-0.6-31c-0.2-12.4,1-24.9,3.5-37.3
					c9.3-45,36.5-84.5,74.6-108.2c4-2.5,8.3-4.9,12.6-7.2l0.4-0.2c4.4-2.1,9-4.1,13.5-5.9c4.7-1.9,9.2-3.5,13.8-5
					c9.4-3.3,19.1-5.9,28.8-7.8c4.8-0.9,9.9-1.7,14.9-2.3c6.8-0.8,13.9-1.3,21.1-1.3c32.6,0,64.2,8.6,87.7,23.6
					c17.2-15.9,39.1-24.7,62.1-24.7c5.7,0,11.3,0.6,16.9,1.6c31.6,6.2,56.6,29.1,67,59.3c12.5-7.1,26.6-10.9,40.9-10.9
					c24.1,0,46.4,11,59.4,29.6c22.8,32.2,12.4,77.8-23.1,101.6c-10.7,7.2-22.6,11.7-35.1,13.4c-0.2,2.3-0.6,4.6-1,7
					c-5.9,28.7-30.7,49.5-58.8,49.5c-3.6,0-7.3-0.4-10.9-1.1c-3.4-0.7-6.7-1.6-9.9-2.9c-10.1,32.5-39.5,55.4-72.7,55.4
					c-4.6,0-9.2-0.5-13.8-1.3c-13.2-2.6-25.1-8.7-34.7-17.6C1005.2,685.2,966.7,701.6,926.4,701.6"/>
				<path class="st1" d="M1262.9,457.2c-17.9-26-55.4-31.2-83.7-11.7c-5.4,3.7-10.1,8.1-14.1,12.9c-1.4-36.4-25.2-67.8-59.6-74.8
					c-28.2-5.7-56.3,6.6-73.9,29.5c-27.8-24.4-72.8-33.1-108.9-28.4c-4.6,0.5-9.2,1.3-13.8,2.2c-9.1,1.8-18.1,4.3-26.7,7.4
					c-4.4,1.5-8.7,3-13,4.8c-4.2,1.7-8.4,3.6-12.6,5.7c-4,2.1-7.8,4.3-11.5,6.7c-33.3,21.3-58.8,57-67.6,100.8
					c-2.4,11.8-3.4,23.4-3.2,34.9c41.7-33.1,92.2-54.3,149.5-58.5c3.5-0.3,4.6,4.7,1.3,5.9c-59,22-106.3,58-141.2,104.1
					c16.3,44,52.1,78,98.7,87.4c51.1,10.3,101.8-11.8,133.8-53c8.1,13.8,21.1,23.9,37.2,27.2c31.7,6.4,63-16.5,69.9-51
					c1.2-6.2,1.6-12.3,1.2-18.2c6,8.5,14.7,14.6,25.2,16.7c23.2,4.7,46.1-12.1,51.2-37.4c1.3-6.6,1.3-13.1,0.2-19.2
					c14.2,1.2,29.3-2.5,42.5-11.6C1272.3,520,1280.8,483.2,1262.9,457.2"/>
				<path class="st10" d="M742.7,576.2c-61.1,64.9-96.4,158.6-96.4,257.8h65.8c0-158.6,74.1-287.6,213.1-339.5
					c3.3-1.2,2.2-6.2-1.3-5.9c-69.8,5.1-129.6,35.5-175.6,81.9"/>
				<path class="st9" d="M780.5,603.3c35.2-48.4,83.7-86,144.7-108.8"/>
				<path class="st9" d="M742.7,576.2c-61.1,64.9-96.4,158.6-96.4,257.8"/>
				<path class="st9" d="M712.1,834c0-80.4,19-153.2,55.9-212.2"/>
				<path class="st9" d="M1044.7,372.2c-28.7-15.1-61.4-23.6-96-23.6c-114.3,0-206.9,92.7-206.9,206.9c0,7,0.3,13.9,1,20.8"/>
				<path class="st9" d="M1188.2,419.4c-11-38.2-46.2-66.1-88-66.1c-25.7,0-49,10.6-65.6,27.7"/>
				<path class="st9" d="M1281.2,428.4c-11-16-29.4-26.4-50.3-26.4c-19.3,0-36.5,9-47.7,22.9"/>
				<path class="st9" d="M763.5,629.5c18.9,58.6,74,101,138.9,101c47.2,0,89.1-22.4,115.8-57.1"/>
				<path class="st9" d="M1015.3,678.4c12.7,15.4,34.2,25.6,58.7,25.6c34.6,0,63.5-20.4,69.5-47.3"/>
				<path class="st9" d="M1156.5,642.8c6.7,4.9,14.9,7.7,23.8,7.7c20,0,36.6-14.5,39.9-33.5"/>
				<path class="st9" d="M1219.5,624.2c2.2,0.7,4.6,1.1,7,1.1c13.2,0,23.9-10.7,23.9-23.8c0-3.8-0.9-7.5-2.5-10.7"/>
				<path class="st0" d="M1073.6,600.5c-12.9,8.3-18.5,19.5-21,33.1c13.4,3.4,25.9,2.9,38.9-5.4s23.6-22.8,26.1-36.4
					C1104.1,588.4,1086.5,592.2,1073.6,600.5"/>
				<path class="st0" d="M1168,532.8c-10.7-5.3-20.4-4.7-30.5-0.9c3.1,10.3,8.3,18.5,19,23.8c10.7,5.3,24.6,6.8,34.7,3
					C1188.2,548.5,1178.7,538.2,1168,532.8"/>
				<path class="st0" d="M1105.5,436.5c-9,7.9-12.1,17.1-12.5,27.8c10.7,1.1,20.3-0.7,29.3-8.5c9-7.9,15.6-20.2,16-30.9
					C1127.6,423.8,1114.5,428.7,1105.5,436.5"/>
				<path class="st9" d="M1073.6,600.5c-12.9,8.3-18.5,19.5-21,33.1c13.4,3.4,25.9,2.9,38.9-5.4c12.9-8.3,23.6-22.8,26.1-36.4
					C1104.1,588.4,1086.5,592.2,1073.6,600.5z"/>
				<line class="st9" x1="1052.6" y1="633.7" x2="1091.2" y2="608.8"/>
				<path class="st9" d="M1168,532.8c-10.7-5.3-20.4-4.7-30.5-0.9c3.1,10.3,8.3,18.5,19,23.8c10.7,5.3,24.6,6.8,34.7,3
					C1188.2,548.5,1178.7,538.2,1168,532.8z"/>
				<line class="st9" x1="1137.5" y1="531.9" x2="1169.5" y2="547.9"/>
				<path class="st9" d="M1105.5,436.5c-9,7.9-12.1,17.1-12.5,27.8c10.7,1.1,20.3-0.7,29.3-8.5c9-7.9,15.6-20.2,16-30.9
					C1127.6,423.8,1114.5,428.7,1105.5,436.5z"/>
				<line class="st9" x1="1093" y1="464.4" x2="1119.9" y2="440.9"/>
				<path class="st9" d="M1342.6,494.8c-13,2.6-21,9.9-27.2,20c9.7,6.9,19.9,10.4,32.9,7.8c13-2.6,26.1-10.9,32.4-21.1
					C1370.9,494.6,1355.6,492.1,1342.6,494.8z"/>
				<line class="st9" x1="1315.4" y1="514.8" x2="1354.1" y2="506.9"/>
				<path class="st9" d="M1450.7,449.7c-9.6-0.8-16.6,2.6-23,8.4c5.4,6.8,11.8,11.3,21.3,12.1c9.6,0.8,20.4-2.3,26.8-8.1
					C1470.4,455.4,1460.3,450.5,1450.7,449.7z"/>
				<line class="st9" x1="1427.7" y1="458.1" x2="1456.3" y2="460.5"/>
				<path class="st9" d="M795.9,586.4c0,17.3,19,34.5,51.1,34.5H959"/>
				<path class="st9" d="M852.5,620.9l12.9-14.9c7.6-8.8,18.7-13.8,30.3-13.8h37.1"/>
				<path class="st9" d="M894.8,620.9l12.3,17.1c8.5,11.9,22.2,18.9,36.8,18.9h31.4"/>
				<path class="st9" d="M850.3,536.8c7.6,20.6,27.9,30.1,55.4,30.1h128.4"/>
				<path class="st9" d="M979.3,566.9c0-59.7,41.7-50.1,111.4-50.1"/>
				<path class="st9" d="M1042.7,516.3v-3.9c0-13.9,11.3-25.2,25.2-25.2h9.6"/>
				<path class="st9" d="M1074.8,516.7L1074.8,516.7c0,12,9.8,21.8,21.8,21.8h24.7"/>
				<path class="st9" d="M874.5,493.9v-11c0-20,16.2-36.2,36.2-36.2H1023"/>
				<path class="st9" d="M940.7,446.7c0-15.1,12.7-30.2,28.9-30.2"/>
				<path class="st9" d="M966.5,446.7v0.8c0,11,8.9,20,20,20h20.9"/>
				<line class="st9" x1="1199.3" y1="470.1" x2="1287.2" y2="470.1"/>
				<path class="st9" d="M1247.9,470.1L1247.9,470.1c0,10.2,8.3,18.5,18.5,18.5h8.2"/>
				<line class="st9" x1="1219.1" y1="524.8" x2="1258.4" y2="524.8"/>
				<line class="st9" x1="1331.3" y1="439.7" x2="1373.1" y2="439.7"/>
				<line class="st9" x1="1421.7" y1="514.2" x2="1451.7" y2="514.2"/>
				<line class="st9" x1="1348.8" y1="565.7" x2="1380.6" y2="565.7"/>
				<path class="st0" d="M1180.7,929.7L1180.7,929.7c0-6.6,5.4-12,12-12h9.4c5.2,0,9.4-4.2,9.4-9.4s-4.2-9.4-9.4-9.4H999.3
					c-5.2,0-9.4,4.2-9.4,9.4s4.2,9.4,9.4,9.4h151.4c6.6,0,12,5.4,12,12c0,6.6-5.4,12-12,12h-3c-6.4,0-11.6,5.2-11.6,11.6
					s5.2,11.6,11.6,11.6h56.7c6.4,0,11.6-5.2,11.6-11.6s-5.2-11.6-11.6-11.6h-11.6C1186.1,941.7,1180.7,936.3,1180.7,929.7"/>
				<polygon class="st11" points="1242.2,750.6 1242.2,836.2 1408.6,836.2 1408.6,759 1253.2,759 				"/>
				<polygon class="st0" points="1408.6,750.6 1330.9,691 1164.5,691 1242.2,750.6 1253.2,759 1408.6,759 1419.6,759 				"/>
				<polygon class="st10" points="1164.5,691 1086.7,750.6 1086.7,836.2 1242.2,836.2 1242.2,750.6 				"/>
				<polygon class="st9" points="1408.6,759 1408.6,836.2 1242.2,836.2 1242.2,750.6 1253.2,759 				"/>
				<polygon class="st9" points="1419.6,759 1253.2,759 1242.2,750.6 1164.5,691 1330.9,691 1408.6,750.6 				"/>
				<polygon class="st9" points="1242.2,750.6 1242.2,836.2 1086.7,836.2 1086.7,750.6 1164.5,691 				"/>
				<line class="st9" x1="1086.7" y1="750.6" x2="1075.8" y2="759"/>
				<rect x="1117.7" y="782.9" class="st0" width="19" height="15.3"/>
				<rect x="1117.7" y="778.2" class="st9" width="19" height="20"/>
				<rect x="1264.9" y="785.4" class="st0" width="19" height="21.2"/>
				<rect x="1264.9" y="778.9" class="st9" width="19" height="27.7"/>
				<rect x="1312.6" y="785.4" class="st0" width="19" height="21.2"/>
				<rect x="1312.6" y="778.9" class="st9" width="19" height="27.7"/>
				<rect x="1360.3" y="785.4" class="st0" width="19" height="21.2"/>
				<rect x="1360.3" y="778.9" class="st9" width="19" height="27.7"/>
				<rect x="1177.7" y="769.7" class="st1" width="26.7" height="66.5"/>
				<rect x="1177.7" y="769.7" class="st9" width="26.7" height="66.5"/>
				<path class="st1" d="M663,852.2h33.5c-9.8-17.3-17.6-25-33.5-36.9c18.6,3.1,27.6,7,40.8,18.4c0.4-15,2.1-23.7,8.9-35.5
					c6.7,11.8,8.4,20.5,8.9,35.5c13.2-11.4,22.2-15.4,40.8-18.4c-15.9,11.9-23.7,19.6-33.5,36.9h54.3"/>
				<path class="st9" d="M663,852.2h33.5c-9.8-17.3-17.6-25-33.5-36.9c18.6,3.1,27.6,7,40.8,18.4c0.4-15,2.1-23.7,8.9-35.5
					c6.7,11.8,8.4,20.5,8.9,35.5c13.2-11.4,22.2-15.4,40.8-18.4c-15.9,11.9-23.7,19.6-33.5,36.9h54.3"/>
			</g>
		</g>
	</g>
</g>
</svg>
