<?xml version="1.0" encoding="utf-8"?>
<!-- Generator: Adobe Illustrator 19.0.1, SVG Export Plug-In . SVG Version: 6.00 Build 0)  -->
<svg version="1.1" id="Шар_1" xmlns="http://www.w3.org/2000/svg" xmlns:xlink="http://www.w3.org/1999/xlink" x="0px" y="0px"
	 viewBox="0 0 1920 1080" style="enable-background:new 0 0 1920 1080;" xml:space="preserve">
<style type="text/css">
	.st0{fill:#92D8D3;}
	.st1{fill:#00A499;}
	.st2{fill:none;stroke:#053544;stroke-width:3;stroke-linecap:round;stroke-linejoin:round;stroke-miterlimit:10;}
	.st3{fill:#FFFFFF;}
	.st4{fill:#F2F2F2;}
</style>
<g>
	<g>
		<path class="st0" d="M1470.6,749.6L1470.6,749.6c0-13.3-10.8-24.2-24.2-24.2H434.2c-13.3,0-24.2,10.8-24.2,24.2
			s10.8,24.2,24.2,24.2h124.6c11.3,0,20.4,9.2,20.4,20.4s-9.2,20.4-20.4,20.4h-77c-13.3,0-24.2,10.8-24.2,24.2s10.8,24.2,24.2,24.2
			h173.5c4.4,0,8.1,3.6,8.1,8.1c0,4.4-3.6,8.1-8.1,8.1h-64.6c-10.4,0-18.9,8.4-18.9,18.9c0,10.4,8.4,18.9,18.9,18.9H1232
			c10.4,0,18.9-8.4,18.9-18.9c0-10.4-8.4-18.9-18.9-18.9h-49.7c-4.4,0-8.1-3.6-8.1-8.1c0-4.4,3.6-8.1,8.1-8.1h303.5
			c13.3,0,24.2-10.8,24.2-24.2s-10.8-24.2-24.2-24.2h-49.4c-11.3,0-20.4-9.2-20.4-20.4s9.2-20.4,20.4-20.4h10
			C1459.8,773.8,1470.6,763,1470.6,749.6"/>
		<path class="st1" d="M552.1,419.7c82.4,20,47.5,45.9,69.4,89.7c13.1,26.2,47.8,12.4,47.8-15.5c0-30.8-37.4-26.4-37.4-68.7
			c0-17,7.3-27.1,19.5-38.1c-0.5,3.7-0.8,7.5-0.8,11.4c0,55.6,55.7,25.5,55.7,75.5c0,10.7-7.4,30.1,9.8,30.1
			c11.6,0,26.9-16,26.9-33.3c0-13.6-10.2-23.8-10.2-40.7c0-9.5,3.4-18.5,12-24.7c-0.6,2.8-1,5.7-1,8.6c0,42.2,65.9,5.1,65.9,114.2
			c0,94.1-102,124.5-130.9,124.5c-77.5,0-114.8-60.6-114.8-97.6c0-20.4,13.5-48.2,13.5-76.6c0-11.2-2.2-22-8.3-31.9
			c-7.6-12.4-18-21.9-26.9-28.5C545.7,418.4,549,419,552.1,419.7"/>
		<path class="st1" d="M698.2,335.9c10.4,7.1,20.1,15.4,20.1,30.1c0,14.1-12,30.9-12,48.6c0,4,0.5,7.5,1.5,10.7
			c-13.2-6.4-23.1-17.2-23.1-32.8c0-17.7,15-32,15-46.2C699.8,342.7,699.1,339.3,698.2,335.9"/>
		<path class="st1" d="M1136.8,461.5c-46.5-32.9,0.4-86.5-2.2-121.4c6.6,6.5,12.2,13.4,13.7,17.8c6.3,18-4.9,49.4,23.7,49.4
			c9.7,0,14.5-8.2,14.5-17.7c0-15.3-10.2-26.5,7.4-43c-8.5,30.2,24.7,35.3,24.7,75.1C1218.5,463.7,1166.7,482.7,1136.8,461.5"/>
		<path class="st1" d="M1410.6,562c0,28.9,11.6,45.7,11.6,66.8c0,29.8-33.3,50.4-62.4,50.4c-38.4,0-60.7-19.5-60.7-61.5
			c0-54.1,55.5-61.4,59-109.9c7,7.9,9.5,16,9.5,24.1c0,22.6-20.3,44.4-20.3,57.3c0,9.7,7.4,18.7,17.7,18.7c34.2,0-2.2-81.1,66.9-101
			C1416.5,522.6,1410.6,540.9,1410.6,562"/>
		<path class="st1" d="M1378.9,498.8c13.9-6.7,27.3-17.7,27.3-33.2c0-19.6-18.3-27.2-21.3-48c-7,7.1-13.6,15.2-13.6,25.4
			c0,22.6,10.5,28.4,10.5,42.3C1381.8,489.9,1380.7,494.5,1378.9,498.8"/>
		<path class="st1" d="M1328.6,514.1c-0.5-1.1-1-2.3-1.8-3.4c-7-10.4-12.3-20.6-12.3-32.2c0-11.2,5.3-21.2,8.9-30.9
			c6.3,10.8,18.4,17.2,18.4,30.4C1341.8,490.1,1330.2,500.3,1328.6,514.1"/>
		<path class="st1" d="M965.6,317.1c-4,6.6-6.6,14.2-6.6,21.7c0,28.1,31.4,25.1,31.4,47.4c0,5.8-1.3,11.8-1.3,17.5
			c0,7.4,3.4,18,12.7,18c14.7,0,13.2-32.4,22.4-42.7c1.9-2.1,3.8-4,5.9-5.9c-1.1,3.9-1.7,7.9-1.7,11.9c0,15.6,10.3,23.5,10.3,54.7
			c0,44.2-24.4,81.4-57.8,98.4c-10.8,4.5-22.3,7.1-33.6,7.1c-3.3,0-6.5-0.2-9.7-0.7c-51.3-7.1-71.4-37.9-71.4-85.1
			c0-26.3,16.3-54.8,16.3-75.1c0-14.7-5.1-29.3-13.2-41.9c50.5,12.5,21.6,78.3,46.3,78.3c3.7,0,7.4-2.5,10.6-6.4
			c6.9-8.3,9.6-18.8,9.6-29.8c0-12.8-2.8-16.6-2.8-25.5C932.9,335.3,950.4,324.3,965.6,317.1"/>
		<path class="st1" d="M1001.9,351c11.1-5.6,21.3-14,21.3-26.6c0-14.8-22.8-14.5-25-34.6c-4.1,5.1-6.7,11.4-6.7,18
			c0,14.7,12.8,21.1,12.8,33.8C1004.2,344.9,1003.3,348.1,1001.9,351"/>
		<path class="st2" d="M614.7,746.3c-0.8-2.6-1.2-5.3-1.2-8.2c0-15.5,12.6-28.1,28.1-28.1c3.9,0,7.6,0.8,11,2.2
			c5.1-7.5,13.7-12.5,23.4-12.5c6.5,0,12.5,2.2,17.3,5.9c5.9-7.4,14.9-12.1,25-12.1c17.7,0,32,14.3,32,32c0,7.9-2.9,15.1-7.6,20.7
			H614.7z"/>
		<line class="st2" x1="719.7" y1="728.7" x2="696.3" y2="746.3"/>
		<line class="st2" x1="696.3" y1="746.3" x2="696.3" y2="716.8"/>
		<line class="st2" x1="696.3" y1="731.5" x2="682" y2="723.8"/>
		<polygon class="st3" points="1063,484.3 979.1,739.7 1146.9,739.7 		"/>
		<polygon class="st4" points="1063,484.3 1051.1,520.3 1099,739.7 1146.9,739.7 		"/>
		<polygon class="st2" points="1063,484.3 979.1,739.7 1146.9,739.7 		"/>
		<path class="st2" d="M1060.3,696.9c1.2,0.4,2.5,0.6,3.9,0.6c4.7,0,8.8-2.5,11.1-6.2c2.3,3.7,6.4,6.2,11.1,6.2
			c4.7,0,8.8-2.5,11.1-6.2c2.3,3.7,6.4,6.2,11.1,6.2s8.8-2.5,11.1-6.2c2.3,3.7,6.4,6.2,11.1,6.2c0.5,0,0.9,0,1.4-0.1"/>
		<path class="st2" d="M1060.3,647.9c1.2,0.4,2.5,0.6,3.9,0.6c4.7,0,8.8-2.5,11.1-6.2c2.3,3.7,6.4,6.2,11.1,6.2
			c4.7,0,8.8-2.5,11.1-6.2c2.3,3.7,6.4,6.2,11.1,6.2c2.6,0,5-0.8,7-2.1"/>
		<path class="st2" d="M1060.3,599c1.2,0.4,2.5,0.6,3.9,0.6c4.7,0,8.8-2.5,11.1-6.2c2.3,3.7,6.4,6.2,11.1,6.2
			c4.7,0,8.8-2.5,11.1-6.2c0.5,0.7,1,1.4,1.6,2.1"/>
		<path class="st2" d="M1060.3,550c1.2,0.4,2.5,0.6,3.9,0.6c4.7,0,8.8-2.5,11.1-6.2c2,3.2,5.3,5.5,9.1,6"/>
		<path class="st3" d="M628,522.9c-11.2,11.5-18.2,27.2-18.2,44.6c0,35.2,28.6,63.8,63.8,63.8c35.2,0,63.8-28.6,63.8-63.8
			c0-35.2-28.6-63.8-63.8-63.8C655.8,503.7,639.6,511.1,628,522.9"/>
		<path class="st0" d="M725.4,567.5c0-28.5-23.1-51.7-51.7-51.7c-28.5,0-51.7,23.1-51.7,51.7c0,28.5,23.1,51.7,51.7,51.7
			C702.2,619.2,725.4,596,725.4,567.5"/>
		<path class="st2" d="M628,522.9c-11.2,11.5-18.2,27.2-18.2,44.6c0,35.2,28.6,63.8,63.8,63.8c35.2,0,63.8-28.6,63.8-63.8
			c0-35.2-28.6-63.8-63.8-63.8C655.8,503.7,639.6,511.1,628,522.9z"/>
		<path class="st4" d="M678,746.4l-1.6-187.5c0-2.9-1.3-5.2-2.8-5.2v192.7H678z"/>
		<path class="st3" d="M670.9,558.9l-1.6,187.5h4.4V553.7C672.2,553.7,670.9,556,670.9,558.9"/>
		<path class="st2" d="M669.3,746.4h8.8l-1.6-187.5c0-2.9-1.3-5.2-2.8-5.2c-1.5,0-2.7,2.3-2.8,5.2L669.3,746.4z"/>
		<line class="st2" x1="677.2" y1="579.6" x2="687.4" y2="569.4"/>
		<line class="st2" x1="670.2" y1="579.6" x2="660" y2="569.4"/>
		<line class="st2" x1="677.7" y1="606.9" x2="697.9" y2="586.7"/>
		<line class="st2" x1="669.6" y1="606.9" x2="649.4" y2="586.7"/>
		<path class="st0" d="M1292.9,759.2c1.4-4.7,2.2-9.6,2.2-14.8c0-28.1-22.8-50.9-50.9-50.9c-7.1,0-13.8,1.4-19.9,4.1
			c-9.2-13.6-24.8-22.6-42.4-22.6c-11.8,0-22.7,4-31.3,10.7c-10.6-13.3-27-21.9-45.3-21.9c-32,0-58,25.9-58,58
			c0,14.3,5.2,27.3,13.7,37.4H1292.9z"/>
		<path class="st2" d="M1292.9,759.2c1.4-4.7,2.2-9.6,2.2-14.8c0-28.1-22.8-50.9-50.9-50.9c-7.1,0-13.8,1.4-19.9,4.1
			c-9.2-13.6-24.8-22.6-42.4-22.6c-11.8,0-22.7,4-31.3,10.7c-10.6-13.3-27-21.9-45.3-21.9c-32,0-58,25.9-58,58
			c0,14.3,5.2,27.3,13.7,37.4H1292.9z"/>
		<line class="st2" x1="1102.9" y1="727.3" x2="1145.2" y2="759.2"/>
		<line class="st2" x1="1145.2" y1="759.2" x2="1145.2" y2="705.7"/>
		<line class="st2" x1="1145.2" y1="732.5" x2="1171.2" y2="718.5"/>
		<polygon class="st3" points="814.9,413.2 702.4,755.5 927.4,755.5 		"/>
		<polygon class="st4" points="814.9,413.2 799,461.5 863.1,755.5 927.4,755.5 		"/>
		<rect x="802" y="755.5" class="st1" width="25.9" height="40.3"/>
		<polygon class="st2" points="814.9,413.2 702.4,755.5 927.4,755.5 		"/>
		<path class="st2" d="M811.4,698.1c1.6,0.5,3.4,0.8,5.2,0.8c6.3,0,11.8-3.3,14.8-8.3c3.1,5,8.6,8.3,14.8,8.3
			c6.3,0,11.8-3.3,14.8-8.3c3.1,5,8.6,8.3,14.8,8.3c6.3,0,11.8-3.3,14.8-8.3c3.1,5,8.6,8.3,14.8,8.3c0.6,0,1.3,0,1.9-0.1"/>
		<path class="st2" d="M811.4,632.5c1.6,0.5,3.4,0.8,5.2,0.8c6.3,0,11.8-3.3,14.8-8.3c3.1,5,8.6,8.3,14.8,8.3
			c6.3,0,11.8-3.3,14.8-8.3c3.1,5,8.6,8.3,14.8,8.3c3.5,0,6.7-1,9.4-2.8"/>
		<path class="st2" d="M811.4,566.8c1.6,0.5,3.4,0.8,5.2,0.8c6.3,0,11.8-3.3,14.8-8.3c3.1,5,8.6,8.3,14.8,8.3
			c6.3,0,11.8-3.3,14.8-8.3c0.6,1,1.3,1.9,2.1,2.8"/>
		<path class="st2" d="M811.4,501.2c1.6,0.5,3.4,0.8,5.2,0.8c6.3,0,11.8-3.3,14.8-8.3c2.6,4.3,7.1,7.3,12.2,8.1"/>
		<rect x="802" y="755.5" class="st2" width="25.9" height="40.3"/>
		<polygon class="st3" points="1309.2,514.2 1225.3,769.6 1393.1,769.6 		"/>
		<polygon class="st4" points="1309.2,514.2 1297.4,550.3 1345.2,769.6 1393.1,769.6 		"/>
		<rect x="1299.5" y="769.6" class="st1" width="19.3" height="30"/>
		<polygon class="st2" points="1309.2,514.2 1225.3,769.6 1393.1,769.6 		"/>
		<path class="st2" d="M1306.5,726.8c1.2,0.4,2.5,0.6,3.9,0.6c4.7,0,8.8-2.5,11.1-6.2c2.3,3.7,6.4,6.2,11.1,6.2
			c4.7,0,8.8-2.5,11.1-6.2c2.3,3.7,6.4,6.2,11.1,6.2c4.7,0,8.8-2.5,11.1-6.2c2.3,3.7,6.4,6.2,11.1,6.2c0.5,0,0.9,0,1.4-0.1"/>
		<path class="st2" d="M1306.5,677.8c1.2,0.4,2.5,0.6,3.9,0.6c4.7,0,8.8-2.5,11.1-6.2c2.3,3.7,6.4,6.2,11.1,6.2
			c4.7,0,8.8-2.5,11.1-6.2c2.3,3.7,6.4,6.2,11.1,6.2c2.6,0,5-0.8,7-2.1"/>
		<path class="st2" d="M1306.5,628.9c1.2,0.4,2.5,0.6,3.9,0.6c4.7,0,8.8-2.5,11.1-6.2c2.3,3.7,6.4,6.2,11.1,6.2
			c4.7,0,8.8-2.5,11.1-6.2c0.5,0.7,1,1.4,1.6,2.1"/>
		<path class="st2" d="M1306.5,579.9c1.2,0.4,2.5,0.6,3.9,0.6c4.7,0,8.8-2.5,11.1-6.2c2,3.2,5.3,5.5,9.1,6"/>
		<rect x="1299.5" y="769.6" class="st2" width="19.3" height="30"/>
		<polygon class="st3" points="982.9,412.5 855.9,799 1109.9,799 		"/>
		<polygon class="st4" points="982.9,412.5 965,467.1 1037.4,799 1109.9,799 		"/>
		<rect x="968.3" y="799" class="st1" width="29.2" height="45.5"/>
		<polygon class="st2" points="982.9,412.5 855.9,799 1109.9,799 		"/>
		<path class="st2" d="M978.9,734.2c1.9,0.6,3.8,0.9,5.9,0.9c7.1,0,13.3-3.7,16.7-9.3c3.5,5.6,9.7,9.3,16.7,9.3
			c7.1,0,13.3-3.7,16.7-9.3c3.5,5.6,9.7,9.3,16.7,9.3c7.1,0,13.3-3.7,16.7-9.3c3.5,5.6,9.7,9.3,16.7,9.3c0.7,0,1.4,0,2.1-0.1"/>
		<path class="st2" d="M978.9,660.1c1.9,0.6,3.8,0.9,5.9,0.9c7.1,0,13.3-3.7,16.7-9.3c3.5,5.6,9.7,9.3,16.7,9.3
			c7.1,0,13.3-3.7,16.7-9.3c3.5,5.6,9.7,9.3,16.7,9.3c3.9,0,7.6-1.1,10.6-3.1"/>
		<path class="st2" d="M978.9,586c1.9,0.6,3.8,0.9,5.9,0.9c7.1,0,13.3-3.7,16.7-9.3c3.5,5.6,9.7,9.3,16.7,9.3
			c7.1,0,13.3-3.7,16.7-9.3c0.7,1.1,1.5,2.2,2.4,3.1"/>
		<path class="st2" d="M978.9,511.9c1.9,0.6,3.8,0.9,5.9,0.9c7.1,0,13.3-3.7,16.7-9.3c3,4.8,8,8.3,13.8,9.1"/>
		<rect x="968.3" y="799" class="st2" width="29.2" height="45.5"/>
		<path class="st3" d="M1117.7,454.3c-16,16.4-25.9,38.8-25.9,63.5c0,50.2,40.7,90.9,90.9,90.9s90.9-40.7,90.9-90.9
			c0-50.2-40.7-90.9-90.9-90.9C1157.3,426.9,1134.2,437.4,1117.7,454.3"/>
		<path class="st0" d="M1256.4,517.8c0-40.7-33-73.6-73.6-73.6c-40.7,0-73.6,33-73.6,73.6c0,40.7,33,73.6,73.6,73.6
			C1223.4,591.4,1256.4,558.4,1256.4,517.8"/>
		<path class="st2" d="M1117.7,454.3c-16,16.4-25.9,38.8-25.9,63.5c0,50.2,40.7,90.9,90.9,90.9s90.9-40.7,90.9-90.9
			c0-50.2-40.7-90.9-90.9-90.9C1157.3,426.9,1134.2,437.4,1117.7,454.3z"/>
		<path class="st4" d="M1189,781.9l-2.3-276.3c-0.1-4.1-1.8-7.4-4-7.4v283.8H1189z"/>
		<path class="st3" d="M1178.8,505.5l-2.3,276.3h6.2V498.1C1180.6,498.1,1178.8,501.4,1178.8,505.5"/>
		<path class="st2" d="M1176.5,781.9h12.5l-2.3-276.3c-0.1-4.1-1.8-7.4-4-7.4c-2.2,0-3.9,3.3-4,7.4L1176.5,781.9z"/>
		<line class="st2" x1="1187.7" y1="535" x2="1202.3" y2="520.5"/>
		<line class="st2" x1="1177.7" y1="535" x2="1163.2" y2="520.5"/>
		<line class="st2" x1="1188.5" y1="573.8" x2="1217.3" y2="545.1"/>
		<line class="st2" x1="1177" y1="573.8" x2="1148.2" y2="545.1"/>
		<polygon class="st3" points="549.3,705.5 549.3,746.4 629.1,746.4 629.1,709.5 554.5,709.5 		"/>
		<polygon class="st0" points="629.1,705.5 591.8,676.9 512,676.9 549.3,705.5 554.5,709.5 629.1,709.5 634.3,709.5 		"/>
		<polygon class="st4" points="512,676.9 474.8,705.5 474.8,746.4 549.3,746.4 549.3,705.5 		"/>
		<polygon class="st2" points="629.1,709.5 629.1,746.4 549.3,746.4 549.3,705.5 554.5,709.5 		"/>
		<polygon class="st2" points="634.3,709.5 554.5,709.5 549.3,705.5 512,676.9 591.8,676.9 629.1,705.5 		"/>
		<polygon class="st2" points="549.3,705.5 549.3,746.4 474.8,746.4 474.8,705.5 512,676.9 		"/>
		<line class="st2" x1="474.8" y1="705.5" x2="469.5" y2="709.5"/>
		<rect x="570.5" y="722.1" class="st0" width="9.1" height="10.2"/>
		<rect x="570.5" y="719" class="st2" width="9.1" height="13.3"/>
		<rect x="489.9" y="722.1" class="st0" width="9.1" height="10.2"/>
		<rect x="489.9" y="719" class="st2" width="9.1" height="13.3"/>
		<rect x="600.8" y="722.1" class="st0" width="9.1" height="10.2"/>
		<rect x="600.8" y="719" class="st2" width="9.1" height="13.3"/>
		<rect x="518.4" y="714.6" class="st1" width="12.8" height="31.9"/>
		<rect x="518.4" y="714.6" class="st2" width="12.8" height="31.9"/>
		<path class="st1" d="M755,805.7c-10,1.6-14.8,3.8-21.9,9.9c-0.2-8.1-1.1-12.8-4.8-19.1c-3.6,6.3-4.5,11-4.8,19.1
			c-7.1-6.1-11.9-8.3-21.9-9.9c8.6,6.4,12.7,10.5,18,19.8H737C742.3,816.3,746.5,812.1,755,805.7"/>
		<path class="st1" d="M1164.8,841c-12.7,2.1-18.8,4.8-27.7,12.5c-0.3-10.2-1.5-16.1-6-24.1c-4.6,8-5.7,13.9-6,24.1
			c-9-7.7-15.1-10.5-27.7-12.5c10.8,8.1,16.1,13.3,22.8,25.1h21.9C1148.7,854.3,1154,849.1,1164.8,841"/>
	</g>
</g>
</svg>
