<?xml version="1.0" encoding="utf-8"?>
<!-- Generator: Adobe Illustrator 19.0.1, SVG Export Plug-In . SVG Version: 6.00 Build 0)  -->
<svg version="1.1" id="Шар_1" xmlns="http://www.w3.org/2000/svg" xmlns:xlink="http://www.w3.org/1999/xlink" x="0px" y="0px"
	 viewBox="0 0 1920 1080" style="enable-background:new 0 0 1920 1080;" xml:space="preserve">
<style type="text/css">
	.st0{fill:none;stroke:#053544;stroke-width:3;stroke-linecap:round;stroke-linejoin:round;stroke-miterlimit:10;}
	.st1{fill:#92D8D3;}
	.st2{clip-path:url(#SVGID_2_);fill:#F2F2F2;}
	.st3{clip-path:url(#SVGID_2_);fill:#92D8D3;}
	.st4{clip-path:url(#SVGID_2_);fill:#FFFFFF;}
	.st5{clip-path:url(#SVGID_2_);fill:#00A499;}
	
		.st6{clip-path:url(#SVGID_2_);fill:none;stroke:#053544;stroke-width:3;stroke-linecap:round;stroke-linejoin:round;stroke-miterlimit:10;}
	.st7{clip-path:url(#SVGID_2_);fill:none;stroke:#053544;stroke-width:3;stroke-linejoin:round;stroke-miterlimit:10;}
	.st8{fill:#00A499;}
	.st9{fill:none;stroke:#00A499;stroke-width:3;stroke-linecap:round;stroke-linejoin:round;stroke-miterlimit:10;}
</style>
<g>
	<g>
		<g>
			<path class="st0" d="M827.3,537.1c0-0.2,0-0.4,0-0.5c0-28.5-23.1-51.5-51.5-51.5c-11.2,0-21.5,3.6-30,9.7
				c-5.5-30.4-32.1-53.4-64.1-53.4c-34.6,0-62.9,27-65,61c-9.4-10.5-23.1-17.2-38.4-17.2c-28.5,0-51.5,23.1-51.5,51.5
				c0,0.2,0,0.4,0,0.5H827.3z"/>
			<path class="st1" d="M1473.4,715.5h-64.4c-8.6,0-15.6-7-15.6-15.6c0-8.6,7-15.6,15.6-15.6h32.3c13.8,0,24.9-11.2,24.9-24.9
				c0-13.8-11.2-24.9-24.9-24.9h-207.4l70,77l-71.3,15.1l-171.1,36.2l-52.7,98.4l-96.9,50.6l-67,35l67-114.9L869,767l-173.9-43.2
				l-1.4-0.3l-59.9-14.9l61.3-64.1l-1-0.2l-41.3-9.7H448.5c-13.8,0-24.9,11.2-24.9,24.9c0,13.8,11.2,24.9,24.9,24.9h61.9
				c12.9,0,23.3,10.5,23.3,23.3c0,12.9-10.5,23.3-23.3,23.3h-52.9c-26.2,0-47.5,21.3-47.5,47.5s21.3,47.5,47.5,47.5h220.4
				c14,0,25.4,11.4,25.4,25.4v0c0,14-11.4,25.4-25.4,25.4h-97.5c-16.4,0-29.7,13.3-29.7,29.7c0,16.4,13.3,29.7,29.7,29.7h152.1
				c9.1,0,16.6,7.4,16.6,16.6s-7.4,16.6-16.6,16.6h-33.1c-11,0-19.9,8.9-19.9,19.9s8.9,19.9,19.9,19.9H1014c11,0,19.9-8.9,19.9-19.9
				s-8.9-19.9-19.9-19.9h-24.1c-15.8,0-28.6-12.8-28.6-28.6c0-15.8,12.8-28.6,28.6-28.6h340c21,0,37.9-17,37.9-37.9
				c0-21-17-37.9-37.9-37.9h-23.2c-13.1,0-23.7-10.6-23.7-23.7c0-13.1,10.6-23.7,23.7-23.7h166.6c20.2,0,36.6-16.4,36.6-36.6
				C1510,731.9,1493.6,715.5,1473.4,715.5"/>
			<path class="st1" d="M1171.3,940.1h-70.8c-19,0-34.5,15.4-34.5,34.5c0,19,15.4,34.5,34.5,34.5h70.8c19,0,34.5-15.4,34.5-34.5
				C1205.8,955.5,1190.4,940.1,1171.3,940.1"/>
			<g>
				<defs>
					<polygon id="SVGID_1_" points="1233.8,634.4 1232.5,634.4 1232.5,371.3 652.7,371.3 652.7,634.4 694,644.1 695,644.4 
						633.8,708.5 693.7,723.4 695.1,723.7 869,767 911.8,831.6 844.8,946.6 911.8,911.6 1008.7,861.1 1061.4,762.7 1232.5,726.5 
						1303.8,711.4 					"/>
				</defs>
				<clipPath id="SVGID_2_">
					<use xlink:href="#SVGID_1_"  style="overflow:visible;"/>
				</clipPath>
				<polygon class="st2" points="949.6,828 905.3,621.7 901.7,604.8 901.7,604.8 943.8,566.8 997.8,584.2 1001.4,601.1 
					1045.6,807.4 1215.5,771 1155.7,492 909.8,412.9 719.7,584.3 779.7,864.4 				"/>
				
					<rect x="942.7" y="624.4" transform="matrix(-0.9778 0.2095 -0.2095 -0.9778 2079.0383 1208.8577)" class="st3" width="65.5" height="180.4"/>
				<path class="st4" d="M997.8,584.2l3.6,16.9l-96.1,20.6l-3.6-16.9l0,0l42.1-37.9L997.8,584.2z M955.8,590c-0.9-4.3-5.1-7-9.3-6
					c-4.3,0.9-7,5.1-6,9.3c0.9,4.2,5.1,7,9.3,6C954,598.4,956.7,594.2,955.8,590"/>
				<polygon class="st4" points="1183.8,480.2 1178.4,499.3 1155.7,492 909.8,412.9 719.7,584.3 700.2,601.8 687.4,586.6 
					714.9,561.8 776.9,506 812.9,473.5 905,390.5 1150.9,469.6 				"/>
				
					<rect x="776.8" y="412.9" transform="matrix(-0.2095 -0.9778 0.9778 -0.2095 522.6895 1290.3586)" class="st4" width="12.2" height="42.1"/>
				<polygon class="st5" points="804.8,435.5 812.9,473.5 776.9,506 763.7,444.3 				"/>
				<path class="st5" d="M946.5,583.9c4.2-0.9,8.4,1.8,9.3,6c0.9,4.2-1.8,8.4-6,9.3c-4.3,0.9-8.4-1.8-9.3-6
					C939.5,589,942.2,584.9,946.5,583.9"/>
				<polygon class="st5" points="909.8,412.9 719.7,584.3 723.5,602.2 913.6,430.9 1159.5,510 1155.7,492 				"/>
				<path class="st5" d="M988.6,619.5l-64,13.7l37.8,176.4l64-13.7L988.6,619.5z M905.3,621.7l96.1-20.6l44.2,206.3L949.6,828
					L905.3,621.7z"/>
				
					<rect x="942.7" y="624.4" transform="matrix(-0.9778 0.2095 -0.2095 -0.9778 2079.0383 1208.8577)" class="st6" width="65.5" height="180.4"/>
				<path class="st6" d="M988.6,619.5l-64,13.7l37.8,176.4l64-13.7L988.6,619.5z M905.3,621.7l96.1-20.6l44.2,206.3L949.6,828
					L905.3,621.7z"/>
				<polyline class="st6" points="717.9,585.8 700.2,601.8 687.4,586.6 713.1,563.4 905,390.5 1150.9,469.6 1183.8,480.2 
					1178.4,499.3 1155.7,492 				"/>
				<polyline class="st6" points="901.7,604.8 943.8,566.8 997.8,584.2 1016.7,590.3 1026.4,593.4 				"/>
				<polyline class="st6" points="879.4,624.9 887.5,617.6 901.7,604.8 				"/>
				<polyline class="st6" points="947.5,828.4 777.7,864.8 775,852.2 717.9,585.8 908.9,413.7 910,414.1 910.9,413.3 1155.7,492 
					1212.8,758.4 1215.5,771 1045.6,807.4 				"/>
				<line class="st6" x1="804.8" y1="435.5" x2="812.9" y2="473.5"/>
				<line class="st6" x1="776.9" y1="506" x2="763.7" y2="444.3"/>
				
					<rect x="776.8" y="412.9" transform="matrix(0.2095 0.9778 -0.9778 0.2095 1043.1704 -422.563)" class="st6" width="12.2" height="42.1"/>
				<polyline class="st6" points="905.3,621.7 901.7,604.8 901.7,604.8 				"/>
				<line class="st6" x1="1001.4" y1="601.1" x2="997.8" y2="584.2"/>
				<path class="st6" d="M955.8,590c-0.9-4.3-5.1-7-9.3-6c-4.3,0.9-7,5.1-6,9.3c0.9,4.2,5.1,7,9.3,6
					C954,598.4,956.7,594.2,955.8,590z"/>
				
					<rect x="789.7" y="567.3" transform="matrix(0.9778 -0.2095 0.2095 0.9778 -102.5379 181.1783)" class="st4" width="28.4" height="14.6"/>
				
					<rect x="811.8" y="582.6" transform="matrix(0.9778 -0.2095 0.2095 0.9778 -105.2494 186.1543)" class="st4" width="28.4" height="14.6"/>
				
					<rect x="777.6" y="589.9" transform="matrix(0.9778 -0.2095 0.2095 0.9778 -107.5388 179.1513)" class="st4" width="28.4" height="14.6"/>
				
					<rect x="1098.5" y="538" transform="matrix(0.9778 -0.2095 0.2095 0.9778 -89.5433 245.2202)" class="st4" width="28.4" height="14.6"/>
				
					<rect x="1080.8" y="519.9" transform="matrix(0.9778 -0.2095 0.2095 0.9778 -86.1486 241.1106)" class="st4" width="28.4" height="14.6"/>
				
					<rect x="789.8" y="652.9" transform="matrix(0.9778 -0.2095 0.2095 0.9778 -131.0215 190.373)" class="st4" width="86.3" height="121.3"/>
				
					<rect x="799.4" y="772.8" transform="matrix(0.9778 -0.2095 0.2095 0.9778 -144.2699 194.7123)" class="st4" width="95" height="11.1"/>
				
					<rect x="802.3" y="663.8" transform="matrix(0.9778 -0.2095 0.2095 0.9778 -131.0297 190.3881)" class="st5" width="61.5" height="99.7"/>
				
					<rect x="789.8" y="652.9" transform="matrix(0.9778 -0.2095 0.2095 0.9778 -131.0215 190.373)" class="st6" width="86.3" height="121.3"/>
				<path class="st7" d="M822.6,665c0,0,2.2,10.2,4.6,21.6"/>
				<path class="st7" d="M828.2,690.9c2.8,13.2,15.3,71.4,15.3,71.4"/>
				
					<rect x="799.4" y="772.8" transform="matrix(0.9778 -0.2095 0.2095 0.9778 -144.2699 194.7123)" class="st6" width="95" height="11.1"/>
				
					<rect x="1059.8" y="595.1" transform="matrix(0.9778 -0.2095 0.2095 0.9778 -112.9064 245.6598)" class="st4" width="86.3" height="121.3"/>
				
					<rect x="1069.4" y="714.9" transform="matrix(0.9778 -0.2095 0.2095 0.9778 -126.1549 249.9986)" class="st4" width="95" height="11.1"/>
				
					<rect x="1072.3" y="605.9" transform="matrix(0.9778 -0.2095 0.2095 0.9778 -112.9116 245.675)" class="st5" width="61.5" height="99.7"/>
				
					<rect x="1059.8" y="595.1" transform="matrix(0.9778 -0.2095 0.2095 0.9778 -112.9064 245.6598)" class="st6" width="86.3" height="121.3"/>
				<path class="st7" d="M1092.6,607.1c0,0,2.2,10.2,4.6,21.6"/>
				<path class="st7" d="M1098.2,633c2.8,13.2,15.3,71.4,15.3,71.4"/>
				
					<rect x="1069.4" y="714.9" transform="matrix(0.9778 -0.2095 0.2095 0.9778 -126.1549 249.9986)" class="st6" width="95" height="11.1"/>
				
					<rect x="908.4" y="472.9" transform="matrix(0.9778 -0.2095 0.2095 0.9778 -84.4231 205.9431)" class="st5" width="42.9" height="57.1"/>
				
					<rect x="908.4" y="472.9" transform="matrix(0.9778 -0.2095 0.2095 0.9778 -84.4231 205.9431)" class="st6" width="42.9" height="57.1"/>
			</g>
			<line class="st0" x1="1339.4" y1="633" x2="1232.5" y2="633"/>
			<polyline class="st0" points="695.1,723.7 869,767 911.8,831.6 			"/>
			<polyline class="st0" points="549.6,633 646.6,633 695.1,644.4 			"/>
			<polyline class="st0" points="911.8,911.6 1008.7,861.1 1061.4,762.7 1232.5,726.5 			"/>
			<polygon class="st8" points="695.1,644.4 695.1,723.7 633.8,708.5 			"/>
			<polygon class="st0" points="695.1,644.4 695.1,723.7 633.8,708.5 			"/>
			<polygon class="st8" points="911.8,831.6 911.8,911.6 844.8,946.6 			"/>
			<polygon class="st0" points="911.8,831.6 911.8,911.6 844.8,946.6 			"/>
			<polygon class="st8" points="1303.8,711.4 1232.5,726.5 1232.5,633 			"/>
			<polygon class="st0" points="1303.8,711.4 1232.5,726.5 1232.5,633 			"/>
			<polyline class="st0" points="724.9,731.2 684.6,771.4 593.4,771.4 			"/>
			<line class="st0" x1="634.5" y1="771.4" x2="611.2" y2="794.6"/>
			<polyline class="st0" points="893.6,804.2 818.8,804.2 791,831.6 744.4,831.6 			"/>
			<polyline class="st0" points="1022.9,836.9 1078.2,836.9 1098.1,856.8 1190.2,856.8 			"/>
			<polyline class="st0" points="1137.3,856.8 1174.9,819.9 1207.6,819.9 			"/>
			<polyline class="st0" points="1213.2,730.5 1246.5,763.8 1312.8,763.8 1339.4,747.2 			"/>
			<line class="st0" x1="1312.8" y1="763.8" x2="1344.9" y2="763.8"/>
			<polyline class="st9" points="1241.3,486.5 1281,486.5 1297.4,536.6 1310.3,430.3 1326.8,572 1345.8,430.3 1364.8,572 
				1381.2,430.3 1394.1,536.6 1410.5,486.5 1450.2,486.5 			"/>
			<path class="st0" d="M1167.2,399.4c0-19.8-16.1-35.9-35.9-35.9s-35.9,16.1-35.9,35.9"/>
			<line class="st0" x1="1078.7" y1="399.4" x2="1126.7" y2="399.4"/>
			<line class="st0" x1="1144.8" y1="399.4" x2="1232.9" y2="399.4"/>
			<path class="st0" d="M1146,352.9c0.6-18,15.3-32.3,33.4-32.3c15.7,0,28.8,10.8,32.5,25.3c4.4-4.1,10.3-6.5,16.8-6.5
				c13.7,0,24.8,11.1,24.8,24.8c0,0.8,0,1.5-0.1,2.3"/>
			<line class="st0" x1="1285.1" y1="366.4" x2="1238.1" y2="366.4"/>
		</g>
	</g>
</g>
</svg>
