<?xml version="1.0" encoding="utf-8"?>
<!-- Generator: Adobe Illustrator 19.0.1, SVG Export Plug-In . SVG Version: 6.00 Build 0)  -->
<svg version="1.1" id="Шар_1" xmlns="http://www.w3.org/2000/svg" xmlns:xlink="http://www.w3.org/1999/xlink" x="0px" y="0px"
	 viewBox="28 -34 95 108" style="enable-background:new 28 -34 95 108;" xml:space="preserve">
<style type="text/css">
	.st0{fill:#FFFFFF;}
	.st1{fill:#053544;}
</style>
<path class="st0" d="M43.5,3.5c0,25.9,17.3,43,32.1,52.9c26.5-17.6,32.1-38.5,32.1-52.9V-6.9c-6.3-1.9-11.9-5.6-16.3-10.5H59.8
	c-4.4,4.9-10,8.5-16.3,10.5V3.5z"/>
<path class="st1" d="M33-15.9V3.5c0,33.2,23,53.8,42.6,65.3c19.6-11.5,42.6-32.1,42.6-65.3v-19.4c-0.1,0-0.1,0-0.2,0
	c-8.7,0-16.8-4.6-21.3-12.1H54.5C50-20.5,41.8-15.9,33-15.9z M75.6,72c-0.3,0-0.5-0.1-0.8-0.2C45.5,54.8,30,31.2,30,3.4v-20.9
	c0-0.4,0.2-0.8,0.5-1.1c0.3-0.3,0.7-0.4,1.1-0.4c0.5,0,1.1,0.1,1.6,0.1c7.9,0,15.3-4.3,19.1-11.3c0.3-0.5,0.8-0.8,1.3-0.8h44
	c0.5,0,1.1,0.3,1.3,0.8c3.8,7,11.2,11.3,19.1,11.3c0.5,0,1.1,0,1.6-0.1c0.4,0,0.8,0.1,1.1,0.4c0.3,0.3,0.5,0.7,0.5,1.1V3.4
	c0,27.7-15.5,51.4-44.9,68.4C76.1,71.9,75.9,72,75.6,72z"/>
<path class="st1" d="M43.5-6.9V3.5c0,25.9,17.3,43,32.1,52.9c26.5-17.6,32.1-38.5,32.1-52.9V-6.9c-6.3-1.9-11.9-5.6-16.3-10.5H59.8
	C55.4-12.5,49.8-8.9,43.5-6.9z M75.6,59.7c-0.3,0-0.6-0.1-0.8-0.2c-15.6-10.2-34.3-28.2-34.3-56V-8.1c0-0.7,0.5-1.3,1.1-1.4
	C47.9-11.2,53.7-14.9,58-20c0.3-0.3,0.7-0.5,1.1-0.5h33c0.4,0,0.9,0.2,1.1,0.5c4.2,5,10,8.7,16.3,10.4c0.7,0.2,1.1,0.8,1.1,1.4V3.3
	c0,15.4-5.9,37.5-34.3,56C76.2,59.6,75.9,59.7,75.6,59.7z"/>
</svg>
