<?xml version="1.0" encoding="utf-8"?>
<!-- Generator: Adobe Illustrator 19.0.1, SVG Export Plug-In . SVG Version: 6.00 Build 0)  -->
<svg version="1.1" id="Шар_1" xmlns="http://www.w3.org/2000/svg" xmlns:xlink="http://www.w3.org/1999/xlink" x="0px" y="0px"
	 viewBox="0 0 112.5 60" style="enable-background:new 0 0 112.5 60;" xml:space="preserve">
<style type="text/css">
	.st0{fill:#FFFFFF;}
</style>
<path class="st0" d="M92.4,22.1l19.9-20c0.7-0.9,0-2-0.8-2H97.9c-0.3,0-0.6,0.1-0.8,0.3L84,13.7L70.8,0.5c-0.2-0.2-0.5-0.3-0.8-0.3
	H42.7c-0.3,0-0.6,0.1-0.8,0.3L28.7,13.7L15.5,0.5c-0.2-0.2-0.5-0.3-0.8-0.3H1.3c-1.2,0-1.5,1.3-0.9,2l3.7,3.7v36.7
	c0,0.6,0.5,1.1,1.1,1.1h9.6c0.6,0,1.1-0.5,1.1-1.1V17.7l12,12c0.4,0.4,1.1,0.5,1.6,0l12.3-12.2v10.9L28.1,41.8
	c-0.5,0.5-0.4,1.9,0.8,1.9h13.7c0.3,0,0.6-0.1,0.8-0.3l13-13l5.4,5.4l-6,6c-0.6,0.6-0.4,1.9,0.8,1.9h27.1c1.1,0,1.4-1.3,0.8-1.9
	L57.1,14.5c-0.5-0.5-1-0.6-1.6,0l-2,2V5.5l2.8-2.8l40.5,40.7c0.2,0.2,0.5,0.3,0.8,0.3h13.7c0.8,0,1.6-1.1,0.8-1.9L92.4,22.1z"/>
<path class="st0" d="M6.8,48.2H4.3c-0.1,0-0.2,0.1-0.2,0.2v11.1c0,0.1,0,0.1,0.1,0.2c0,0,0.1,0.1,0.2,0.1h2.5c0.1,0,0.2-0.1,0.2-0.2
	L7,48.4C7,48.3,7,48.3,6.8,48.2C6.9,48.2,6.9,48.2,6.8,48.2z"/>
<path class="st0" d="M20.9,48.2h-2.3c-0.1,0-0.2,0.1-0.2,0.2v6.4l-4.3-6.6c0-0.1-0.1-0.1-0.2-0.1h-2.5c-0.1,0-0.2,0.1-0.2,0.2v11.1
	c0,0.1,0,0.1,0.1,0.2c0,0,0.1,0.1,0.2,0.1h2.3c0.1,0,0.1,0,0.2-0.1c0,0,0.1-0.1,0.1-0.2v-6.5l4.5,6.6c0,0.1,0.1,0.1,0.2,0.1h2.3
	c0.1,0,0.2-0.1,0.2-0.2V48.3c0-0.1,0-0.1-0.1-0.2C21,48.2,21,48.2,20.9,48.2z"/>
<path class="st0" d="M30,52.7c-1.5-0.4-2.2-0.7-2.2-1.4c0-0.3,0.1-0.5,0.3-0.6c0.2-0.2,0.6-0.3,1.1-0.3c1,0,2,0.6,2.6,1.5
	c0,0.1,0.1,0.1,0.1,0.1c0.1,0,0.1,0,0.2,0l1.7-1.3c0.1-0.1,0.1-0.2,0-0.3c-0.7-1.1-2.1-2.4-4.6-2.4c-1.3,0-2.3,0.3-3,0.9
	s-1.2,1.6-1.2,2.6c0,2.5,2.2,3,4,3.5h0.2c1.6,0.5,2.1,0.8,2.1,1.4c0,0.3-0.2,0.6-0.5,0.8c-0.3,0.2-0.8,0.3-1.3,0.3
	c-1.2,0-2.3-0.7-2.9-1.8c0-0.1-0.1-0.1-0.1-0.1c-0.1,0-0.1,0-0.2,0l-1.6,1.2c-0.1,0.1-0.1,0.2-0.1,0.3c0.7,1.3,2.1,2.9,4.9,2.9
	c1.5,0,2.8-0.4,3.5-1.1c0.7-0.6,1.2-1.6,1.2-2.6C34.2,53.8,31.9,53.2,30,52.7z"/>
<path class="st0" d="M46.9,48.2h-2.4c-0.1,0-0.2,0.1-0.2,0.2v6.8c0,1.6-0.6,2.3-1.9,2.3c-0.7,0-1.1-0.2-1.4-0.6
	c-0.3-0.4-0.5-1-0.5-1.8v-6.8c0-0.1-0.1-0.2-0.2-0.2H38c-0.1,0-0.1,0-0.2,0.1c0,0-0.1,0.1-0.1,0.2v6.9c0,1.5,0.4,2.6,1.2,3.3
	c0.8,0.9,2,1.3,3.5,1.3c3,0,4.7-1.7,4.7-4.6v-6.9C47.1,48.3,47.1,48.3,46.9,48.2L46.9,48.2z"/>
<path class="st0" d="M55.3,53.2h-1.5v-2.7h1.5c0.7,0,1.2,0.1,1.5,0.3s0.4,0.5,0.4,1C57.2,52.7,56.9,53.2,55.3,53.2z M57.8,55.2
	c1.5-0.5,2.3-1.6,2.3-3.3c0-1.3-0.4-2.2-1.3-2.9c-0.8-0.6-1.9-0.9-3.3-0.9h-4.2c-0.1,0-0.1,0-0.2,0.1c0,0-0.1,0.1-0.1,0.2v11.1
	c0,0.1,0,0.1,0.1,0.2c0,0,0.1,0.1,0.2,0.1h2.4c0.1,0,0.1,0,0.2-0.1c0,0,0.1-0.1,0.1-0.2v-4H55l2.3,4.1c0,0.1,0.1,0.1,0.2,0.1H60
	c0.1,0,0.1,0,0.2-0.1c0-0.1,0-0.1,0-0.2L57.8,55.2z"/>
<path class="st0" d="M67,55.6l1.3-3.4l1.2,3.4H67z M69.7,48.3c0-0.1-0.1-0.1-0.2-0.1h-2.4c-0.1,0-0.2,0.1-0.2,0.1L63,59.5
	c0,0.1,0,0.1,0,0.2c0,0.1,0.1,0.1,0.2,0.1h2.3c0.1,0,0.2-0.1,0.2-0.1l0.6-1.9h3.8l0.6,1.9c0,0.1,0.1,0.1,0.2,0.1h2.5
	c0.1,0,0.1,0,0.2-0.1c0-0.1,0.1-0.1,0-0.2L69.7,48.3z"/>
<path class="st0" d="M86.5,48.2h-2.3c-0.1,0-0.2,0.1-0.2,0.2v6.4l-4.2-6.5c0-0.1-0.1-0.1-0.2-0.1h-2.5c-0.1,0-0.2,0.1-0.2,0.2v11.1
	c0,0.1,0,0.1,0.1,0.2c0,0,0.1,0.1,0.2,0.1h2.3c0.1,0,0.1,0,0.2-0.1c0,0,0.1-0.1,0.1-0.2V53l4.5,6.6c0,0.1,0.1,0.1,0.2,0.1h2.3
	c0.1,0,0.2-0.1,0.2-0.2V48.4c0-0.1,0-0.1-0.1-0.2C86.6,48.2,86.6,48.2,86.5,48.2z"/>
<path class="st0" d="M100.3,55.8l-2.3-0.5c-0.1,0-0.2,0-0.3,0.2c-0.4,1.6-1,2.2-2.2,2.2c-1.6,0-2.4-1.3-2.4-3.6c0-1.1,0.2-2,0.6-2.7
	c0.4-0.6,1-0.9,1.8-0.9c1.1,0,1.6,0.6,2,2c0,0.1,0.1,0.1,0.1,0.1c0.1,0,0.1,0,0.2,0l2.4-0.7c0.1,0,0.2-0.1,0.1-0.3
	c-0.6-2.5-2.2-3.6-4.7-3.6c-1.5,0-2.8,0.5-3.7,1.5c-1,1.1-1.6,2.6-1.6,4.5c0,3.7,2,6,5.3,6c2.6,0,4.2-1.4,4.9-3.9c0-0.1,0-0.1,0-0.2
	C100.4,55.8,100.3,55.8,100.3,55.8z"/>
<path class="st0" d="M112.1,57.3h-5.2V55h3.5c0.1,0,0.2-0.1,0.2-0.2v-2c0-0.1,0-0.1-0.1-0.2c0,0-0.1-0.1-0.2-0.1h-3.5v-2h4.9
	c0.1,0,0.2-0.1,0.2-0.2v-2.1c0-0.1,0-0.1-0.1-0.2c-0.1-0.1-0.1-0.1-0.2-0.1h-7.6c-0.1,0-0.2,0.1-0.2,0.2v11.1c0,0.1,0.1,0.2,0.2,0.2
	h7.9c0.1,0,0.1,0,0.2-0.1c0.1-0.1,0.1-0.1,0.1-0.2L112.1,57.3C112.3,57.4,112.2,57.3,112.1,57.3z"/>
</svg>
