<svg version="1.1" id="Шар_1" xmlns="http://www.w3.org/2000/svg" xmlns:xlink="http://www.w3.org/1999/xlink" x="0px" y="0px"
	 viewBox="0 0 180 160" style="enable-background:new 0 0 180 160;" xml:space="preserve">
<style type="text/css">
	.sft0{fill:#053544;}
	.sft1{fill:#94D5D1;}
	.sft2{fill:#FFFFFF;}
	.sft3{fill:#00A59A;}
</style>
<path class="sft0" d="M4,142V18c0-3,1.1-5.6,3.2-7.8C9.4,8.1,12,7,15,7h151c3,0,5.6,1.1,7.8,3.2c2.1,2.1,3.2,4.7,3.2,7.8v124
	c0,3-1.1,5.6-3.2,7.8c-2.1,2.1-4.7,3.2-7.8,3.2H15c-3,0-5.6-1.1-7.8-3.2S4,145,4,142z"/>
<g id="top">
	<path class="sft1" d="M68.1,68.4c0-4.6,0-9.4,0-14c0.1-4.9,2.5-7.3,7.3-7.4c9.1,0,18.2,0,27.2,0c5,0,7.8,2.2,8,7.3
		c0.3,9.1,0.3,18.2,0,27.2c-0.1,5.6-2.9,8-8.4,8.1c-8.7,0.1-17.5,0.1-26.1,0c-5.4,0-7.8-2.5-7.8-8C68.1,77.2,68.1,72.7,68.1,68.4z"
		/>
	<path class="sft2" d="M91.8,73.8c-1.4,0-3.5,0-4.9,0h-4.2c-1.4,0-1.8-1-1.3-2.1L88,60.8c0.7-1.1,1.8-1.1,2.5,0l6.6,10.9
		c0.7,1.1,0.1,2.1-1.3,2.1H91.8z"/>
</g>
<g id="left">
	<path class="sft1" d="M42.4,137.4c-4.6,0-9.4,0-14,0c-4.9-0.1-7.3-2.5-7.4-7.3c0-9.2,0-18.3,0-27.2c0-5,2.2-7.8,7.3-8
		c9.1-0.3,18.2-0.3,27.2,0c5.6,0.1,8,2.9,8.1,8.4c0.1,8.7,0.1,17.5,0,26.1c0,5.4-2.5,7.8-8,7.8C51.2,137.4,46.7,137.4,42.4,137.4z"
		/>
	<path class="sft2" d="M47.8,113.6c0,1.4,0,3.5,0,4.9v4.2c0,1.4-1,1.8-2.1,1.3l-10.9-6.6c-1.1-0.7-1.1-1.8,0-2.5l10.9-6.6
		c1.1-0.7,2.1-0.1,2.1,1.3V113.6z"/>
</g>
<g id="right">
	<path class="sft1" d="M136.8,94.8c4.6,0,9.4,0,14,0c4.9,0.1,7.3,2.5,7.4,7.3c0.1,9.1,0.1,18.2,0,27.2c0,5-2.2,7.8-7.3,8
		c-9.1,0.3-18.2,0.3-27.2,0c-5.6-0.1-8-2.9-8.1-8.4c-0.1-8.7-0.1-17.5,0-26.1c0-5.4,2.5-7.8,8-7.8C128,94.8,132.4,94.8,136.8,94.8z"
		/>
	<path class="st2" d="M131.3,118.5c0-1.4,0-3.5,0-4.9v-4.2c0-1.4,1-1.8,2.1-1.3l10.9,6.6c1.1,0.7,1.1,1.8,0,2.5l-10.9,6.6
		c-1.1,0.7-2.1,0.1-2.1-1.3V118.5z"/>
</g>
<g id="bottom">
	<path class="sft3" d="M110.7,116c0,4.6,0,9.4,0,14c-0.1,4.9-2.5,7.3-7.3,7.4c-9.1,0.1-18.2,0.1-27.2,0c-5,0-7.8-2.2-8-7.3
		c-0.3-9.1-0.3-18.2,0-27.2c0.1-5.6,2.9-8,8.4-8.1c8.7-0.1,17.5-0.1,26.1,0c5.4,0,7.8,2.5,7.8,8C110.7,107.2,110.7,111.7,110.7,116z
		"/>
	<path class="sft2" d="M86.9,110.4c1.4,0,3.5,0,4.9,0H96c1.4,0,1.8,1,1.3,2.1l-6.6,10.9c-0.7,1.1-1.8,1.1-2.5,0l-6.7-10.9
		c-0.7-1.1-0.1-2.1,1.3-2.1H86.9z"/>
</g>
</svg>
