<?xml version="1.0" encoding="utf-8"?>
<!-- Generator: Adobe Illustrator 19.0.1, SVG Export Plug-In . SVG Version: 6.00 Build 0)  -->
<svg version="1.1" id="Шар_1" xmlns="http://www.w3.org/2000/svg" xmlns:xlink="http://www.w3.org/1999/xlink" x="0px" y="0px"
	 viewBox="0 0 230 285" style="enable-background:new 0 0 230 285;" xml:space="preserve">
<style type="text/css">
	.st0{fill:#94D5D1;}
	.st1{fill:#FFFFFF;}
	.st2{fill:#F9F9FA;}
	.st3{fill:#00A59A;}
	.st4{fill:#F3F3F3;}
	.st5{fill:#053544;}
</style>
<path class="st0" d="M120,128.5l-13.1,0.1l0.5,22.4l-5.4-2.5l-19-9l-19,9l-5.4,2.5l0.5-22.4L46,128.5c-22.9,0-41.5,18.6-41.5,41.5
	v75.5H63l10.8-85.8h18.3l10.9,85.8h16.6v-94.8h37.2C149.6,137.1,135.4,128.5,120,128.5z"/>
<path class="st1" d="M104.9,117.2c-1.8,2-2.9,4.7-2.9,7.5v3.9c0,9.6-11.8,11-19,11c-7.2,0-19-1.4-19-11v-3.9c0-2.8-1-5.4-2.9-7.5
	c2,0.5,4.1,0.8,6.2,0.8c3.4,2.1,9.2,3.5,15.7,3.5s12.3-1.4,15.7-3.5C100.8,117.9,102.9,117.7,104.9,117.2z"/>
<path class="st0" d="M83,139.5l-19,9l-5.4,2.5l0.5-22.4l4.8-0.1C64,138.1,75.8,139.5,83,139.5z"/>
<path class="st0" d="M107.4,151l-5.4-2.5l-19-9c7.2,0,19-1.4,19-11l4.9,0.1L107.4,151z"/>
<path class="st2" d="M83,121.5c-6.5,0-12.3-1.4-15.7-3.5c-2.1,0-4.1-0.3-6.2-0.8c1.8,2,2.9,4.7,2.9,7.5v0.2l1.3,0.1
	c4.6,2.3,10.9,3.6,17.7,3.6c6.8,0,13.1-1.3,17.7-3.6l1.3-0.1v-0.2c0-2.8,1-5.4,2.9-7.5c-2,0.5-4.1,0.8-6.2,0.8
	C95.3,120.1,89.5,121.5,83,121.5z"/>
<polygon class="st3" points="94.8,145.1 92.1,159.7 73.8,159.7 71.2,145.1 83,139.5 "/>
<path class="st1" d="M187.4,192.7c-0.3,2.6,1.6,5,4.2,5.3c0.2,0,0.4,0,0.5,0H187c-2.5,0-4.6,1.8-4.9,4.3c-0.3,2.6,1.7,4.9,4.3,5.2
	c0.2,0,0.3,0,0.5,0h5.3c-2.6,0-4.7,2.1-4.8,4.7c0,0.2,0,0.3,0,0.5c0.3,2.5,2.4,4.3,4.9,4.3h7.8c-2.6,0-4.8,2.1-4.8,4.8
	c0,0.2,0,0.3,0,0.5c0.3,2.5,2.4,4.3,4.9,4.3h7.6V265H139v-19.5h-19.4v-94.8h88.3v37.7h-15.6C189.8,188.4,187.7,190.2,187.4,192.7z"
	/>
<polygon class="st3" points="139,245.5 139,264.9 119.6,245.5 "/>
<path class="st1" d="M225.7,194.7v20.1c0,6.5-5.2,11.7-11.7,11.7h-13.7c-2.5,0-4.6-1.8-4.9-4.3c-0.3-2.6,1.7-4.9,4.3-5.2
	c0.2,0,0.3,0,0.5,0h-7.8c-2.5,0-4.6-1.8-4.9-4.3c-0.3-2.6,1.6-4.9,4.2-5.2c0.2,0,0.3,0,0.5,0h-5.3c-2.6,0-4.8-2.1-4.8-4.8
	c0-0.2,0-0.3,0-0.5c0.3-2.5,2.4-4.3,4.9-4.3h5.1c-2.6,0-4.8-2.1-4.8-4.7c0-0.2,0-0.3,0-0.5c0.3-2.5,2.4-4.3,4.9-4.3h15.6v-12
	c3.9,0.1,7.6,1.7,10.4,4.4l3.1,3.1C224.1,186.8,225.7,190.7,225.7,194.7z"/>
<polygon class="st4" points="92.1,159.7 73.8,159.7 71.3,179.8 93.5,170.1 "/>
<polygon class="st3" points="93.5,170.1 71.3,179.8 68.6,201.2 95.9,189.2 "/>
<polygon class="st4" points="83,283.1 95.5,270 77.9,277.8 "/>
<polygon class="st3" points="103.1,246.5 64.3,263.6 77.9,277.8 95.5,270 104.9,260.3 "/>
<polygon class="st4" points="103,245.5 100.7,227.4 63.2,244 63,245.5 61.1,260.3 64.3,263.6 103.1,246.5 "/>
<polygon class="st3" points="98.3,208.3 65.9,222.6 63.2,244 100.7,227.4 "/>
<polygon class="st4" points="95.9,189.2 68.6,201.2 65.9,222.6 98.3,208.3 "/>
<path class="st4" d="M44.6,55.6l3.6-11.5v-6.8l7.6-4.8l12.1-1.8l40.2,0.8l7.2,3.2v5.8l7.4,9l2.8,8.8v4.9h5.6V41.7
	c0-21.1-17.1-38.2-38.2-38.2H73.2c-7,0-13.9,1.9-19.9,5.6c-3.3,2-5.3,5.6-5.3,9.4v2c-4.4,0-8.4,2.6-10.2,6.7
	C36,31.8,35,36.7,35,41.7v21.6l5.8-0.3L44.6,55.6z"/>
<polygon class="st1" points="125.4,63.4 131,63.3 131,63.1 125.4,63.2 "/>
<path class="st1" d="M129,63.5h2v-0.2l-5.6,0.1v-5.2l-2.8-8.8l-7.4-9v-5.7l-7.2-3.2l-40.2-0.8l-12.1,1.8l-7.6,4.8v6.8l-3.5,11.5
	L40.8,63L35,63.3v0.2h2c-4.4,0-8,3.6-8,8v3.4c0,6.4,5.1,11.6,11.5,11.6v4.1c0,4.5,1.1,9,3.2,13c2.2,4,5.3,7.5,9.2,10
	c2.5,1.7,5.3,2.9,8.2,3.7c2,0.5,4.1,0.8,6.2,0.8c3.4,2.1,9.2,3.5,15.7,3.5s12.3-1.4,15.7-3.5c2.1,0,4.1-0.3,6.2-0.8
	c2.9-0.7,5.7-2,8.2-3.7c3.8-2.5,7-6,9.1-10c2.1-4,3.3-8.5,3.2-13v-4.1c6.4,0,11.5-5.2,11.5-11.6v-3.4C137,67.1,133.4,63.5,129,63.5z
	"/>
<path class="st1" d="M29,74.9c0,4.5,2.6,8.5,6.6,10.4c-2.6-3.7-4.9-7.6-6.6-11.8L29,74.9L29,74.9z"/>
<path class="st4" d="M129,63.5h2v-0.2l-5.6,0.1v-5.2l-2.8-8.8l-7.4-9v-5.7h-0.1v42.2c0,9-4.3,17.4-11.6,22.7
	c-6,4.4-13.2,6.8-20.6,6.9c-19.8,0-36.8-17.9-44.1-43.4L35,63.3v0.2h2c-4.4,0-8,3.6-8,8v3.4c0,6.4,5.1,11.6,11.5,11.6v4.1
	c0,4.5,1.1,9,3.2,13c2.2,4,5.3,7.5,9.2,10c2.5,1.7,5.3,2.9,8.2,3.7c2,0.5,4.1,0.8,6.2,0.8c3.4,2.1,9.2,3.5,15.7,3.5
	s12.3-1.4,15.7-3.5c2.1,0,4.1-0.3,6.2-0.8c2.9-0.7,5.7-2,8.2-3.7c3.8-2.5,7-6,9.1-10c2.1-4,3.3-8.5,3.2-13v-4.1
	c6.4,0,11.5-5.2,11.5-11.6v-3.4C137,67.1,133.4,63.5,129,63.5z"/>
<path class="st5" d="M83,123c-6.4,0-12.4-1.3-16.1-3.5c-2.1-0.1-4.1-0.4-6.1-0.9c-3.1-0.8-6-2.1-8.7-3.9c-4-2.6-7.4-6.3-9.6-10.5
	c-2.3-4.2-3.4-8.9-3.4-13.7V62.9c0-0.8,0.7-1.5,1.5-1.5s1.5,0.7,1.5,1.5v27.7c0,4.3,1,8.5,3.1,12.3c2,3.8,5,7.1,8.7,9.5
	c2.4,1.6,5,2.7,7.8,3.5c1.9,0.5,3.9,0.7,5.8,0.8c0.3,0,0.5,0.1,0.8,0.2c3.3,2.1,8.9,3.3,14.9,3.3s11.6-1.2,14.9-3.3
	c0.2-0.1,0.5-0.2,0.8-0.2c2,0,3.9-0.3,5.8-0.8c2.8-0.7,5.4-1.9,7.8-3.4c3.6-2.4,6.6-5.6,8.7-9.5c2-3.8,3.1-8,3.1-12.3V57.8
	c0-0.8,0.7-1.5,1.5-1.5s1.5,0.7,1.5,1.5v32.8c0,4.8-1.2,9.5-3.4,13.7c-2.3,4.2-5.6,7.9-9.6,10.5c-2.7,1.8-5.6,3.1-8.7,3.9
	c-2,0.5-4,0.8-6.1,0.9C95.4,121.7,89.4,123,83,123z"/>
<path class="st5" d="M40.1,64.9c-0.3,0-0.6-0.1-0.9-0.3c-0.7-0.5-0.8-1.4-0.3-2.1c5.2-7.2,7.9-16.1,7.5-24.9c0-0.4,0.2-0.9,0.5-1.2
	c4.7-4.4,10.8-6.9,17.3-6.9h37.4c5,0,9.8,1.5,14,4.3c0.7,0.5,0.9,1.4,0.4,2.1c-0.5,0.7-1.4,0.9-2.1,0.4c-3.7-2.4-7.9-3.7-12.3-3.7
	H64.3c-5.5,0-10.7,2-14.8,5.6c0.2,9.3-2.6,18.6-8.1,26.1C41.1,64.7,40.6,64.9,40.1,64.9z"/>
<path class="st5" d="M122.2,50.9c-0.6,0-1.1-0.3-1.4-0.9c-2.4-5.3-7.2-9.1-13-10.1c-0.8-0.1-1.4-0.9-1.2-1.7
	c0.2-0.8,0.9-1.4,1.7-1.2c6.8,1.2,12.4,5.6,15.2,11.9c0.3,0.8,0,1.6-0.8,2C122.6,50.8,122.4,50.9,122.2,50.9z"/>
<path class="st5" d="M64.3,119.3c0.8,1.7,1.2,3.5,1.2,5.3v3.9c0,7.9,9.5,9.5,17.5,9.5s17.5-1.6,17.5-9.5v-3.9c0-1.9,0.4-3.7,1.2-5.3
	c-0.8,0.1-1.7,0.2-2.5,0.2c-3.8,2.2-9.8,3.5-16.1,3.5c-6.4,0-12.4-1.3-16.1-3.5C66,119.4,65.2,119.4,64.3,119.3z M83,141
	c-13.2,0-20.5-4.4-20.5-12.5v-3.9c0-2.4-0.9-4.7-2.5-6.5c-0.4-0.5-0.5-1.2-0.2-1.8s1-0.8,1.7-0.7c1.9,0.5,3.9,0.7,5.8,0.8
	c0.3,0,0.5,0.1,0.8,0.2c3.3,2.1,8.9,3.3,14.9,3.3s11.6-1.2,14.9-3.3c0.2-0.1,0.5-0.2,0.8-0.2c2,0,3.9-0.3,5.8-0.8
	c0.6-0.2,1.3,0.1,1.7,0.7c0.3,0.6,0.3,1.3-0.2,1.8c-1.6,1.8-2.5,4.1-2.5,6.5v3.9C103.5,136.6,96.2,141,83,141z"/>
<path class="st5" d="M103,247c-0.7,0-1.4-0.6-1.5-1.3l-10.7-84.5H75.2l-10.7,84.5c-0.1,0.8-0.9,1.4-1.7,1.3
	c-0.8-0.1-1.4-0.9-1.3-1.7l10.9-85.8c0.1-0.8,0.7-1.3,1.5-1.3h18.3c0.8,0,1.4,0.6,1.5,1.3l10.9,85.8c0.1,0.8-0.5,1.6-1.3,1.7
	C103.1,247,103.1,247,103,247z"/>
<path class="st5" d="M119.6,247c-0.8,0-1.5-0.7-1.5-1.5v-94.8c0-0.8,0.7-1.5,1.5-1.5h34.6C147,137.3,134.1,130,120,130l-11.6,0.1
	l0.5,20.9c0,0.5-0.2,1-0.7,1.3c-0.4,0.3-1,0.3-1.5,0.1L83,141.1l-23.7,11.2c-0.5,0.2-1,0.2-1.5-0.1c-0.4-0.3-0.7-0.8-0.7-1.3
	l0.5-20.9L46,130c-22,0-40,17.9-40,40v35.2c0,0.8-0.7,1.5-1.5,1.5c-0.8,0-1.5-0.7-1.5-1.5V170c0-23.7,19.3-43,43-43l13.1,0.1
	c0.4,0,0.8,0.2,1.1,0.5c0.3,0.3,0.4,0.7,0.4,1.1l-0.5,20l22.2-10.5c0.4-0.2,0.9-0.2,1.3,0l22.2,10.5l-0.5-20c0-0.4,0.1-0.8,0.4-1.1
	c0.3-0.3,0.7-0.5,1.1-0.5L120,127c16.1,0,30.7,8.8,38.1,23c0.2,0.5,0.2,1,0,1.5c-0.3,0.4-0.8,0.7-1.3,0.7h-35.7v93.3
	C121.1,246.3,120.4,247,119.6,247z"/>
<path class="st5" d="M60.6,130.1l-0.4,18.6l3.2-1.5l13.7-6.5c-8.7-1.1-13.7-4.8-14.5-10.6H60.6z M58.6,152.5c-0.3,0-0.6-0.1-0.8-0.2
	c-0.4-0.3-0.7-0.8-0.7-1.3l0.5-22.4c0-0.8,0.7-1.5,1.5-1.5L64,127c0.4,0,0.8,0.1,1.1,0.4c0.3,0.3,0.4,0.7,0.4,1.1
	c0,7.9,9.5,9.5,17.5,9.5c0.7,0,1.3,0.5,1.5,1.2c0.2,0.7-0.2,1.4-0.8,1.7l-24.4,11.5C59.1,152.5,58.8,152.5,58.6,152.5z"/>
<path class="st5" d="M88.9,140.6l16.9,8l-0.4-18.6h-2C102.7,135.9,97.7,139.5,88.9,140.6z M107.4,152.5c-0.2,0-0.4,0-0.6-0.1
	l-24.4-11.5c-0.6-0.3-1-1-0.8-1.7c0.2-0.7,0.8-1.2,1.5-1.2c8,0,17.5-1.6,17.5-9.5c0-0.4,0.2-0.8,0.4-1.1c0.3-0.3,0.7-0.4,1.1-0.4
	l4.9,0.1c0.8,0,1.5,0.7,1.5,1.5l0.5,22.5c0,0.5-0.2,1-0.7,1.3C107.9,152.4,107.7,152.5,107.4,152.5z"/>
<path class="st5" d="M37,65c-3.6,0-6.5,2.9-6.5,6.5v3.4c0,5,3.7,9.2,8.5,10V65H37z M40.5,88c-7.2-0.1-13-5.9-13-13.1v-3.4
	c0-5.2,4.3-9.5,9.5-9.5h3.5c0.8,0,1.5,0.7,1.5,1.5v23c0,0.4-0.2,0.8-0.4,1.1C41.3,87.8,40.9,88,40.5,88z"/>
<path class="st5" d="M127,65v19.9c4.8-0.8,8.5-5,8.5-10v-3.4c0-3.6-2.9-6.5-6.5-6.5H127z M125.5,88c-0.4,0-0.8-0.2-1.1-0.4
	c-0.3-0.3-0.4-0.7-0.4-1.1v-23c0-0.8,0.7-1.5,1.5-1.5h3.5c5.2,0,9.5,4.3,9.5,9.5v3.4C138.5,82.1,132.7,87.9,125.5,88z"/>
<path class="st5" d="M36.8,77.8c-0.4,0-0.8-0.2-1.1-0.5c-0.9-1-1.3-2.3-1.2-3.6c0.1-1.3,0.7-2.5,1.7-3.4c0.9-0.8,2.1-1.2,3.2-1.2
	c0.8,0,1.5,0.7,1.5,1.5c0,0.8-0.7,1.5-1.5,1.5c-0.5,0-0.9,0.2-1.3,0.5c-0.4,0.3-0.7,0.8-0.7,1.4c0,0.5,0.1,1,0.5,1.5
	c0.5,0.6,0.5,1.6-0.2,2.1C37.5,77.7,37.2,77.8,36.8,77.8z"/>
<path class="st5" d="M129.2,77.8c-0.3,0-0.7-0.1-1-0.4c-0.6-0.5-0.7-1.5-0.2-2.1c0.7-0.8,0.6-2.1-0.2-2.8c-0.4-0.3-0.8-0.5-1.3-0.5
	c-0.8,0-1.5-0.7-1.5-1.5c0-0.8,0.7-1.5,1.5-1.5c1.2,0,2.3,0.4,3.2,1.2c2.1,1.8,2.4,5,0.6,7C130,77.6,129.6,77.8,129.2,77.8z"/>
<path class="st5" d="M131,65c-0.8,0-1.5-0.7-1.5-1.5V41.7C129.5,21.5,113,5,92.8,5H73.2c0,0,0,0-0.1,0c-6.7,0-13.3,1.9-19,5.4
	c-2.8,1.7-4.6,4.9-4.6,8.2v2c0,0.4-0.2,0.8-0.4,1.1C48.8,21.9,48.3,22,48,22c0,0,0,0-0.1,0c-3.8,0-7.2,2.3-8.7,5.8
	c-1.8,4.4-2.7,9.1-2.7,13.9v21.8c0,0.8-0.7,1.5-1.5,1.5c-0.8,0-1.5-0.7-1.5-1.5V41.7c0-5.2,1-10.2,3-15c1.8-4.2,5.6-7,10-7.6v-0.6
	c0-4.4,2.3-8.5,6-10.7C58.7,4,65.9,2,73.1,2c0,0,0,0,0.1,0h19.6c21.9,0,39.7,17.8,39.7,39.7v21.8C132.5,64.3,131.8,65,131,65z"/>
<path class="st5" d="M56.2,69.2c-0.1,0-0.3,0-0.4-0.1c-0.8-0.2-1.3-1-1.1-1.8c0.7-2.6,2.6-4.7,5.1-5.7c2.1-0.8,4.4-0.8,6.5,0.1
	c2.1,0.9,3.7,2.6,4.5,4.7c0.3,0.8-0.1,1.6-0.8,1.9c-0.8,0.3-1.6-0.1-1.9-0.8c-0.5-1.4-1.6-2.4-2.9-3c-1.3-0.6-2.8-0.6-4.2-0.1
	c-1.6,0.6-2.8,2-3.3,3.7C57.5,68.7,56.9,69.2,56.2,69.2z"/>
<path class="st5" d="M111.8,69.2c-0.7,0-1.3-0.4-1.4-1.1c-0.5-1.7-1.7-3-3.3-3.7c-1.4-0.5-2.9-0.5-4.2,0.1c-1.3,0.6-2.4,1.7-2.9,3
	c-0.3,0.8-1.2,1.1-1.9,0.8c-0.8-0.3-1.1-1.2-0.8-1.9c0.8-2.1,2.5-3.8,4.5-4.7c2.1-0.9,4.4-0.9,6.5-0.1c2.5,1,4.4,3.1,5.1,5.7
	c0.2,0.8-0.3,1.6-1.1,1.8C112,69.2,111.9,69.2,111.8,69.2z"/>
<path class="st5" d="M88.3,89C88.3,89,88.2,89,88.3,89h-3.8c-0.8,0-1.5-0.7-1.5-1.5c0-0.8,0.7-1.5,1.5-1.5h3.7
	c1.5,0,2.7-1.2,2.7-2.7V81c0-0.6-0.5-1-1-1c-3.3,0-6-2.7-6-6v-7.5c0-0.8,0.7-1.5,1.5-1.5s1.5,0.7,1.5,1.5V74c0,1.6,1.3,3,3,3
	c2.2,0,4,1.8,4,4v2.3c0,1.6-0.6,3-1.7,4.1C91.2,88.4,89.8,89,88.3,89z"/>
<path class="st5" d="M79,89h-2.5c-0.8,0-1.5-0.7-1.5-1.5c0-0.8,0.7-1.5,1.5-1.5H79c0.8,0,1.5,0.7,1.5,1.5C80.5,88.3,79.8,89,79,89z"
	/>
<path class="st5" d="M83.4,102.5h-0.7c-4.1,0-8-1.4-11.1-4.1c-0.6-0.5-0.7-1.5-0.2-2.1s1.5-0.7,2.1-0.2c2.6,2.2,5.8,3.4,9.2,3.4h0.7
	c3.4,0,6.6-1.2,9.2-3.4c0.6-0.5,1.6-0.5,2.1,0.2c0.5,0.6,0.5,1.6-0.2,2.1C91.4,101.1,87.4,102.5,83.4,102.5z"/>
<path class="st5" d="M86,108h-6c-0.8,0-1.5-0.7-1.5-1.5c0-0.8,0.7-1.5,1.5-1.5h6c0.8,0,1.5,0.7,1.5,1.5C87.5,107.3,86.8,108,86,108z
	"/>
<path class="st5" d="M75.1,158.2h15.8l2.2-12.3L83,141.2L72.9,146L75.1,158.2z M92.1,161.2H73.9c-0.7,0-1.3-0.5-1.5-1.2l-2.6-14.6
	c-0.1-0.7,0.2-1.3,0.8-1.6l11.8-5.5c0.4-0.2,0.9-0.2,1.3,0l11.8,5.5c0.6,0.3,1,1,0.8,1.6L93.6,160C93.5,160.7,92.9,161.2,92.1,161.2
	z"/>
<path class="st5" d="M62.7,259.8L83,280.9l20.3-21.1l-12.5-98.6H75.2L62.7,259.8z M83,284.6c-0.4,0-0.8-0.2-1.1-0.5L60,261.3
	c-0.3-0.3-0.5-0.8-0.4-1.2l12.7-100.6c0.1-0.8,0.7-1.3,1.5-1.3h18.3c0.8,0,1.4,0.6,1.5,1.3l12.7,100.6c0.1,0.4-0.1,0.9-0.4,1.2
	L84,284.1C83.8,284.4,83.4,284.6,83,284.6z"/>
<path class="st5" d="M140.5,263.5h65.8V228h-6.1c-3.3,0-6-2.4-6.4-5.6c0-0.2,0-0.5,0-0.7c0-1.2,0.3-2.3,0.9-3.3h-2.4
	c-3.2,0.1-6-2.3-6.4-5.6c0-0.2,0-0.5,0-0.7c0-1.2,0.3-2.3,0.9-3.2c-0.2,0-0.4,0-0.6,0c-1.7-0.2-3.2-1-4.2-2.3
	c-1.1-1.3-1.6-2.9-1.4-4.6c0.4-3.2,3-5.6,6.2-5.6c-0.7-1.2-1-2.6-0.9-3.9c0.4-3.3,3.2-5.7,6.5-5.6h14v-34.7h-85.3V244H139
	c0.8,0,1.5,0.7,1.5,1.5V263.5z M207.9,266.5H139c-0.8,0-1.5-0.7-1.5-1.5v-18h-17.9c-0.8,0-1.5-0.7-1.5-1.5v-94.8
	c0-0.8,0.7-1.5,1.5-1.5h88.3c0.8,0,1.5,0.7,1.5,1.5v37.7c0,0.8-0.7,1.5-1.5,1.5h-15.6c-1.7,0-3.2,1.2-3.5,3
	c-0.1,0.9,0.2,1.7,0.7,2.4c0.5,0.7,1.3,1.1,2.2,1.2c0.1,0,0.2,0,0.4,0c0.8,0,1.5,0.7,1.5,1.5c0,0.8-0.7,1.5-1.5,1.5H187
	c-1.8,0-3.2,1.2-3.5,3c-0.1,0.8,0.2,1.7,0.7,2.4c0.6,0.7,1.3,1.1,2.2,1.2c0.1,0,0.2,0,0.3,0h5.3c0.8,0,1.5,0.7,1.5,1.5
	c0,0.8-0.7,1.5-1.5,1.5c-1.8,0-3.2,1.5-3.2,3.2c0,0.1,0,0.2,0,0.3c0.2,1.7,1.7,3,3.4,2.9h7.8c0.8,0,1.5,0.7,1.5,1.5
	c0,0.8-0.7,1.5-1.5,1.5c-0.9,0-1.7,0.3-2.3,1c-0.6,0.6-1,1.4-1,2.3c0,0.1,0,0.2,0,0.3c0.2,1.7,1.7,3,3.4,2.9h7.6
	c0.8,0,1.5,0.7,1.5,1.5V265C209.4,265.8,208.7,266.5,207.9,266.5z"/>
<path class="st5" d="M123.2,247l14.3,14.3V247H123.2z M139,266.4c-0.4,0-0.8-0.2-1.1-0.4l-19.4-19.4c-0.4-0.4-0.6-1.1-0.3-1.6
	c0.2-0.6,0.8-0.9,1.4-0.9H139c0.8,0,1.5,0.7,1.5,1.5V265c0,0.6-0.4,1.2-0.9,1.4C139.4,266.4,139.2,266.4,139,266.4z"/>
<path class="st5" d="M214,189.9h-6.2c-0.8,0-1.5-0.7-1.5-1.5c0-0.8,0.7-1.5,1.5-1.5h6.2c0.8,0,1.5,0.7,1.5,1.5
	C215.5,189.2,214.9,189.9,214,189.9z"/>
<path class="st5" d="M214,199.5h-21.9c-0.8,0-1.5-0.7-1.5-1.5c0-0.8,0.7-1.5,1.5-1.5H214c0.8,0,1.5,0.7,1.5,1.5
	C215.5,198.8,214.9,199.5,214,199.5z"/>
<path class="st5" d="M214,209h-21.9c-0.8,0-1.5-0.7-1.5-1.5c0-0.8,0.7-1.5,1.5-1.5H214c0.8,0,1.5,0.7,1.5,1.5
	C215.5,208.3,214.9,209,214,209z"/>
<path class="st5" d="M214,218.5h-14c-0.8,0-1.5-0.7-1.5-1.5c0-0.8,0.7-1.5,1.5-1.5h14c0.8,0,1.5,0.7,1.5,1.5
	C215.5,217.8,214.9,218.5,214,218.5z"/>
<rect x="40" y="199.1" class="st5" width="3" height="46.4"/>
<rect x="3" y="199.1" class="st5" width="3" height="46.4"/>
<path class="st5" d="M41.5,193.3c-0.8,0-1.5-0.7-1.5-1.5V187c0-0.8,0.7-1.5,1.5-1.5c0.8,0,1.5,0.7,1.5,1.5v4.9
	C43,192.7,42.3,193.3,41.5,193.3z"/>
<path class="st5" d="M41.5,205.1c-0.8,0-1.5-0.7-1.5-1.5v-4.9c0-0.8,0.7-1.5,1.5-1.5c0.8,0,1.5,0.7,1.5,1.5v4.9
	C43,204.5,42.3,205.1,41.5,205.1z"/>
<path class="st3" d="M191,170.6h-54.5c-0.8,0-1.5-0.7-1.5-1.5c0-0.8,0.7-1.5,1.5-1.5H191c0.8,0,1.5,0.7,1.5,1.5
	C192.5,169.9,191.8,170.6,191,170.6z"/>
<path class="st3" d="M150,181.9h-13.5c-0.8,0-1.5-0.7-1.5-1.5c0-0.8,0.7-1.5,1.5-1.5H150c0.8,0,1.5,0.7,1.5,1.5
	C151.5,181.2,150.9,181.9,150,181.9z"/>
<path class="st3" d="M161.9,193.2h-25.4c-0.8,0-1.5-0.7-1.5-1.5c0-0.8,0.7-1.5,1.5-1.5h25.4c0.8,0,1.5,0.7,1.5,1.5
	C163.4,192.5,162.7,193.2,161.9,193.2z"/>
<path class="st3" d="M187.4,193.2h-17.6c-0.8,0-1.5-0.7-1.5-1.5c0-0.8,0.7-1.5,1.5-1.5h17.6c0.8,0,1.5,0.7,1.5,1.5
	C188.9,192.5,188.2,193.2,187.4,193.2z"/>
<path class="st3" d="M174.6,204.6h-38.1c-0.8,0-1.5-0.7-1.5-1.5c0-0.8,0.7-1.5,1.5-1.5h38.1c0.8,0,1.5,0.7,1.5,1.5
	C176.1,203.9,175.4,204.6,174.6,204.6z"/>
<path class="st3" d="M178.6,215.9h-42.1c-0.8,0-1.5-0.7-1.5-1.5c0-0.8,0.7-1.5,1.5-1.5h42.1c0.8,0,1.5,0.7,1.5,1.5
	C180.1,215.2,179.4,215.9,178.6,215.9z"/>
<path class="st3" d="M145.7,227.2h-9.2c-0.8,0-1.5-0.7-1.5-1.5c0-0.8,0.7-1.5,1.5-1.5h9.2c0.8,0,1.5,0.7,1.5,1.5
	C147.2,226.5,146.5,227.2,145.7,227.2z"/>
<path class="st3" d="M191,227.2h-36.8c-0.8,0-1.5-0.7-1.5-1.5c0-0.8,0.7-1.5,1.5-1.5H191c0.8,0,1.5,0.7,1.5,1.5
	C192.5,226.5,191.8,227.2,191,227.2z"/>
<path class="st3" d="M191,238.5h-41c-0.8,0-1.5-0.7-1.5-1.5c0-0.8,0.7-1.5,1.5-1.5h41c0.8,0,1.5,0.7,1.5,1.5
	C192.5,237.8,191.8,238.5,191,238.5z"/>
<path class="st3" d="M191.2,181.9H158c-0.8,0-1.5-0.7-1.5-1.5c0-0.8,0.7-1.5,1.5-1.5h33.2c0.8,0,1.5,0.7,1.5,1.5
	C192.7,181.2,192.1,181.9,191.2,181.9z"/>
<path class="st5" d="M71.3,181.4c-0.6,0-1.1-0.3-1.4-0.9c-0.3-0.8,0-1.6,0.7-2l22.1-10c0.8-0.3,1.6,0,2,0.7c0.3,0.8,0,1.6-0.7,2
	l-22.1,10C71.7,181.4,71.5,181.4,71.3,181.4z"/>
<path class="st5" d="M68.6,202.9c-0.6,0-1.1-0.3-1.4-0.9c-0.3-0.8,0-1.6,0.7-2l27.3-12.3c0.8-0.3,1.6,0,2,0.7c0.3,0.8,0,1.6-0.7,2
	l-27.3,12.3C69,202.8,68.8,202.9,68.6,202.9z"/>
<path class="st5" d="M65.9,224.3c-0.6,0-1.1-0.3-1.4-0.9c-0.3-0.8,0-1.6,0.7-2l32.4-14.6c0.8-0.3,1.6,0,2,0.7c0.3,0.8,0,1.6-0.7,2
	l-32.4,14.6C66.3,224.2,66.1,224.3,65.9,224.3z"/>
<path class="st5" d="M63.2,245.7c-0.6,0-1.1-0.3-1.4-0.9c-0.3-0.8,0-1.6,0.7-2l37.5-17c0.8-0.3,1.6,0,2,0.7c0.3,0.8,0,1.6-0.7,2
	l-37.5,17C63.6,245.6,63.4,245.7,63.2,245.7z"/>
<path class="st5" d="M64.5,265.3c-0.6,0-1.1-0.3-1.4-0.9c-0.3-0.8,0-1.6,0.7-2l38.7-17.5c0.8-0.3,1.6,0,2,0.7c0.3,0.8,0,1.6-0.7,2
	l-38.7,17.5C64.9,265.2,64.7,265.3,64.5,265.3z"/>
<path class="st5" d="M78,279.3c-0.6,0-1.1-0.3-1.4-0.9c-0.3-0.8,0-1.6,0.7-2l17.8-8c0.8-0.3,1.6,0,2,0.7c0.3,0.8,0,1.6-0.7,2
	l-17.8,8C78.4,279.3,78.2,279.3,78,279.3z"/>
<path class="st5" d="M201.6,217c0,0.8-0.7,1.5-1.5,1.5c-0.1,0-0.2,0-0.3,0c-1.8,0.2-3.1,1.8-2.9,3.6c0.2,1.7,1.7,3,3.4,2.9H214
	c5.6,0,10.2-4.6,10.2-10.2v-20.1c0-3.6-1.4-7.1-4-9.6l-3.1-3.1c-2.1-2.1-4.8-3.5-7.8-3.9v10.4c0,0.8-0.7,1.5-1.5,1.5h-15.6
	c-1.8,0-3.2,1.2-3.5,3c0,0.1,0,0.2,0,0.3c0,1.8,1.5,3.2,3.2,3.2c0.8,0,1.5,0.7,1.5,1.5c0,0.8-0.7,1.5-1.5,1.5H187
	c-1.8-0.1-3.2,1.2-3.5,3c0,0.1,0,0.2,0,0.3c0,1.8,1.5,3.3,3.3,3.3h5.3c0.8,0,1.5,0.7,1.5,1.5c0,0.8-0.7,1.5-1.5,1.5
	c-0.1,0-0.2,0-0.3,0c-0.9,0.1-1.6,0.5-2.2,1.2c-0.6,0.7-0.8,1.5-0.7,2.4c0.2,1.7,1.6,2.9,3.3,2.9c0,0,0,0,0.1,0h7.8
	C200.9,215.5,201.6,216.2,201.6,217z M200.2,228c-3.2,0-5.9-2.4-6.3-5.6c-0.1-1.4,0.2-2.8,0.9-3.9h-2.4c-3.2,0.1-6-2.3-6.4-5.6
	c-0.1-1.4,0.2-2.7,0.9-3.9c-3.4,0-6.2-2.8-6.2-6.3c0-0.2,0-0.4,0-0.6c0.4-3.2,3-5.6,6.2-5.6c-0.6-0.9-0.9-2.1-0.9-3.2
	c0-0.2,0-0.4,0-0.6c0.4-3.3,3.2-5.7,6.5-5.6h14v-10.5c0-0.4,0.2-0.8,0.5-1.1c0.3-0.3,0.7-0.4,1.1-0.4c4.3,0.1,8.3,1.8,11.4,4.9
	l3.1,3.1c3.1,3.1,4.9,7.3,4.9,11.7v20.1c0,7.3-5.9,13.2-13.2,13.2h-13.7C200.2,228,200.2,228,200.2,228z"/>
<path class="st5" d="M34.3,237.2H20.1c-0.8,0-1.5-0.7-1.5-1.5c0-0.8,0.7-1.5,1.5-1.5h14.2c0.8,0,1.5,0.7,1.5,1.5
	C35.8,236.5,35.1,237.2,34.3,237.2z"/>
</svg>
