<?xml version="1.0" encoding="UTF-8"?>
<svg width="1440px" height="2211px" viewBox="0 0 1440 2211" version="1.1" xmlns="http://www.w3.org/2000/svg" xmlns:xlink="http://www.w3.org/1999/xlink">
    <!-- Generator: Sketch 58 (84663) - https://sketch.com -->
    <title>Blue BG site</title>
    <desc>Created with Sketch.</desc>
    <defs>
        <linearGradient x1="50%" y1="0%" x2="50%" y2="98.6116976%" id="linearGradient-1">
            <stop stop-color="#318CE7" offset="0%"></stop>
            <stop stop-color="#074286" offset="100%"></stop>
        </linearGradient>
        <rect id="path-2" x="0" y="0" width="1440" height="2640"></rect>
        <radialGradient cx="50%" cy="50%" fx="50%" fy="50%" r="47.9386814%" gradientTransform="translate(0.500000,0.500000),scale(0.999574,1.000000),rotate(88.755633),translate(-0.500000,-0.500000)" id="radialGradient-4">
            <stop stop-color="#58D3FC" offset="0%"></stop>
            <stop stop-color="#318CE7" stop-opacity="0" offset="100%"></stop>
        </radialGradient>
    </defs>
    <g id="Certree-Pages" stroke="none" stroke-width="1" fill="none" fill-rule="evenodd">
        <g id="Certree.com---Home-V02---Full-Contact-form" transform="translate(0.000000, -1729.000000)">
            <g id="Blue-BG-site" transform="translate(0.000000, 1729.000000)">
                <mask id="mask-3" fill="white">
                    <use xlink:href="#path-2"></use>
                </mask>
                <g id="Mask">
                    <use fill="#46515F" xlink:href="#path-2"></use>
                    <use fill="url(#linearGradient-1)" xlink:href="#path-2"></use>
                </g>
                <ellipse id="Oval" fill="url(#radialGradient-4)" opacity="0.5" mask="url(#mask-3)" cx="1438.5" cy="748" rx="1174.5" ry="1174"></ellipse>
                <g id="certree_key" opacity="0.100000001" style="mix-blend-mode: screen;" mask="url(#mask-3)">
                    <g transform="translate(-624.000000, 614.000000)" id="Shape">
                        <path d="M904.449613,2151.03204 C917.303138,2151.25447 929.841587,2156.17322 939.123397,2164.63297 C966.602099,2190.54786 993.881943,2216.60181 1020.98875,2242.71758 C1039.08751,2260.60279 1039.92427,2291.3051 1020.98875,2310.01697 L996.76669,2333.02182 L1011.0553,2346.44791 C1022.79303,2357.71608 1033.1542,2369.49161 1034.99153,2384.08417 C1036.78642,2398.36916 1031.47921,2413.12801 1020.98875,2423.46769 L996.76669,2446.60645 L1011.0553,2459.95626 C1022.79303,2471.1872 1033.1542,2482.97692 1034.99153,2497.52716 C1036.78642,2511.81216 1031.47921,2526.57873 1020.98875,2536.89009 C993.881943,2563.09598 966.563361,2589.13964 939.123397,2614.99375 C923.343804,2629.4191 892.554227,2634.46919 891.404977,2616.87472 L891.404977,2162.82256 C891.818191,2156.3844 892.554227,2150.97376 904.449613,2151.03204 Z M746.02353,1856.94032 L746.02353,2067.60986 L292.973033,1617.72577 C217.522109,1542.68417 142.153044,1467.55769 66.9455055,1392.26467 C-18.2496032,1305.99329 -26.2798666,1151.77098 66.8848148,1057.37979 L87.6263282,1036.5871 L187.600511,1136.03611 C189.577996,1138.00876 191.666016,1139.85008 193.784769,1141.53945 L173.073471,1162.50468 L173.073471,1162.50468 C140.720657,1195.69985 139.681424,1253.73602 174.112704,1288.24972 L746.02353,1856.94032 Z M889.881252,1714.60543 C985.524698,1619.99191 1081.31621,1525.51689 1176.52272,1430.48827 L1320.86042,1285.27271 L1320.86042,1285.27271 C1351.40724,1251.8329 1351.46922,1195.76165 1318.38889,1162.26261 C1148.99715,992.75867 980.121931,822.670149 808.571152,655.236725 C791.76369,639.092389 768.582408,629.847188 745.297823,629.906419 C722.155281,630.127892 699.286492,639.504432 682.719211,655.689972 C587.124833,750.06828 491.396162,844.35903 396.052295,939.018042 L391.109228,933.648615 L391.109228,933.648615 L290.793886,833.857099 C386.176491,738.922534 481.732129,644.181113 577.44014,549.601934 C617.5829,510.441519 671.221265,486.238924 727.460261,481.738363 L747.245092,480.984 L747.245092,480.984 C808.984365,481.547983 869.907541,506.455945 914.204036,549.661165 C1084.98779,718.472355 1255.2576,887.806324 1425.00057,1057.62187 C1511.246,1145.03924 1517.83417,1299.64784 1423.91331,1393.61411 L889.881252,1924.71099 L889.881252,1714.60543 Z" fill="#44516B"></path>
                        <path d="M768.822589,952.945878 C794.214563,952.945878 814.864911,973.527395 814.864911,998.8577 L814.864911,1307.82768 L1093.12035,1032.50611 L1093.12035,1032.50611 L1192.56794,1131.43234 L1198.62152,1136.80434 L1198.62152,1136.80434 L814.864911,1518.46633 L814.864911,2815.22398 C814.864911,2840.62464 794.214563,2861.19658 768.822589,2861.19658 L717.010772,2861.19658 C691.567146,2861.19658 670.947789,2840.62464 670.947789,2815.22398 L670.947789,998.8577 C670.947789,973.527395 691.567146,952.945878 717.010772,952.945878 L768.822589,952.945878 Z M602.023765,1443.65488 C423.502589,1266.38395 244.750272,1089.33448 66.9455055,911.378527 C-18.2496032,824.986115 -26.2798666,670.874537 66.8848148,576.41382 C236.518283,406.595701 406.715788,237.38792 577.44014,68.6308099 C617.5829,29.4867832 671.221265,5.28354971 727.460261,0.761454174 L747.245092,0 L747.245092,0 C808.984365,0.59231093 869.907541,25.4951226 914.204036,68.7080679 C1084.98779,237.516683 1255.2576,406.848077 1425.00057,576.635292 C1511.246,664.083563 1517.83417,818.679291 1423.91331,912.727965 L1401.5068,934.998856 L1396.07821,929.044844 L1396.07821,929.044844 L1296.04437,829.523731 L1318.8021,806.498288 L1318.8021,806.498288 C1351.46922,772.97864 1351.88243,715.225749 1318.38889,681.304359 C1148.99715,511.759219 980.121931,341.673272 808.571152,174.268177 C791.76369,158.095513 768.652138,148.953323 745.297823,148.953323 C722.12429,149.159344 699.286492,158.559061 682.719211,174.705972 C512.278943,343.079367 341.32474,511.004666 173.073471,681.515531 C140.659966,714.813706 139.61092,772.708237 174.112704,807.25284 L602.023765,1232.80507 L602.023765,1443.65488 Z" fill="#318CE7"></path>
                    </g>
                </g>
            </g>
        </g>
    </g>
</svg>