<?xml version="1.0" encoding="UTF-8"?>
<svg width="197px" height="64px" viewBox="0 0 197 64" version="1.1" xmlns="http://www.w3.org/2000/svg" xmlns:xlink="http://www.w3.org/1999/xlink">
    <!-- Generator: Sketch 63.1 (92452) - https://sketch.com -->
    <title>Certree_Logo-notag-white</title>
    <desc>Created with Sketch.</desc>
    <defs>
        <path d="M180.658302,35.2982811 C180.688631,36.7909097 181.301511,38.1270811 182.496942,39.3078811 C183.69409,40.4857668 185.188236,41.0761668 186.982241,41.0761668 C188.087829,41.0761668 189.033186,40.9194811 189.818886,40.6041097 C190.604014,40.2920525 191.392575,39.8522811 192.183425,39.2833097 C192.723057,38.9110239 193.132788,38.9404525 193.417769,39.3726239 L194.650968,41.2991954 C194.860412,41.5527382 194.965134,41.7926811 194.965134,42.0143382 C194.965134,42.2692525 194.828938,42.5076525 194.561697,42.7308525 C193.7079,43.4779954 192.598306,44.1025097 191.230628,44.6018811 C189.865238,45.1018811 188.357359,45.3507382 186.714428,45.3507382 C184.620564,45.3507382 182.758461,44.8449668 181.130981,43.8283954 C179.499495,42.8137097 178.255995,41.4667954 177.396475,39.7878239 C176.537527,38.1085668 176.10605,36.2618811 176.10605,34.2467382 C176.10605,32.2607954 176.537527,30.4277668 177.396475,28.7496525 C178.255995,27.0694811 179.499495,25.7233097 181.130981,24.7076525 C182.758461,23.6920525 184.604541,23.1844525 186.668075,23.1844525 C189.433762,23.1844525 191.738786,24.1081097 193.585438,25.9500525 C195.431518,27.7938239 196.353413,30.1194811 196.353413,32.9250811 C196.353413,33.2535001 196.340696,33.578643 196.314415,33.9003911 L196.264714,34.3804525 C196.25098,34.6494239 196.145686,34.8699382 195.949977,35.0415954 C195.756556,35.2130239 195.54139,35.2982811 195.301045,35.2982811 L180.658302,35.2982811 Z M80.8544013,35.2982811 C80.8841583,36.7909097 81.4976108,38.1270811 82.6930418,39.3078811 C83.8896174,40.4857668 85.3843354,41.0761668 87.1789126,41.0761668 C88.2845003,41.0761668 89.2304302,40.9194811 90.0144132,40.6041097 C90.7989685,40.2920525 91.5875295,39.8522811 92.3812408,39.2833097 C92.9185839,38.9110239 93.3294597,38.9404525 93.6138681,39.3726239 L94.84764,41.2991954 C95.0565114,41.5527382 95.1606609,41.7926811 95.1606609,42.0143382 C95.1606609,42.2692525 95.0267543,42.5076525 94.7572244,42.7308525 C93.9057158,43.4779954 92.7955501,44.1025097 91.4267272,44.6018811 C90.059621,45.1018811 88.5540302,45.3507382 86.9093826,45.3507382 C84.816663,45.3507382 82.9545602,44.8449668 81.3253634,43.8283954 C79.6967388,42.8137097 78.4526665,41.4667954 77.5914296,39.7878239 C76.7319096,38.1085668 76.303294,36.2618811 76.303294,34.2467382 C76.303294,32.2607954 76.7319096,30.4277668 77.5914296,28.7496525 C78.4526665,27.0694811 79.6967388,25.7233097 81.3253634,24.7076525 C82.9545602,23.6920525 84.8012122,23.1844525 86.8636026,23.1844525 C89.6292887,23.1844525 91.93603,24.1081097 93.7809653,25.9500525 C95.627045,27.7938239 96.5512294,30.1194811 96.5512294,32.9250811 C96.5512294,33.4177097 96.5220446,33.9029668 96.4619583,34.3804525 C96.4459353,34.6494239 96.3417857,34.8699382 96.1477928,35.0415954 C95.9520832,35.2130239 95.7363448,35.2982811 95.4959997,35.2982811 L80.8544013,35.2982811 Z M125.096223,27.5507382 L125.096223,38.8373668 C125.096223,39.6721668 125.237569,40.2398239 125.520833,40.5379954 C125.805814,40.8362239 126.222984,40.9855382 126.77635,40.9855382 C127.867632,40.9855382 129.004121,40.6502811 130.185246,39.9783954 C130.379239,39.8737097 130.559497,39.8214811 130.722589,39.8214811 C131.036754,39.8214811 131.269088,40.0243954 131.418445,40.4273097 L132.248781,42.5985097 C132.30715,42.7308525 132.338052,42.8598811 132.338052,42.9797668 C132.338052,43.3058811 132.144059,43.5886811 131.754356,43.8283954 C131.201562,44.1730811 130.363788,44.5127954 129.242749,44.8480525 C128.121711,45.1833097 126.994378,45.3507382 125.856744,45.3507382 C123.868746,45.3507382 122.479894,44.8067954 121.686755,43.7179382 C120.895333,42.6275382 120.499336,41.0610239 120.499336,39.0157097 L120.499336,27.5507382 L118.055827,27.5507382 C117.755395,27.5507382 117.512189,27.4500525 117.323918,27.2487382 C117.139654,27.0471954 117.045805,26.8127954 117.045805,26.5435954 L117.045805,24.6630239 C117.045805,24.3639382 117.139654,24.1219382 117.323918,23.9359954 C117.512189,23.7489668 117.755395,23.6561097 118.055827,23.6561097 L120.499336,23.6561097 L120.499336,17.7451382 C120.499336,17.4612525 120.594902,17.2223954 120.788894,17.0286239 C120.984032,16.8333097 121.223232,16.7373668 121.506496,16.7373668 L124.130837,16.7373668 C124.414101,16.7373668 124.646434,16.8333097 124.826121,17.0286239 C125.005235,17.2223954 125.096223,17.4612525 125.096223,17.7451382 L125.096223,23.6561097 L130.700843,23.6561097 C130.98468,23.6561097 131.224452,23.7489668 131.418445,23.9359954 C131.61301,24.1219382 131.709721,24.3639382 131.709721,24.6630239 L131.709721,26.5435954 C131.709721,26.8127954 131.609577,27.0471954 131.407573,27.2487382 C131.20614,27.4500525 130.970945,27.5507382 130.700843,27.5507382 L125.096223,27.5507382 Z M156.891599,35.2982811 C156.920784,36.7909097 157.533664,38.1270811 158.729667,39.3078811 C159.925098,40.4857668 161.420388,41.0761668 163.213821,41.0761668 C164.319409,41.0761668 165.265339,40.9194811 166.050466,40.6041097 C166.834449,40.2920525 167.624155,39.8522811 168.415577,39.2833097 C168.953493,38.9110239 169.366085,38.9404525 169.649349,39.3726239 L170.883121,41.2991954 C171.091992,41.5527382 171.19557,41.7926811 171.19557,42.0143382 C171.19557,42.2692525 171.061091,42.5076525 170.792133,42.7308525 C169.940052,43.4779954 168.829886,44.1025097 167.464497,44.6018811 C166.095674,45.1018811 164.589511,45.3507382 162.944863,45.3507382 C160.851572,45.3507382 158.991758,44.8449668 157.360844,43.8283954 C155.731647,42.8137097 154.487575,41.4667954 153.628055,39.7878239 C152.769107,38.1085668 152.33763,36.2618811 152.33763,34.2467382 C152.33763,32.2607954 152.769107,30.4277668 153.628055,28.7496525 C154.487575,27.0694811 155.731647,25.7233097 157.360844,24.7076525 C158.991758,23.6920525 160.83841,23.1844525 162.900228,23.1844525 C165.665914,23.1844525 167.970939,24.1081097 169.817018,25.9500525 C171.66367,27.7938239 172.587282,30.1194811 172.587282,32.9250811 C172.587282,33.2535001 172.573803,33.578643 172.546843,33.9003911 L172.496295,34.3804525 C172.483133,34.6494239 172.376122,34.8699382 172.182129,35.0415954 C171.988136,35.2130239 171.771253,35.2982811 171.533769,35.2982811 L156.891599,35.2982811 Z M47.1981244,37.1342239 C45.7188,34.6118811 44.9784224,31.8433668 44.9784224,28.8279954 C44.9784224,25.8134811 45.7188,23.0355382 47.1981244,20.4991954 C48.6783645,17.9603382 50.6888518,15.9561097 53.2295863,14.4869097 C55.7711791,13.0159382 58.5515148,12.2810811 61.5712801,12.2810811 C63.8133571,12.2810811 65.8156612,12.6353668 67.5804814,13.3435954 C69.3447293,14.0538811 71.0414517,15.1163954 72.6706486,16.5357668 C72.8640692,16.7147954 72.9653575,16.9308525 72.973369,17.1839954 C72.9808083,17.4375954 72.8938262,17.6551954 72.7158564,17.8342239 L70.6981015,19.8940525 C70.367913,20.3268525 69.9867943,20.3268525 69.5530285,19.8940525 C68.4611747,18.9384525 67.2176747,18.1886811 65.8208115,17.6438239 C64.4216593,17.0994239 63.0219348,16.8270811 61.6164879,16.8270811 C59.4785605,16.8270811 57.5197474,17.3714811 55.7411932,18.4610239 C53.9627535,19.5511954 52.5752752,21.0056525 51.5821346,22.8270811 C50.5880785,24.6475954 50.0898201,26.6190239 50.0898201,28.7386811 C50.0898201,30.8574239 50.5909397,32.8273097 51.5928357,34.6494239 C52.5935872,36.4694811 53.9880469,37.9217097 55.7742693,39.0047382 C57.5615217,40.0859954 59.5226237,40.6273097 61.6605512,40.6273097 C63.2159277,40.6273097 64.6019182,40.3659382 65.8208115,39.8429097 C67.037988,39.3201668 68.2837771,38.5667954 69.5530285,37.5826811 C69.9570373,37.2694811 70.3238497,37.2536525 70.6517492,37.5371382 L72.7599196,39.6199382 C72.9104215,39.7692525 72.9842418,39.9567954 72.9842418,40.1782239 C72.9842418,40.4487382 72.8938262,40.6717097 72.7158564,40.8516525 C69.6663341,43.8069668 65.9518568,45.2833097 61.5712801,45.2833097 C58.5515148,45.2833097 55.7711791,44.5576525 53.2295863,43.1027382 C50.8703328,41.750526 48.9682823,39.9384662 47.5234348,37.6666504 L47.1981244,37.1342239 Z M104.48777,44.8373668 L102.359571,44.8373668 C102.073446,44.8373668 101.835962,44.7389097 101.640252,44.5453668 C101.446259,44.3514239 101.349549,44.1114811 101.349549,43.8283954 L101.349549,24.6630239 C101.349549,24.3940525 101.451409,24.1594239 101.652842,23.9578811 C101.854274,23.7567954 102.090041,23.6561097 102.359571,23.6561097 L103.480609,23.6561097 C103.688336,23.6561097 103.882329,23.7297668 104.062588,23.8797668 C104.241702,24.0288525 104.353863,24.2000525 104.400216,24.3940525 L104.982194,26.3197097 C105.117245,26.1107954 105.332984,25.8603382 105.631698,25.5703954 C105.930413,25.2788525 106.341861,24.9389097 106.86547,24.5516525 C107.389079,24.1627954 108.052318,23.8382239 108.860907,23.5768525 C109.66778,23.3152525 110.521006,23.1844525 111.41715,23.1844525 C112.613725,23.1844525 113.628325,23.3482811 114.4661,23.6775382 C115.07898,23.9172525 115.393146,24.2447382 115.408596,24.6630239 C115.408596,24.8132525 115.363961,24.9768525 115.272973,25.1565668 L114.176541,27.4616525 C114.039773,27.7445097 113.84578,27.9275382 113.592846,28.0114811 C113.338767,28.0929097 113.098994,28.0737097 112.875816,27.9545097 C112.395126,27.6853668 111.754778,27.5507382 110.945616,27.5507382 C110.228586,27.5507382 109.544747,27.6783954 108.89467,27.9322239 C108.243449,28.1859954 107.716979,28.4911382 107.313542,28.8502811 C106.910106,29.2076525 106.598802,29.5177097 106.383063,29.7788525 C106.167897,30.0402239 106.020256,30.2455954 105.945864,30.3949668 L105.945864,43.8283954 C105.945864,44.2482811 105.829125,44.5203954 105.597936,44.6465097 C105.404324,44.7530811 105.116133,44.8145731 104.730711,44.8321102 L104.48777,44.8373668 Z M139.647978,44.8373668 L137.518062,44.8373668 C137.233081,44.8373668 136.994453,44.7389097 136.80046,44.5453668 C136.604751,44.3514239 136.50804,44.1114811 136.50804,43.8283954 L136.50804,24.6630239 C136.50804,24.3940525 136.609901,24.1594239 136.811333,23.9578811 C137.013337,23.7567954 137.248532,23.6561097 137.518062,23.6561097 L138.639101,23.6561097 C138.846828,23.6561097 139.042537,23.7297668 139.221652,23.8797668 C139.400194,24.0288525 139.512355,24.2000525 139.558135,24.3940525 L140.140686,26.3197097 C140.275737,26.1107954 140.491475,25.8603382 140.791907,25.5703954 C141.088905,25.2788525 141.500353,24.9389097 142.023962,24.5516525 C142.547571,24.1627954 143.212526,23.8382239 144.019399,23.5768525 C144.826844,23.3152525 145.679497,23.1844525 146.577358,23.1844525 C147.772217,23.1844525 148.788533,23.3482811 149.626308,23.6775382 C150.237471,23.9172525 150.551637,24.2447382 150.567088,24.6630239 C150.567088,24.8132525 150.522452,24.9768525 150.431464,25.1565668 L149.335033,27.4616525 C149.199981,27.7445097 149.005416,27.9275382 148.751337,28.0114811 C148.49783,28.0929097 148.257485,28.0737097 148.034307,27.9545097 C147.556478,27.6853668 146.913269,27.5507382 146.104679,27.5507382 C145.388222,27.5507382 144.703238,27.6783954 144.053162,27.9322239 C143.401941,28.1859954 142.87547,28.4911382 142.472034,28.8502811 C142.068597,29.2076525 141.75901,29.5177097 141.541555,29.7788525 C141.326388,30.0402239 141.179892,30.2455954 141.104928,30.3949668 L141.104928,43.8283954 C141.104928,44.2482811 140.988761,44.5203954 140.756427,44.6465097 C140.5652,44.7530811 140.275419,44.8145731 139.890395,44.8321102 L139.647978,44.8373668 Z M180.882624,31.8953668 L191.80345,31.8953668 C191.757098,30.5661668 191.253518,29.4329097 190.289848,28.4911382 C189.324462,27.5507382 188.087829,27.0804525 186.57766,27.0804525 C184.963342,27.0804525 183.652888,27.5369097 182.644011,28.4473668 C181.734991,29.2664182 181.168978,30.2794531 180.944721,31.4860131 L180.882624,31.8953668 Z M81.079868,31.8953668 L91.9995498,31.8953668 C91.9537698,30.5661668 91.4490449,29.4329097 90.4859475,28.4911382 C89.5222779,27.5507382 88.2845003,27.0804525 86.775476,27.0804525 C85.1605855,27.0804525 83.8484153,27.5369097 82.8395379,28.4473668 C81.9310332,29.2664182 81.3655354,30.2794531 81.1417929,31.4860131 L81.079868,31.8953668 Z M157.114777,31.8953668 L168.033886,31.8953668 C167.990967,30.5661668 167.48567,29.4329097 166.520284,28.4911382 C165.557759,27.5507382 164.319409,27.0804525 162.810385,27.0804525 C161.195494,27.0804525 159.883324,27.5369097 158.874446,28.4473668 C157.965427,29.2664182 157.400804,30.2794531 157.176825,31.4860131 L157.114777,31.8953668 Z" id="path-1"></path>
        <path d="M20.0409296,47.8311477 C20.3257386,47.8360832 20.6035661,47.9452261 20.8092329,48.1329404 C21.4181073,48.707969 22.0225754,49.2860832 22.6232094,49.865569 C23.0242425,50.2624261 23.0427834,50.9436832 22.6232094,51.3588832 L22.0864958,51.8693404 L22.4031034,52.1672536 C22.6631887,52.4172844 22.8927721,52.678573 22.9334836,53.002369 C22.973255,53.3193404 22.8556575,53.6468261 22.6232094,53.8762547 L22.0864958,54.3896832 L22.4031034,54.6859038 C22.6631887,54.9351083 22.8927721,55.1967118 22.9334836,55.519569 C22.973255,55.8365404 22.8556575,56.1641975 22.6232094,56.3929975 C22.0225754,56.9744832 21.417249,57.552369 20.8092329,58.126049 C20.459588,58.4461347 19.777351,58.5581918 19.7518859,58.1677861 L19.7518859,48.092769 C19.7610419,47.9499118 19.777351,47.8298547 20.0409296,47.8311477 Z M16.5305168,41.3055118 L16.5305168,45.9800832 L6.49180215,35.997552 C4.81995697,34.3324451 3.14992561,32.6654547 1.48347335,30.994769 C-0.404283953,29.0804832 -0.582218915,25.6584261 1.48212857,23.563969 L1.94172002,23.1025975 L4.15695276,25.3092832 C4.20076997,25.3530547 4.24703641,25.3939118 4.29398384,25.4313975 L3.83506192,25.8965975 L3.83506192,25.8965975 C3.11818669,26.633169 3.09515934,27.9209404 3.85808927,28.686769 L16.5305168,41.3055118 Z M19.7181231,38.1472261 C21.8373952,36.0478356 23.9599482,33.9515182 26.0695386,31.8429171 L29.2677803,28.6207118 L29.2677803,28.6207118 C29.9446381,27.8787118 29.9460115,26.6345404 29.213016,25.8912261 C25.4596257,22.1300832 21.7176804,18.355969 17.91645,14.640769 C17.5440295,14.2825404 17.0303775,14.0773975 16.5144366,14.0787118 C16.001643,14.0836261 15.4949153,14.2916832 15.1278167,14.6508261 C13.0096319,16.7449975 10.8884714,18.8372261 8.7758374,20.9376261 L8.66630868,20.8184832 L8.66630868,20.8184832 L6.44351651,18.6041975 C8.55700885,16.4976832 10.6743353,14.3954547 12.795038,12.2968261 C13.6845232,11.427891 14.8730446,10.8908568 16.119191,10.7909933 L16.5575843,10.7742547 L16.5575843,10.7742547 C17.925606,10.786769 19.2755447,11.3394547 20.2570685,12.2981404 C24.0413031,16.0439118 27.8141499,19.8012832 31.5753228,23.5693404 C33.4863529,25.5090547 33.632334,28.9396832 31.551231,31.0247118 L19.7181231,42.8092832 L19.7181231,38.1472261 Z" id="path-2"></path>
    </defs>
    <g id="Certree-Style" stroke="none" stroke-width="1" fill="none" fill-rule="evenodd">
        <g id="Certree-Logo" transform="translate(-800.000000, -285.000000)">
            <g id="Certree_Logo-notag-white" transform="translate(800.000000, 285.000000)">
                <g id="Shape" fill-rule="nonzero">
                    <use fill="#44516B" xlink:href="#path-1"></use>
                    <use fill="#FFFFFF" xlink:href="#path-1"></use>
                </g>
                <g id="key-logo" transform="translate(-0.000092, 0.000000)">
                    <g id="Shape">
                        <use fill="#44516B" xlink:href="#path-2"></use>
                        <use fill="#FFFFFF" xlink:href="#path-2"></use>
                    </g>
                    <path d="M17.0356995,21.1450286 C17.598336,21.1450286 18.0559074,21.6017143 18.0559074,22.1637714 L18.0559074,29.0195429 L24.2215048,22.9104 L24.2215048,22.9104 L26.4250693,25.1054857 L26.5592048,25.2246857 L26.5592048,25.2246857 L18.0559074,33.6934286 L18.0559074,62.4673371 C18.0559074,63.0309554 17.598336,63.4874286 17.0356995,63.4874286 L15.8876507,63.4874286 C15.3238697,63.4874286 14.8669849,63.0309554 14.8669849,62.4673371 L14.8669849,22.1637714 C14.8669849,21.6017143 15.3238697,21.1450286 15.8876507,21.1450286 L17.0356995,21.1450286 Z M13.3397631,32.0334286 C9.38408234,28.0999429 5.42327991,24.1713714 1.48347335,20.2226857 C-0.404283953,18.3057143 -0.582218915,14.8861143 1.48212857,12.7901143 C5.2408751,9.022 9.01211959,5.26742857 12.795038,1.52285714 C13.6845232,0.654285714 14.8730446,0.117237308 16.119191,0.0168959966 L16.5575843,3.55271368e-15 L16.5575843,3.55271368e-15 C17.925606,0.0131428571 19.2755447,0.565714286 20.2570685,1.52457143 C24.0413031,5.27028571 27.8141499,9.0276 31.5753228,12.7950286 C33.4863529,14.7354286 33.632334,18.1657714 31.551231,20.2526286 L31.0547466,20.7468 L30.9344596,20.6146857 L30.9344596,20.6146857 L28.7179049,18.4064 L29.222172,17.8954857 L29.222172,17.8954857 C29.9460115,17.1517143 29.9551675,15.8702286 29.213016,15.1175429 C25.4596257,11.3554857 21.7176804,7.58142857 17.91645,3.86685714 C17.5440295,3.508 17.0319226,3.30514286 16.5144366,3.30514286 C16.0009563,3.30971429 15.4949153,3.51828571 15.1278167,3.87657143 C11.351193,7.61262857 7.56318161,11.3387429 3.83506192,15.1222286 C3.1168419,15.8610857 3.09359709,17.1457143 3.85808927,17.9122286 L13.3397631,27.3548571 L13.3397631,32.0334286 Z" id="Shape" fill="#FFFFFF"></path>
                </g>
            </g>
        </g>
    </g>
</svg>