<?xml version="1.0" encoding="UTF-8"?>
<svg width="490px" height="802px" viewBox="0 0 490 802" version="1.1" xmlns="http://www.w3.org/2000/svg" xmlns:xlink="http://www.w3.org/1999/xlink">
    <!-- Generator: Sketch 58 (84663) - https://sketch.com -->
    <title>Key and Circle</title>
    <desc>Created with Sketch.</desc>
    <defs>
        <linearGradient x1="50%" y1="0%" x2="50%" y2="85.4757414%" id="linearGradient-1">
            <stop stop-color="#5AA3EB" offset="0%"></stop>
            <stop stop-color="#4496E9" stop-opacity="0.451541385" offset="32.2661529%"></stop>
            <stop stop-color="#3991E8" stop-opacity="0.204440858" offset="64.3317145%"></stop>
            <stop stop-color="#318CE7" stop-opacity="0" offset="100%"></stop>
        </linearGradient>
        <circle id="path-2" cx="330" cy="330" r="120"></circle>
        <mask id="mask-3" maskContentUnits="userSpaceOnUse" maskUnits="objectBoundingBox" x="0" y="0" width="240" height="240" fill="white">
            <use xlink:href="#path-2"></use>
        </mask>
        <circle id="path-4" cx="330" cy="330" r="260"></circle>
        <mask id="mask-5" maskContentUnits="userSpaceOnUse" maskUnits="objectBoundingBox" x="0" y="0" width="520" height="520" fill="white">
            <use xlink:href="#path-4"></use>
        </mask>
        <circle id="path-6" cx="330" cy="330" r="330"></circle>
        <mask id="mask-7" maskContentUnits="userSpaceOnUse" maskUnits="objectBoundingBox" x="0" y="0" width="660" height="660" fill="white">
            <use xlink:href="#path-6"></use>
        </mask>
        <path d="M37.7766804,92.2099321 C38.3135411,92.2194468 38.8372419,92.4298548 39.2249207,92.7917345 C40.3726399,93.9002872 41.5120532,95.0147885 42.6442393,96.1319337 C43.4001807,96.8970036 43.43513,98.210346 42.6442393,99.0107777 L41.6325421,99.9948481 L42.2293428,100.569172 C42.7195997,101.051187 43.1523609,101.554904 43.2291015,102.179125 C43.30407,102.79019 43.0824006,103.421524 42.6442393,103.863821 L41.6325421,104.85362 L42.2293428,105.424681 C42.7195997,105.905103 43.1523609,106.409427 43.2291015,107.031839 C43.30407,107.642903 43.0824006,108.274568 42.6442393,108.715653 C41.5120532,109.836654 40.3710219,110.950715 39.2249207,112.056668 C38.5658452,112.673736 37.2798388,112.889762 37.2318373,112.137129 L37.2318373,92.7142911 C37.2490963,92.438888 37.2798388,92.2074392 37.7766804,92.2099321 Z M31.1596047,79.6296685 L31.1596047,88.6414094 L12.2367774,69.3968676 C9.08537421,66.1868381 5.93739003,62.9731775 2.79615241,59.752393 C-0.762241939,56.0619912 -1.09764669,49.4648746 2.7936175,45.4271344 L3.65994053,44.5376925 L7.83562117,48.7917894 C7.91821596,48.8761729 8.00542752,48.9549382 8.09392271,49.027204 L7.22886174,49.9240267 L7.22886174,49.9240267 C5.87756265,51.3440052 5.83415643,53.8265991 7.27226796,55.3029802 L31.1596047,79.6296685 Z M37.168195,73.5410562 C41.1629913,69.4938054 45.1639719,65.4524788 49.1405184,61.3874716 L55.1691563,55.1756338 L55.1691563,55.1756338 C56.445023,53.74519 56.4476119,51.3466491 55.0659263,49.9136716 C47.9908416,42.6628582 40.9373307,35.3870382 33.7720681,28.2247944 C33.0700609,27.5341935 32.1018347,27.1387146 31.1292937,27.1412483 C30.1626855,27.1507222 29.2075113,27.5518193 28.5155359,28.2441828 C24.5227892,32.2813722 20.5244333,36.3148162 16.5421498,40.3640132 L16.3356898,40.134327 L16.3356898,40.134327 L12.1457597,35.8655786 C16.1296612,31.8045943 20.1207899,27.7518721 24.1182829,23.7060901 C25.7949492,22.0309381 28.0352944,20.9956318 30.3842617,20.8031128 L31.2106264,20.7708436 L31.2106264,20.7708436 C33.789327,20.794969 36.3339413,21.8604486 38.1840991,23.7086238 C45.3173248,30.9298039 52.4290846,38.1733466 59.5188394,45.4374895 C63.1211027,49.1769131 63.3962748,55.7905539 59.4734268,59.8101175 L37.168195,82.5286719 L37.168195,73.5410562 Z" id="path-8"></path>
    </defs>
    <g id="Certree-Pages" stroke="none" stroke-width="1" fill="none" fill-rule="evenodd">
        <g id="Certree.com---Employee-V02" transform="translate(-950.000000, -1242.000000)">
            <g id="Page-background" transform="translate(0.000000, 814.000000)">
                <g id="Key-and-Circle" transform="translate(900.000000, 428.000000)">
                    <g id="Fat-lines-Blue" opacity="0.5" transform="translate(259.538337, 540.992786) rotate(30.000000) translate(-259.538337, -540.992786) translate(159.538337, 195.992786)" fill="url(#linearGradient-1)">
                        <rect id="Rectangle-Copy-4" x="0" y="-2.27373675e-12" width="200" height="690" rx="100"></rect>
                    </g>
                    <g id="circles-with-key" transform="translate(50.500000, 0.000000)">
                        <use id="Oval" stroke="#318CE7" mask="url(#mask-3)" stroke-width="2" stroke-dasharray="7.5" xlink:href="#path-2"></use>
                        <use id="Oval-Copy" stroke="#318CE7" mask="url(#mask-5)" stroke-width="2" opacity="0.56" stroke-dasharray="7.5" xlink:href="#path-4"></use>
                        <use id="Oval-Copy-2" stroke="#318CE7" mask="url(#mask-7)" stroke-width="4" opacity="0.400000006" stroke-dasharray="7.5" xlink:href="#path-6"></use>
                        <g id="certree_key,-white" transform="translate(300.000000, 267.500000)">
                            <g id="certree_icon-web-white">
                                <g id="Shape">
                                    <use fill="#44516B" xlink:href="#path-8"></use>
                                    <use fill="#FFFFFF" xlink:href="#path-8"></use>
                                </g>
                                <path d="M32.1118664,40.7638482 C33.172428,40.7638482 34.0349433,41.6442569 34.0349433,42.727803 L34.0349433,55.944509 L45.6570022,44.1671699 L45.6570022,44.1671699 L49.8106885,48.3989041 L50.0635319,48.6287005 L50.0635319,48.6287005 L34.0349433,64.954928 L34.0349433,120.425898 C34.0349433,121.512454 33.172428,122.392452 32.1118664,122.392452 L29.9478117,122.392452 C28.8850928,122.392452 28.023872,121.512454 28.023872,120.425898 L28.023872,42.727803 C28.023872,41.6442569 28.8850928,40.7638482 29.9478117,40.7638482 L32.1118664,40.7638482 Z M25.1450816,61.7547438 C17.6886824,54.171684 10.222629,46.5980982 2.79615241,38.9857355 C-0.762241939,35.2901561 -1.09764669,28.6977765 2.7936175,24.6570619 C9.87879861,17.3928088 16.9875382,10.1546639 24.1182829,2.93579728 C25.7949492,1.2613463 28.0352944,0.226012645 30.3842617,0.0325724715 L31.2106264,0 L31.2106264,0 C33.789327,0.0253370873 36.3339413,1.09059636 38.1840991,2.93910212 C45.3173248,10.160172 52.4290846,17.4036046 59.5188394,24.6665357 C63.1211027,28.4072813 63.3962748,35.0203712 59.4734268,39.04346 L58.537561,39.9961345 L58.3108218,39.7414417 L58.3108218,39.7414417 L54.1326494,35.4842602 L55.0831852,34.4993085 L55.0831852,34.4993085 C56.4476119,33.0654497 56.4648708,30.5949735 55.0659263,29.1439295 C47.9908416,21.8913536 40.9373307,14.6156437 33.7720681,7.45461172 C33.0700609,6.76279907 32.1047471,6.37172664 31.1292937,6.37172664 C30.1613911,6.38053954 29.2075113,6.7826281 28.5155359,7.47333913 C21.3966567,14.6757917 14.2563117,21.8590763 7.22886174,29.1529628 C5.87502774,30.5773477 5.83121162,33.0538828 7.27226796,34.5315857 L25.1450816,52.7352915 L25.1450816,61.7547438 Z" id="Shape" fill="#FFFFFF"></path>
                            </g>
                        </g>
                    </g>
                </g>
            </g>
        </g>
    </g>
</svg>