{
    "asset" : {
        "generator" : "Khronos glTF Blender I/O v1.7.33",
        "version" : "2.0"
    },
    "scene" : 0,
    "scenes" : [
        {
            "name" : "Scene",
            "nodes" : [
                0
            ]
        }
    ],
    "nodes" : [
        {
            "mesh" : 0,
            "name" : "collar_6",
            "rotation" : [
                -0.7071068286895752,
                0,
                0,
                0.7071067094802856
            ],
            "scale" : [
                0.009999999776482582,
                0.009999999776482582,
                0.009999999776482582
            ],
            "translation" : [
                0,
                0.0076667494140565395,
                -0.0022642032708972692
            ]
        }
    ],
    "materials" : [
        {
            "doubleSided" : true,
            "name" : "Material #0.002",
            "pbrMetallicRoughness" : {
                "metallicFactor" : 0,
                "roughnessFactor" : 0.5527864098548889
            }
        }
    ],
    "meshes" : [
        {
            "name" : "Mesh.004",
            "primitives" : [
                {
                    "attributes" : {
                        "POSITION" : 0,
                        "NORMAL" : 1,
                        "TEXCOORD_0" : 2
                    },
                    "indices" : 3,
                    "material" : 0
                }
            ]
        }
    ],
    "accessors" : [
        {
            "bufferView" : 0,
            "componentType" : 5126,
            "count" : 1693,
            "max" : [
                112.67512512207031,
                135.76849365234375,
                1693.3795166015625
            ],
            "min" : [
                -112.79244232177734,
                -11.840203285217285,
                1588.3450927734375
            ],
            "type" : "VEC3"
        },
        {
            "bufferView" : 1,
            "componentType" : 5126,
            "count" : 1693,
            "type" : "VEC3"
        },
        {
            "bufferView" : 2,
            "componentType" : 5126,
            "count" : 1693,
            "type" : "VEC2"
        },
        {
            "bufferView" : 3,
            "componentType" : 5123,
            "count" : 9504,
            "type" : "SCALAR"
        }
    ],
    "bufferViews" : [
        {
            "buffer" : 0,
            "byteLength" : 20316,
            "byteOffset" : 0
        },
        {
            "buffer" : 0,
            "byteLength" : 20316,
            "byteOffset" : 20316
        },
        {
            "buffer" : 0,
            "byteLength" : 13544,
            "byteOffset" : 40632
        },
        {
            "buffer" : 0,
            "byteLength" : 19008,
            "byteOffset" : 54176
        }
    ],
    "buffers" : [
        {
            "byteLength" : 73184,
            "uri" : "collar_6.bin"
        }
    ]
}
