{
    "asset" : {
        "generator" : "Khronos glTF Blender I/O v1.7.33",
        "version" : "2.0"
    },
    "scene" : 0,
    "scenes" : [
        {
            "name" : "Scene",
            "nodes" : [
                0
            ]
        }
    ],
    "nodes" : [
        {
            "mesh" : 0,
            "name" : "collar_3",
            "rotation" : [
                0,
                0.7071067094802856,
                0.7071068286895752,
                5.338507236274381e-08
            ],
            "scale" : [
                0.09999999403953552,
                0.09999999403953552,
                0.09999999403953552
            ],
            "translation" : [
                -0.006301450543105602,
                0.01769409142434597,
                -0.12962622940540314
            ]
        }
    ],
    "materials" : [
        {
            "doubleSided" : true,
            "name" : "Material #0",
            "pbrMetallicRoughness" : {
                "metallicFactor" : 0,
                "roughnessFactor" : 0.5527864098548889
            }
        }
    ],
    "meshes" : [
        {
            "name" : "Mesh",
            "primitives" : [
                {
                    "attributes" : {
                        "POSITION" : 0,
                        "NORMAL" : 1,
                        "TEXCOORD_0" : 2
                    },
                    "indices" : 3,
                    "material" : 0
                }
            ]
        }
    ],
    "accessors" : [
        {
            "bufferView" : 0,
            "componentType" : 5126,
            "count" : 2461,
            "max" : [
                12.264952659606934,
                5.440155982971191,
                170.9418487548828
            ],
            "min" : [
                -12.379233360290527,
                -13.521394729614258,
                158.01437377929688
            ],
            "type" : "VEC3"
        },
        {
            "bufferView" : 1,
            "componentType" : 5126,
            "count" : 2461,
            "type" : "VEC3"
        },
        {
            "bufferView" : 2,
            "componentType" : 5126,
            "count" : 2461,
            "type" : "VEC2"
        },
        {
            "bufferView" : 3,
            "componentType" : 5123,
            "count" : 13992,
            "type" : "SCALAR"
        }
    ],
    "bufferViews" : [
        {
            "buffer" : 0,
            "byteLength" : 29532,
            "byteOffset" : 0
        },
        {
            "buffer" : 0,
            "byteLength" : 29532,
            "byteOffset" : 29532
        },
        {
            "buffer" : 0,
            "byteLength" : 19688,
            "byteOffset" : 59064
        },
        {
            "buffer" : 0,
            "byteLength" : 27984,
            "byteOffset" : 78752
        }
    ],
    "buffers" : [
        {
            "byteLength" : 106736,
            "uri" : "collar_3.bin"
        }
    ]
}
