<?xml version="1.0" encoding="utf-8"?>
<!-- Generator: Adobe Illustrator 15.1.0, SVG Export Plug-In . SVG Version: 6.00 Build 0)  -->
<!DOCTYPE svg PUBLIC "-//W3C//DTD SVG 1.1//EN" "http://www.w3.org/Graphics/SVG/1.1/DTD/svg11.dtd">
<svg version="1.1" id="Laag_1" xmlns="http://www.w3.org/2000/svg" xmlns:xlink="http://www.w3.org/1999/xlink" x="0px" y="0px"
	 width="284.431px" height="70.237px" viewBox="-14.274 -8.663 284.431 70.237"
	 enable-background="new -14.274 -8.663 284.431 70.237" xml:space="preserve">
<g>
	<g>
		<path fill-rule="evenodd" clip-rule="evenodd" fill="#1A1A1A" d="M264.928-3.291c0.492-0.204,0.747-0.625,0.747-1.304
			c0-0.417-0.142-0.741-0.407-0.989c-0.256-0.221-0.674-0.352-1.23-0.352c-0.286,0-0.521,0.037-0.69,0.107
			c-0.171,0.08-0.255,0.238-0.255,0.468v2.251C264.017-3.109,264.613-3.171,264.928-3.291 M259.873-6.945
			c1.175-1.14,2.58-1.718,4.25-1.718c1.673,0,3.085,0.578,4.268,1.718c1.182,1.145,1.757,2.523,1.766,4.155
			c0,1.621-0.584,3.017-1.766,4.155c-1.183,1.146-2.595,1.711-4.268,1.711c-1.67,0-3.075-0.564-4.25-1.711
			c-1.177-1.139-1.77-2.534-1.77-4.155C258.104-4.421,258.696-5.8,259.873-6.945z M260.33,0.924
			c1.051,1.021,2.324,1.533,3.793,1.533c1.485,0,2.739-0.512,3.803-1.533c1.045-1.027,1.571-2.26,1.571-3.714
			c0-1.45-0.526-2.687-1.571-3.699c-1.063-1.043-2.317-1.535-3.803-1.535c-1.469,0-2.742,0.492-3.793,1.535
			c-1.061,1.013-1.582,2.249-1.582,3.699C258.748-1.335,259.27-0.103,260.33,0.924z M260.714,0.198c0.474,0,0.797-0.031,0.942-0.088
			c0.17-0.052,0.255-0.213,0.255-0.492V-5.36c0-0.242-0.085-0.398-0.255-0.468c-0.154-0.07-0.469-0.107-0.942-0.107v-0.387h3.448
			c0.883,0,1.586,0.156,2.122,0.459c0.549,0.312,0.819,0.749,0.819,1.293c0,0.459-0.215,0.831-0.646,1.146
			c-0.44,0.311-1.016,0.49-1.721,0.562v0.047c0.83,0.269,1.375,0.846,1.627,1.708c0.246,0.864,0.448,1.292,0.617,1.292
			c0.207,0,0.367-0.101,0.449-0.324c0.056-0.152,0.123-0.467,0.167-0.903h0.419c-0.035,0.488-0.125,0.864-0.255,1.112
			c-0.229,0.43-0.643,0.648-1.23,0.648c-0.547,0-0.922-0.171-1.11-0.533c-0.116-0.229-0.202-0.658-0.241-1.316
			c-0.049-0.674-0.209-1.106-0.474-1.309c-0.244-0.194-0.795-0.277-1.613-0.268v2.324c0,0.279,0.113,0.44,0.34,0.503
			c0.132,0.065,0.411,0.083,0.868,0.077V0.59h-3.586V0.198z"/>
	</g>
</g>
<path fill="#1A1A1A" d="M15.72-8.464h7.119c0,0-1.124,0.277-1.529,1.187c-0.33,0.74-0.412,1.944-0.448,3.487
	c-0.084,3.439,0,45.619,0,46.189c0,0.881,0.322,1.064,1.667,1.064c1.347,0,7.458,0.49,9.981-1.963
	c-0.337,0.898-3.28,4.092-3.28,4.092l-0.169-0.819c0,0-11.018-1.064-14.467,0c0,0,2.902-0.901,2.902-7.367s0-40.54,0-42.095
	C17.497-6.245,17.225-7.757,15.72-8.464z"/>
<path fill="#1A1A1A" d="M32.007,44.444c0,0,1.514-0.244,3.196-5.727c0.958-3.127,5.413-17.115,8.746-29.059
	c2.517-9.014,4.218-17.037,4.291-17.355c0.168-0.734,0.607-0.903,0.84-0.079c0.24,0.849,11.868,49.735,17.861,52.22h-7.77
	c0,0,1.6-0.816,1.18-2.29c-0.422-1.474-6.477-22.019-6.477-22.019s-4.12-1.555-11.27-0.164c-1.095,3.684-5.721,20.463-5.974,21.362
	c-0.25,0.903-0.591,2.457,0.756,3.11C35.284,44.444,32.007,44.444,32.007,44.444z M53.202,17.352c0,0-4.433-15.246-4.626-15.88
	c-0.212-0.698-0.729-0.918-1.094,0.327s-4.205,15.635-4.205,15.635S49.08,19.316,53.202,17.352z"/>
<path fill="#1A1A1A" d="M69.394,43.872c0,0,1.346-0.327,1.346-4.012c0-3.682,0-42.805,0-43.709c0-1.047-0.422-2.209-1.431-2.372
	c2.573-0.593,7.169-1.706,10.936-2.129c1.688-0.19,13.22-1.45,14.551,10.231c0.943,8.278-10.262,13.342-10.262,13.342
	s11.524,2.131,12.029,13.752C97.065,40.597,84.198,46.655,69.394,43.872z M93.028,28.403c-0.42-14.08-16.736-11.787-18.334-11.541
	c0-0.328,0.336-1.393,1.598-1.475c6.646-0.49,15.98-4.746,15.054-14.079c-0.924-9.331-12.951-8.759-15.054-8.267
	c-2.104,0.491-2.439,1.556-2.439,2.537c0,0.982,0,46.084,0,46.084C78.983,45.754,93.449,42.481,93.028,28.403z"/>
<path fill="#1A1A1A" d="M100.579,43.872c0,0,1.346-0.327,1.346-4.012c0-3.682,0-42.805,0-43.709c0-1.047-0.422-2.209-1.431-2.372
	c2.573-0.593,7.169-1.706,10.936-2.129c1.688-0.19,13.22-1.45,14.551,10.231c0.943,8.278-10.262,13.342-10.262,13.342
	s11.524,2.131,12.029,13.752C128.25,40.597,115.383,46.655,100.579,43.872z M124.212,28.403
	c-0.42-14.08-16.736-11.787-18.334-11.541c0-0.328,0.336-1.393,1.598-1.475c6.646-0.49,15.98-4.746,15.054-14.079
	c-0.924-9.331-12.951-8.759-15.054-8.267c-2.104,0.491-2.439,1.556-2.439,2.537c0,0.982,0,46.084,0,46.084
	C110.168,45.754,124.634,42.481,124.212,28.403z"/>
<path fill="#1A1A1A" d="M141.938,44.444c0,0-1.299-0.213-1.863-1.703c-0.561-1.488-0.776-12.346-0.721-24.166
	c0.053-11.819,0.52-23.533,0.52-23.533c0.145-2.881,2.539-3.496,2.539-3.496h-8.611c0,0,2.393,0.615,2.537,3.496
	c0,0,0.606,11.503,0.488,23.533c-0.116,11.82-0.095,22.701-0.723,24.166c-0.422,0.986-1.48,1.703-1.48,1.703H141.938z"/>
<path fill="#1A1A1A" d="M156.955,44.444h-5.413c0,0,1.24-0.65,1.383-5.916c0.072-2.65,0.381-14.154,0.291-25.152
	c-0.091-10.887-0.579-21.285-0.579-21.285h0.433c0,0,26.566,42.289,27.215,43.064c0.649,0.771,0.507-0.562,0.507-1.897
	c0-0.7-0.155-11.029-0.508-21.077c-0.235-6.697-0.082-15.59-0.981-19.361c-0.273-1.024-1.278-1.273-1.678-1.273h6.617
	c0,0-1.754,0.127-1.936,1.246c-0.104,0.64-1.3,12.014,0.062,51.652c0,0-0.135,0.405-1.29-1.352
	c-1.155-1.756-25.409-40.256-25.915-41.098c-0.504-0.843-0.938-0.774-0.938,1.405c0,2.177,0.505,35.478,1.66,39.271
	C156.245,43.655,156.955,44.444,156.955,44.444z"/>
<path fill="#1A1A1A" d="M225.672-8.464c0,0,1.305,0.412,1.622,1.884c0.222,1.028,0.164,1.864,0.164,3.868c0,6.254,0,40.746,0,42.783
	c0,2.039-0.132,3.48-1.42,4.373c1.506,0,6.062,0,6.062,0s-1.637-1.143-1.637-4.373c0-3.231,0-21.299,0-21.299l0.445-0.441
	c0,0,5.929,5.73,12.609,12.68c9.139,9.504,20.374,20.938,25.626,19.6c-7.219-3.162-35.733-35.197-35.733-35.197
	S252.409-7.4,257.2-8.23c0.426-0.073,1.604-0.234,1.604-0.234h-8.297c0,0,0.952,0.765,0.303,1.397
	c-0.65,0.631-17.974,21.003-18.914,21.848c-0.938,0.843-1.432,2.036-1.432-1.054c0-2.418,0-14.047,0-20.115
	c0-1.459,2.141-2.076,2.141-2.076H225.672z"/>
<path fill="#1A1A1A" d="M11.385,28.686C10.314,21.67,1.264,17.034-0.813,15.701C-4.818,13.319-12.428,9.799-11.97,2.176
	c0.246-4.09,4.715-7.391,9.899-7.892C0.245-5.94,2.708-5.712,4.387-5.142C6.158-4.539,6.994-3.57,6.994-3.57V-8.34
	C6.44-7.811,2.962-8.661-1.091-8.302c-5.064,0.299-11.243,3.314-12.772,9.421c-1.546,6.177,1.227,12.146,9.014,16.609l0.069,0.038
	c2.888,1.909,5.693,3.142,6.945,4.018c4.571,3.202,6.347,5.986,6.867,9.375C10.527,40.871,2.241,42.5-2.088,42.5
	c-4.33,0-8.425-3.45-8.268-4.616l-2.952,4.979c0.591-0.518,2.131-0.029,3.502,0.461c3.272,1.17,6.187,1.494,8.743,1.214
	c7.312-0.612,12.76-6.494,12.76-13.118C11.696,30.479,11.584,29.567,11.385,28.686z"/>
<path fill="#1A1A1A" d="M214.716,41.336c-4.906,3.513-9.891,1.615-12.344-0.071c-1.162-0.798-3.583-2.833-5.723-6.389
	c-2.406-4.448-3.93-10.431-3.93-17.022c0-9.428,3.109-17.62,7.479-21.832c0.462-0.412,0.94-0.813,1.452-1.193
	c5.869-4.369,14.674-2.717,18.84,3.863l0.216-6.532l-0.647,1.053c0,0-4.432-1.667-9.759-1.667c-0.022,0-0.047,0.002-0.069,0.002
	c-0.317-0.007-0.65-0.01-1.01-0.01c-3.031,0-6.008,0.977-7.565,1.65c-7.241,3.125-12.857,12.99-12.857,24.677
	c0,12.569,4.546,23.745,13.859,26.146c5.064,1.432,10.96,0.285,17.111-3.658c0.577,0.492,0.938,0.774,0.938,0.774v-6.042
	C220.707,35.084,219.626,37.824,214.716,41.336z"/>
<g>
	<g>
		<path fill="#1A1A1A" d="M-12.002,59.088c0,0.768,0,1.4,0.04,1.736c0.024,0.23,0.072,0.406,0.312,0.439
			c0.112,0.016,0.288,0.031,0.36,0.031c0.048,0,0.064,0.023,0.064,0.049c0,0.039-0.04,0.064-0.128,0.064
			c-0.44,0-0.944-0.025-0.984-0.025c-0.04,0-0.543,0.025-0.783,0.025c-0.088,0-0.128-0.018-0.128-0.064
			c0-0.025,0.016-0.049,0.064-0.049c0.072,0,0.168-0.016,0.24-0.031c0.16-0.033,0.2-0.209,0.232-0.439
			c0.04-0.336,0.04-0.969,0.04-1.736v-1.406c0-1.248,0-1.471-0.016-1.727c-0.016-0.273-0.096-0.408-0.272-0.449
			c-0.088-0.023-0.192-0.031-0.248-0.031c-0.032,0-0.064-0.016-0.064-0.049c0-0.047,0.04-0.062,0.128-0.062
			c0.264,0,0.768,0.023,0.807,0.023c0.04,0,0.544-0.023,0.784-0.023c0.088,0,0.128,0.016,0.128,0.062
			c0,0.033-0.032,0.049-0.064,0.049c-0.056,0-0.104,0.008-0.2,0.023c-0.216,0.041-0.28,0.176-0.296,0.457
			c-0.016,0.256-0.016,0.479-0.016,1.727V59.088z"/>
		<path fill="#1A1A1A" d="M-5.193,60.321c0.016,0.654,0.096,0.863,0.312,0.928c0.152,0.039,0.328,0.047,0.4,0.047
			c0.04,0,0.064,0.016,0.064,0.049c0,0.047-0.048,0.064-0.144,0.064c-0.456,0-0.776-0.025-0.848-0.025
			c-0.072,0-0.408,0.025-0.768,0.025c-0.08,0-0.128-0.01-0.128-0.064c0-0.033,0.024-0.049,0.064-0.049
			c0.064,0,0.208-0.008,0.328-0.047c0.2-0.057,0.24-0.289,0.24-1.016l0.008-4.582c0-0.312,0.024-0.4,0.088-0.4s0.2,0.176,0.28,0.256
			c0.12,0.137,1.311,1.424,2.542,2.742c0.792,0.848,1.663,1.824,1.919,2.088l-0.088-4.062c-0.008-0.52-0.064-0.695-0.312-0.76
			c-0.144-0.031-0.328-0.039-0.392-0.039c-0.056,0-0.064-0.023-0.064-0.057c0-0.047,0.064-0.055,0.16-0.055
			c0.359,0,0.743,0.023,0.832,0.023c0.088,0,0.352-0.023,0.679-0.023c0.088,0,0.144,0.008,0.144,0.055
			c0,0.033-0.032,0.057-0.088,0.057c-0.04,0-0.096,0-0.192,0.023c-0.264,0.057-0.296,0.232-0.296,0.713l-0.016,4.686
			c0,0.527-0.016,0.566-0.072,0.566c-0.064,0-0.16-0.088-0.583-0.512c-0.088-0.08-1.239-1.256-2.087-2.166
			c-0.928-1-1.831-2.008-2.087-2.295L-5.193,60.321z"/>
		<path fill="#1A1A1A" d="M11.742,61.303c-0.111-0.055-0.119-0.088-0.119-0.303c0-0.4,0.031-0.721,0.04-0.848
			c0.008-0.088,0.023-0.129,0.063-0.129c0.048,0,0.056,0.025,0.056,0.088c0,0.072,0,0.184,0.024,0.297
			c0.12,0.592,0.647,0.814,1.184,0.814c0.768,0,1.143-0.551,1.143-1.062c0-0.553-0.231-0.871-0.919-1.439l-0.36-0.295
			c-0.847-0.697-1.039-1.191-1.039-1.736c0-0.855,0.64-1.439,1.655-1.439c0.312,0,0.544,0.033,0.743,0.08
			c0.152,0.033,0.216,0.041,0.28,0.041c0.063,0,0.08,0.016,0.08,0.055c0,0.041-0.032,0.305-0.032,0.848
			c0,0.129-0.016,0.184-0.056,0.184c-0.048,0-0.057-0.039-0.064-0.104c-0.008-0.096-0.056-0.311-0.104-0.398s-0.264-0.424-1-0.424
			c-0.552,0-0.983,0.344-0.983,0.926c0,0.457,0.208,0.744,0.976,1.344l0.224,0.176c0.944,0.744,1.168,1.24,1.168,1.879
			c0,0.328-0.128,0.936-0.68,1.328c-0.344,0.24-0.775,0.336-1.208,0.336C12.438,61.52,12.07,61.463,11.742,61.303z"/>
		<path fill="#1A1A1A" d="M20.558,57.682c0-1.248,0-1.471-0.016-1.727c-0.016-0.273-0.08-0.4-0.344-0.457
			c-0.064-0.016-0.2-0.023-0.271-0.023c-0.032,0-0.064-0.016-0.064-0.049c0-0.047,0.04-0.062,0.128-0.062
			c0.184,0,0.399,0,0.576,0.008l0.327,0.016c0.057,0,1.647,0,1.831-0.008c0.152-0.008,0.28-0.023,0.344-0.041
			c0.04-0.008,0.072-0.039,0.112-0.039c0.023,0,0.032,0.031,0.032,0.072c0,0.055-0.04,0.152-0.064,0.375
			c-0.008,0.08-0.023,0.432-0.04,0.527c-0.008,0.041-0.023,0.088-0.056,0.088c-0.048,0-0.064-0.039-0.064-0.104
			c0-0.057-0.008-0.191-0.048-0.287c-0.056-0.129-0.136-0.225-0.567-0.271c-0.136-0.018-1.008-0.025-1.096-0.025
			c-0.032,0-0.048,0.025-0.048,0.08v2.207c0,0.057,0.008,0.08,0.048,0.08c0.104,0,1.088,0,1.271-0.016
			c0.192-0.016,0.304-0.033,0.376-0.111c0.056-0.064,0.088-0.105,0.12-0.105c0.023,0,0.04,0.018,0.04,0.064
			c0,0.049-0.04,0.184-0.064,0.447c-0.016,0.16-0.032,0.457-0.032,0.512c0,0.064,0,0.152-0.056,0.152
			c-0.04,0-0.056-0.031-0.056-0.072c0-0.08,0-0.16-0.032-0.264c-0.032-0.111-0.104-0.248-0.416-0.279
			c-0.216-0.023-1.007-0.041-1.144-0.041c-0.04,0-0.056,0.025-0.056,0.057v0.703c0,0.273-0.008,1.199,0,1.367
			c0.024,0.553,0.145,0.656,0.928,0.656c0.208,0,0.56,0,0.768-0.088s0.304-0.248,0.359-0.576c0.017-0.088,0.032-0.119,0.072-0.119
			c0.048,0,0.048,0.064,0.048,0.119c0,0.064-0.063,0.607-0.104,0.775c-0.057,0.209-0.12,0.209-0.432,0.209
			c-0.601,0-1.04-0.016-1.352-0.023c-0.312-0.018-0.504-0.025-0.624-0.025c-0.016,0-0.151,0-0.319,0.008
			c-0.16,0-0.344,0.018-0.464,0.018c-0.088,0-0.128-0.018-0.128-0.064c0-0.025,0.016-0.049,0.063-0.049
			c0.072,0,0.168-0.016,0.24-0.031c0.16-0.033,0.2-0.209,0.231-0.439c0.04-0.336,0.04-0.969,0.04-1.736V57.682z"/>
		<path fill="#1A1A1A" d="M29.182,57.682c0-1.248,0-1.471-0.016-1.727c-0.016-0.273-0.08-0.4-0.344-0.457
			c-0.064-0.016-0.2-0.023-0.271-0.023c-0.032,0-0.064-0.016-0.064-0.049c0-0.047,0.04-0.062,0.128-0.062
			c0.359,0,0.863,0.023,0.903,0.023c0.088,0,0.696-0.023,0.943-0.023c0.504,0,1.04,0.047,1.464,0.352
			c0.199,0.143,0.552,0.535,0.552,1.088c0,0.59-0.248,1.182-0.968,1.846c0.655,0.84,1.199,1.551,1.663,2.047
			c0.432,0.457,0.775,0.545,0.976,0.576c0.151,0.023,0.264,0.023,0.312,0.023c0.04,0,0.072,0.023,0.072,0.049
			c0,0.047-0.048,0.064-0.192,0.064h-0.567c-0.448,0-0.647-0.041-0.855-0.152c-0.344-0.184-0.624-0.576-1.079-1.176
			c-0.336-0.439-0.712-0.975-0.872-1.184c-0.032-0.031-0.056-0.047-0.104-0.047l-0.983-0.018c-0.04,0-0.057,0.025-0.057,0.064v0.191
			c0,0.768,0,1.4,0.04,1.736c0.024,0.23,0.072,0.406,0.312,0.439c0.111,0.016,0.287,0.031,0.359,0.031
			c0.048,0,0.064,0.023,0.064,0.049c0,0.039-0.04,0.064-0.128,0.064c-0.44,0-0.944-0.025-0.984-0.025
			c-0.008,0-0.512,0.025-0.751,0.025c-0.088,0-0.128-0.018-0.128-0.064c0-0.025,0.016-0.049,0.063-0.049
			c0.072,0,0.168-0.016,0.24-0.031c0.16-0.033,0.2-0.209,0.231-0.439c0.04-0.336,0.04-0.969,0.04-1.736V57.682z M29.821,58.377
			c0,0.039,0.017,0.072,0.057,0.096c0.119,0.072,0.487,0.129,0.839,0.129c0.192,0,0.416-0.025,0.6-0.152
			c0.28-0.191,0.488-0.623,0.488-1.232c0-0.998-0.528-1.598-1.384-1.598c-0.239,0-0.455,0.023-0.535,0.047
			c-0.04,0.016-0.064,0.049-0.064,0.096V58.377z"/>
		<path fill="#1A1A1A" d="M40.493,60.432c0.464-1.07,1.535-3.861,1.711-4.438c0.04-0.119,0.072-0.232,0.072-0.305
			c0-0.062-0.024-0.143-0.104-0.184c-0.096-0.031-0.216-0.031-0.304-0.031c-0.048,0-0.088-0.008-0.088-0.049
			c0-0.047,0.048-0.062,0.176-0.062c0.32,0,0.688,0.023,0.784,0.023c0.048,0,0.392-0.023,0.623-0.023
			c0.088,0,0.137,0.016,0.137,0.055c0,0.041-0.032,0.057-0.097,0.057c-0.056,0-0.231,0-0.384,0.096
			c-0.104,0.072-0.224,0.209-0.439,0.752c-0.088,0.225-0.487,1.184-0.896,2.166c-0.487,1.168-0.848,2.031-1.031,2.424
			c-0.224,0.479-0.256,0.607-0.336,0.607c-0.096,0-0.136-0.111-0.288-0.496l-1.959-4.9c-0.176-0.449-0.296-0.537-0.575-0.617
			c-0.12-0.031-0.256-0.031-0.304-0.031s-0.064-0.023-0.064-0.057c0-0.047,0.08-0.055,0.208-0.055c0.384,0,0.84,0.023,0.936,0.023
			c0.08,0,0.439-0.023,0.743-0.023c0.145,0,0.216,0.016,0.216,0.055c0,0.041-0.023,0.057-0.079,0.057
			c-0.089,0-0.232,0.008-0.305,0.039c-0.088,0.041-0.104,0.105-0.104,0.16c0,0.105,0.096,0.352,0.216,0.664L40.493,60.432z"/>
		<path fill="#1A1A1A" d="M49.109,59.088c0,0.768,0,1.4,0.04,1.736c0.024,0.23,0.072,0.406,0.312,0.439
			c0.112,0.016,0.288,0.031,0.36,0.031c0.048,0,0.063,0.023,0.063,0.049c0,0.039-0.04,0.064-0.128,0.064
			c-0.439,0-0.943-0.025-0.983-0.025s-0.544,0.025-0.783,0.025c-0.088,0-0.128-0.018-0.128-0.064c0-0.025,0.016-0.049,0.063-0.049
			c0.072,0,0.168-0.016,0.24-0.031c0.16-0.033,0.2-0.209,0.231-0.439c0.04-0.336,0.04-0.969,0.04-1.736v-1.406
			c0-1.248,0-1.471-0.016-1.727c-0.016-0.273-0.096-0.408-0.271-0.449c-0.088-0.023-0.192-0.031-0.248-0.031
			c-0.032,0-0.064-0.016-0.064-0.049c0-0.047,0.04-0.062,0.128-0.062c0.264,0,0.768,0.023,0.808,0.023s0.544-0.023,0.784-0.023
			c0.088,0,0.128,0.016,0.128,0.062c0,0.033-0.032,0.049-0.064,0.049c-0.056,0-0.104,0.008-0.2,0.023
			c-0.216,0.041-0.279,0.176-0.295,0.457c-0.017,0.256-0.017,0.479-0.017,1.727V59.088z"/>
		<path fill="#1A1A1A" d="M55.638,60.657c-0.775-0.695-0.968-1.607-0.968-2.367c0-0.535,0.184-1.471,0.896-2.184
			c0.479-0.479,1.207-0.855,2.438-0.855c0.32,0,0.768,0.025,1.159,0.096c0.305,0.057,0.561,0.105,0.816,0.121
			c0.088,0.008,0.104,0.039,0.104,0.088c0,0.064-0.024,0.16-0.04,0.447c-0.016,0.264-0.016,0.703-0.024,0.824
			c-0.008,0.119-0.023,0.168-0.071,0.168c-0.057,0-0.064-0.057-0.064-0.168c0-0.312-0.128-0.641-0.336-0.816
			c-0.279-0.24-0.896-0.455-1.599-0.455c-1.063,0-1.56,0.312-1.839,0.584c-0.584,0.559-0.72,1.271-0.72,2.086
			c0,1.527,1.175,2.928,2.887,2.928c0.6,0,1.071-0.072,1.391-0.4c0.168-0.176,0.272-0.527,0.296-0.672
			c0.017-0.088,0.032-0.119,0.08-0.119c0.04,0,0.056,0.055,0.056,0.119c0,0.057-0.096,0.752-0.176,1.023
			c-0.048,0.152-0.063,0.168-0.208,0.232c-0.319,0.127-0.927,0.184-1.438,0.184C57.076,61.52,56.269,61.223,55.638,60.657z"/>
		<path fill="#1A1A1A" d="M65.765,57.682c0-1.248,0-1.471-0.016-1.727c-0.016-0.273-0.08-0.4-0.344-0.457
			c-0.064-0.016-0.2-0.023-0.271-0.023c-0.032,0-0.064-0.016-0.064-0.049c0-0.047,0.04-0.062,0.128-0.062
			c0.184,0,0.399,0,0.576,0.008l0.327,0.016c0.057,0,1.647,0,1.831-0.008c0.152-0.008,0.28-0.023,0.344-0.041
			c0.04-0.008,0.072-0.039,0.112-0.039c0.023,0,0.032,0.031,0.032,0.072c0,0.055-0.04,0.152-0.064,0.375
			c-0.008,0.08-0.023,0.432-0.04,0.527c-0.008,0.041-0.023,0.088-0.056,0.088c-0.048,0-0.064-0.039-0.064-0.104
			c0-0.057-0.008-0.191-0.048-0.287c-0.056-0.129-0.136-0.225-0.567-0.271c-0.136-0.018-1.008-0.025-1.096-0.025
			c-0.032,0-0.048,0.025-0.048,0.08v2.207c0,0.057,0.008,0.08,0.048,0.08c0.104,0,1.088,0,1.271-0.016
			c0.192-0.016,0.304-0.033,0.376-0.111c0.056-0.064,0.088-0.105,0.12-0.105c0.023,0,0.04,0.018,0.04,0.064
			c0,0.049-0.04,0.184-0.064,0.447c-0.016,0.16-0.032,0.457-0.032,0.512c0,0.064,0,0.152-0.056,0.152
			c-0.04,0-0.056-0.031-0.056-0.072c0-0.08,0-0.16-0.032-0.264c-0.032-0.111-0.104-0.248-0.416-0.279
			c-0.216-0.023-1.007-0.041-1.144-0.041c-0.04,0-0.056,0.025-0.056,0.057v0.703c0,0.273-0.008,1.199,0,1.367
			c0.024,0.553,0.145,0.656,0.928,0.656c0.208,0,0.56,0,0.768-0.088s0.304-0.248,0.359-0.576c0.017-0.088,0.032-0.119,0.072-0.119
			c0.048,0,0.048,0.064,0.048,0.119c0,0.064-0.063,0.607-0.104,0.775c-0.057,0.209-0.12,0.209-0.432,0.209
			c-0.601,0-1.04-0.016-1.352-0.023c-0.312-0.018-0.504-0.025-0.624-0.025c-0.016,0-0.151,0-0.319,0.008
			c-0.16,0-0.344,0.018-0.464,0.018c-0.088,0-0.128-0.018-0.128-0.064c0-0.025,0.016-0.049,0.063-0.049
			c0.072,0,0.168-0.016,0.24-0.031c0.16-0.033,0.2-0.209,0.231-0.439c0.04-0.336,0.04-0.969,0.04-1.736V57.682z"/>
		<path fill="#1A1A1A" d="M82.971,55.25c1.799,0,3.143,1.137,3.143,2.998c0,1.791-1.264,3.271-3.19,3.271
			c-2.191,0-3.103-1.703-3.103-3.143C79.82,57.083,80.764,55.25,82.971,55.25z M83.139,61.215c0.72,0,2.207-0.416,2.207-2.742
			c0-1.918-1.168-2.949-2.431-2.949c-1.336,0-2.335,0.879-2.335,2.629C80.58,60.016,81.699,61.215,83.139,61.215z"/>
		<path fill="#1A1A1A" d="M91.557,57.682c0-1.248,0-1.471-0.016-1.727c-0.016-0.273-0.08-0.4-0.344-0.457
			c-0.064-0.016-0.2-0.023-0.271-0.023c-0.032,0-0.064-0.016-0.064-0.049c0-0.047,0.04-0.062,0.128-0.062
			c0.184,0,0.399,0,0.576,0.008l0.327,0.016c0.16,0.008,1.783,0,1.967-0.008c0.152-0.008,0.28-0.008,0.353-0.033
			c0.048-0.016,0.08-0.047,0.111-0.047c0.032,0,0.048,0.031,0.048,0.072c0,0.055-0.04,0.152-0.063,0.375
			c-0.008,0.08-0.024,0.432-0.04,0.527c-0.008,0.041-0.024,0.088-0.064,0.088s-0.056-0.039-0.056-0.096
			c0-0.064-0.023-0.199-0.072-0.303c-0.048-0.105-0.231-0.248-0.543-0.256l-1.231-0.025c-0.048,0-0.072,0.025-0.072,0.088v2.207
			c0,0.049,0.008,0.072,0.056,0.072l1.023-0.008c0.137,0,0.248,0,0.36-0.008c0.191-0.016,0.296-0.041,0.368-0.145
			c0.031-0.039,0.056-0.08,0.088-0.08c0.031,0,0.039,0.025,0.039,0.064c0,0.049-0.039,0.184-0.063,0.447
			c-0.016,0.16-0.032,0.48-0.032,0.537c0,0.07,0,0.15-0.056,0.15c-0.04,0-0.056-0.031-0.056-0.07
			c-0.009-0.08-0.017-0.193-0.049-0.289c-0.039-0.111-0.167-0.256-0.415-0.287c-0.2-0.023-1.071-0.023-1.208-0.023
			c-0.039,0-0.056,0.016-0.056,0.07v0.68c0,0.768,0,1.4,0.04,1.736c0.024,0.23,0.072,0.406,0.312,0.439
			c0.112,0.016,0.288,0.031,0.36,0.031c0.048,0,0.063,0.023,0.063,0.049c0,0.039-0.04,0.064-0.128,0.064
			c-0.439,0-0.943-0.025-0.983-0.025s-0.544,0.025-0.783,0.025c-0.088,0-0.128-0.018-0.128-0.064c0-0.025,0.016-0.049,0.063-0.049
			c0.072,0,0.168-0.016,0.24-0.031c0.16-0.033,0.2-0.209,0.231-0.439c0.04-0.336,0.04-0.969,0.04-1.736V57.682z"/>
		<path fill="#1A1A1A" d="M107.053,59.106c0,1.174,0.032,1.686,0.176,1.83c0.128,0.127,0.336,0.184,0.96,0.184
			c0.424,0,0.775-0.008,0.967-0.24c0.104-0.127,0.185-0.328,0.208-0.479c0.009-0.064,0.024-0.105,0.072-0.105
			c0.04,0,0.048,0.033,0.048,0.121s-0.056,0.568-0.12,0.799c-0.056,0.184-0.08,0.217-0.503,0.217c-0.576,0-0.992-0.016-1.328-0.023
			c-0.336-0.018-0.583-0.025-0.815-0.025c-0.032,0-0.168,0.008-0.327,0.008c-0.16,0.008-0.336,0.018-0.456,0.018
			c-0.088,0-0.128-0.018-0.128-0.064c0-0.025,0.016-0.049,0.063-0.049c0.072,0,0.168-0.016,0.24-0.031
			c0.16-0.033,0.2-0.209,0.231-0.439c0.04-0.336,0.04-0.969,0.04-1.736v-1.406c0-1.248,0-1.471-0.016-1.727
			c-0.016-0.273-0.08-0.4-0.344-0.457c-0.064-0.016-0.2-0.023-0.271-0.023c-0.032,0-0.064-0.016-0.064-0.049
			c0-0.047,0.04-0.062,0.128-0.062c0.359,0,0.863,0.023,0.903,0.023s0.624-0.023,0.864-0.023c0.088,0,0.127,0.016,0.127,0.062
			c0,0.033-0.031,0.049-0.063,0.049c-0.056,0-0.168,0.008-0.264,0.023c-0.232,0.041-0.296,0.176-0.312,0.457
			c-0.017,0.256-0.017,0.479-0.017,1.727V59.106z"/>
		<path fill="#1A1A1A" d="M115.533,59.088c0,0.768,0,1.4,0.04,1.736c0.024,0.23,0.072,0.406,0.312,0.439
			c0.112,0.016,0.288,0.031,0.36,0.031c0.048,0,0.063,0.023,0.063,0.049c0,0.039-0.04,0.064-0.128,0.064
			c-0.439,0-0.943-0.025-0.983-0.025s-0.544,0.025-0.783,0.025c-0.088,0-0.128-0.018-0.128-0.064c0-0.025,0.016-0.049,0.063-0.049
			c0.072,0,0.168-0.016,0.24-0.031c0.16-0.033,0.2-0.209,0.231-0.439c0.04-0.336,0.04-0.969,0.04-1.736v-1.406
			c0-1.248,0-1.471-0.016-1.727c-0.016-0.273-0.096-0.408-0.271-0.449c-0.088-0.023-0.192-0.031-0.248-0.031
			c-0.032,0-0.064-0.016-0.064-0.049c0-0.047,0.04-0.062,0.128-0.062c0.264,0,0.768,0.023,0.808,0.023s0.544-0.023,0.784-0.023
			c0.088,0,0.128,0.016,0.128,0.062c0,0.033-0.032,0.049-0.064,0.049c-0.056,0-0.104,0.008-0.2,0.023
			c-0.216,0.041-0.279,0.176-0.295,0.457c-0.017,0.256-0.017,0.479-0.017,1.727V59.088z"/>
		<path fill="#1A1A1A" d="M123.828,59.088c0,0.768,0,1.4,0.04,1.736c0.024,0.23,0.072,0.406,0.312,0.439
			c0.111,0.016,0.287,0.031,0.359,0.031c0.048,0,0.064,0.023,0.064,0.049c0,0.039-0.04,0.064-0.129,0.064
			c-0.439,0-0.943-0.025-0.983-0.025s-0.543,0.025-0.783,0.025c-0.088,0-0.128-0.018-0.128-0.064c0-0.025,0.016-0.049,0.064-0.049
			c0.071,0,0.168-0.016,0.239-0.031c0.16-0.033,0.2-0.209,0.232-0.439c0.04-0.336,0.04-0.969,0.04-1.736v-3.381l-1.184,0.016
			c-0.496,0.008-0.688,0.064-0.815,0.256c-0.088,0.135-0.112,0.191-0.136,0.248c-0.024,0.064-0.049,0.08-0.08,0.08
			c-0.024,0-0.04-0.025-0.04-0.072c0-0.08,0.159-0.768,0.176-0.832c0.016-0.047,0.048-0.152,0.08-0.152
			c0.056,0,0.136,0.08,0.352,0.096c0.231,0.025,0.536,0.041,0.632,0.041h2.998c0.256,0,0.439-0.016,0.567-0.041
			c0.12-0.016,0.192-0.039,0.225-0.039c0.04,0,0.04,0.049,0.04,0.096c0,0.24-0.024,0.791-0.024,0.879
			c0,0.072-0.024,0.105-0.056,0.105c-0.04,0-0.057-0.025-0.064-0.137l-0.008-0.088c-0.024-0.24-0.216-0.424-0.983-0.439
			l-1.008-0.016V59.088z"/>
		<path fill="#1A1A1A" d="M130.935,57.682c0-1.248,0-1.471-0.017-1.727c-0.016-0.273-0.08-0.4-0.344-0.457
			c-0.063-0.016-0.2-0.023-0.271-0.023c-0.032,0-0.064-0.016-0.064-0.049c0-0.047,0.04-0.062,0.128-0.062
			c0.36,0,0.848,0.023,0.92,0.023c0.071,0,0.552-0.023,0.791-0.023c0.088,0,0.128,0.016,0.128,0.062
			c0,0.033-0.031,0.049-0.063,0.049c-0.057,0-0.104,0.008-0.2,0.023c-0.216,0.033-0.279,0.176-0.296,0.457
			c-0.016,0.256-0.016,0.479-0.016,1.727v1.119c0,1.15,0.256,1.646,0.6,1.975c0.392,0.367,0.752,0.439,1.207,0.439
			c0.488,0,0.968-0.23,1.256-0.574c0.367-0.457,0.463-1.137,0.463-1.959v-1c0-1.248,0-1.471-0.016-1.727
			c-0.016-0.273-0.08-0.4-0.344-0.457c-0.063-0.016-0.2-0.023-0.271-0.023c-0.032,0-0.064-0.016-0.064-0.049
			c0-0.047,0.04-0.062,0.128-0.062c0.36,0,0.8,0.023,0.848,0.023c0.056,0,0.432-0.023,0.672-0.023c0.088,0,0.128,0.016,0.128,0.062
			c0,0.033-0.032,0.049-0.064,0.049c-0.056,0-0.104,0.008-0.199,0.023c-0.216,0.049-0.28,0.176-0.296,0.457
			c-0.017,0.256-0.017,0.479-0.017,1.727v0.855c0,0.863-0.096,1.822-0.735,2.391c-0.575,0.512-1.175,0.592-1.647,0.592
			c-0.271,0-1.079-0.033-1.646-0.568c-0.392-0.375-0.695-0.936-0.695-2.102V57.682z"/>
		<path fill="#1A1A1A" d="M141.78,57.682c0-1.248,0-1.471-0.016-1.727c-0.016-0.273-0.08-0.4-0.344-0.457
			c-0.064-0.016-0.2-0.023-0.271-0.023c-0.032,0-0.064-0.016-0.064-0.049c0-0.047,0.04-0.062,0.128-0.062
			c0.36,0,0.863,0.023,0.903,0.023c0.088,0,0.696-0.023,0.943-0.023c0.504,0,1.04,0.047,1.464,0.352
			c0.199,0.143,0.552,0.535,0.552,1.088c0,0.59-0.248,1.182-0.968,1.846c0.655,0.84,1.199,1.551,1.663,2.047
			c0.432,0.457,0.775,0.545,0.976,0.576c0.151,0.023,0.264,0.023,0.312,0.023c0.04,0,0.072,0.023,0.072,0.049
			c0,0.047-0.048,0.064-0.192,0.064h-0.567c-0.447,0-0.647-0.041-0.855-0.152c-0.344-0.184-0.624-0.576-1.079-1.176
			c-0.336-0.439-0.712-0.975-0.872-1.184c-0.032-0.031-0.056-0.047-0.104-0.047l-0.983-0.018c-0.04,0-0.057,0.025-0.057,0.064v0.191
			c0,0.768,0,1.4,0.04,1.736c0.024,0.23,0.072,0.406,0.312,0.439c0.111,0.016,0.287,0.031,0.359,0.031
			c0.048,0,0.064,0.023,0.064,0.049c0,0.039-0.04,0.064-0.128,0.064c-0.44,0-0.944-0.025-0.983-0.025
			c-0.009,0-0.512,0.025-0.752,0.025c-0.088,0-0.128-0.018-0.128-0.064c0-0.025,0.016-0.049,0.063-0.049
			c0.072,0,0.168-0.016,0.24-0.031c0.16-0.033,0.2-0.209,0.231-0.439c0.04-0.336,0.04-0.969,0.04-1.736V57.682z M142.42,58.377
			c0,0.039,0.017,0.072,0.057,0.096c0.12,0.072,0.487,0.129,0.839,0.129c0.192,0,0.416-0.025,0.6-0.152
			c0.28-0.191,0.488-0.623,0.488-1.232c0-0.998-0.527-1.598-1.384-1.598c-0.239,0-0.455,0.023-0.535,0.047
			c-0.04,0.016-0.064,0.049-0.064,0.096V58.377z"/>
		<path fill="#1A1A1A" d="M155.475,59.37c0-0.648-0.04-0.736-0.359-0.824c-0.063-0.016-0.2-0.023-0.271-0.023
			c-0.032,0-0.064-0.018-0.064-0.049c0-0.047,0.04-0.064,0.128-0.064c0.36,0,0.863,0.025,0.903,0.025s0.544-0.025,0.784-0.025
			c0.088,0,0.128,0.018,0.128,0.064c0,0.031-0.032,0.049-0.064,0.049c-0.056,0-0.104,0.008-0.2,0.023
			c-0.216,0.039-0.279,0.176-0.295,0.455c-0.017,0.256-0.017,0.496-0.017,0.832v0.896c0,0.359-0.008,0.375-0.104,0.432
			c-0.512,0.271-1.231,0.359-1.695,0.359c-0.607,0-1.743-0.08-2.631-0.855c-0.487-0.424-0.951-1.279-0.951-2.279
			c0-1.279,0.624-2.184,1.335-2.631c0.72-0.447,1.512-0.504,2.127-0.504c0.504,0,1.071,0.105,1.224,0.137
			c0.168,0.039,0.447,0.072,0.647,0.08c0.08,0.008,0.096,0.039,0.096,0.072c0,0.111-0.056,0.336-0.056,1.135
			c0,0.129-0.016,0.168-0.072,0.168c-0.04,0-0.048-0.049-0.056-0.119c-0.008-0.113-0.048-0.336-0.168-0.529
			c-0.2-0.303-0.848-0.646-1.879-0.646c-0.504,0-1.104,0.047-1.711,0.527c-0.464,0.367-0.792,1.096-0.792,2.031
			c0,1.127,0.568,1.943,0.848,2.215c0.632,0.615,1.359,0.855,2.095,0.855c0.288,0,0.704-0.049,0.912-0.168
			c0.104-0.057,0.159-0.145,0.159-0.279V59.37z"/>
		<path fill="#1A1A1A" d="M163.205,59.336c0-0.432-0.08-0.607-0.184-0.84c-0.056-0.127-1.128-1.887-1.407-2.303
			c-0.2-0.295-0.4-0.494-0.544-0.592c-0.12-0.078-0.271-0.127-0.344-0.127c-0.04,0-0.08-0.016-0.08-0.057
			c0-0.031,0.032-0.055,0.104-0.055c0.151,0,0.751,0.023,0.791,0.023c0.057,0,0.36-0.023,0.672-0.023
			c0.088,0,0.104,0.023,0.104,0.055c0,0.033-0.048,0.041-0.119,0.072c-0.064,0.033-0.104,0.08-0.104,0.145
			c0,0.096,0.04,0.191,0.104,0.311c0.128,0.232,1.327,2.295,1.471,2.527c0.152-0.336,1.167-2.086,1.327-2.35
			c0.104-0.168,0.136-0.305,0.136-0.408c0-0.113-0.031-0.201-0.128-0.225c-0.071-0.023-0.119-0.039-0.119-0.08
			c0-0.031,0.048-0.047,0.128-0.047c0.207,0,0.463,0.023,0.527,0.023c0.048,0,0.624-0.023,0.775-0.023
			c0.056,0,0.104,0.016,0.104,0.047c0,0.041-0.04,0.064-0.104,0.064c-0.088,0-0.24,0.031-0.367,0.111
			c-0.16,0.096-0.248,0.193-0.424,0.408c-0.265,0.32-1.384,2.199-1.527,2.543c-0.12,0.287-0.12,0.535-0.12,0.799v0.688
			c0,0.129,0,0.465,0.024,0.801c0.016,0.23,0.088,0.406,0.327,0.439c0.112,0.016,0.288,0.031,0.36,0.031
			c0.048,0,0.063,0.023,0.063,0.049c0,0.039-0.04,0.064-0.128,0.064c-0.439,0-0.943-0.025-0.983-0.025s-0.544,0.025-0.783,0.025
			c-0.088,0-0.128-0.018-0.128-0.064c0-0.025,0.016-0.049,0.063-0.049c0.072,0,0.168-0.016,0.24-0.031
			c0.16-0.033,0.231-0.209,0.248-0.439c0.023-0.336,0.023-0.672,0.023-0.801V59.336z"/>
		<path fill="#1A1A1A" d="M177.126,61.303c-0.111-0.055-0.119-0.088-0.119-0.303c0-0.4,0.031-0.721,0.039-0.848
			c0.009-0.088,0.024-0.129,0.064-0.129c0.048,0,0.056,0.025,0.056,0.088c0,0.072,0,0.184,0.024,0.297
			c0.12,0.592,0.647,0.814,1.184,0.814c0.768,0,1.143-0.551,1.143-1.062c0-0.553-0.231-0.871-0.919-1.439l-0.36-0.295
			c-0.847-0.697-1.039-1.191-1.039-1.736c0-0.855,0.64-1.439,1.655-1.439c0.312,0,0.544,0.033,0.743,0.08
			c0.152,0.033,0.216,0.041,0.28,0.041c0.063,0,0.08,0.016,0.08,0.055c0,0.041-0.032,0.305-0.032,0.848
			c0,0.129-0.016,0.184-0.056,0.184c-0.048,0-0.057-0.039-0.064-0.104c-0.008-0.096-0.056-0.311-0.104-0.398s-0.264-0.424-1-0.424
			c-0.552,0-0.983,0.344-0.983,0.926c0,0.457,0.208,0.744,0.976,1.344l0.224,0.176c0.943,0.744,1.168,1.24,1.168,1.879
			c0,0.328-0.128,0.936-0.68,1.328c-0.344,0.24-0.775,0.336-1.207,0.336C177.822,61.52,177.454,61.463,177.126,61.303z"/>
		<path fill="#1A1A1A" d="M186.612,59.088c0,0.768,0,1.4,0.04,1.736c0.024,0.23,0.072,0.406,0.312,0.439
			c0.112,0.016,0.288,0.031,0.36,0.031c0.048,0,0.063,0.023,0.063,0.049c0,0.039-0.04,0.064-0.128,0.064
			c-0.439,0-0.943-0.025-0.983-0.025s-0.543,0.025-0.783,0.025c-0.088,0-0.128-0.018-0.128-0.064c0-0.025,0.016-0.049,0.063-0.049
			c0.072,0,0.168-0.016,0.24-0.031c0.16-0.033,0.2-0.209,0.231-0.439c0.04-0.336,0.04-0.969,0.04-1.736v-1.406
			c0-1.248,0-1.471-0.016-1.727c-0.016-0.273-0.096-0.408-0.271-0.449c-0.088-0.023-0.192-0.031-0.248-0.031
			c-0.032,0-0.064-0.016-0.064-0.049c0-0.047,0.04-0.062,0.128-0.062c0.265,0,0.768,0.023,0.808,0.023s0.544-0.023,0.784-0.023
			c0.088,0,0.128,0.016,0.128,0.062c0,0.033-0.032,0.049-0.064,0.049c-0.056,0-0.104,0.008-0.2,0.023
			c-0.216,0.041-0.279,0.176-0.296,0.457c-0.016,0.256-0.016,0.479-0.016,1.727V59.088z"/>
		<path fill="#1A1A1A" d="M193.42,60.321c0.017,0.654,0.097,0.863,0.312,0.928c0.151,0.039,0.327,0.047,0.399,0.047
			c0.04,0,0.064,0.016,0.064,0.049c0,0.047-0.049,0.064-0.145,0.064c-0.455,0-0.775-0.025-0.848-0.025
			c-0.071,0-0.407,0.025-0.768,0.025c-0.08,0-0.128-0.01-0.128-0.064c0-0.033,0.024-0.049,0.064-0.049
			c0.063,0,0.208-0.008,0.328-0.047c0.199-0.057,0.239-0.289,0.239-1.016l0.008-4.582c0-0.312,0.024-0.4,0.088-0.4
			c0.064,0,0.2,0.176,0.28,0.256c0.12,0.137,1.312,1.424,2.543,2.742c0.791,0.848,1.663,1.824,1.919,2.088l-0.088-4.062
			c-0.009-0.52-0.064-0.695-0.312-0.76c-0.144-0.031-0.327-0.039-0.392-0.039c-0.056,0-0.063-0.023-0.063-0.057
			c0-0.047,0.063-0.055,0.159-0.055c0.36,0,0.744,0.023,0.832,0.023s0.352-0.023,0.68-0.023c0.088,0,0.144,0.008,0.144,0.055
			c0,0.033-0.032,0.057-0.088,0.057c-0.04,0-0.096,0-0.191,0.023c-0.265,0.057-0.296,0.232-0.296,0.713l-0.017,4.686
			c0,0.527-0.016,0.566-0.071,0.566c-0.064,0-0.16-0.088-0.584-0.512c-0.088-0.08-1.239-1.256-2.087-2.166
			c-0.928-1-1.831-2.008-2.087-2.295L193.42,60.321z"/>
		<path fill="#1A1A1A" d="M204.461,60.657c-0.776-0.695-0.968-1.607-0.968-2.367c0-0.535,0.184-1.471,0.896-2.184
			c0.479-0.479,1.207-0.855,2.438-0.855c0.32,0,0.768,0.025,1.159,0.096c0.304,0.057,0.56,0.105,0.815,0.121
			c0.089,0.008,0.104,0.039,0.104,0.088c0,0.064-0.024,0.16-0.04,0.447c-0.016,0.264-0.016,0.703-0.024,0.824
			c-0.008,0.119-0.023,0.168-0.071,0.168c-0.057,0-0.064-0.057-0.064-0.168c0-0.312-0.128-0.641-0.336-0.816
			c-0.279-0.24-0.896-0.455-1.599-0.455c-1.063,0-1.56,0.312-1.839,0.584c-0.584,0.559-0.72,1.271-0.72,2.086
			c0,1.527,1.175,2.928,2.887,2.928c0.6,0,1.071-0.072,1.391-0.4c0.168-0.176,0.272-0.527,0.296-0.672
			c0.016-0.088,0.032-0.119,0.08-0.119c0.04,0,0.056,0.055,0.056,0.119c0,0.057-0.096,0.752-0.176,1.023
			c-0.048,0.152-0.063,0.168-0.208,0.232c-0.319,0.127-0.927,0.184-1.438,0.184C205.899,61.52,205.093,61.223,204.461,60.657z"/>
		<path fill="#1A1A1A" d="M214.589,57.682c0-1.248,0-1.471-0.016-1.727c-0.016-0.273-0.08-0.4-0.344-0.457
			c-0.064-0.016-0.2-0.023-0.271-0.023c-0.032,0-0.064-0.016-0.064-0.049c0-0.047,0.04-0.062,0.128-0.062
			c0.184,0,0.399,0,0.576,0.008l0.327,0.016c0.057,0,1.647,0,1.831-0.008c0.152-0.008,0.28-0.023,0.344-0.041
			c0.04-0.008,0.072-0.039,0.112-0.039c0.023,0,0.032,0.031,0.032,0.072c0,0.055-0.04,0.152-0.064,0.375
			c-0.008,0.08-0.023,0.432-0.04,0.527c-0.008,0.041-0.023,0.088-0.056,0.088c-0.048,0-0.064-0.039-0.064-0.104
			c0-0.057-0.008-0.191-0.048-0.287c-0.056-0.129-0.136-0.225-0.567-0.271c-0.136-0.018-1.008-0.025-1.096-0.025
			c-0.032,0-0.048,0.025-0.048,0.08v2.207c0,0.057,0.008,0.08,0.048,0.08c0.104,0,1.088,0,1.271-0.016
			c0.192-0.016,0.304-0.033,0.376-0.111c0.056-0.064,0.088-0.105,0.12-0.105c0.023,0,0.04,0.018,0.04,0.064
			c0,0.049-0.04,0.184-0.064,0.447c-0.016,0.16-0.032,0.457-0.032,0.512c0,0.064,0,0.152-0.056,0.152
			c-0.04,0-0.056-0.031-0.056-0.072c0-0.08,0-0.16-0.032-0.264c-0.032-0.111-0.104-0.248-0.416-0.279
			c-0.216-0.023-1.007-0.041-1.144-0.041c-0.04,0-0.056,0.025-0.056,0.057v0.703c0,0.273-0.008,1.199,0,1.367
			c0.024,0.553,0.145,0.656,0.928,0.656c0.208,0,0.56,0,0.768-0.088s0.304-0.248,0.359-0.576c0.017-0.088,0.032-0.119,0.072-0.119
			c0.048,0,0.048,0.064,0.048,0.119c0,0.064-0.063,0.607-0.104,0.775c-0.057,0.209-0.12,0.209-0.432,0.209
			c-0.601,0-1.04-0.016-1.352-0.023c-0.312-0.018-0.504-0.025-0.624-0.025c-0.016,0-0.151,0-0.319,0.008
			c-0.16,0-0.344,0.018-0.464,0.018c-0.088,0-0.128-0.018-0.128-0.064c0-0.025,0.016-0.049,0.063-0.049
			c0.072,0,0.168-0.016,0.24-0.031c0.16-0.033,0.2-0.209,0.231-0.439c0.04-0.336,0.04-0.969,0.04-1.736V57.682z"/>
		<path fill="#1A1A1A" d="M230.853,58.977c-0.008,0.799,0,1.486,0.04,1.84c0.031,0.246,0.063,0.367,0.319,0.424
			c0.12,0.023,0.456,0.047,0.528,0.047c0.031,0,0.071,0.031,0.071,0.064c0,0.039-0.04,0.057-0.136,0.057
			c-0.6,0-1.111-0.025-1.151-0.025s-0.712,0.025-1.224,0.025c-0.088,0-0.136-0.018-0.136-0.057c0-0.033,0.032-0.064,0.064-0.064
			c0.096,0,0.487-0.023,0.64-0.057c0.264-0.047,0.319-0.168,0.336-0.414c0.023-0.354,0.023-1.041,0.023-1.84v-1.398
			c0-0.432,0-0.775,0-1.217c0-0.16-0.016-0.248-0.144-0.248c-0.152,0-0.712,0.289-0.912,0.385c-0.04,0.023-0.063,0.031-0.096,0.031
			c-0.023,0-0.056-0.039-0.056-0.072c0-0.023,0.023-0.055,0.056-0.078l1.543-1.033c0.072-0.047,0.137-0.096,0.192-0.096
			c0.063,0,0.088,0.088,0.088,0.168c0,0.064-0.032,0.855-0.04,2.08L230.853,58.977z"/>
		<path fill="#1A1A1A" d="M240.58,57.426c0,2.246-1.791,3.629-2.767,4.117c-0.048,0.023-0.096,0.031-0.128,0.031
			s-0.063-0.031-0.063-0.078c0-0.049,0.031-0.088,0.079-0.113c0.944-0.52,2.175-1.846,2.175-3.725c0-1.4-0.615-2.111-1.318-2.111
			c-0.72,0-1.096,0.592-1.096,1.223c0,1.328,0.983,1.592,1.199,1.592c0.376,0,0.535-0.08,0.64-0.145
			c0.048-0.031,0.08-0.047,0.104-0.047c0.024,0,0.04,0.031,0.04,0.055s-0.008,0.041-0.031,0.064c-0.232,0.248-0.64,0.367-0.96,0.367
			c-1.136,0-1.615-0.871-1.615-1.543c0-1.104,0.808-1.863,1.911-1.863C239.876,55.25,240.58,56.211,240.58,57.426z"/>
		<path fill="#1A1A1A" d="M247.102,55.25c1.463,0,1.887,1.904,1.887,2.951c0,1.838-0.712,3.318-2.015,3.318
			c-1.247,0-1.879-1.52-1.879-2.951C245.095,56.682,245.822,55.25,247.102,55.25z M247.134,61.223c0.72,0,1.207-1.104,1.207-2.678
			c0-1.52-0.496-2.998-1.399-2.998c-0.743,0-1.199,1.07-1.199,2.693C245.742,59.641,246.15,61.223,247.134,61.223z"/>
		<path fill="#1A1A1A" d="M254.95,58.209c-0.152-0.031-0.208-0.049-0.208-0.104c0-0.057,0.08-0.08,0.185-0.096
			c0.392-0.072,1.271-0.457,1.271-1.393c0-0.336-0.208-1.078-1.151-1.078c-0.583,0-1.007,0.328-1.007,0.943
			c0,0.08-0.032,0.096-0.057,0.096c-0.023,0-0.048-0.016-0.056-0.088c-0.032-0.256-0.056-0.615-0.056-0.801
			c0-0.07,0.008-0.104,0.104-0.166c0.248-0.121,0.696-0.273,1.296-0.273c1.303,0,1.583,0.801,1.583,1.199
			c0,0.801-0.824,1.328-1.071,1.439v0.041c0.503,0.119,1.318,0.607,1.318,1.535c0,1.119-0.967,2.055-2.391,2.055
			c-0.327,0-0.807-0.096-0.975-0.191c-0.112-0.072-0.128-0.129-0.128-0.225c0-0.375,0.031-0.824,0.056-1
			c0.008-0.08,0.023-0.119,0.063-0.119s0.048,0.023,0.057,0.111c0.056,0.615,0.359,1.08,1.199,1.08c0.808,0,1.447-0.465,1.447-1.416
			C256.43,58.69,255.47,58.313,254.95,58.209z"/>
	</g>
</g>
</svg>
