{
    "asset" : {
        "generator" : "Khronos glTF Blender I/O v1.7.33",
        "version" : "2.0"
    },
    "scene" : 0,
    "scenes" : [
        {
            "name" : "Scene",
            "nodes" : [
                0,
                1
            ]
        }
    ],
    "nodes" : [
        {
            "mesh" : 0,
            "name" : "front",
            "scale" : [
                0.009999999776482582,
                0.009999999776482582,
                0.009999999776482582
            ],
            "translation" : [
                0,
                0,
                0.010926627553999424
            ]
        },
        {
            "mesh" : 1,
            "name" : "back ok",
            "scale" : [
                0.009999999776482582,
                0.009999999776482582,
                0.009999999776482582
            ],
            "translation" : [
                -0.0030804441776126623,
                0.0029968260787427425,
                0.010933303274214268
            ]
        }
    ],
    "materials" : [
        {
            "doubleSided" : true,
            "name" : "PT_FABRIC_FRONT_33956",
            "pbrMetallicRoughness" : {
                "baseColorTexture" : {
                    "index" : 0
                },
                "metallicFactor" : 0,
                "roughnessFactor" : 0.5527864098548889
            }
        },
        {
            "doubleSided" : true,
            "name" : "PT_FABRIC_FRONT_257609",
            "pbrMetallicRoughness" : {
                "baseColorTexture" : {
                    "index" : 1
                },
                "metallicFactor" : 0,
                "roughnessFactor" : 0.5527864098548889
            }
        }
    ],
    "meshes" : [
        {
            "name" : "Mesh",
            "primitives" : [
                {
                    "attributes" : {
                        "POSITION" : 0,
                        "NORMAL" : 1,
                        "TEXCOORD_0" : 2
                    },
                    "indices" : 3,
                    "material" : 0
                }
            ]
        },
        {
            "name" : "Mesh.001",
            "primitives" : [
                {
                    "attributes" : {
                        "POSITION" : 4,
                        "NORMAL" : 5,
                        "TEXCOORD_0" : 6
                    },
                    "indices" : 7,
                    "material" : 1
                }
            ]
        }
    ],
    "textures" : [
        {
            "sampler" : 0,
            "source" : 0
        },
        {
            "sampler" : 0,
            "source" : 1
        }
    ],
    "images" : [
        {
            "mimeType" : "image/jpeg",
            "name" : "front",
            "uri" : "front.jpg"
        },
        {
            "mimeType" : "image/jpeg",
            "name" : "back",
            "uri" : "back.jpg"
        }
    ],
    "accessors" : [
        {
            "bufferView" : 0,
            "componentType" : 5126,
            "count" : 26611,
            "max" : [
                594.30908203125,
                1645.73388671875,
                178.90638732910156
            ],
            "min" : [
                -599.74560546875,
                300.2740783691406,
                -91.55902099609375
            ],
            "type" : "VEC3"
        },
        {
            "bufferView" : 1,
            "componentType" : 5126,
            "count" : 26611,
            "type" : "VEC3"
        },
        {
            "bufferView" : 2,
            "componentType" : 5126,
            "count" : 26611,
            "type" : "VEC2"
        },
        {
            "bufferView" : 3,
            "componentType" : 5123,
            "count" : 158175,
            "type" : "SCALAR"
        },
        {
            "bufferView" : 4,
            "componentType" : 5126,
            "count" : 26675,
            "max" : [
                591.0571899414062,
                1648.924072265625,
                -37.02053451538086
            ],
            "min" : [
                -601.2101440429688,
                275.839599609375,
                -278.3628845214844
            ],
            "type" : "VEC3"
        },
        {
            "bufferView" : 5,
            "componentType" : 5126,
            "count" : 26675,
            "type" : "VEC3"
        },
        {
            "bufferView" : 6,
            "componentType" : 5126,
            "count" : 26675,
            "type" : "VEC2"
        },
        {
            "bufferView" : 7,
            "componentType" : 5123,
            "count" : 158646,
            "type" : "SCALAR"
        }
    ],
    "bufferViews" : [
        {
            "buffer" : 0,
            "byteLength" : 319332,
            "byteOffset" : 0
        },
        {
            "buffer" : 0,
            "byteLength" : 319332,
            "byteOffset" : 319332
        },
        {
            "buffer" : 0,
            "byteLength" : 212888,
            "byteOffset" : 638664
        },
        {
            "buffer" : 0,
            "byteLength" : 316350,
            "byteOffset" : 851552
        },
        {
            "buffer" : 0,
            "byteLength" : 320100,
            "byteOffset" : 1167904
        },
        {
            "buffer" : 0,
            "byteLength" : 320100,
            "byteOffset" : 1488004
        },
        {
            "buffer" : 0,
            "byteLength" : 213400,
            "byteOffset" : 1808104
        },
        {
            "buffer" : 0,
            "byteLength" : 317292,
            "byteOffset" : 2021504
        }
    ],
    "samplers" : [
        {
            "magFilter" : 9729,
            "minFilter" : 9987
        }
    ],
    "buffers" : [
        {
            "byteLength" : 2338796,
            "uri" : "Ghotic.bin"
        }
    ]
}
