<?xml version="1.0" encoding="UTF-8"?>
<svg width="14px" height="14px" viewBox="0 0 14 14" version="1.1" xmlns="http://www.w3.org/2000/svg" xmlns:xlink="http://www.w3.org/1999/xlink">
    <!-- Generator: Sketch 58 (84663) - https://sketch.com -->
    <title>icon/angle-right</title>
    <desc>Created with Sketch.</desc>
    <g id="Certree-Pages" stroke="none" stroke-width="1" fill="none" fill-rule="evenodd">
        <g id="Certree.com---Employee-V02" transform="translate(-232.000000, -2200.000000)" fill="#FFFFFF" fill-rule="nonzero">
            <g id="Page-content" transform="translate(0.000000, 905.000000)">
                <g id="FAQ" transform="translate(230.000000, 1211.000000)">
                    <g id="FAQ-content" transform="translate(0.500000, 81.000000)">
                        <g id="icon/plus" transform="translate(1.500000, 3.000000)">
                            <path d="M7.49998212,13.9999666 C8.05216586,13.9999666 8.49997973,13.5521527 8.49997973,12.999969 L8.49997973,8.49997973 L12.999969,8.49997973 C13.5521527,8.49997973 13.9999666,8.05216586 13.9999666,7.49998212 L13.9999666,6.4999845 C13.9999666,5.94780076 13.5521527,5.49998689 12.999969,5.49998689 L8.49997973,5.49998689 L8.49997973,1 C8.49997973,0.447813874 8.05216586,0 7.49998212,0 L6.4999845,0 C5.94780076,0 5.49998689,0.447813874 5.49998689,1 L5.49998689,5.49998689 L1,5.49998689 C0.447813874,5.49998689 0,5.94780076 0,6.4999845 L0,7.49998212 C0,8.05216586 0.447813874,8.49997973 1,8.49997973 L5.49998689,8.49997973 L5.49998689,12.999969 C5.49998689,13.5521527 5.94780076,13.9999666 6.4999845,13.9999666 L7.49998212,13.9999666 Z" id="p"></path>
                        </g>
                    </g>
                </g>
            </g>
        </g>
    </g>
</svg>