<?xml version="1.0" standalone="no"?>
<!DOCTYPE svg PUBLIC "-//W3C//DTD SVG 20010904//EN"
 "http://www.w3.org/TR/2001/REC-SVG-20010904/DTD/svg10.dtd">
<svg version="1.0" xmlns="http://www.w3.org/2000/svg"
 width="1024.000000pt" height="1024.000000pt" viewBox="0 0 1024.000000 1024.000000"
 preserveAspectRatio="xMidYMid meet">
<metadata>
Created by potrace 1.11, written by Peter Selinger 2001-2013
</metadata>
<g transform="translate(0.000000,1024.000000) scale(0.100000,-0.100000)"
fill="#000000" stroke="none">
<path d="M4938 10235 c-2 -2 -19 -6 -38 -8 -19 -3 -37 -6 -40 -7 -3 -1 -9 -3
-15 -4 -30 -5 -119 -38 -175 -64 -136 -64 -106 -35 -1324 -1250 -724 -722
-776 -777 -813 -840 -15 -26 -30 -49 -33 -52 -14 -12 -70 -171 -84 -240 -20
-97 -16 -276 9 -380 3 -14 7 -29 8 -35 2 -5 5 -14 8 -20 4 -5 12 -28 19 -50
18 -55 64 -140 110 -201 31 -42 627 -639 1805 -1811 78 -79 147 -143 152 -143
4 0 8 165 7 368 l0 367 -600 597 c-329 328 -675 672 -768 765 -93 92 -179 184
-192 204 -67 106 -60 259 16 360 25 33 916 925 1516 1519 284 280 370 360 394
366 3 0 19 7 35 15 18 8 63 14 110 14 140 0 135 4 634 -490 240 -238 657 -654
926 -924 559 -559 553 -552 555 -691 0 -25 -1 -52 -3 -60 -19 -81 -41 -119
-111 -193 -25 -27 -46 -51 -46 -53 0 -9 362 -364 371 -364 10 0 106 96 135
135 10 15 26 35 35 46 9 11 22 33 29 49 7 17 16 30 21 30 5 0 9 5 9 10 0 6 9
29 19 53 11 23 30 80 43 127 20 72 24 106 23 215 -1 72 -5 141 -8 155 -4 14
-9 39 -13 55 -10 55 -57 169 -98 240 -34 60 -172 202 -991 1020 -523 523 -971
966 -995 986 -44 34 -80 57 -150 96 -41 23 -181 71 -225 77 -16 2 -30 5 -30 6
0 4 -233 8 -237 5z"/>
<path d="M4915 8504 c-121 -18 -260 -72 -341 -131 -17 -13 -34 -23 -37 -23
-10 0 -138 -125 -634 -617 l-472 -469 187 -187 c175 -175 188 -186 203 -170
36 41 1016 1003 1039 1021 75 56 191 72 289 39 58 -19 77 -33 190 -141 242
-232 1748 -1741 1771 -1775 12 -18 31 -64 41 -101 16 -61 16 -75 4 -134 -8
-37 -24 -84 -36 -106 -12 -21 -369 -385 -793 -807 l-771 -769 0 -363 c0 -283
3 -365 13 -368 6 -3 13 1 13 9 1 7 45 54 99 103 54 50 98 93 99 96 0 3 64 68
142 145 947 938 1591 1588 1625 1639 50 77 96 181 119 270 26 99 26 305 1 410
-18 79 -53 163 -98 240 -50 85 -102 139 -998 1033 -520 519 -974 965 -1009
992 -110 83 -255 146 -381 165 -74 11 -188 11 -265 -1z"/>
<path d="M4903 6850 c-49 -11 -80 -36 -103 -80 -21 -40 -21 -50 -21 -1435 0
-767 2 -1399 5 -1404 4 -5 1 -13 -5 -16 -6 -4 -118 99 -267 248 -142 141 -543
541 -893 889 -712 709 -687 680 -690 825 -1 90 33 167 107 242 24 25 44 47 44
51 0 3 -84 89 -186 190 l-186 185 -66 -70 c-36 -38 -84 -99 -107 -135 -41 -64
-97 -189 -109 -246 -3 -16 -9 -40 -12 -54 -4 -14 -8 -77 -10 -140 -3 -108 12
-229 35 -285 5 -11 21 -49 35 -86 58 -142 62 -147 1208 -1289 l1097 -1095 0
-1456 c0 -801 3 -1469 7 -1485 10 -44 41 -82 82 -103 31 -15 59 -18 172 -17
153 2 188 14 225 77 20 34 20 53 25 2364 l5 2330 677 674 677 674 -184 183
c-102 101 -187 184 -189 184 -6 0 -288 -278 -703 -692 l-283 -282 0 562 c0
309 0 564 0 567 2 18 -47 84 -76 105 -32 21 -47 24 -157 26 -67 1 -137 -2
-154 -6z"/>
<path d="M5580 2580 c-19 -12 -19 -19 -19 -255 0 -115 -1 -250 -1 -300 -1
-108 -1 -73 0 -343 0 -123 -2 -227 -5 -232 -3 -5 -1 -11 5 -15 6 -4 8 -10 5
-15 -5 -8 -6 -100 -4 -350 0 -47 0 -90 -1 -95 -9 -45 8 -74 47 -79 64 -9 120
34 369 281 89 88 101 115 90 189 -7 40 -14 52 -85 126 l-45 48 57 56 c62 62
83 112 72 172 -8 45 -29 76 -85 129 l-45 43 56 57 c59 60 68 77 76 130 8 56
-15 100 -91 176 -140 139 -260 248 -287 262 -34 18 -92 26 -109 15z"/>
</g>
</svg>
