<svg xmlns="http://www.w3.org/2000/svg" viewBox="0 0 18 18"><path fill="#A8201A" d="M9 .1c4.9 0 8.9 4 8.9 8.9s-4 8.9-8.9 8.9S.1 13.9.1 9 4.1.1 9 .1zm0 1C4.7 1.1 1.1 4.7 1.1 9s3.5 7.9 7.9 7.9 7.9-3.5 7.9-7.9S13.3 1.1 9 1.1zm0 1.1c3.8 0 6.8 3.1 6.8 6.8 0 3.8-3.1 6.8-6.8 6.8-3.8 0-6.8-3.1-6.8-6.8 0-3.8 3-6.8 6.8-6.8zm0 1C5.8 3.2 3.2 5.8 3.2 9s2.6 5.8 5.8 5.8 5.8-2.6 5.8-5.8S12.2 3.2 9 3.2zm.5 9.5v1h-1v-1h1zm2.5-1.5l.7.7-.7.8-.8-.7.8-.8zm-6 0l.8.8-.8.7-.7-.7.7-.8zm3.5-4.8v2.4l1.4 1.4-.7.7-1.7-1.7V6.4h1zM5.3 8.5v1h-1v-1h1zm8.4 0v1h-1v-1h1zM6 5.3l.8.7-.8.8-.7-.8.7-.7zm6 0l.7.7-.7.8-.8-.8.8-.7zm-2.5-1v1h-1v-1h1z"/></svg>