<svg xmlns="http://www.w3.org/2000/svg" viewBox="0 0 50 50"><path fill="#B7B7B7" d="M29 25.4c-.3-.3-.3-.6 0-.9l9.6-9.6c.3-.3.4-.6.4-.9 0-.3-.1-.6-.4-.9l-1.8-1.8c-.3-.3-.6-.4-.9-.4-.4 0-.6.1-.9.4l-9.6 9.6c-.3.3-.6.3-.9 0l-9.6-9.6c-.3-.3-.6-.4-.9-.4-.3 0-.6.1-.9.4l-1.8 1.8c-.3.3-.4.6-.4.9 0 .3.1.6.4.9l9.6 9.6c.3.3.3.6 0 .9L11.3 35c-.3.3-.4.6-.4.9 0 .3.1.6.4.9l1.8 1.8c.3.3.6.4.9.4.3 0 .6-.1.9-.4l9.6-9.6c.3-.3.6-.3.9 0l9.6 9.6c.3.3.6.4.9.4.3 0 .6-.1.9-.4l1.8-1.8c.3-.3.4-.6.4-.9 0-.3-.1-.6-.4-.9L29 25.4z"/></svg>