<svg xmlns="http://www.w3.org/2000/svg" viewBox="0 0 18 18"><path fill="#A8201A" d="M6.1.5C7.3.5 8.3 1.1 9 2c.6-.9 1.6-1.4 2.7-1.5h3.9v1h2.1v13.1h-2.4l2.4 2.4-.7.7-2.9-2.7c-.6.4-1.3.7-2.1.7-.9 0-1.7-.3-2.3-.9l-.2-.1H.4V1.5h2v-1h3.7zM12 9.6c-1.4 0-2.5 1.1-2.5 2.5s1.1 2.5 2.5 2.5 2.5-1.1 2.5-2.5c.1-1.4-1.1-2.5-2.5-2.5zm4.6-7.1h-1v9.6c0 .5-.1.9-.3 1.3l-.1.2h1.4V2.5zm-14.2 0h-1v11.1h6.8c-.4-.6-1.1-1-1.8-1h-4V2.5zm3.7-1H3.4v10.1h2.7c.7 0 1.3.2 1.9.5.1.1.2.2.4.3l.2.1V3.1l-.2-.2C7.9 2 7.1 1.5 6.1 1.5zm8.5 0h-1v3.7L12 3.7l-1.5 1.5V1.9c-.7.4-.9 1-1 1.2v6.5c.6-.6 1.5-1 2.5-1 .9 0 1.7.3 2.4.9l.2.1V1.5zM7.5 8.6v1H4.4v-1h3.1zm6-2v1h-3v-1h3zm-6 0v1H4.4v-1h3.1zm0-2.1v1H4.4v-1h3.1zm0-2v1H4.4v-1h3.1zm5-1h-1.1v1.3l.6-.5.5.5V1.5z"/></svg>