<?xml version="1.0" encoding="utf-8"?>
<!-- Generator: Adobe Illustrator 23.0.0, SVG Export Plug-In . SVG Version: 6.00 Build 0)  -->
<svg version="1.1" id="Шар_1" xmlns="http://www.w3.org/2000/svg" xmlns:xlink="http://www.w3.org/1999/xlink" x="0px" y="0px"
	 viewBox="0 0 18 18" style="enable-background:new 0 0 18 18;" xml:space="preserve">
<path fill="#A8201A" d="M6.1,0.5C7.3,0.5,8.3,1.1,9,2c0.6-0.9,1.6-1.4,2.7-1.5l0.2,0h3.7v1h2.1v13.1h-2.4l2.4,2.4l-0.7,0.7L14.1,15
	c-0.6,0.4-1.3,0.7-2.1,0.7c-0.9,0-1.7-0.3-2.3-0.9l-0.2-0.1H0.4V1.5h2v-1H6.1z M12,9.6c-1.4,0-2.5,1.1-2.5,2.5
	c0,1.4,1.1,2.5,2.5,2.5c1.4,0,2.5-1.1,2.5-2.5C14.6,10.7,13.4,9.6,12,9.6z M16.6,2.5h-1v9.6c0,0.5-0.1,0.9-0.3,1.3l-0.1,0.2h1.4V2.5
	z M2.4,2.5h-1v11.1h6.8c-0.4-0.6-1.1-1-1.8-1l-0.2,0H2.4V2.5z M6.1,1.5H3.4v10.1h2.7c0.7,0,1.3,0.2,1.9,0.5c0.1,0.1,0.2,0.2,0.4,0.3
	l0.2,0.1V3.1L8.4,2.9C7.9,2,7.1,1.5,6.1,1.5z M14.6,1.5h-1v3.7L12,3.7l-1.5,1.5V1.9c-0.7,0.4-0.9,1-1,1.2l0,0v6.5
	C10.1,9,11,8.6,12,8.6c0.9,0,1.7,0.3,2.4,0.9l0.2,0.1V1.5z M7.5,8.6v1H4.4v-1H7.5z M13.5,6.6v1h-3v-1H13.5z M7.5,6.6v1H4.4v-1H7.5z
	 M7.5,4.5v1H4.4v-1H7.5z M7.5,2.5v1H4.4v-1H7.5z M12.5,1.5h-0.7l-0.2,0l-0.2,0v1.3L12,2.3l0.5,0.5V1.5z"/>
</svg>
