<?xml version="1.0" encoding="UTF-8"?>
<svg width="21px" height="17px" viewBox="0 0 21 17" version="1.1" xmlns="http://www.w3.org/2000/svg" xmlns:xlink="http://www.w3.org/1999/xlink">
    <!-- Generator: Sketch 58 (84663) - https://sketch.com -->
    <title>icon/phone copy</title>
    <desc>Created with Sketch.</desc>
    <defs>
        <path d="M21.8655781,13.9088052 C22.3039347,13.9088052 22.6592711,13.5534688 22.6592711,13.1151121 L22.6592711,7.9164226 C22.6592711,6.16585319 21.2350683,4.74165037 19.4844989,4.74165037 L5.5155011,4.74165037 C3.76493169,4.74165037 2.34072887,6.16585319 2.34072887,7.9164226 L2.34072887,17.0835774 C2.34072887,18.8341468 3.76493169,20.2583496 5.5155011,20.2583496 L19.4844989,20.2583496 C21.2350683,20.2583496 22.6592711,18.8341468 22.6592711,17.0835774 C22.6592711,16.6452207 22.3039347,16.2898843 21.8655781,16.2898843 C21.4272214,16.2898843 21.071885,16.6452207 21.071885,17.0835774 C21.071885,17.9588621 20.3597836,18.6709635 19.4844989,18.6709635 L5.5155011,18.6709635 C4.6402164,18.6709635 3.92811499,17.9588621 3.92811499,17.0835774 L3.92811499,8.08460616 L10.8235218,12.3723345 C11.3405732,12.6938198 11.9202866,12.8545824 12.5,12.8545824 C13.0797134,12.8545824 13.6594268,12.6938198 14.1764782,12.3723345 L21.071885,8.08460616 L21.071885,13.1151121 C21.071885,13.5534688 21.4272214,13.9088052 21.8655781,13.9088052 Z M13.3382192,11.0242865 C12.8212076,11.3457719 12.1787924,11.3458116 11.6617808,11.0242865 L4.59041216,6.62714759 C4.85106096,6.43959793 5.17060178,6.32903648 5.5155011,6.32903648 L19.4844989,6.32903648 C19.8293982,6.32903648 20.148939,6.43963761 20.4095878,6.62718728 L13.3382192,11.0242865 Z" id="path-1"></path>
    </defs>
    <g id="Desktop-(XL)" stroke="none" stroke-width="1" fill="none" fill-rule="evenodd">
        <g id="contact-us" transform="translate(-998.000000, -865.000000)">
            <g id="section-3" transform="translate(272.000000, 770.000000)">
                <g id="email" transform="translate(723.804214, 86.500000)">
                    <g id="icon/email" transform="translate(0.000000, 4.500000)">
                        <mask id="mask-2" fill="white">
                            <use xlink:href="#path-1"></use>
                        </mask>
                        <use id="Mask" fill="#000000" fill-rule="nonzero" xlink:href="#path-1"></use>
                        <g id="color/maroon-secondary" mask="url(#mask-2)" fill="#A8201A" fill-rule="evenodd">
                            <g transform="translate(0.020508, 0.162109)" id="Rectangle">
                                <rect x="0" y="0" width="25.0037386" height="25.0037386"></rect>
                            </g>
                        </g>
                    </g>
                </g>
            </g>
        </g>
    </g>
</svg>