<?xml version="1.0" encoding="utf-8"?>
<!-- Generator: Adobe Illustrator 23.0.0, SVG Export Plug-In . SVG Version: 6.00 Build 0)  -->
<svg version="1.1" id="Шар_1" xmlns="http://www.w3.org/2000/svg" xmlns:xlink="http://www.w3.org/1999/xlink" x="0px" y="0px"
	 viewBox="0 0 16 17" style="enable-background:new 0 0 16 17;" xml:space="preserve">
<path fill="#A8201A" d="M12.7,12.2c2-2,2.8-5.1,2-7.8c-0.4-1.3-1.1-2.5-2-3.5l-0.3-0.3L11,1.9C8.6-0.1,5,0,2.7,2.3c-2.3,2.3-2.4,5.9-0.3,8.3
	l-1.3,1.3l0.3,0.3c1.2,1.2,2.6,1.9,4.2,2.2v1.1H3.8v0.9h6.6v-0.9H8.5v-1.1C10.1,14.2,11.5,13.4,12.7,12.2z M3.5,7.6l0.9,0.9L3.1,9.8
	C2.9,9.2,3.2,8.3,3.5,7.6L3.5,7.6z M10.7,5.5L9.7,4.6L11,3.3C11.2,4,10.9,4.9,10.7,5.5L10.7,5.5z M3.8,10.5l1.2-1.2L6,10.2
	C5.4,10.5,4.5,10.7,3.8,10.5z M5.7,8.6l1.3-1.3l1.3,1.3C7.9,9,7.4,9.4,6.9,9.7L5.7,8.6z M7.7,6.6l1.3-1.3l1.1,1.1
	C9.9,6.9,9.5,7.4,9,7.9L7.7,6.6z M10.3,2.7L9.1,3.9L8.1,3C8.8,2.7,9.6,2.5,10.3,2.7z M8.4,4.6L7.1,5.9L5.7,4.6
	c0.5-0.4,1-0.8,1.5-1.1L8.4,4.6z M5.1,3.9L3.7,2.6c0.5-0.4,1.1-0.7,1.7-0.9l1.1,1.1C6.1,3.1,5.5,3.5,5.1,3.9z M4.4,4.6
	C4,5.1,3.6,5.6,3.2,6.1L2.1,5c0.2-0.6,0.5-1.2,0.9-1.7L4.4,4.6z M5.1,5.3l1.3,1.3L5.1,7.9L3.9,6.8C4.2,6.3,4.6,5.8,5.1,5.3z
	 M6.7,10.9l0.8,0.8c-0.8,0.1-1.6,0-2.3-0.3C5.7,11.3,6.2,11.1,6.7,10.9L6.7,10.9z M8.7,11.5l-1.1-1.1c0.5-0.3,1-0.7,1.5-1.2l1.3,1.3
	C9.9,11,9.3,11.3,8.7,11.5z M9.7,8.6c0.4-0.5,0.8-1,1.2-1.5L12,8.2c-0.2,0.6-0.5,1.2-0.9,1.7L9.7,8.6z M12.2,7.1l-0.8-0.8
	c0.2-0.5,0.4-1,0.5-1.5C12.2,5.5,12.3,6.3,12.2,7.1z M8.9,1.7c-0.5,0.1-1,0.3-1.5,0.5L6.6,1.4C7.3,1.4,8.1,1.5,8.9,1.7z M1.9,6.1
	l0.8,0.8c-0.2,0.5-0.4,1-0.5,1.5C1.9,7.7,1.8,6.9,1.9,6.1z M3.1,11.2c2.3,2,5.7,2,8,0l0,0l0.7-0.7l0,0c2-2.3,2-5.7,0-8l0.7-0.7
	c0.7,0.8,1.2,1.7,1.5,2.7c0.7,2.5,0,5.1-1.8,6.9c-2.6,2.6-6.9,2.7-9.6,0.3L3.1,11.2z M7.5,15.6H6.6v-1c0.2,0,0.3,0,0.5,0h0
	c0.2,0,0.3,0,0.5,0V15.6z"/>
</svg>
