<svg width="18" height="18" viewBox="0 0 18 18" xmlns="http://www.w3.org/2000/svg" xmlns:xlink="http://www.w3.org/1999/xlink"><title>icon/language copy 2</title><defs><path d="M14.985 1.831l-1.436 1.436 1.436 1.436h-3.916l4.455 3.815-.623.728-.593-.509v1.742h3.86v7.69H1.832v-7.69h3.861V8.737l-.593.508-.623-.727 5.045-4.32V1.83h5.464zm-3.55 12.477h-.956v2.903h.957v-2.903zm-1.914 0h-.957v2.903h.957v-2.903zm7.69-2.872h-2.903v5.775h2.903v-5.775zM10 5.048l-3.35 2.87v9.293h.957V13.69c0-1.199.64-2.3 1.667-2.896l.185-.1.541-.27.541.27a3.35 3.35 0 0 1 1.846 2.786l.006.21v3.522h.957V7.917L10 5.047zm-4.308 6.388H2.79v5.775h2.903v-5.775zm-.957 3.829v.957h-.957v-.957h.957zm11.487 0v.957h-.957v-.957h.957zM4.735 13.35v.958h-.957v-.958h.957zm11.487 0v.958h-.957v-.958h.957zM10 11.492c-.025.022-1.108.443-1.378 1.669l-.034.19h2.824c-.196-1.399-1.372-1.826-1.412-1.859zm0-4.842c.792 0 1.436.644 1.436 1.435 0 .792-.644 1.436-1.436 1.436a1.438 1.438 0 0 1-1.436-1.436c0-.791.644-1.435 1.436-1.435zm0 .957a.48.48 0 1 0 .001.958.48.48 0 0 0-.001-.958zm2.674-4.818h-2.195v.957h2.195l-.48-.479.48-.478z" id="a"/></defs><g transform="translate(-1 -1)" fill="none" fill-rule="evenodd"><mask id="b" fill="#fff"><use xlink:href="#a"/></mask><use fill="#000" fill-rule="nonzero" xlink:href="#a"/><g mask="url(#b)" fill="#A8201A"><path d="M.016.13H20.02v20.003H.016z"/></g></g></svg>