<svg xmlns="http://www.w3.org/2000/svg" viewBox="0 0 16 17"><path fill="#A8201A" d="M12.7 12.2c2-2 2.8-5.1 2-7.8a9.4 9.4 0 0 0-2-3.5l-.3-.3L11 1.9c-2.4-2-6-1.9-8.3.4C.4 4.6.3 8.2 2.4 10.6l-1.3 1.3.3.3c1.2 1.2 2.6 1.9 4.2 2.2v1.1H3.8v.9h6.6v-.9H8.5v-1.1c1.6-.2 3-1 4.2-2.2zM3.5 7.6l.9.9-1.3 1.3c-.2-.6.1-1.5.4-2.2zm7.2-2.1l-1-.9L11 3.3c.2.7-.1 1.6-.3 2.2zm-6.9 5L5 9.3l1 .9c-.6.3-1.5.5-2.2.3zm1.9-1.9L7 7.3l1.3 1.3c-.4.4-.9.8-1.4 1.1L5.7 8.6zm2-2L9 5.3l1.1 1.1c-.2.5-.6 1-1.1 1.5L7.7 6.6zm2.6-3.9L9.1 3.9l-1-.9c.7-.3 1.5-.5 2.2-.3zM8.4 4.6L7.1 5.9 5.7 4.6c.5-.4 1-.8 1.5-1.1l1.2 1.1zm-3.3-.7L3.7 2.6c.5-.4 1.1-.7 1.7-.9l1.1 1.1c-.4.3-1 .7-1.4 1.1zm-.7.7L3.2 6.1 2.1 5c.2-.6.5-1.2.9-1.7l1.4 1.3zm.7.7l1.3 1.3-1.3 1.3-1.2-1.1c.3-.5.7-1 1.2-1.5zm1.6 5.6l.8.8c-.8.1-1.6 0-2.3-.3.5-.1 1-.3 1.5-.5zm2 .6l-1.1-1.1c.5-.3 1-.7 1.5-1.2l1.3 1.3c-.5.5-1.1.8-1.7 1zm1-2.9l1.2-1.5L12 8.2c-.2.6-.5 1.2-.9 1.7L9.7 8.6zm2.5-1.5l-.8-.8c.2-.5.4-1 .5-1.5.3.7.4 1.5.3 2.3zM8.9 1.7c-.5.1-1 .3-1.5.5l-.8-.8c.7 0 1.5.1 2.3.3zm-7 4.4l.8.8c-.2.5-.4 1-.5 1.5-.3-.7-.4-1.5-.3-2.3zm1.2 5.1c2.3 2 5.7 2 8 0l.7-.7c2-2.3 2-5.7 0-8l.7-.7c.7.8 1.2 1.7 1.5 2.7.7 2.5 0 5.1-1.8 6.9-2.6 2.6-6.9 2.7-9.6.3l.5-.5zm4.4 4.4h-.9v-1h1v1z"/></svg>