<svg width="18" height="18" viewBox="0 0 18 18" xmlns="http://www.w3.org/2000/svg" xmlns:xlink="http://www.w3.org/1999/xlink"><title>icon/language copy 4</title><defs><path d="M10 1.065c4.92 0 8.935 4.015 8.935 8.935 0 4.92-4.015 8.935-8.935 8.935-4.92 0-8.935-4.015-8.935-8.935 0-4.92 4.015-8.935 8.935-8.935zm0 1.047C5.65 2.112 2.112 5.65 2.112 10S5.65 17.888 10 17.888 17.888 14.35 17.888 10 14.35 2.112 10 2.112zm0 1.047c3.757 0 6.841 3.084 6.841 6.841S13.757 16.841 10 16.841 3.159 13.757 3.159 10 6.243 3.159 10 3.159zm0 1.047A5.8 5.8 0 0 0 4.206 10 5.8 5.8 0 0 0 10 15.794 5.8 5.8 0 0 0 15.794 10 5.8 5.8 0 0 0 10 4.206zm.524 9.459v1.047H9.476v-1.047h1.048zm2.437-1.444l.74.74-.74.741-.74-.74.74-.74zm-5.923 0l.74.74-.74.741-.74-.74.74-.74zm3.486-4.839v2.401L11.94 11.2l-.74.74-1.725-1.723V7.382h1.048zM6.335 9.476v1.048H5.288V9.476h1.047zm8.377 0v1.048h-1.047V9.476h1.047zM7.038 6.298l.74.74-.74.74-.74-.74.74-.74zm5.924 0l.74.74-.74.74-.74-.74.74-.74zm-2.438-1.01v1.047H9.476V5.288h1.048z" id="a"/></defs><g transform="translate(-1 -1)" fill="none" fill-rule="evenodd"><mask id="b" fill="#fff"><use xlink:href="#a"/></mask><use fill="#000" fill-rule="nonzero" xlink:href="#a"/><g mask="url(#b)" fill="#A8201A"><path d="M.016.13H20.02v20.003H.016z"/></g></g></svg>