<?xml version="1.0" encoding="utf-8"?>
<!-- Generator: Adobe Illustrator 23.0.0, SVG Export Plug-In . SVG Version: 6.00 Build 0)  -->
<svg version="1.1" id="Шар_1" xmlns="http://www.w3.org/2000/svg" xmlns:xlink="http://www.w3.org/1999/xlink" x="0px" y="0px"
	 viewBox="0 0 14 19" style="enable-background:new 0 0 14 19;" xml:space="preserve">
<path fill="#A8201A" d="M7,0.6c0.8,0,1.3,0.8,1.4,0.9C8.6,1.7,8.8,1.7,9,1.7c0.1,0,0.9-0.4,1.6,0.1c0.8,0.5,0.7,1.3,0.7,1.5c0,0.2,0.2,0.4,0.4,0.4
	c0.1,0.1,1,0.1,1.3,0.9c0.4,0.8-0.1,1.5-0.2,1.6c-0.1,0.2-0.1,0.4,0.1,0.6c0.1,0.1,0.7,0.6,0.6,1.5c-0.1,0.9-0.9,1.2-1,1.3
	c-0.2,0.1-0.3,0.3-0.2,0.5c0,0.1,0.3,0.9-0.3,1.6c0,0.1-0.1,0.1-0.1,0.1l0,0l1.9,4.4L11,16.8l-1.9,1.6L7,13.7l-2.1,4.7L3,16.8
	l-2.9-0.4L2.1,12c0,0-0.1-0.1-0.1-0.1c-0.6-0.7-0.3-1.5-0.3-1.6c0-0.2-0.1-0.4-0.2-0.5c-0.1-0.1-0.9-0.4-1-1.3C0.2,7.5,0.9,7,1,6.8
	c0.1-0.2,0.2-0.4,0.1-0.6c0-0.1-0.5-0.8-0.2-1.6c0.4-0.8,1.2-0.9,1.3-0.9c0.2-0.1,0.4-0.2,0.4-0.4c0-0.2-0.1-1,0.7-1.5
	C4.2,1.2,4.9,1.6,5,1.7c0.2,0.1,0.4,0,0.5-0.1C5.8,1.1,6.2,0.6,7,0.6z M4.8,13.7l-1,2.4l0.8,0.6l1.2-2.8c-0.2,0-0.5,0-0.7,0
	C5,13.8,4.9,13.8,4.8,13.7L4.8,13.7z M9.2,13.7c-0.1,0.1-0.2,0.1-0.3,0.1c-0.2,0.1-0.4,0.1-0.7,0l0,0l1.2,2.8l0.8-0.6L9.2,13.7z
	 M10.5,12.3c-0.2,0-0.4,0.1-0.5,0.3l0,0L10,12.8l1.3,2.9l1.2-0.2L11,12.3C10.9,12.4,10.8,12.3,10.5,12.3z M3.5,12.3l-0.3,0
	c0,0-0.1,0-0.1,0l0,0l-1.4,3.2l1.1,0.2L4,12.8L4,12.7C3.9,12.5,3.7,12.3,3.5,12.3L3.5,12.3z M7,1.6C6.6,1.6,6.5,2,6.4,2.1
	c0,0-0.6,0.9-1.7,0.5c-0.2,0-0.5-0.2-0.8,0C3.6,2.8,3.7,3.1,3.7,3.4C3.6,4,3.1,4.5,2.5,4.7C2.3,4.8,2,4.7,1.8,5.1
	C1.7,5.4,1.9,5.6,2,5.8c0.3,0.6,0.2,1.3-0.2,1.7C1.6,7.7,1.3,7.9,1.4,8.2c0,0.3,0.4,0.4,0.5,0.5c0.5,0.3,0.8,1,0.7,1.6
	c0,0.2-0.2,0.5,0.1,0.8c0.2,0.3,0.5,0.2,0.7,0.2c0,0,0,0,0,0c0.6,0,1.2,0.4,1.4,0.9c0.1,0.2,0.1,0.5,0.5,0.6
	c0.3,0.1,0.5-0.2,0.7-0.3c0.5-0.4,1.2-0.4,1.8,0c0.2,0.1,0.4,0.4,0.7,0.3c0.3-0.1,0.4-0.4,0.5-0.6l0.1-0.1c0.3-0.5,0.8-0.8,1.4-0.8
	c0.2,0,0.5,0.1,0.7-0.2c0.2-0.3,0.1-0.6,0.1-0.8c-0.1-0.6,0.2-1.3,0.7-1.6c0.2-0.1,0.5-0.2,0.5-0.5c0-0.3-0.2-0.5-0.4-0.7
	c-0.4-0.5-0.5-1.2-0.2-1.7c0.1-0.2,0.3-0.4,0.2-0.8c-0.1-0.3-0.5-0.3-0.7-0.4c-0.6-0.2-1.1-0.7-1.1-1.3l0,0c0-0.2,0-0.6-0.3-0.7
	c-0.3-0.2-0.6,0-0.8,0l-0.1,0C8.6,2.8,8,2.6,7.6,2.2C7.5,2.1,7.3,1.6,7,1.6z M7,3.8c2,0,3.7,1.6,3.7,3.7c0,2-1.6,3.7-3.7,3.7
	c-2,0-3.7-1.6-3.7-3.7C3.3,5.4,5,3.8,7,3.8z M7,4.8C5.6,4.8,4.4,6,4.4,7.4C4.4,8.9,5.6,10,7,10c1.4,0,2.6-1.2,2.6-2.6
	C9.6,6,8.4,4.8,7,4.8z"/>
</svg>
