<svg width="18" height="22" viewBox="0 0 18 22" xmlns="http://www.w3.org/2000/svg" xmlns:xlink="http://www.w3.org/1999/xlink"><title>icon/phone copy</title><defs><path d="M12.5 1.75c2.298 0 4.458.894 6.084 2.518a8.552 8.552 0 0 1 2.524 6.08c-.001 1.676-.466 3.246-1.42 4.802-.827 1.348-1.901 2.524-3.038 3.77-1.115 1.22-2.268 2.482-3.188 3.939a.84.84 0 0 1-.71.391h-.504a.84.84 0 0 1-.71-.391c-.92-1.456-2.073-2.719-3.188-3.94-1.137-1.245-2.21-2.42-3.037-3.769-.955-1.556-1.42-3.126-1.421-4.8a8.552 8.552 0 0 1 2.524-6.082A8.552 8.552 0 0 1 12.5 1.75zm0 1.68c-3.816 0-6.924 3.104-6.929 6.92.003 3.039 1.865 5.077 4.02 7.437.99 1.085 2.01 2.202 2.909 3.487.898-1.285 1.918-2.402 2.91-3.487 2.154-2.36 4.016-4.398 4.019-7.439-.005-3.814-3.113-6.918-6.929-6.918zm0 1.68a5.255 5.255 0 0 1 5.028 6.758.84.84 0 0 1-1.608-.482 3.574 3.574 0 0 0-3.42-4.597 3.573 3.573 0 0 0-3.57 3.57 3.573 3.573 0 0 0 4.55 3.433.84.84 0 1 1 .46 1.615 5.255 5.255 0 0 1-6.689-5.049A5.255 5.255 0 0 1 12.5 5.11z" id="a"/></defs><g transform="translate(-3.196 -1.5)" fill="none" fill-rule="evenodd"><mask id="b" fill="#fff"><use xlink:href="#a"/></mask><use fill="#000" fill-rule="nonzero" xlink:href="#a"/><g mask="url(#b)" fill="#A8201A"><path d="M0 0h25.004v25.004H0z"/></g></g></svg>