<svg width="21" height="17" viewBox="0 0 21 17" xmlns="http://www.w3.org/2000/svg" xmlns:xlink="http://www.w3.org/1999/xlink"><title>icon/phone copy</title><defs><path d="M21.866 13.909a.794.794 0 0 0 .793-.794V7.916a3.178 3.178 0 0 0-3.175-3.174H5.516A3.178 3.178 0 0 0 2.34 7.916v9.168a3.178 3.178 0 0 0 3.175 3.174h13.968a3.178 3.178 0 0 0 3.175-3.174.794.794 0 1 0-1.587 0 1.59 1.59 0 0 1-1.588 1.587H5.516a1.59 1.59 0 0 1-1.588-1.587v-9l6.896 4.288a3.17 3.17 0 0 0 1.676.483c.58 0 1.16-.161 1.676-.483l6.896-4.287v5.03c0 .438.355.794.794.794zm-8.528-2.885a1.577 1.577 0 0 1-1.676 0L4.59 6.627c.261-.187.58-.298.926-.298h13.968c.345 0 .665.11.926.298l-7.072 4.397z" id="a"/></defs><g transform="translate(-2.196 -4)" fill="none" fill-rule="evenodd"><mask id="b" fill="#fff"><use xlink:href="#a"/></mask><use fill="#000" fill-rule="nonzero" xlink:href="#a"/><g mask="url(#b)" fill="#A8201A"><path d="M.02.162h25.005v25.004H.02z"/></g></g></svg>