<svg width="20" height="21" viewBox="0 0 20 21" xmlns="http://www.w3.org/2000/svg" xmlns:xlink="http://www.w3.org/1999/xlink"><title>icon/phone copy</title><defs><path d="M16.79 22.66h-.044c-1.37-.006-2.861-.354-4.435-1.033a.776.776 0 1 1 .615-1.424c1.361.587 2.685.9 3.828.906h.035c1.43 0 2.624-.435 3.456-1.258l.006-.006a1.395 1.395 0 0 0-.07-1.944c-2.083-2.008-3.067-1.863-3.977-.975l-1.449 1.438a.776.776 0 0 1-.862.158c-.082-.037-2.033-.92-4.232-3.119l-.103-.102c-2.2-2.2-3.082-4.151-3.119-4.233a.776.776 0 0 1 .158-.862l1.438-1.449c.888-.91 1.033-1.893-.975-3.976a1.396 1.396 0 0 0-1.944-.07l-.006.005c-.83.839-1.265 2.046-1.258 3.491.014 2.788 1.594 6.024 4.228 8.66a18.922 18.922 0 0 1-1.082 1.112l-.008-.007c-2.92-2.92-4.673-6.568-4.69-9.757-.008-1.877.588-3.471 1.727-4.61l.03-.029.023-.02a2.938 2.938 0 0 1 2.078-.753 2.938 2.938 0 0 1 2.019.9C9.22 4.788 9.825 5.696 10.075 6.56c.344 1.193.03 2.298-.932 3.283l-.004.005-1.041 1.049c.369.655 1.18 1.93 2.557 3.307l.102.102c1.387 1.386 2.654 2.192 3.307 2.559l1.05-1.042a.472.472 0 0 1 .004-.005c.986-.963 2.09-1.276 3.283-.931.865.25 1.773.853 2.857 1.897.553.534.873 1.251.9 2.02a2.938 2.938 0 0 1-.753 2.077l-.02.023a.753.753 0 0 1-.028.03c-1.13 1.13-2.709 1.727-4.567 1.727z" id="a"/></defs><g transform="translate(-2.196 -2.5)" fill="none" fill-rule="evenodd"><mask id="b" fill="#fff"><use xlink:href="#a"/></mask><use fill="#000" fill-rule="nonzero" xlink:href="#a"/><g mask="url(#b)" fill="#A8201A"><path d="M.02.162h25.005v25.004H.02z"/></g></g></svg>