<?xml version="1.0" encoding="UTF-8"?>
<svg width="20px" height="21px" viewBox="0 0 20 21" version="1.1" xmlns="http://www.w3.org/2000/svg" xmlns:xlink="http://www.w3.org/1999/xlink">
    <!-- Generator: Sketch 58 (84663) - https://sketch.com -->
    <title>icon/phone copy</title>
    <desc>Created with Sketch.</desc>
    <defs>
        <path d="M16.7896365,22.6605079 C16.7751297,22.6605079 16.7606616,22.6605079 16.746116,22.6605079 C15.3767311,22.6535648 13.8846586,22.306021 12.3113244,21.6273795 C11.9178939,21.4576804 11.7365583,21.0012187 11.9062574,20.6077882 C12.0759178,20.2143577 12.5323794,20.0329445 12.9258487,20.2027212 C14.2870104,20.7898221 15.6107026,21.1031934 16.7538736,21.1088953 C16.7656653,21.1089729 16.7774958,21.1089729 16.7892486,21.1089729 C18.2194149,21.1089729 19.4133599,20.6743879 20.2453706,19.8509494 L20.2508398,19.8448596 C20.7568729,19.2810706 20.726075,18.4273384 20.180594,17.901368 C18.0976194,15.8927895 17.1142564,16.0384398 16.2040872,16.9260343 L14.7554964,18.3638418 C14.5282741,18.5893575 14.1858503,18.6521946 13.893386,18.5219045 C13.8113873,18.4854046 11.8597889,17.6022708 9.66056552,15.4030086 L9.55847451,15.301034 C7.35894079,13.1015003 6.47584581,11.1499407 6.43930715,11.067942 C6.30905578,10.7754777 6.37185417,10.4330539 6.59736979,10.2058316 L8.03544888,8.7569693 C8.92292695,7.8468776 9.06838336,6.86355345 7.0598824,4.78069518 C6.53391201,4.23525302 5.68017982,4.20445504 5.1162744,4.71056579 L5.11033978,4.71591859 C4.28011335,5.55475603 3.84517928,6.76157881 3.85239391,8.20745436 C3.86631894,10.9945156 5.44636349,14.2311342 8.07951247,16.8673087 C8.08195614,16.8696748 8.08436102,16.8720796 8.0867659,16.8744845 C8.58957963,17.3772982 9.16384156,17.8770865 9.79360965,18.3599242 C10.1336286,18.6206209 10.1979009,19.1075702 9.93720422,19.4475891 C9.67646875,19.787608 9.18951946,19.8518416 8.84953934,19.5911837 C8.1691912,19.0695188 7.54597834,18.5271409 6.99712281,17.9790223 C6.99464035,17.9765787 6.99211911,17.974135 6.98967544,17.9716525 C4.06960883,15.0517023 2.31680085,11.4044312 2.3007886,8.21525082 C2.29151083,6.33781579 2.88846395,4.74353591 4.02729071,3.60478673 C4.03710417,3.59497327 4.04718914,3.58539254 4.05754564,3.57612212 L4.07981017,3.55610732 C4.65197752,3.04254921 5.3899264,2.77514213 6.158169,2.80275946 C6.92629523,2.83045436 7.64318202,3.15045847 8.17675493,3.70377467 C9.22148109,4.78717283 9.82452399,5.69489844 10.0746314,6.5603835 C10.419305,7.75308731 10.1058561,8.85770271 9.14308978,9.84347053 C9.14161582,9.84498328 9.14014186,9.84645724 9.13870669,9.8479312 L8.09762664,10.8968077 C8.46673684,11.5515943 9.27803454,12.8264131 10.6552934,14.203672 L10.7573845,14.3056854 C12.1438362,15.6921372 13.4114404,16.498276 14.0635118,16.8645935 L15.113358,15.8225437 C15.114832,15.8210698 15.1163447,15.8195958 15.1178187,15.8181606 C16.1036253,14.8553555 17.2081631,14.5419454 18.4009057,14.886619 C19.2664296,15.1367264 20.1741164,15.7398081 21.2575145,16.7844955 C21.8108307,17.3180684 22.1307961,18.0349552 22.1585297,18.8031202 C22.1862634,19.5712852 21.91874,20.3093505 21.4052982,20.8813627 L21.3851671,20.9037436 C21.3758967,20.9141001 21.3663547,20.9241462 21.3565025,20.9339985 C20.2266358,22.0639815 18.6481428,22.6605079 16.7896365,22.6605079 Z" id="path-1"></path>
    </defs>
    <g id="Desktop-(XL)" stroke="none" stroke-width="1" fill="none" fill-rule="evenodd">
        <g id="contact-us" transform="translate(-998.000000, -916.000000)">
            <g id="section-3" transform="translate(272.000000, 770.000000)">
                <g id="email-copy" transform="translate(723.804214, 139.000000)">
                    <g id="icon/phone" transform="translate(0.000000, 4.500000)">
                        <mask id="mask-2" fill="white">
                            <use xlink:href="#path-1"></use>
                        </mask>
                        <use id="Mask" fill="#000000" fill-rule="nonzero" xlink:href="#path-1"></use>
                        <g id="color/maroon-secondary" mask="url(#mask-2)" fill="#A8201A" fill-rule="evenodd">
                            <g transform="translate(0.020508, 0.162109)" id="Rectangle">
                                <rect x="0" y="0" width="25.0037386" height="25.0037386"></rect>
                            </g>
                        </g>
                    </g>
                </g>
            </g>
        </g>
    </g>
</svg>