<?xml version="1.0" encoding="utf-8"?>
<!-- Generator: Adobe Illustrator 23.0.0, SVG Export Plug-In . SVG Version: 6.00 Build 0)  -->
<svg version="1.1" id="Шар_1" xmlns="http://www.w3.org/2000/svg" xmlns:xlink="http://www.w3.org/1999/xlink" x="0px" y="0px"
	 viewBox="0 0 45 45" style="enable-background:new 0 0 45 45;" xml:space="preserve">
<path d="M44.5,37.9v4.4h-1.5v2.2h-1.5v-2.2H15.2v2.2h-1.5v-2.2h-1.5v-4.4H44.5z M39.2,22.5c0.4,0,0.9,0.2,1.1,0.5
	c0.2,0.3,0.4,0.7,0.3,1.1l0,0.1L38,36c-0.1,0.6-0.7,1.1-1.3,1.1l-0.1,0H13l-4.3-4.6l1.1-1l3.8,4.2h3.2c0-0.1,0.3-1.3,0.3-1.5l0,0
	h-2.5l-4.1-4.4H5.6c-2,0-3.6,1.5-3.7,3.5l0,0.2v9.6H10v-6.6h1.5v8.1h-11v-11c0-2.8,2.2-5,4.9-5.1l0.2,0h5.5l4.1,4.4h2.2l2-9.1
	c0.1-0.6,0.7-1.1,1.3-1.1l0.1,0H39.2z M43.1,39.4H13.7v1.5h29.4V39.4z M39.2,24H20.9l-2.6,11.8h18.3L39.2,24z M7.1,20.3
	c2,0,3.7,1.6,3.7,3.7c0,2-1.6,3.7-3.7,3.7c-2,0-3.7-1.6-3.7-3.7S5,20.3,7.1,20.3z M7.1,21.8c-1.2,0-2.2,1-2.2,2.2
	c0,1.2,1,2.2,2.2,2.2s2.2-1,2.2-2.2C9.3,22.8,8.3,21.8,7.1,21.8z M36.5,0.5c2,0,3.7,1.6,3.7,3.7v10.3c0,2-1.6,3.7-3.7,3.7H20.6
	l-8.3,6.7v-6.7H8.5c-2,0-3.7-1.6-3.7-3.7V4.1c0-2,1.6-3.7,3.7-3.7H36.5z M36.5,1.9H8.5c-1.2,0-2.2,1-2.2,2.2v10.3
	c0,1.2,1,2.2,2.2,2.2h5.1v5.1l6.4-5.1h16.4c1.2,0,2.2-1,2.2-2.2V4.1C38.7,2.9,37.7,1.9,36.5,1.9z M15.2,11.5v1.5h-1.5v-1.5H15.2z
	 M31.3,11.5v1.5H16.6v-1.5H31.3z M15.2,8.5V10h-1.5V8.5H15.2z M31.3,8.5V10H16.6V8.5H31.3z M15.2,5.6v1.5h-1.5V5.6H15.2z M31.3,5.6
	v1.5H16.6V5.6H31.3z"/>
</svg>
