<svg xmlns="http://www.w3.org/2000/svg" viewBox="0 0 48 47"><path d="M24.7.4v11.9H44v.1c1.6.3 2.9 1.7 3 3.4v22.5c0 2-1.6 3.6-3.5 3.7h-9.9v3h3v1.5H11.4V45h3v-3H4.7c-2 0-3.6-1.6-3.7-3.5V16.1c0-1.7 1.2-3.2 2.8-3.6H4V.5h20.7zm7.5 41.7H15.8v3h16.4v-3zm13.4-6H2.4v2.2c0 1.2.9 2.1 2.1 2.2h38.9c1.2 0 2.1-.9 2.2-2.1v-2.3zM6.9 37.6v1.5H5.4v-1.5h1.5zm3 0v1.5H8.4v-1.5h1.5zm2.9 0v1.5h-1.5v-1.5h1.5zM44.1 14v19.2H23.3V21.3H3.9V14c-.8.3-1.4 1-1.5 1.9v18.8h43.1V16.1c.1-1-.6-1.8-1.4-2.1zm-27.5 8.2v3.5h3.7v7.4H5.4v-7.4h5l6.2-3.5zm26-8.4H24.7v17.9h17.9V13.8zm-27.5 11l-4.3 2.4H6.9v4.5h11.9v-4.5h-3.7v-2.4zm18.7-9.5h.2c1.8.2 3.3 1.7 3.4 3.7v1.5c0 1.1-.5 2.1-1.3 2.8l-.2.1v.2l2.5.7c1.5.4 2.6 1.8 2.7 3.4v2.4H26.2V28c0-1.6 1-3 2.5-3.5l.2-.1 2.5-.7v-.2c-.9-.7-1.4-1.7-1.5-2.7V19c0-1 .4-2 1.2-2.7.7-.6 1.5-.9 2.4-1h.3zM17.3 28.7v1.5H8.4v-1.5h8.9zm14.9-11.3c-.4.4-.7.9-.7 1.5v1.7c0 .7.4 1.4 1 1.8l.1.1.4.2v2.1l-3.6 1c-.9.3-1.5 1.1-1.6 2v.9h11.9V28c0-.9-.6-1.8-1.5-2.1l-.2-.1-3.6-1v-2.1l.4-.2c.6-.4 1.1-1 1.1-1.8v-1.5c0-1.2-.9-2.3-2-2.4-.7 0-1.3.2-1.7.6zM23.3 1.9H5.4v17.9h17.9V1.9zm-8.9 1.5h.2c1.8.2 3.3 1.7 3.4 3.7v1.5c0 1.1-.5 2.1-1.3 2.8l-.2.1v.2l2.5.7c1.5.4 2.6 1.8 2.7 3.4v2.4H6.9V16c0-1.6 1-3 2.5-3.5l.2-.1 2.5-.7v-.2c-.9-.7-1.4-1.7-1.5-2.7V7.1c0-1 .4-2 1.2-2.7.7-.6 1.5-.9 2.4-1h.2zm-1.6 2.1c-.4.4-.7.9-.7 1.5v1.7c0 .7.4 1.4 1 1.8l.1.1.4.2v2.1l-3.6 1c-.9.3-1.5 1.1-1.6 2v.9h11.9v-.7c0-.9-.6-1.8-1.5-2.1l-.2-.1-3.6-1v-2.1l.4-.2c.6-.4 1.1-1 1.1-1.8V7.3c0-1.2-.9-2.3-2-2.4-.6 0-1.2.2-1.7.6zM42.6.4v7.4h-5l-6.1 3.5V7.9h-3.7V.4h14.8zm-1.5 1.5H29.2v4.5h3.7v2.4l4.3-2.4h3.9V1.9zm-1.5 1.5v1.5h-8.9V3.4h8.9z"/></svg>