<?xml version="1.0" encoding="utf-8"?>
<!-- Generator: Adobe Illustrator 23.0.0, SVG Export Plug-In . SVG Version: 6.00 Build 0)  -->
<svg version="1.1" id="Шар_1" xmlns="http://www.w3.org/2000/svg" xmlns:xlink="http://www.w3.org/1999/xlink" x="0px" y="0px"
	 viewBox="0 0 48 47" style="enable-background:new 0 0 48 47;" xml:space="preserve">
<path d="M24.7,0.4v11.9h19.3v0.1c1.6,0.3,2.9,1.7,3,3.4l0,0.2v22.3c0,2-1.6,3.6-3.5,3.7l-0.2,0h-9.7v3h3v1.5H11.4v-1.5h3v-3H4.7
	c-2,0-3.6-1.6-3.7-3.5l0-0.2V16.1c0-1.7,1.2-3.2,2.8-3.6l0.2,0v-12H24.7z M32.2,42.1H15.8v3h16.4V42.1z M45.6,36.1H2.4v2.2
	c0,1.2,0.9,2.1,2.1,2.2l0.2,0h38.7c1.2,0,2.1-0.9,2.2-2.1l0-0.2V36.1z M6.9,37.6v1.5H5.4v-1.5H6.9z M9.9,37.6v1.5H8.4v-1.5H9.9z
	 M12.8,37.6v1.5h-1.5v-1.5H12.8z M44.1,14v19.2H23.3V21.3H3.9V14c-0.8,0.3-1.4,1-1.5,1.9l0,0.2v18.6h43.1V16.1
	C45.6,15.1,44.9,14.3,44.1,14z M16.6,22.2v3.5h3.7v7.4H5.4v-7.4h5L16.6,22.2z M42.6,13.8H24.7v17.9h17.9V13.8z M15.1,24.8l-4.3,2.4
	H6.9v4.5h11.9v-4.5h-3.7V24.8z M33.8,15.3l0.2,0c1.8,0.2,3.3,1.7,3.4,3.7l0,0.2v1.3c0,1.1-0.5,2.1-1.3,2.8l-0.2,0.1v0.2l2.5,0.7
	c1.5,0.4,2.6,1.8,2.7,3.4l0,0.2v2.2H26.2V28c0-1.6,1-3,2.5-3.5l0.2-0.1l2.5-0.7v-0.2c-0.9-0.7-1.4-1.7-1.5-2.7l0-0.2V19
	c0-1,0.4-2,1.2-2.7c0.7-0.6,1.5-0.9,2.4-1L33.8,15.3z M17.3,28.7v1.5H8.4v-1.5H17.3z M32.2,17.4c-0.4,0.4-0.7,0.9-0.7,1.5l0,0.2v1.5
	c0,0.7,0.4,1.4,1,1.8l0.1,0.1l0.4,0.2v2.1l-3.6,1c-0.9,0.3-1.5,1.1-1.6,2l0,0.2v0.7h11.9V28c0-0.9-0.6-1.8-1.5-2.1L38,25.8l-3.6-1
	v-2.1l0.4-0.2c0.6-0.4,1.1-1,1.1-1.8l0-0.2v-1.3c0-1.2-0.9-2.3-2-2.4C33.2,16.8,32.6,17,32.2,17.4z M23.3,1.9H5.4v17.9h17.9V1.9z
	 M14.4,3.4l0.2,0c1.8,0.2,3.3,1.7,3.4,3.7l0,0.2v1.3c0,1.1-0.5,2.1-1.3,2.8l-0.2,0.1v0.2l2.5,0.7c1.5,0.4,2.6,1.8,2.7,3.4l0,0.2v2.2
	H6.9v-2.2c0-1.6,1-3,2.5-3.5l0.2-0.1l2.5-0.7v-0.2c-0.9-0.7-1.4-1.7-1.5-2.7l0-0.2V7.1c0-1,0.4-2,1.2-2.7c0.7-0.6,1.5-0.9,2.4-1
	L14.4,3.4z M12.8,5.5c-0.4,0.4-0.7,0.9-0.7,1.5l0,0.2v1.5c0,0.7,0.4,1.4,1,1.8l0.1,0.1l0.4,0.2v2.1l-3.6,1c-0.9,0.3-1.5,1.1-1.6,2
	l0,0.2v0.7h11.9v-0.7c0-0.9-0.6-1.8-1.5-2.1l-0.2-0.1l-3.6-1v-2.1l0.4-0.2c0.6-0.4,1.1-1,1.1-1.8l0-0.2V7.3c0-1.2-0.9-2.3-2-2.4
	C13.9,4.9,13.3,5.1,12.8,5.5z M42.6,0.4v7.4h-5l-6.1,3.5V7.9h-3.7V0.4H42.6z M41.1,1.9H29.2v4.5h3.7v2.4l4.3-2.4h3.9V1.9z M39.6,3.4
	v1.5h-8.9V3.4H39.6z"/>
</svg>
