<svg xmlns="http://www.w3.org/2000/svg" viewBox="0 0 45 45"><path d="M44.5 37.9v4.4H43v2.2h-1.5v-2.2H15.2v2.2h-1.5v-2.2h-1.5v-4.4h32.3zm-5.3-15.4c.4 0 .9.2 1.1.5.2.3.4.7.3 1.1v.1L38 36c-.1.6-.7 1.1-1.3 1.1H13l-4.3-4.6 1.1-1 3.8 4.2h3.2c0-.1.3-1.3.3-1.5h-2.5l-4.1-4.4H5.6c-2 0-3.6 1.5-3.7 3.5v9.8H10v-6.6h1.5v8.1H.5v-11c0-2.8 2.2-5 4.9-5.1h5.7l4.1 4.4h2.2l2-9.1c.1-.6.7-1.1 1.3-1.1h18.5zm3.9 16.9H13.7v1.5h29.4v-1.5zM39.2 24H20.9l-2.6 11.8h18.3L39.2 24zM7.1 20.3c2 0 3.7 1.6 3.7 3.7 0 2-1.6 3.7-3.7 3.7-2 0-3.7-1.6-3.7-3.7s1.6-3.7 3.7-3.7zm0 1.5c-1.2 0-2.2 1-2.2 2.2 0 1.2 1 2.2 2.2 2.2s2.2-1 2.2-2.2c0-1.2-1-2.2-2.2-2.2zM36.5.5c2 0 3.7 1.6 3.7 3.7v10.3c0 2-1.6 3.7-3.7 3.7H20.6l-8.3 6.7v-6.7H8.5c-2 0-3.7-1.6-3.7-3.7V4.1c0-2 1.6-3.7 3.7-3.7h28zm0 1.4h-28c-1.2 0-2.2 1-2.2 2.2v10.3c0 1.2 1 2.2 2.2 2.2h5.1v5.1l6.4-5.1h16.4c1.2 0 2.2-1 2.2-2.2V4.1c.1-1.2-.9-2.2-2.1-2.2zm-21.3 9.6V13h-1.5v-1.5h1.5zm16.1 0V13H16.6v-1.5h14.7zm-16.1-3V10h-1.5V8.5h1.5zm16.1 0V10H16.6V8.5h14.7zM15.2 5.6v1.5h-1.5V5.6h1.5zm16.1 0v1.5H16.6V5.6h14.7z"/></svg>