<?xml version="1.0" encoding="utf-8"?>
<!-- Generator: Adobe Illustrator 23.0.0, SVG Export Plug-In . SVG Version: 6.00 Build 0)  -->
<svg version="1.1" id="Шар_1" xmlns="http://www.w3.org/2000/svg" xmlns:xlink="http://www.w3.org/1999/xlink" x="0px" y="0px"
	 viewBox="0 0 18 18" style="enable-background:new 0 0 18 18;" xml:space="preserve">
<path fill="#A8201A" d="M14,0.8l-1.4,1.4L14,3.7h-3.9l4.5,3.8l-0.6,0.7l-0.6-0.5v1.7h3.9v7.7H0.8V9.5h3.9V7.7L4.1,8.2L3.5,7.5l5-4.3V0.8H14z
	 M10.4,13.3h-1v2.9h1V13.3z M8.5,13.3h-1v2.9h1V13.3z M16.2,10.4h-2.9v5.8h2.9V10.4z M9,4L5.6,6.9v9.3h1v-3.5c0-1.2,0.6-2.3,1.7-2.9
	l0.2-0.1L9,9.4l0.5,0.3c1.1,0.5,1.8,1.6,1.8,2.8l0,0.2v3.5h1V6.9L9,4z M4.7,10.4H1.8v5.8h2.9V10.4z M3.7,14.3v1h-1v-1H3.7z
	 M15.2,14.3v1h-1v-1H15.2z M3.7,12.4v1h-1v-1H3.7z M15.2,12.4v1h-1v-1H15.2z M9,10.5c0,0-1.1,0.4-1.4,1.7l0,0.2h2.8
	C10.2,11,9,10.5,9,10.5z M9,5.6c0.8,0,1.4,0.6,1.4,1.4S9.8,8.5,9,8.5S7.6,7.9,7.6,7.1S8.2,5.6,9,5.6z M9,6.6c-0.3,0-0.5,0.2-0.5,0.5
	S8.7,7.6,9,7.6s0.5-0.2,0.5-0.5S9.3,6.6,9,6.6z M11.7,1.8H9.5v1h2.2l-0.5-0.5L11.7,1.8z"/>
</svg>
