<?xml version="1.0" encoding="utf-8"?>
<!-- Generator: Adobe Illustrator 23.0.0, SVG Export Plug-In . SVG Version: 6.00 Build 0)  -->
<svg version="1.1" id="Шар_1" xmlns="http://www.w3.org/2000/svg" xmlns:xlink="http://www.w3.org/1999/xlink" x="0px" y="0px"
	 viewBox="0 0 50 50" style="enable-background:new 0 0 50 50;" xml:space="preserve">
<style type="text/css">
	.st0{fill:#A8201A;}
</style>
<path class="st0" d="M21.3,43.2v-1.6l0.8,0l0,0h15.4v-3.4c0-2.5-1.7-4.7-4.1-5.4l0,0L28,31.3l-2.6,2.3c-0.2,0.1-0.3,0.2-0.5,0.2
	c-0.2,0-0.4-0.1-0.5-0.2l0,0l-2.6-2.3l-5.3,1.5c-2.4,0.7-4.1,2.9-4.1,5.4l0,0v3.4h6c0,0,0,0,0,0l0,0h0.8v1.6h-0.8l0,0l0,0h-6.8
	c-0.4,0-0.8-0.4-0.8-0.8l0,0v-4.2c0-3.2,2.2-6.1,5.3-6.9l0,0l5.2-1.4v-2.4c-2.2-1.2-3.7-3.4-3.9-6l0,0H16c-1,0-1.9-0.8-1.9-1.9l0,0
	v-1.9c0-1,0.8-1.9,1.9-1.9l0,0h1.3v-2.8c0-3.4,2.8-6.1,6.1-6.1l0,0h3c1.4,0,2.5,0.9,2.8,2.2c0.1,0,0.2,0,0.4,0
	c1.6,0,2.9,1.3,2.9,2.9l0,0v3.9h1.3c1,0,1.9,0.8,1.9,1.9l0,0v1.9c0,1-0.8,1.9-1.9,1.9l0,0h-1.4c-0.2,2.6-1.8,4.8-3.9,6l0,0v2.4
	l5.3,1.4c3.1,0.9,5.3,3.7,5.3,6.9l0,0v4.2c0,0.4-0.4,0.8-0.8,0.8l0,0H21.3z M27,28.1c-0.7,0.2-1.4,0.3-2.1,0.3s-1.4-0.1-2.1-0.3l0,0
	v2l2.1,1.8l2.1-1.8V28.1z M28.6,16.5c-0.5,0.6-1.3,0.9-2.1,0.9l0,0h-7.5v3.4c0,3.3,2.7,6,6,6s6-2.7,6-6l0,0v-3.4h-0.3
	C29.9,17.4,29.1,17,28.6,16.5z M33.9,17.4h-1.3v2.5h1.3c0.1,0,0.3-0.1,0.3-0.3l0,0v-1.9C34.2,17.5,34.1,17.4,33.9,17.4L33.9,17.4z
	 M17.3,17.4H16c-0.1,0-0.3,0.1-0.3,0.3l0,0v1.9c0,0.1,0.1,0.3,0.3,0.3l0,0h1.3V17.4z M29.6,10.6c-0.1,0-0.3,0.1-0.3,0.3l0,0v3.6
	c0,0.7,0.6,1.3,1.3,1.3l0,0H31v-3.9C31,11.1,30.4,10.6,29.6,10.6z M26.4,8.4h-3c-2.5,0-4.5,2-4.5,4.5l0,0v2.8h7.5
	c0.7,0,1.3-0.6,1.3-1.3l0,0V9.8C27.8,9,27.2,8.4,26.4,8.4L26.4,8.4z"/>
</svg>
