<svg id="Шар_1" xmlns="http://www.w3.org/2000/svg" viewBox="0 0 50 50"><style>.st0{fill:#a8201a}</style><path class="st0" d="M21.3 43.2v-1.6h16.2v-3.4c0-2.5-1.7-4.7-4.1-5.4L28 31.3l-2.6 2.3c-.2.1-.3.2-.5.2s-.4-.1-.5-.2l-2.6-2.3-5.3 1.5c-2.4.7-4.1 2.9-4.1 5.4v3.4h6.8v1.6h-7.6c-.4 0-.8-.4-.8-.8v-4.2c0-3.2 2.2-6.1 5.3-6.9l5.2-1.4v-2.4c-2.2-1.2-3.7-3.4-3.9-6H16c-1 0-1.9-.8-1.9-1.9v-1.9c0-1 .8-1.9 1.9-1.9h1.3V13c0-3.4 2.8-6.1 6.1-6.1h3c1.4 0 2.5.9 2.8 2.2h.4c1.6 0 2.9 1.3 2.9 2.9v3.9h1.3c1 0 1.9.8 1.9 1.9v1.9c0 1-.8 1.9-1.9 1.9h-1.4c-.2 2.6-1.8 4.8-3.9 6V30l5.3 1.4c3.1.9 5.3 3.7 5.3 6.9v4.2c0 .4-.4.8-.8.8h-17zM27 28.1c-.7.2-1.4.3-2.1.3s-1.4-.1-2.1-.3v2l2.1 1.8 2.1-1.8v-2zm1.6-11.6c-.5.6-1.3.9-2.1.9H19v3.4c0 3.3 2.7 6 6 6s6-2.7 6-6v-3.4h-.3c-.8 0-1.6-.4-2.1-.9zm5.3.9h-1.3v2.5h1.3c.1 0 .3-.1.3-.3v-1.9c0-.2-.1-.3-.3-.3zm-16.6 0H16c-.1 0-.3.1-.3.3v1.9c0 .1.1.3.3.3h1.3v-2.5zm12.3-6.8c-.1 0-.3.1-.3.3v3.6c0 .7.6 1.3 1.3 1.3h.4v-3.9c0-.8-.6-1.3-1.4-1.3zm-3.2-2.2h-3c-2.5 0-4.5 2-4.5 4.5v2.8h7.5c.7 0 1.3-.6 1.3-1.3V9.8c.1-.8-.5-1.4-1.3-1.4z"/></svg>