<?xml version="1.0" encoding="utf-8"?>
<!-- Generator: Adobe Illustrator 19.0.1, SVG Export Plug-In . SVG Version: 6.00 Build 0)  -->
<svg version="1.1" id="Шар_1" xmlns="http://www.w3.org/2000/svg" xmlns:xlink="http://www.w3.org/1999/xlink" x="0px" y="0px"
	 viewBox="-21 -19 76 58" style="enable-background:new -21 -19 76 58;" xml:space="preserve">
<style type="text/css">
	.st0{fill:#524EAC;}
	.st1{fill:none;stroke:#282828;stroke-width:2;stroke-linecap:round;stroke-linejoin:round;}
	.st2{fill:#524EAC;stroke:#282828;stroke-width:2;}
	.st3{fill:#282828;}
</style>
<title>text</title>
<circle id="Oval-4" class="st0" cx="22" cy="16" r="23"/>
<path id="Rectangle-5" class="st1" d="M-2,16h-6c-1.1,0-1.9-0.8-2-1.9v-30.2c0.1-1.1,0.9-1.9,2-1.9h42c1.1,0,1.9,0.8,2,1.9v4.8"/>
<path id="Path-3-Copy-9" class="st1" d="M1,16h3"/>
<path id="Combined-Shape" class="st1" d="M46.1,26.4c3.5-3.8,5.4-8.8,5.4-14c0-11.7-9.8-21.2-22-21.2s-22,9.5-22,21.2
	s9.8,21.2,22,21.2c3.6,0,7.2-0.9,10.4-2.5c2.4,1.7,5.3,2.6,8.2,2.6C50.5,33.8,45.7,30.9,46.1,26.4z"/>
<circle id="Oval-9" class="st2" cx="45" cy="-4" r="3"/>
<path id="Path-4" class="st1" d="M-6-14L9,2"/>
<path id="Path-4-Copy" class="st1" d="M32-14l-5,5"/>
<path id="Path-4-Copy-2" class="st1" d="M6.5-0.5L-6,12"/>
<g id="blink">
	<path id="Path-5" class="st1" d="M45-11v-2 M50.5-8.4L52-9.6 M51.8-2.5L53.7-2"/>
</g>
<g id="fartstreck">
	<g id="Lager_8">
		<path id="Path-3-Copy-6" class="st1" d="M-14-5h4"/>
	</g>
	<g id="Lager_10">
		<path id="Path-3-Copy-7" class="st1" d="M-16,3h8"/>
	</g>
	<g id="Lager_9">
		<path id="Path-3-Copy-8" class="st1" d="M-20-1h5"/>
	</g>
	<g id="Lager_12">
		<circle id="Oval-5-Copy" class="st3" cx="-17" cy="-5" r="1"/>
	</g>
</g>
<g id="text">
	<g id="Lager_16">
		<path id="Path-3" class="st1" d="M18,4h10"/>
	</g>
	<g id="Lager_15">
		<path id="Path-3-Copy" class="st1" d="M18,10h24"/>
	</g>
	<g id="Lager_14">
		<path id="Path-3-Copy-2" class="st1" d="M18,16h7.1"/>
	</g>
	<g id="Lager_13">
		<circle id="Oval-5" class="st3" cx="28" cy="16" r="1"/>
	</g>
	<g id="Lager_11">
		<path id="Path-3-Copy-4" class="st1" d="M31,16h4"/>
	</g>
	<g id="Lager_7">
		<path id="Path-3-Copy-5" class="st1" d="M38,16h4"/>
	</g>
	<g id="Lager_6">
		<path id="Path-3-Copy-3" class="st1" d="M18,22h14"/>
	</g>
</g>
</svg>
