<svg width="61" height="61" xmlns="http://www.w3.org/2000/svg"><path d="M60 30c0 16.542-13.458 30-30 30-16.542-.001-30-13.46-30-30.001C0 13.457 13.458 0 30 0s30 13.458 30 30zm-57.606-.001c0 15.22 12.383 27.606 27.606 27.607 15.222 0 27.606-12.384 27.606-27.606C57.606 14.778 45.222 2.394 30 2.394c-15.223 0-27.606 12.383-27.606 27.605zm24.663-8.681l-6.449 7.484h21.395a1.197 1.197 0 010 2.393H20.608l6.449 7.485a1.197 1.197 0 01-1.814 1.563l-8.826-10.244 8.826-10.244a1.196 1.196 0 111.814 1.563z" opacity=".3"/></svg>