<svg width="18" height="18" viewBox="0 0 18 18" xmlns="http://www.w3.org/2000/svg" xmlns:xlink="http://www.w3.org/1999/xlink"><title>Group 17 Copy 4</title><defs><path id="a" d="M0 0h17.775v17.781H0z"/></defs><g transform="matrix(-1 0 0 1 18 0)" fill="none" fill-rule="evenodd"><mask id="b" fill="#fff"><use xlink:href="#a"/></mask><path d="M5.944 6.853c-.008 2.771 2.177 4.992 4.913 4.995 2.679.003 4.922-2.199 4.929-4.838.007-2.798-2.157-5.006-4.913-5.012-2.696-.006-4.921 2.187-4.93 4.855zM0 16.366l5.31-5.306C4.048 9.265 3.644 7.306 4.176 5.185c.42-1.673 1.375-2.996 2.79-3.974 2.82-1.95 6.662-1.503 8.997 1.036 2.31 2.511 2.422 6.382.283 9.02a6.952 6.952 0 0 1-9.521 1.21l-5.307 5.304L0 16.366z" fill="#FFF" mask="url(#b)"/></g></svg>