<svg id="Слой_1" data-name="Слой 1" xmlns="http://www.w3.org/2000/svg" viewBox="0 0 274.95 277"><defs><style>.cls-1{fill:#fceb9e;stroke:#fcea9e;stroke-miterlimit:10;stroke-width:4px}</style></defs><title>иконка мейл</title><path class="cls-1" d="M305.72 112.06L185.65 15.79a12.83 12.83 0 0 0-15.58 0L50.71 112.08a51.15 51.15 0 0 0-4.71 3.84 12.13 12.13 0 0 0-3.26 8.24v149.9a12.12 12.12 0 0 0 12.1 12.1h246.78a12.12 12.12 0 0 0 12.1-12.1v-149.9a12 12 0 0 0-3.31-8.29 54 54 0 0 0-4.69-3.81zm2 162a5.5 5.5 0 0 1 0 .67c0 .37-1.17-.19-2.48-1.24l-90.68-72.71a2.32 2.32 0 0 1 0-3.79l90.6-72.64c1.3-1 2.47-1.52 2.54-1.05a6 6 0 0 1 .06.85v149.9zM181.87 20.51L301 116.06a2.32 2.32 0 0 1 0 3.79l-91.39 73.28a4 4 0 0 1-4.72 0l-19.26-15.44a12.83 12.83 0 0 0-15.58 0L151 193.08a3.92 3.92 0 0 1-4.71 0l-90.83-73.26a2.34 2.34 0 0 1 0-3.8l118.4-95.5a6.86 6.86 0 0 1 8.01-.01zm-133 254.2a5.64 5.64 0 0 1 0-.65v-149.9a5.88 5.88 0 0 1 .06-.86c.07-.47 1.24 0 2.54 1.05l90 72.62a2.34 2.34 0 0 1 0 3.8l-90.14 72.7c-1.33 1.04-2.42 1.61-2.46 1.25zM54 280c-.49-.09.17-1.07 1.47-2.12l118.42-95.51a6.86 6.86 0 0 1 8 0L301 277.93c1.3 1 2 2 1.49 2.1a5.19 5.19 0 0 1-.89.08H54.88A5.2 5.2 0 0 1 54 280z" transform="translate(-40.78 -11.17)"/><path class="cls-1" d="M179.84 158.25A51.34 51.34 0 0 0 218.16 141a2.9 2.9 0 0 0-.43-4.2 3.19 3.19 0 0 0-4.33.43 45 45 0 0 1-51.55 11.17 44.28 44.28 0 0 1-23.61-25A46.2 46.2 0 0 1 165.12 64a43.26 43.26 0 0 1 33.63 1.05c13.89 6.39 29.1 25 19.41 46.49-4.38 9.69-13.71 15.24-20.53 16.3-3 .46-5.42 0-6.48-1.16-2.33-2.6.9-11.89 6.26-27.3 1.23-3.54 2.59-7.45 4.06-11.79a3 3 0 0 0-.15-2.31 3.64 3.64 0 0 0-4.06-1.28 3 3 0 0 0-1.53 1.74l-1.34 3.93c-.54 1.58-1.28 1.53-1.89 0a14.68 14.68 0 0 0-7.63-8.4 13.42 13.42 0 0 0-5.48-1.14c-8.66 0-17.87 7.64-22.9 19a36.23 36.23 0 0 0-3.14 19.56c1 6.55 4.15 11.33 9 13.46a13.42 13.42 0 0 0 5.48 1.14c4.94 0 10-2.49 14.47-6.73 1.21-1.16 2-.81 2.48.8a8.51 8.51 0 0 0 1.91 3.47c2.51 2.8 6.74 3.9 11.91 3.09 8.38-1.3 19.81-8 25.12-19.78 11.4-25.23-6.23-47-22.39-54.48a49.29 49.29 0 0 0-38.33-1.3 52.25 52.25 0 0 0-30.39 67.12 50.47 50.47 0 0 0 47.23 32.77zm-12.05-31.08a7.42 7.42 0 0 1-3-.62c-2.85-1.26-4.77-4.39-5.43-8.81a30.16 30.16 0 0 1 2.64-16.23c4-8.92 11.26-15.4 17.37-15.4a7.42 7.42 0 0 1 3 .62c2.85 1.26 4.77 4.39 5.43 8.81a30.17 30.17 0 0 1-2.68 16.23c-3.92 8.92-11.23 15.4-17.34 15.4z" transform="translate(-40.78 -11.17)"/></svg>