<svg id="Слой_1" data-name="Слой 1" xmlns="http://www.w3.org/2000/svg" viewBox="0 0 313.49 274.24"><defs><style>.cls-1{fill:none;stroke:#fceb9e;stroke-miterlimit:10;stroke-width:10px}</style></defs><title>иконка карта</title><path class="cls-1" d="M196.33 157.08h52.78l59.38 92.36v19.8H5v-19.8l52.78-92.36h59.38"/><path class="cls-1" d="M177.95 64.4h.05a25.9 25.9 0 0 1 26.35 26.35 25.88 25.88 0 0 1-26.27 26.43h-.24a25.88 25.88 0 0 1-26.24-26.43 25.9 25.9 0 0 1 26.35-26.35z" transform="translate(-21.25 -12.88)"/><path class="cls-1" d="M178 17.88A72.09 72.09 0 0 1 250.08 90c0 17.23-2.53 29.16-12.32 44.82S178 223.08 178 223.08s-50-72.62-59.77-88.28-12.36-27.6-12.34-44.8A72.09 72.09 0 0 1 178 17.88z" transform="translate(-21.25 -12.88)"/></svg>