<svg id="Слой_1" data-name="Слой 1" xmlns="http://www.w3.org/2000/svg" viewBox="0 0 264.27 264.27"><defs><style>.cls-1{fill:#fceb9e}</style></defs><title>иконка тел</title><path class="cls-1" d="M221.32 282.14c-45.89 0-101.78-34.93-135.16-68.3C51.82 179.49 15.83 121.29 18 74.69c.93-20.34 9-36.93 23.85-49.33 10.86-9 34.86-7.46 37.56-7.26a4.64 4.64 0 0 1 3.91 2.8C96.83 52.69 113 91.6 113 96.42c0 1.68 0 6.81-22.57 29.37a4.59 4.59 0 0 1-.56.48c-.42.36-2.89 2.91 1.15 9a4.64 4.64 0 0 1 .6 1.29c3.71 13 59.83 69.32 71.48 71.73a4.7 4.7 0 0 1 1.62.68c6.56 4.36 9 1.18 9 1.15a4.74 4.74 0 0 1 .48-.56C196.77 187 201.89 187 203.58 187c4.83 0 43.73 16.16 75.52 29.72a4.64 4.64 0 0 1 2.8 3.91c.21 2.7 1.79 26.7-7.26 37.57-12.4 14.9-29 22.92-49.34 23.85-1.3.06-2.64.09-3.98.09zM72.8 27.15c-8 0-19.84 1-25.07 5.33C34.93 43.15 28 57.49 27.22 75.11c-2.14 46.77 38 104.67 65.5 132.16 26.8 26.79 82.44 65.59 128.54 65.59 1.21 0 2.42 0 3.62-.09 17.63-.8 32-7.7 42.63-20.52 4.92-5.91 5.51-20.61 5.28-28.14-30.08-12.8-63.13-26.3-69.06-27.76-3.42 1.51-14.24 11.05-22.77 19.56-2.8 3.49-10.28 7.75-20.7 1.21-17.47-5.29-71.59-61.57-77.32-77.27-6.65-10.48-2.37-18 1.13-20.84 8.58-8.6 18.21-19.52 19.59-22.85-1.1-4.9-14.81-38.46-27.8-69-.92.01-1.95-.01-3.06-.01z" transform="translate(-17.87 -17.86)"/></svg>